<svg width="25" height="24" viewBox="0 0 25 24" fill="none" xmlns="http://www.w3.org/2000/svg">
<path d="M18.2065 4H15.9565V2.75C15.9565 2.34 15.6165 2 15.2065 2C14.7965 2 14.4565 2.34 14.4565 2.75V21.25C14.4565 21.66 14.7965 22 15.2065 22C15.6165 22 15.9565 21.66 15.9565 21.25V20H18.2065C20.4165 20 22.2065 18.21 22.2065 16V8C22.2065 5.79 20.4165 4 18.2065 4Z" fill="#BF8BD5"/>
<path d="M6.70654 4C4.49654 4 2.70654 5.79 2.70654 8V16C2.70654 18.21 4.49654 20 6.70654 20H11.7065C12.2565 20 12.7065 19.55 12.7065 19V5C12.7065 4.45 12.2565 4 11.7065 4H6.70654ZM6.87654 12.38C6.82654 12.5 6.75654 12.61 6.66654 12.71C6.56654 12.8 6.45654 12.87 6.33654 12.92C6.21654 12.97 6.08654 13 5.95654 13C5.82654 13 5.69654 12.97 5.57654 12.92C5.45654 12.87 5.34654 12.8 5.24654 12.71C5.15654 12.61 5.08654 12.5 5.02654 12.38C4.97654 12.26 4.95654 12.13 4.95654 12C4.95654 11.74 5.06654 11.48 5.24654 11.29C5.29654 11.25 5.34654 11.21 5.39654 11.17C5.45654 11.13 5.51654 11.1 5.57654 11.08C5.63654 11.05 5.69654 11.03 5.75654 11.02C6.09654 10.95 6.43654 11.06 6.66654 11.29C6.84654 11.48 6.95654 11.74 6.95654 12C6.95654 12.13 6.92654 12.26 6.87654 12.38ZM10.3765 12.38C10.3265 12.5 10.2565 12.61 10.1665 12.71C10.0665 12.8 9.95654 12.87 9.83654 12.92C9.71654 12.97 9.58654 13 9.45654 13C9.32654 13 9.19654 12.97 9.07654 12.92C8.95654 12.87 8.84654 12.8 8.74654 12.71C8.55654 12.52 8.45654 12.27 8.45654 12C8.45654 11.87 8.48654 11.74 8.53654 11.62C8.58654 11.49 8.65654 11.39 8.74654 11.29C9.11654 10.92 9.78654 10.92 10.1665 11.29C10.3465 11.48 10.4565 11.74 10.4565 12C10.4565 12.13 10.4265 12.26 10.3765 12.38Z" fill="#BF8BD5"/>
</svg>
