<svg width="165" height="201" viewBox="0 0 165 201" fill="none" xmlns="http://www.w3.org/2000/svg">
<path d="M122.884 173.75C119.503 173.837 118.412 170.83 116.68 168.892C113.963 165.842 111.837 162.326 110.159 158.569C108.346 155.952 107.918 152.561 105.518 150.276C104.849 147.337 104.181 144.398 103.512 141.459C102.94 138.953 102.069 138.477 100.045 140.535C96.0337 144.61 92.2103 148.973 86.1312 150.218C84.6499 150.521 82.529 148.809 81.8028 150.82C80.1243 155.476 76.2095 155.673 72.3957 156.01C66.8649 156.496 61.4304 155.822 56.0968 154.211C55.4091 154.004 54.4856 154.572 53.6729 154.783L54.1538 156.034C53.3362 157.718 51.3981 159.036 52.4561 161.32C49.4407 163.432 48.0219 166.847 46.0212 169.7C43.6742 173.048 40.6876 175.645 37.8886 178.459C35.859 180.504 33.4111 182.134 31.1459 183.948C30.1407 183.712 29.1355 183.481 28.1304 183.245C29.8329 179.936 33.5698 178.782 35.7965 176.03C36.3784 175.886 37.1287 175.929 37.5231 175.573C41.6447 171.855 45.4345 167.862 47.6852 162.663C48.9934 160.171 50.3785 157.718 51.5568 155.168C51.8838 154.461 52.5571 153.119 51.0758 152.739C43.1067 150.675 36.2534 146.394 29.3712 142.108C24.8456 139.29 23.2152 134.402 25.3265 129.448C25.793 128.356 26.5577 126.773 24.4128 126.239C23.3691 123.459 22.3255 120.674 21.2867 117.894C19.0359 111.756 21.0703 105.777 22.1283 99.8216C23.0325 94.718 25.2784 89.7538 25.5381 84.6598C25.8556 78.3295 24.8312 71.9175 24.2156 65.5584C23.3355 56.4863 21.9167 47.4671 24.153 38.342C24.735 35.9754 26.678 33.8253 25.7209 31.1123C27.7985 30.0541 27.9044 28.0867 28.0246 26.1241C33.2908 18.7933 39.6584 12.6939 48.3297 9.7212C53.4805 7.95584 58.8477 6.78694 64.4074 6.8158C65.8742 6.82542 67.3507 6.0606 68.8176 5.65173C69.0436 5.86819 69.2696 6.26265 69.5004 6.26746C74.0838 6.3348 78.6719 6.35883 83.2601 6.3925C87.776 7.94139 92.4652 8.77357 97.0196 10.4283C102.478 12.4101 106.085 15.2818 108.706 20.2027C109.336 21.386 108.841 22.9205 110.428 23.8729C118.176 28.51 122.298 36.0957 125.626 44.023C128.102 49.9155 129.42 56.2842 129.935 62.6578C130.488 69.4931 129.69 76.2804 127.934 82.9858C126.448 88.6523 124.399 94.1071 121.648 99.1771C120.191 101.866 119.008 105.839 114.526 105.527C113.578 105.459 113.535 106.311 113.42 106.796C112.963 108.769 112.645 110.775 112.285 112.771C111.063 119.563 109.875 126.47 106.177 132.358C103.642 136.394 104.917 139.631 106.542 143.176C106.446 145.148 107.201 146.856 108.192 148.492C109.591 153.893 112.511 158.555 115.463 163.182C116.57 164.914 117.907 166.496 119.138 168.146C119.864 170.369 123.207 170.835 122.889 173.755L122.884 173.75ZM104.642 83.717C105.989 82.2836 105.821 80.6385 104.96 79.1473C104.431 78.2333 100.886 78.5748 99.4435 79.484C96.7118 79.1761 95.4662 80.2248 95.899 83.1061C96.0192 83.895 95.673 84.8089 95.3652 85.5929C93.302 90.7976 89.1659 93.5154 84.1065 95.4539C74.8581 98.9942 63.4359 92.6592 63.7774 81.9083C63.8832 78.5556 62.7385 77.6417 59.7423 78.1323C56.1112 78.724 51.6 77.5647 52.5908 84.3423C53.5093 90.6245 49.2483 94.641 43.7368 96.695C38.913 98.494 34.2383 97.4983 30.5303 93.6453C30.1503 93.2461 29.804 92.9478 29.453 93.097C29.0875 93.2509 28.7027 93.7463 28.6306 94.1456C28.2218 96.3486 32.151 101.909 34.4354 102.665C40.1778 104.565 46.1943 104.358 52.0954 105.017C53.2881 105.151 53.9422 105.671 54.6588 106.416C55.1542 106.931 54.63 107.114 54.4135 107.311C53.091 108.523 51.8982 110 50.3544 110.803C48.5076 111.765 49.4166 112.352 50.2775 113.108C51.9078 114.536 56.8807 113.853 57.8426 112.006C58.2754 111.179 58.9536 110.88 59.675 110.88C62.3393 110.871 64.9941 111.029 67.4036 109.476C67.9326 109.134 68.8704 109.178 69.2889 109.995C69.7217 110.847 68.9041 110.948 68.4713 111.361C66.9948 112.776 65.0662 112.853 63.2579 113.242C62.5798 113.387 61.8728 113.468 61.868 114.209C61.8632 114.955 62.5461 115.147 63.2483 115.142C66.6918 115.128 70.1401 115.128 73.5836 115.133C74.733 115.133 75.5795 114.358 75.9546 113.55C76.2624 112.881 75.7238 112.006 75.0697 111.251C72.0591 107.768 68.0048 107.316 63.8351 106.96C62.1326 106.816 59.1989 107.855 59.0931 105.594C58.9343 102.28 61.6853 104.93 63.0319 104.675C70.1113 103.348 76.7337 105.95 83.361 107.807C87.7424 109.033 94.9179 107.48 97.8276 103.92C102.632 98.0515 103.479 90.8265 104.647 83.7218L104.642 83.717ZM27.6206 67.1169C27.6206 67.1169 27.6495 67.1169 27.6639 67.1169C27.6639 70.6428 27.0098 74.3226 27.813 77.6561C29.1259 83.0964 28.0631 89.5037 34.1517 93.3086C37.7395 95.5501 45.4729 94.4775 47.9257 90.9949C51.172 86.3963 50.5612 81.7207 49.1184 76.8816C48.9068 76.1745 48.5172 75.5011 49.0415 74.9191C49.2579 74.6786 50.1765 74.6449 50.3544 74.8614C52.1579 77.1125 54.7646 76.5161 56.7749 76.0687C59.7279 75.4145 63.2387 76.9875 65.6818 74.0099C66.1387 73.4519 65.7636 71.6385 67.3603 72.514C68.7887 73.2932 67.9374 74.4525 67.5142 75.4097C64.9748 81.0762 65.6674 86.2135 70.0391 90.7062C73.396 94.1552 77.8014 93.7848 81.9759 93.4674C89.1419 92.9238 97.6207 84.2798 91.5032 75.7801C90.9646 75.0297 90.8444 74.3515 91.4889 73.7358C91.6812 73.553 92.5229 73.6395 92.6383 73.8416C95.0959 78.1708 98.9866 76.9586 102.781 76.7422C105.013 76.6171 105.672 75.7368 105.662 73.7646C105.643 69.2767 105.652 64.7887 105.676 60.3008C105.686 58.6701 105.027 57.6455 103.329 57.4868C95.572 56.7508 90.3587 48.2848 88.709 42.2961C87.954 39.5543 88.1415 36.0957 86.4919 34.1524C83.0629 30.1118 77.662 29.1305 72.7276 27.6249C68.4953 26.3358 63.4984 28.6398 59.7856 24.7676C58.9343 23.8777 57.6021 24.1471 56.4142 24.4886C51.8549 25.797 47.0119 28.3319 42.5633 25.8884C38.9274 23.8921 37.6481 24.2336 35.6763 27.7066C30.5687 36.7018 29.0586 46.6013 27.6928 56.5488C27.2166 60.0074 27.6158 63.591 27.6158 67.1169H27.6206ZM120.436 83.236C121.196 80.2392 119.729 77.1077 116.536 75.9917C113.689 74.996 110.178 75.0201 108.081 78.5412C107.687 79.2002 107.47 79.7533 107.509 80.3835C107.571 81.4177 108.466 80.9222 109.004 81.004C110.885 81.2974 112.746 81.6389 114.189 83.0098C117.31 85.9633 115.564 90.9035 110.702 93.5106C109.918 93.9339 107.581 93.4673 108.495 95.3481C109.178 96.7527 110.851 97.6426 112.737 97.1856C117.411 96.0552 120.441 90.8361 120.441 83.236H120.436ZM105.171 90.6341C106.047 91.1151 104.575 92.5437 106.417 92.1589C109.673 91.4759 112.982 90.6197 113.554 86.8292C113.881 84.6502 111.832 83.8661 109.788 83.9094C104.825 84.0152 107.211 88.6619 105.167 90.6341H105.171Z" fill="#0C0A0A"/>
<path d="M83.255 6.39262C78.6669 6.35895 74.0835 6.33974 69.4954 6.26758C69.2645 6.26758 69.0385 5.86832 68.8125 5.65186C74.0066 4.1655 79.1622 2.54925 84.39 1.22162C91.6618 -0.625505 98.77 0.942646 105.604 3.25156C113.818 6.02706 121.836 9.38458 128.554 15.1376C135.86 21.3957 141.371 29.1258 146.33 37.2407C149.004 41.6132 151.177 46.2983 153.481 50.8921C156.333 56.5826 158.074 62.6772 159.988 68.7284C163.494 79.8064 165.327 91.1634 163.807 102.641C162.234 114.507 159.911 126.278 154.179 137.135C148.311 148.237 139.395 153.162 127.111 151.392C121.788 150.627 116.627 148.737 111.399 147.337C110.029 146.972 108.432 145.817 108.201 148.501C107.206 146.861 106.455 145.153 106.547 143.181C107.456 142.941 108.466 142.32 109.264 142.527C114.775 143.965 120.326 145.327 125.698 147.183C132.844 149.651 144.695 145.572 148.845 139.323C154.13 131.358 156.814 122.353 158.68 113.286C160.888 102.568 161.186 91.6732 159.127 80.6241C157.184 70.1907 153.654 60.4596 149.331 50.9258C144.387 40.021 138.159 29.9195 129.67 21.3669C127.241 18.9233 124.928 16.2296 121.408 15.2146L120.364 14.1563C120.234 13.9639 120.152 13.6753 119.97 13.5839C112.015 9.53371 103.695 6.30606 95.0283 4.37235C91.1952 3.51613 86.7177 3.088 83.2646 6.40225L83.255 6.39262Z" fill="#BF8BD5"/>
<path d="M28.0192 26.1241C27.899 28.0867 27.7931 30.054 25.7155 31.1123C18.8381 35.4078 12.6581 40.5307 7.24758 46.5868C2.67388 51.7097 2.60655 58.2275 7.21873 60.8202C9.11842 61.8881 11.0999 62.8502 13.1198 63.6727C19.9106 66.4434 22.0508 74.7314 16.9769 78.8105C15.51 78.4305 15.0483 78.8538 14.8704 80.4989C14.5386 83.5774 16.0487 86.7762 14.2789 89.7442C13.8701 89.013 14.7117 87.5315 13.7017 87.5507C13.0525 87.5603 12.2686 89.0178 11.8213 89.9607C9.94563 93.9099 8.36815 98.0178 6.30012 101.861C4.48219 105.238 7.00231 112.319 10.7103 113.314C10.5468 115.104 10.3785 116.888 10.2101 118.678C3.08267 114.555 0.937705 103.136 5.74225 94.3235C9.40698 87.5988 13.418 80.9655 15.8275 73.6347C17.4338 68.7379 13.1871 67.9586 10.1284 66.655C1.80339 63.1147 -0.822528 60.8683 0.322098 52.234C0.90403 47.847 4.0253 44.2923 7.14176 41.031C12.6052 35.3164 19.0449 30.891 25.552 26.5089C26.4417 25.9124 27.2256 26.3982 28.0144 26.1288L28.0192 26.1241Z" fill="#BF8BD5"/>
<path d="M105.518 150.276C107.918 152.561 108.351 155.952 110.159 158.569C108.827 161.816 110.717 164.794 110.977 167.911C111.795 177.772 112.901 187.551 104.72 195.459C97.8523 202.097 88.1614 199.432 82.3277 193.968C77.5376 189.48 73.8055 184.131 69.5685 179.195C68.0824 177.464 67.4428 175.265 67.0676 173.014C68.6595 173.471 70.2514 173.933 71.8433 174.39C75.7677 181.836 80.606 188.272 87.9979 192.914C98.819 199.706 106.548 190.293 107.909 181.87C109.111 174.438 107.471 167.314 106.144 160.094C105.562 156.914 103.869 153.653 105.514 150.271L105.518 150.276Z" fill="#BF8BD5"/>
<path d="M10.2204 118.678C10.3887 116.888 10.5522 115.104 10.7206 113.314C10.6725 105.272 13.6447 97.6859 14.2843 89.7442C16.0541 86.7763 14.544 83.5823 14.8758 80.499C15.0538 78.8539 15.5155 78.4305 16.9823 78.8106C18.5646 88.3733 15.4674 97.4791 14.4286 106.792C14.0727 109.986 12.1778 113.237 13.7601 116.6C13.5677 117.889 13.0002 119.178 13.7601 120.462C13.8947 121.131 13.8755 121.886 14.1929 122.449C15.7512 125.2 18.8147 127.274 17.9827 131.079C17.5979 133.195 16.6409 135.364 18.5454 137.274C17.9009 140.882 20.8106 142.705 22.5949 144.995C25.8604 149.179 30.5736 151.657 34.7625 154.754C35.4454 155.26 36.5468 156.433 35.9216 157.318C35.2242 158.304 33.8776 158.141 32.7666 157.419C26.7021 153.465 20.8635 149.261 16.9102 142.989C16.2994 141.786 16.2802 140.208 14.7364 139.602C14.5825 136.259 13.7985 132.993 14.5344 129.549C15.1019 126.889 11.8219 125.677 11.1053 123.219C10.6629 121.694 10.2829 120.236 10.2156 118.673L10.2204 118.678Z" fill="#0C0A0A"/>
<path d="M14.741 139.607C16.28 140.213 16.304 141.791 16.9148 142.994C16.6984 143.099 16.3425 143.157 16.2896 143.311C13.8464 150.656 10.8742 157.766 9.56128 165.549C8.62826 171.066 7.8732 176.328 9.47471 181.649C11.7351 189.167 15.6451 190.903 21.5847 187.334C23.7922 186.007 25.9564 184.607 28.1398 183.245C29.145 183.481 30.1501 183.717 31.1553 183.948C30.1213 187.267 22.0031 192.515 17.7131 192.635C11.2109 192.823 6.77184 188.229 5.84844 181.673C4.75191 173.88 5.6176 166.309 7.06041 158.752C7.55096 156.174 8.36375 153.513 10.0422 151.315C11.8938 151.18 12.5479 149.699 13.0961 148.323C13.4568 147.424 13.5338 146.26 12.1487 145.851C12.3411 143.489 13.2164 141.411 14.7361 139.602L14.741 139.607Z" fill="#BF8BD5"/>
<path d="M60.4259 179.167C60.2095 187.608 57.0354 194.511 49.8454 199.302C48.2631 200.356 46.5702 200.832 44.7619 199.942C42.9969 199.071 43.5259 197.383 43.473 195.935C43.2085 189.076 46.022 183.207 49.3981 177.512C49.9849 176.521 50.2446 175.294 50.966 174.438C52.6348 172.461 54.4768 169.796 57.4057 171.225C60.4741 172.721 60.5269 176.059 60.4308 179.167H60.4259ZM56.9344 179.114C56.6843 177.887 57.5788 175.366 55.6647 175.16C54.0247 174.982 52.5531 176.915 52.125 178.955C51.8028 180.48 51.5142 182.038 50.9515 183.486C49.7877 186.492 48.3882 189.412 47.2291 192.419C46.7963 193.54 46.147 195.112 47.4311 195.901C48.6863 196.671 49.8117 195.56 50.586 194.516C53.9237 190.009 57.1508 185.439 56.9344 179.118V179.114Z" fill="#BF8BD5"/>
<path d="M122.885 173.75C123.202 170.83 119.86 170.364 119.133 168.142C120.639 166.285 119.119 164.322 119.282 162.388C119.6 158.651 121.519 157.015 125.159 158.107C135.48 161.205 140.189 172.62 138.539 182.442C138.265 184.073 137.111 185.636 135.432 185.795C132.811 186.04 130.844 184.362 129.074 182.596C126.487 180.018 125.698 176.175 122.88 173.75H122.885ZM135.827 179.325C134.884 171.898 133.109 165.501 125.679 162.456C124.645 162.032 123.423 161.523 122.841 162.076C122.303 162.59 122.274 164.086 122.567 164.967C124.573 170.984 127.901 176.184 132.715 180.35C133.282 180.841 133.994 181.86 134.956 181.249C135.721 180.764 135.918 179.826 135.827 179.32V179.325Z" fill="#BF8BD5"/>
<path d="M71.8469 174.395C70.255 173.938 68.6631 173.476 67.0713 173.019C66.3547 171.47 61.8387 172.697 64.1183 168.964C64.9263 168.848 65.7343 168.733 66.5422 168.618C67.456 169.945 68.6632 171.225 70.207 171.297C75.7281 171.557 81.2059 171.759 86.578 169.532C91.5653 167.463 95.3406 163.774 99.6835 160.859C100.366 160.397 101.04 160.103 101.497 160.541C101.992 161.013 101.795 161.725 101.126 162.292C98.5677 164.462 96.2977 167.054 93.5131 168.849C86.9675 173.067 79.6236 174.683 71.8565 174.4L71.8469 174.395Z" fill="#0C0A0A"/>
<path d="M0.115723 76.4153C0.149388 72.1823 2.11162 70.3977 5.99277 70.3737C9.03709 70.3544 10.8791 71.379 10.8262 74.7269C10.7733 78.1999 7.47886 82.0914 4.39606 81.9663C0.630335 81.8124 0.255194 79.0032 0.115723 76.4153ZM4.28543 77.69C6.15145 77.6323 6.94019 76.8386 7.22875 75.7852C7.54136 74.65 6.31018 74.2074 5.65611 74.217C4.59805 74.2267 3.52075 74.7317 3.5448 76.1748C3.55922 77.0791 3.82373 77.7285 4.28543 77.69Z" fill="#BF8BD5"/>
<path d="M66.5431 168.617C65.7351 168.733 64.9271 168.848 64.1191 168.964C61.8251 166.429 61.1133 162.85 57.8862 160.782C55.4911 159.242 54.284 161.724 52.4613 161.32C51.4032 159.035 53.3414 157.713 54.1589 156.034C59.9879 155.957 66.7691 162.85 66.5431 168.622V168.617Z" fill="#BF8BD5"/>
<path d="M5.73275 144.076C4.61698 144.389 3.38099 143.504 3.72726 142.724C4.53523 140.916 6.32911 139.891 8.37308 139.742C9.22915 139.679 10.6046 139.915 10.2728 141.127C9.70047 143.21 8.04124 144.167 5.73275 144.076Z" fill="#0C0A0A"/>
<path d="M12.1538 145.856C13.5389 146.264 13.4572 147.428 13.1013 148.328C12.553 149.704 11.8989 151.18 10.0473 151.32C9.08547 148.852 9.12395 146.779 12.1538 145.856Z" fill="#0C0A0A"/>
<path d="M83.2559 6.39246C86.709 3.08302 91.1865 3.50634 95.0195 4.36256C103.691 6.30108 112.011 9.52392 119.961 13.5741C120.144 13.6655 120.225 13.9493 120.355 14.1466C118.864 14.8152 117.316 15.3828 115.907 16.1861C114.796 16.8163 113.79 18.0044 114.42 19.2406C115.099 20.5778 116.33 19.8996 117.479 19.3512C119.364 18.4517 120.74 17.2011 121.404 15.2048C124.924 16.2246 127.237 18.9135 129.666 21.3571C138.155 29.9097 144.388 40.0112 149.327 50.916C153.65 60.4498 157.18 70.1809 159.123 80.6143C161.182 91.6634 160.884 102.554 158.676 113.276C156.81 122.343 154.127 131.348 148.841 139.314C144.695 145.562 132.84 149.641 125.694 147.173C120.317 145.317 114.772 143.951 109.26 142.517C108.466 142.31 107.456 142.931 106.543 143.171C104.922 139.626 103.643 136.394 106.177 132.353C109.876 126.465 111.064 119.558 112.285 112.766C112.646 110.77 112.958 108.764 113.42 106.792C113.536 106.306 113.574 105.454 114.526 105.522C119.013 105.834 120.192 101.856 121.649 99.1722C124.4 94.1022 126.449 88.6474 127.935 82.981C129.695 76.2707 130.489 69.4883 129.935 62.6529C129.421 56.2794 128.103 49.9106 125.626 44.0181C122.298 36.0908 118.177 28.5051 110.429 23.868C108.842 22.9156 109.337 21.386 108.707 20.1978C106.086 15.2722 102.479 12.4053 97.0202 10.4234C92.4706 8.76872 87.7767 7.93657 83.2607 6.38767L83.2559 6.39246ZM121.514 115.931C121.577 115.32 120.35 112.997 121.962 111.679C127.819 106.878 130.397 100.163 132.869 93.4577C134.918 87.8922 137.265 82.322 137.241 76.2034C137.241 75.6839 137.659 74.7314 136.563 74.818C136.135 74.8517 135.548 75.3135 135.37 75.7224C132.903 81.4561 131.715 87.6084 129.507 93.4673C127.694 98.2775 125.775 102.79 122.452 106.609C119.999 109.428 117.806 111.664 118.278 116.253C119.057 123.805 114.651 130.131 110.886 136.355C110.179 137.524 110.328 138.438 111.035 139.03C112.083 139.91 112.824 138.491 113.18 137.972C117.479 131.67 121.11 125.07 121.509 115.931H121.514ZM128.642 32.4543C128.146 32.5264 127.473 32.2811 127.814 33.3202C128.762 36.1919 130.753 38.2651 132.965 40.1315C133.744 40.7905 134.75 40.6991 134.855 39.28C135.014 37.1924 130.772 32.5457 128.642 32.4543ZM124.486 23.7767C122.37 23.7719 120.6 23.4784 120.543 25.2486C120.48 27.1101 122.524 27.3747 123.799 27.4228C124.785 27.4613 126.66 27.3122 126.646 25.5997C126.631 23.7478 125.035 23.7911 124.486 23.7767Z" fill="white"/>
<path d="M27.6197 67.1217C27.6197 63.5958 27.2206 60.0169 27.6967 56.5535C29.0626 46.6108 30.5727 36.7065 35.6802 27.7114C37.6521 24.2336 38.9314 23.8969 42.5672 25.8931C47.0159 28.3367 51.8541 25.8018 56.4182 24.4934C57.6061 24.1519 58.9383 23.8825 59.7895 24.7724C63.5023 28.6446 68.4993 26.3405 72.7315 27.6296C77.6659 29.1352 83.0668 30.1117 86.4959 34.1571C88.1407 36.1005 87.9579 39.559 88.713 42.3008C90.3626 48.2944 95.576 56.7556 103.333 57.4916C105.031 57.6551 105.69 58.6749 105.68 60.3055C105.656 64.7935 105.647 69.2814 105.666 73.7694C105.676 75.7416 105.017 76.6219 102.785 76.7469C98.9906 76.9634 95.0998 78.1756 92.6422 73.8464C92.5268 73.6395 91.6852 73.5529 91.4928 73.7405C90.8484 74.3563 90.9685 75.0297 91.5072 75.7849C97.6247 84.2846 89.1458 92.9237 81.9799 93.4721C77.8054 93.7895 73.4048 94.1599 70.043 90.711C65.6713 86.2182 64.974 81.0809 67.5181 75.4145C67.9462 74.4621 68.7926 73.3028 67.3643 72.5187C65.7627 71.6433 66.1379 73.4567 65.6858 74.0147C63.2426 76.9922 59.7318 75.4193 56.7789 76.0735C54.7686 76.5208 52.1619 77.1173 50.3584 74.8661C50.1852 74.6497 49.2618 74.6833 49.0454 74.9238C48.5164 75.5059 48.9108 76.1793 49.1224 76.8864C50.5652 81.7255 51.1711 86.4011 47.9296 90.9997C45.4769 94.4775 37.7434 95.5549 34.1557 93.3133C28.067 89.5085 29.1251 83.1012 27.8169 77.6608C27.0138 74.3322 27.6678 70.6476 27.6678 67.1217C27.6534 67.1217 27.639 67.1217 27.6246 67.1217H27.6197ZM78.2863 85.5112C81.6384 85.1841 83.2544 83.058 83.3121 80.167C83.3602 77.6705 82.0809 75.2509 79.0991 75.3327C76.3001 75.4097 74.8043 77.2135 74.6841 80.1622C74.5687 82.9425 75.3093 84.9436 78.2863 85.5112ZM44.0389 78.3728C44.5342 75.8522 42.9905 74.5438 40.4078 74.3226C37.8829 74.1061 35.0694 78.3487 35.4878 82.2354C35.6273 83.5293 37.5463 84.525 38.9025 84.2749C41.8362 83.7458 44.1543 82.2643 44.0341 78.3728H44.0389ZM76.6752 66.3809C79.075 66.5011 81.3691 66.8523 83.668 67.4728C84.4375 67.6796 85.4234 67.088 86.3131 66.8619C85.914 66.3231 85.6254 65.4765 85.106 65.2889C80.5563 63.6679 75.9922 62.8213 71.3127 65.0484C70.5432 65.414 70.4134 65.6882 70.423 66.352C70.4422 67.4487 71.2935 67.1312 71.8177 67.0783C73.4433 66.91 75.0592 66.6262 76.6752 66.3857V66.3809ZM44.1495 67.6123C46.2512 67.4632 47.7757 67.9586 48.7184 66.5685C48.8001 66.4482 48.0018 65.3996 47.4728 65.2408C43.1876 63.9517 38.8784 63.8507 34.5596 65.1976C33.617 65.491 33.9729 66.1788 33.8815 66.732C33.7805 67.3285 34.1557 67.7566 34.6943 67.5113C38.1138 65.9624 41.5043 66.5492 44.1447 67.6027L44.1495 67.6123Z" fill="white"/>
<path d="M66.543 168.618C66.7691 162.846 59.9879 155.952 54.1589 156.029C54.0002 155.611 53.8367 155.197 53.678 154.779C54.4908 154.567 55.4142 154 56.1019 154.206C61.4355 155.818 66.87 156.491 72.4008 156.005C76.2146 155.669 80.1295 155.471 81.8079 150.815C82.5341 148.805 84.6502 150.522 86.1363 150.214C92.2106 148.968 96.0388 144.6 100.05 140.531C102.075 138.472 102.95 138.948 103.517 141.454C104.186 144.393 104.854 147.333 105.523 150.272C103.878 153.648 105.571 156.91 106.153 160.094C107.475 167.314 109.115 174.438 107.918 181.87C106.557 190.288 98.8282 199.706 88.0072 192.914C80.6152 188.272 75.777 181.836 71.8525 174.39C79.6196 174.674 86.9635 173.058 93.5091 168.839C96.2985 167.045 98.5685 164.452 101.122 162.283C101.791 161.715 101.988 161.008 101.493 160.532C101.036 160.094 100.367 160.392 99.6794 160.849C95.3366 163.764 91.5612 167.454 86.5739 169.522C81.2067 171.749 75.7289 171.547 70.2029 171.287C68.6591 171.215 67.452 169.936 66.5382 168.608L66.543 168.618Z" fill="white"/>
<path d="M28.1352 183.246C25.9517 184.612 23.7875 186.011 21.58 187.334C15.6405 190.903 11.7353 189.167 9.47008 181.649C7.86856 176.324 8.62363 171.066 9.55664 165.549C10.8744 157.766 13.8418 150.656 16.2849 143.311C16.3378 143.152 16.6937 143.095 16.9101 142.994C20.8634 149.266 26.702 153.47 32.7666 157.424C33.8776 158.146 35.2242 158.309 35.9215 157.323C36.5467 156.438 35.4454 155.264 34.7625 154.759C30.5735 151.662 25.8652 149.179 22.5948 144.999C20.8105 142.715 17.9009 140.887 18.5453 137.279C19.8246 137.01 20.4594 136.153 20.9067 134.965C22.0225 132.036 23.2393 129.14 24.4176 126.235C26.5625 126.769 25.7978 128.351 25.3313 129.443C23.22 134.398 24.8504 139.285 29.376 142.104C36.2582 146.39 43.1115 150.671 51.0806 152.734C52.5571 153.119 51.8886 154.456 51.5616 155.163C50.3833 157.713 48.9981 160.166 47.69 162.653C42.9336 166.4 39.2304 171.09 35.8013 176.021C33.5746 178.777 29.8377 179.927 28.1352 183.236V183.246ZM16.3619 187.315C18.3385 187.57 19.8342 186.993 20.2575 185.314C20.4643 184.491 19.1705 184.342 18.3818 184.434C16.7033 184.631 14.5536 184.535 14.3275 186.714C14.1977 187.979 15.8521 187.036 16.3667 187.315H16.3619Z" fill="white"/>
<path d="M104.642 83.717C103.474 90.8217 102.622 98.0467 97.8227 103.915C94.9082 107.475 87.7375 109.033 83.3562 107.802C76.7289 105.945 70.1064 103.343 63.027 104.67C61.6756 104.925 58.9247 102.28 59.0882 105.589C59.1988 107.85 62.1277 106.811 63.8302 106.955C68.0047 107.311 72.0542 107.763 75.0649 111.246C75.7189 112.001 76.2576 112.877 75.9498 113.545C75.5795 114.353 74.733 115.128 73.5788 115.128C70.1353 115.128 66.6869 115.128 63.2434 115.137C62.5413 115.137 61.8583 114.945 61.8632 114.204C61.868 113.463 62.5798 113.382 63.2531 113.237C65.0614 112.848 66.99 112.771 68.4665 111.357C68.8993 110.943 69.7169 110.837 69.284 109.99C68.8656 109.173 67.9326 109.129 67.3987 109.471C64.9892 111.025 62.3345 110.866 59.6701 110.876C58.9487 110.876 58.2706 111.174 57.8378 112.001C56.8759 113.843 51.9078 114.531 50.2726 113.103C49.4166 112.352 48.5028 111.765 50.3496 110.799C51.8934 109.995 53.0861 108.519 54.4087 107.306C54.6251 107.109 55.1445 106.922 54.654 106.412C53.9326 105.666 53.2785 105.142 52.0906 105.012C46.1895 104.353 40.173 104.56 34.4306 102.66C32.1462 101.904 28.2169 96.3438 28.6257 94.1407C28.6979 93.7415 29.0826 93.2509 29.4481 93.0921C29.7992 92.943 30.1455 93.2461 30.5254 93.6405C34.2382 97.4983 38.9081 98.494 43.7319 96.6902C49.2434 94.6314 53.5045 90.6148 52.586 84.3375C51.5952 77.5599 56.1016 78.724 59.7375 78.1275C62.7337 77.6369 63.8783 78.5556 63.7725 81.9035C63.4311 92.6592 74.8533 98.9895 84.1017 95.4492C89.1611 93.5106 93.2971 90.7977 95.3603 85.5882C95.6729 84.8041 96.0144 83.8902 95.8942 83.1013C95.4613 80.2199 96.707 79.1713 99.4291 79.4792C102.363 79.407 105.936 78.5604 104.638 83.7122L104.642 83.717ZM54.0191 100.745C54.1971 102.462 53.4612 104.281 55.9429 104.122C57.025 104.05 57.8474 103.535 57.3183 102.511C55.0964 98.1861 58.8958 94.7228 58.8766 90.7351C58.8766 90.1194 59.723 89.446 58.7515 88.9265C57.8329 88.4358 57.3857 88.8832 56.924 89.7394C55.0002 93.3182 54.6588 97.2722 54.0191 100.75V100.745Z" fill="white"/>
<path d="M13.7598 116.604C12.1775 113.242 14.0724 109.99 14.4283 106.796C15.4671 97.479 18.5595 88.378 16.9821 78.8153C22.056 74.7362 19.9158 66.4482 13.125 63.6775C11.105 62.8549 9.12841 61.8929 7.22391 60.825C2.61174 58.2323 2.67426 51.7144 7.25276 46.5915C12.6633 40.5355 18.8433 35.4125 25.7207 31.117C26.6777 33.8252 24.7347 35.9754 24.1528 38.3468C21.9165 47.4718 23.3352 56.491 24.2153 65.5631C24.8309 71.9223 25.8553 78.3343 25.5379 84.6645C25.283 89.7586 23.0323 94.7227 22.1281 99.8264C21.0748 105.781 19.0357 111.765 21.2865 117.898C18.8241 117.191 16.4001 116.263 13.755 116.609L13.7598 116.604Z" fill="white"/>
<path d="M120.431 83.2361C120.431 90.8362 117.406 96.0553 112.727 97.1857C110.846 97.6427 109.168 96.7528 108.485 95.3482C107.571 93.4674 109.908 93.934 110.692 93.5107C115.554 90.9036 117.295 85.9634 114.179 83.0099C112.731 81.639 110.875 81.2975 108.994 81.0041C108.461 80.9223 107.561 81.4178 107.499 80.3836C107.46 79.7534 107.677 79.2051 108.071 78.5413C110.168 75.0202 113.684 74.9913 116.526 75.9918C119.715 77.1078 121.186 80.2393 120.426 83.2361H120.431Z" fill="white"/>
<path d="M13.7603 116.605C16.4007 116.258 18.8246 117.187 21.2918 117.894C22.3354 120.674 23.3791 123.454 24.4179 126.239C23.2396 129.145 22.0228 132.041 20.907 134.97C20.4549 136.153 19.8249 137.014 18.5456 137.284C16.6411 135.374 17.5982 133.205 17.983 131.088C19.9933 129.496 20.3395 126.98 21.2293 124.82C21.6188 123.882 22.22 122.002 20.2001 121.497C18.0888 120.972 16.0063 120.155 13.7555 120.472C12.9956 119.183 13.5631 117.894 13.7555 116.609L13.7603 116.605Z" fill="#BF8BD5"/>
<path d="M105.172 90.6341C107.216 88.6571 104.831 84.0104 109.794 83.9094C111.838 83.8661 113.887 84.655 113.56 86.8292C112.987 90.6197 109.678 91.4759 106.423 92.159C104.581 92.5438 106.052 91.1152 105.177 90.6341H105.172Z" fill="white"/>
<path d="M35.7961 176.03C39.2252 171.095 42.9284 166.405 47.6849 162.663C45.4341 167.863 41.6443 171.86 37.5227 175.578C37.1283 175.934 36.3781 175.891 35.7961 176.035V176.03Z" fill="#BF8BD5"/>
<path d="M104.642 83.7171C105.94 78.5653 102.372 79.4119 99.4331 79.4841C100.886 78.5798 104.43 78.2334 104.954 79.1474C105.815 80.6386 105.988 82.2788 104.637 83.7171H104.642Z" fill="#BF8BD5"/>
<path d="M121.393 15.205C120.729 17.2012 119.354 18.4519 117.468 19.3514C116.319 19.8997 115.093 20.5828 114.41 19.2407C113.784 18.0045 114.785 16.8164 115.896 16.1863C117.31 15.383 118.858 14.8153 120.344 14.1467C120.691 14.4978 121.037 14.8538 121.388 15.205H121.393Z" fill="#0C0A0A"/>
<path d="M14.2839 89.7443C13.6442 97.686 10.6672 105.272 10.7201 113.314C7.00729 112.319 4.49201 105.238 6.30994 101.861C8.37797 98.0179 9.95061 93.91 11.8311 89.9608C12.2783 89.018 13.0623 87.5605 13.7115 87.5508C14.7215 87.5316 13.8799 89.0131 14.2887 89.7443H14.2839Z" fill="white"/>
<path d="M13.7561 120.467C16.0069 120.15 18.0893 120.968 20.2007 121.492C22.2206 121.997 21.6146 123.878 21.2299 124.816C20.3353 126.971 19.9939 129.487 17.9835 131.084C18.8204 127.279 15.7568 125.205 14.1986 122.454C13.8812 121.891 13.9004 121.136 13.7657 120.467H13.7561Z" fill="white"/>
<path d="M56.9337 179.114C57.1501 185.434 53.9231 190.004 50.5854 194.511C49.8111 195.555 48.6857 196.666 47.4304 195.896C46.1463 195.112 46.8004 193.535 47.2285 192.414C48.3875 189.403 49.787 186.488 50.9509 183.481C51.5088 182.033 51.8021 180.475 52.1244 178.95C52.5524 176.91 54.0241 174.982 55.664 175.155C57.5782 175.362 56.6884 177.882 56.9337 179.109V179.114Z" fill="white"/>
<path d="M135.826 179.33C135.917 179.83 135.72 180.773 134.955 181.259C133.993 181.87 133.281 180.845 132.714 180.359C127.9 176.194 124.572 170.994 122.566 164.976C122.273 164.096 122.297 162.6 122.84 162.085C123.422 161.532 124.644 162.037 125.678 162.465C133.108 165.51 134.883 171.908 135.826 179.335V179.33Z" fill="white"/>
<path d="M4.29083 77.6898C3.82913 77.7235 3.56463 77.0789 3.5502 76.1746C3.52615 74.7267 4.60346 74.2265 5.66151 74.2169C6.31559 74.2121 7.54676 74.6498 7.23415 75.785C6.94559 76.8384 6.16167 77.6369 4.29083 77.6898Z" fill="white"/>
<path d="M121.514 115.931C121.115 125.075 117.484 131.675 113.184 137.972C112.828 138.491 112.093 139.91 111.039 139.03C110.332 138.438 110.183 137.524 110.89 136.355C114.656 130.131 119.061 123.81 118.282 116.254C117.806 111.665 120.004 109.428 122.457 106.609C125.78 102.785 127.699 98.2729 129.512 93.4675C131.72 87.6086 132.912 81.4563 135.375 75.7225C135.553 75.3137 136.139 74.8519 136.567 74.8182C137.664 74.7316 137.241 75.6841 137.246 76.2036C137.27 82.3222 134.923 87.8924 132.874 93.4579C130.407 100.163 127.824 106.878 121.966 111.679C120.355 112.997 121.581 115.32 121.519 115.931H121.514Z" fill="#0C0A0A"/>
<path d="M128.646 32.4591C130.767 32.5408 135.009 37.1875 134.855 39.2752C134.749 40.6942 133.744 40.7856 132.965 40.1266C130.753 38.2602 128.762 36.187 127.814 33.3153C127.473 32.2763 128.146 32.5168 128.646 32.4543V32.4591Z" fill="#0C0A0A"/>
<path d="M124.486 23.772C125.034 23.7816 126.631 23.7383 126.645 25.595C126.655 27.3123 124.784 27.4566 123.798 27.4181C122.519 27.37 120.48 27.1054 120.542 25.2439C120.605 23.4737 122.375 23.7672 124.486 23.772Z" fill="#0C0A0A"/>
<path d="M78.2871 85.5112C75.3101 84.9436 74.5694 82.9426 74.6849 80.1623C74.8051 77.2136 76.3008 75.4097 79.0999 75.3328C82.0817 75.251 83.361 77.6706 83.3129 80.1671C83.2552 83.058 81.6392 85.1841 78.2871 85.5112Z" fill="#0C0A0A"/>
<path d="M44.0356 78.3728C44.1558 82.2643 41.8329 83.7458 38.904 84.2749C37.5477 84.5203 35.6288 83.5293 35.4893 82.2354C35.0661 78.3487 37.8796 74.1109 40.4093 74.3226C42.9919 74.5439 44.5357 75.8523 44.0404 78.3728H44.0356Z" fill="#0C0A0A"/>
<path d="M76.676 66.3809C75.0553 66.6214 73.4441 66.9052 71.8186 67.0736C71.2944 67.1265 70.4431 67.444 70.4238 66.3473C70.4094 65.6883 70.5441 65.414 71.3136 65.0436C75.9931 62.8117 80.5572 63.6631 85.1068 65.2842C85.631 65.4718 85.9196 66.3184 86.314 66.8571C85.4242 67.0832 84.4383 67.6797 83.6688 67.468C81.37 66.8475 79.0759 66.4963 76.676 66.3761V66.3809Z" fill="#0C0A0A"/>
<path d="M44.1507 67.6125C41.5103 66.5542 38.1198 65.9722 34.7003 67.5211C34.1617 67.7616 33.7913 67.3335 33.8875 66.7418C33.9789 66.1886 33.623 65.5008 34.5656 65.2074C38.8844 63.8605 43.1936 63.9615 47.4787 65.2507C48.0078 65.4094 48.8061 66.458 48.7244 66.5783C47.7769 67.9636 46.2572 67.4681 44.1555 67.6221L44.1507 67.6125Z" fill="#0C0A0A"/>
<path d="M16.3621 187.32C15.8475 187.041 14.1931 187.984 14.3229 186.719C14.5489 184.54 16.7036 184.636 18.3772 184.439C19.166 184.347 20.4597 184.496 20.2529 185.319C19.8344 187.002 18.3339 187.575 16.3573 187.32H16.3621Z" fill="#0C0A0A"/>
<path d="M54.0186 100.745C54.6582 97.2675 55.0045 93.3136 56.9234 89.7348C57.3851 88.8785 57.8324 88.4312 58.7509 88.9218C59.7224 89.4413 58.876 90.1147 58.876 90.7305C58.8952 94.723 55.0958 98.1815 57.3178 102.506C57.842 103.53 57.0244 104.045 55.9423 104.117C53.4607 104.281 54.1965 102.458 54.0186 100.741V100.745Z" fill="#0C0A0A"/>
</svg>
