<svg width="22" height="29" viewBox="0 0 22 29" fill="none" xmlns="http://www.w3.org/2000/svg">
<path d="M10.6259 17.2569H2.00974C1.73404 17.2569 1.48276 17.415 1.36339 17.6635C1.03311 18.3511 0 18.1159 0 17.353V4.11398C0 3.43407 0 3.09412 0.0548672 2.81119C0.287867 1.60969 1.22737 0.670191 2.42887 0.437191C2.7118 0.382324 3.05175 0.382324 3.73166 0.382324H10.6259C13.4544 0.382324 14.8686 0.382324 15.7472 1.261C16.6259 2.13968 16.6259 3.5539 16.6259 6.38233V11.2569C16.6259 14.0853 16.6259 15.4995 15.7472 16.3782C14.8686 17.2569 13.4544 17.2569 10.6259 17.2569Z" fill="#D2A2E5"/>
<path d="M20 9.83543V18.3477C20 21.7302 20 23.4214 19.2154 24.6514C18.8238 25.2653 18.3029 25.7863 17.6889 26.1779C16.4589 26.9625 14.7677 26.9625 11.3853 26.9625H5.97773C4.20643 26.9625 2.77051 25.5265 2.77051 23.7552V23.7552C2.77051 21.9839 4.20643 20.548 5.97773 20.548H11.6613C14.7818 20.548 16.3421 20.548 17.5037 19.876C18.2609 19.438 18.89 18.8089 19.328 18.0517C20 16.8901 20 15.3298 20 12.2093V12.2093C20 9.08872 20 7.52845 19.328 6.36678C18.89 5.60957 18.2609 4.98053 17.5037 4.54249C16.3421 3.87048 14.7818 3.87048 11.6613 3.87048H11.3853C8.00281 3.87048 6.31159 3.87048 5.08159 4.65507C4.46767 5.04667 3.9467 5.56765 3.55509 6.18157C2.77051 7.41156 2.77051 9.10279 2.77051 12.4852V23.7552" stroke="white" stroke-width="2.5"/>
<path d="M10.7477 12.1311C10.7477 11.7578 10.8177 11.4311 10.9577 11.1511C11.1044 10.8645 11.3044 10.5678 11.5577 10.2611C11.6844 10.1078 11.8444 9.87113 12.0377 9.55113C12.1311 9.38446 12.2077 9.23779 12.2677 9.11113C12.3277 8.97779 12.3577 8.87446 12.3577 8.80113C12.3577 8.56779 12.3077 8.39446 12.2077 8.28113C12.1144 8.16113 11.9677 8.10113 11.7677 8.10113C11.5811 8.10113 11.4311 8.17446 11.3177 8.32113C11.2111 8.46113 11.1511 8.65779 11.1377 8.91113L9.07773 8.93113C9.0844 8.43113 9.1944 7.99113 9.40773 7.61113C9.62107 7.23113 9.92773 6.93779 10.3277 6.73113C10.7344 6.52446 11.2177 6.42113 11.7777 6.42113C12.3244 6.42113 12.7944 6.52113 13.1877 6.72113C13.5877 6.91446 13.8911 7.18779 14.0977 7.54113C14.3111 7.89446 14.4177 8.30779 14.4177 8.78113C14.4177 9.10779 14.3711 9.40446 14.2777 9.67113C14.1911 9.93113 14.0411 10.1645 13.8277 10.3711C13.5944 10.5911 13.3911 10.7978 13.2177 10.9911C13.0444 11.1778 12.9211 11.3478 12.8477 11.5011C12.7744 11.6545 12.7377 11.8645 12.7377 12.1311H10.7477ZM11.7577 15.2211C11.4044 15.2211 11.1044 15.0978 10.8577 14.8511C10.6177 14.6045 10.4977 14.3045 10.4977 13.9511C10.4977 13.6111 10.6211 13.3211 10.8677 13.0811C11.1144 12.8411 11.4111 12.7211 11.7577 12.7211C11.9844 12.7211 12.1911 12.7778 12.3777 12.8911C12.5711 12.9978 12.7244 13.1478 12.8377 13.3411C12.9511 13.5278 13.0077 13.7311 13.0077 13.9511C13.0077 14.1845 12.9511 14.3978 12.8377 14.5911C12.7244 14.7845 12.5711 14.9378 12.3777 15.0511C12.1911 15.1645 11.9844 15.2211 11.7577 15.2211Z" fill="white"/>
</svg>
