<svg width="150" height="150" viewBox="0 0 150 150" fill="none" xmlns="http://www.w3.org/2000/svg">
<path d="M93.354 140.146C94.4293 140.595 95.3222 139.834 96.2965 139.662C100.974 138.843 105.272 136.854 109.67 135.161C111.025 134.638 112.375 135.09 112.95 136.327C113.466 137.439 113.195 138.457 112.139 139.233C109.608 141.094 106.785 142.413 103.921 143.622C101.452 144.664 98.9518 145.686 96.3897 146.454C93.3695 147.363 90.2834 148.096 87.1623 148.6C82.0421 149.427 76.8869 150.012 71.7045 149.731C67.7682 149.516 63.8397 149.13 59.9384 148.405C55.9827 147.667 52.1008 146.719 48.3198 145.377C44.9037 144.164 41.6312 142.596 38.3898 140.95C33.9838 138.711 29.8534 136.046 25.987 133.015C21.9693 129.863 18.2892 126.325 15.106 122.264C12.1519 118.495 9.4578 114.583 7.3538 110.284C4.57822 104.612 2.40822 98.7015 1.53091 92.4131C1.232 90.2675 0.820515 88.1492 0.502197 86.0154V73.731C1.26694 72.5724 0.836043 71.2188 1.00297 69.9782C1.60466 65.492 2.55185 61.0956 3.8523 56.7771C5.4633 51.4132 7.56342 46.256 10.1876 41.29C12.5828 36.7648 15.2729 32.4347 18.4561 28.4673C20.1098 26.4037 21.7053 24.2464 23.7316 22.4441C24.8031 21.4923 25.7231 20.2595 26.8566 19.3623C28.8674 17.7707 30.6454 15.9021 32.6834 14.3651C38.0133 10.347 43.7546 6.99212 49.9929 4.6593C53.7001 3.27444 57.5859 2.35379 61.5339 1.74523C65.5788 1.12497 69.6199 0.64514 73.7076 0.840192C79.0258 1.09376 84.282 1.84276 89.4177 3.25883C91.8905 3.94151 94.4992 4.41744 96.7818 5.42391C99.8174 6.76586 102.892 8.09221 105.842 9.65263C109.15 11.4042 112.29 13.4093 115.415 15.4613C117.674 16.9437 116.968 18.781 115.17 19.9163C114.627 20.2595 114.227 20.1074 113.637 19.7875C110.105 17.8682 106.894 15.3871 103.199 13.7487C100.4 12.5043 97.5776 11.3925 94.6545 10.425C91.6964 9.44587 88.7229 8.66567 85.6989 8.0571C83.983 7.71381 82.2168 7.53827 80.4854 7.273C76.7316 6.69174 72.97 7.02723 69.2356 7.05454C66.5144 7.07404 63.7388 7.60458 61.0137 8.17804C56.499 9.12209 52.0309 10.191 47.7802 12.0323C44.5698 13.4249 41.4061 14.9385 38.4364 16.7915C33.9411 19.5964 29.8263 22.8966 26.1384 26.7314C23.1144 29.8717 20.6494 33.4294 18.2892 37.0691C14.9274 42.2458 12.7458 47.9725 11.0183 53.8591C10.0362 57.1984 9.21712 60.6196 8.70859 64.0603C7.93221 69.2877 7.72258 74.6048 8.14183 79.8634C8.4485 83.7177 8.73965 87.607 9.77224 91.3988C11.2202 96.7276 12.7225 102.025 15.3195 106.925C17.6254 111.278 20.3583 115.324 23.5725 119.096C26.2898 122.279 29.4226 124.959 32.6834 127.452C35.3386 129.481 38.1608 131.38 41.2508 132.773C42.163 132.867 42.7337 133.608 43.4984 133.99C48.7041 136.573 54.1233 138.519 59.7792 139.846C64.6821 141 69.6432 141.726 74.6703 141.831C78.2378 141.905 81.8208 142.097 85.3767 141.566C88.0474 141.168 90.7919 141.172 93.3501 140.138L93.354 140.146Z" fill="#744884"/>
<path d="M149.498 19.0424C148.505 19.2843 148.365 20.3337 147.814 20.9734C144.491 24.816 141.393 28.8574 138.05 32.6805C135.818 35.2356 133.753 37.9351 131.308 40.3265C130.434 41.1808 129.568 42.3628 129.064 43.6307C127.507 45.4719 125.916 47.2859 124.398 49.1584C120.865 53.512 117.298 57.8421 113.874 62.2815C111.351 65.5506 108.882 68.8625 106.63 72.3501C105.504 74.0977 104.091 75.7323 102.834 77.4331C99.2933 82.208 95.7802 86.9985 91.8827 91.4963C89.5381 94.1998 86.8789 96.5872 84.4566 99.2087C83.0281 100.757 81.223 101.729 79.5304 102.891C77.7913 104.085 75.5786 103.258 73.8357 104.366C73.6959 104.456 73.1757 104.163 73.0049 103.921C72.7953 103.625 72.5896 103.547 72.2868 103.601C70.373 103.948 68.6688 103.219 67.0423 102.415C62.7799 100.309 59.7675 96.712 56.7668 93.1972C52.881 88.6408 48.9758 84.1078 44.795 79.8244C41.5846 76.532 38.219 73.3916 34.9349 70.1733C33.9566 69.2136 33.3821 68.1174 33.8169 66.6585C34.5311 64.2476 36.6041 64.6611 38.351 64.3998C39.6359 64.2086 39.0225 65.5545 39.566 65.9797C39.6786 66.0655 39.7485 66.2059 39.8455 66.3113C44.1312 70.8872 48.2965 75.5801 52.5433 80.1872C55.5712 83.4719 58.4128 86.9126 61.3048 90.3026C64.0765 93.5483 67.1354 96.3531 70.8737 98.37C72.345 99.1619 73.8628 99.0722 75.4001 98.331C79.5537 96.3219 82.7369 93.166 85.7532 89.776C89.4099 85.6643 92.6203 81.2093 95.7491 76.6958C97.7794 73.7622 99.8911 70.8794 101.754 67.8444C105.834 61.1931 110.656 55.088 115.349 48.8853C118.676 44.4928 122.034 40.1236 125.38 35.7428C129.239 30.8236 133.105 25.9083 136.808 20.8681C138.419 18.6757 140.092 16.5263 141.781 14.3885C143.213 12.5745 147.6 12.5628 148.912 15.317C149.091 15.6914 149.3 16.0464 149.498 16.4131V19.0463V19.0424Z" fill="#744884"/>
<path d="M125.384 35.7389C122.037 40.1198 118.68 44.485 115.353 48.8815C110.66 55.0841 105.838 61.1854 101.758 67.8405C99.895 70.8794 97.7832 73.7623 95.7529 76.692C92.6241 81.2094 89.4138 85.6605 85.757 89.7721C82.7446 93.1621 79.5575 96.322 75.4039 98.3271C73.8666 99.0722 72.3488 99.1619 70.8776 98.3661C67.1354 96.3493 64.0803 93.5444 61.3086 90.2988C58.4127 86.9088 55.575 83.4681 52.5471 80.1834C48.2964 75.5724 44.135 70.8833 39.8493 66.3074C39.7523 66.2021 39.6785 66.0656 39.5698 65.9758C39.0263 65.5545 39.6397 64.2048 38.3548 64.3959C36.6118 64.6573 34.5388 64.2438 33.8207 66.6546C33.3859 68.1136 33.9604 69.2059 34.9387 70.1694C38.2228 73.3917 41.5884 76.5281 44.7988 79.8206C48.9757 84.1039 52.8848 88.6369 56.7706 93.1934C59.7714 96.7082 62.7837 100.305 67.0461 102.411C68.6726 103.215 70.3768 103.949 72.2906 103.597C72.5934 103.543 72.7991 103.621 73.0087 103.917C73.1795 104.155 73.6997 104.448 73.8395 104.362C75.5863 103.254 77.7951 104.081 79.5342 102.887C81.2268 101.725 83.0319 100.75 84.4604 99.2048C86.8827 96.5834 89.5419 94.1959 91.8865 91.4925C95.784 86.9946 99.2971 82.2041 102.837 77.4293C104.099 75.7284 105.508 74.0939 106.634 72.3462C108.882 68.8587 111.354 65.5467 113.878 62.2777C117.302 57.8383 120.869 53.5081 124.402 49.1546C125.919 47.2821 127.511 45.4681 129.068 43.6268C130.015 47.0441 131.001 50.4497 131.901 53.8787C133.221 58.8955 134.238 63.959 134.704 69.1513C135.065 73.1537 135.213 77.1484 135.081 81.147C135.034 82.5006 134.355 83.8036 135.178 85.1767C135.45 85.6292 134.425 85.8282 134.522 86.3197C134.883 88.1493 133.749 89.6668 133.567 91.3716C133.202 94.8006 132.064 98.0345 130.985 101.265C129.417 105.969 127.329 110.459 124.631 114.622C122.344 118.144 119.968 121.593 116.906 124.542C113.986 127.359 111.187 130.319 107.884 132.664C105.376 134.443 102.647 135.902 99.8561 137.252C97.7133 138.285 95.4618 139.046 93.3539 140.138C90.7957 141.172 88.0512 141.168 85.3804 141.566C81.8285 142.097 78.2416 141.906 74.6741 141.831C69.647 141.726 64.6859 140.997 59.783 139.846C54.1309 138.516 48.7079 136.573 43.5022 133.99C42.7336 133.608 42.1668 132.867 41.2546 132.773C41.2002 131.966 40.4432 131.856 39.9541 131.544C36.6894 129.457 33.6111 127.128 30.6336 124.651C29.337 123.575 27.827 122.794 26.6352 121.542C24.2478 119.042 22.9125 115.96 21.6314 112.843C19.6555 108.033 18.4754 102.989 17.2875 97.937C16.6354 95.1517 16.2744 92.3468 15.8862 89.5264C15.1098 83.8777 15.1603 78.1978 15.4203 72.5491C15.6183 68.2462 16.4646 64.0136 19.0694 60.2569C20.3155 58.4585 20.7153 56.0789 21.5344 53.9763C23.5491 48.7918 26.5537 44.2003 30.0009 39.8779C35.6685 32.7702 42.687 27.2932 50.5363 22.8499C56.2116 19.6355 62.2985 17.4431 68.5989 15.8554C74.0801 14.4705 79.6585 13.7683 85.3028 13.8346C90.5473 13.8931 95.7102 14.7163 100.753 16.1986C106.716 17.9502 112.123 20.7941 116.696 25.015C120.089 28.1436 123.233 31.5531 125.384 35.735V35.7389Z" fill="#FDFFAA"/>
<path d="M141.641 75.3459C142.084 72.5801 141.855 69.8182 141.626 67.064C141.412 64.4855 141.253 61.8991 140.791 59.3439C140.605 58.3023 140.814 57.2451 141.952 56.8199C143.205 56.3518 144.056 56.937 144.58 58.314C145.43 60.5454 145.733 62.8626 145.958 65.2267C146.043 66.1005 146.715 67.0562 146.532 67.9106C146.183 69.5529 146.754 71.0743 146.944 72.6074C147.487 76.9688 147.014 81.2599 146.629 85.5823C146.381 88.4027 145.919 91.1724 145.418 93.9461C144.487 99.1071 142.678 104.003 140.838 108.883C139.626 112.098 137.957 115.094 136.416 118.152C135.294 120.376 133.683 121.405 131.505 121.086C129.432 120.781 128.431 119.275 127.81 117.364C127.511 116.439 127.891 115.749 128.245 115.082C129.265 113.147 130.43 111.29 131.474 109.363C132.192 108.04 133 106.757 133.241 105.208C133.342 104.572 134.075 104.296 134.366 103.683C137.13 97.89 139.001 91.8317 140.236 85.5237C140.896 82.1415 141.199 78.732 141.637 75.342L141.641 75.3459Z" fill="#744884"/>
</svg>
