<svg width="25" height="24" viewBox="0 0 25 24" fill="none" xmlns="http://www.w3.org/2000/svg">
<path d="M21.2065 7.52V13.4C21.2065 13.74 20.8765 13.98 20.5565 13.88L16.6265 12.66C15.5465 12.33 14.3865 12.61 13.5965 13.4C12.7965 14.2 12.5065 15.37 12.8465 16.45L14.0565 20.35C14.1565 20.67 13.9165 21 13.5765 21H7.72654C4.27654 21 2.20654 18.94 2.20654 15.48V7.52C2.20654 4.06 4.27654 2 7.72654 2H15.6865C19.1365 2 21.2065 4.06 21.2065 7.52Z" fill="#BF8BD5"/>
<path d="M22.1662 18.8385L20.5362 19.3885C20.0862 19.5385 19.7262 19.8885 19.5762 20.3485L19.0262 21.9785C18.5562 23.3885 16.5762 23.3585 16.1362 21.9485L14.2862 15.9985C13.9262 14.8185 15.0162 13.7185 16.1862 14.0885L22.1462 15.9385C23.5462 16.3785 23.5662 18.3685 22.1662 18.8385Z" fill="#BF8BD5"/>
</svg>
