<svg width="39" height="38" viewBox="0 0 39 38" fill="none" xmlns="http://www.w3.org/2000/svg">
<path fill-rule="evenodd" clip-rule="evenodd" d="M19.3785 0C8.93412 0 0.467285 8.46684 0.467285 18.9112C0.467285 29.3556 8.93412 37.8224 19.3785 37.8224C29.8229 37.8224 38.2897 29.3556 38.2897 18.9112C38.2897 8.46684 29.8229 0 19.3785 0ZM30.4341 16.4335C30.5405 16.909 30.6244 17.3939 30.6538 17.8785C30.7191 18.4871 30.7244 19.1006 30.6697 19.7101C30.6538 20.1132 30.6108 20.5278 30.5156 20.9218C30.4833 21.2554 30.3931 21.5802 30.3032 21.904C30.2924 21.9428 30.2816 21.9817 30.2709 22.0205C30.1533 22.4621 29.9879 22.8901 29.8203 23.316C29.6662 23.6715 29.494 24.0159 29.3153 24.36C29.1408 24.6636 28.9595 24.965 28.7647 25.2548C28.5497 25.5715 28.3189 25.8772 28.073 26.1706C27.8227 26.4715 27.5565 26.7589 27.2757 27.0315C26.9111 27.3858 26.5229 27.7149 26.1138 28.0167C25.764 28.2782 25.3978 28.5173 25.0177 28.7324C24.5897 28.9862 24.1388 29.1969 23.6834 29.3917C23.1968 29.5875 22.6986 29.7533 22.1917 29.8881C22.1269 29.9024 22.0622 29.917 21.9974 29.9316C21.6204 30.0165 21.2424 30.1016 20.8576 30.1306C20.0173 30.2595 19.1611 30.2617 18.3164 30.1802C17.5553 30.1215 16.8011 29.9606 16.0672 29.7431L16.065 29.7295C12.5404 28.7032 9.64351 25.7997 8.57002 22.2912C8.33439 21.537 8.17126 20.7533 8.11009 19.9628C8.04684 19.3972 8.0523 18.8281 8.05776 18.2596C8.05971 18.0563 8.06166 17.8531 8.06047 17.6502C8.05442 17.034 8.05367 16.418 8.0582 15.802C8.05367 15.1696 8.05367 14.5362 8.0582 13.9018C8.05367 13.358 8.05367 12.8142 8.05593 12.2705C8.05678 12.0666 8.05668 11.8621 8.05657 11.6575C8.0564 11.3164 8.05622 10.975 8.06047 10.6351C8.05622 10.2982 8.0564 9.96032 8.05657 9.62269C8.05668 9.42014 8.05678 9.21768 8.05593 9.01557C8.01968 8.61023 8.15313 8.18428 8.4615 7.91081C8.78549 7.61627 9.26786 7.50525 9.67999 7.65025C9.8833 7.71802 10.0644 7.83318 10.2447 7.94783C10.2875 7.97501 10.3301 8.00215 10.3731 8.02863C11.1885 8.55857 11.9722 9.13361 12.7468 9.72269C12.8301 9.67643 12.9103 9.62497 12.987 9.56862C13.2978 9.35175 13.6207 9.15287 13.9542 8.97297C14.2907 8.78754 14.6369 8.62046 14.9915 8.47248C15.3631 8.31614 15.7435 8.1802 16.1264 8.06012C16.1654 8.04957 16.2045 8.03895 16.2437 8.02833C16.6153 7.92742 16.9892 7.8259 17.3725 7.7726C17.8347 7.68078 18.3036 7.62623 18.7745 7.60947C19.3514 7.57247 19.9304 7.58536 20.5051 7.64799C20.942 7.68611 21.3756 7.75501 21.8029 7.85417C24.715 8.46591 27.3332 10.3066 28.9278 12.814C29.6345 13.9217 30.1533 15.1497 30.4341 16.4335ZM25.836 17.3373C26.1238 17.0744 26.3662 16.7597 26.5044 16.3927C26.6945 15.8718 26.6719 15.292 26.4836 14.7732C26.2276 14.2095 25.761 13.7518 25.1788 13.5298C24.7211 13.3805 24.2295 13.3699 23.7659 13.4992C23.4046 13.6203 23.0771 13.8252 22.8102 14.0971C22.7025 14.2038 22.5955 14.3112 22.4886 14.4187C22.3322 14.5758 22.1759 14.733 22.0172 14.8876C21.9666 14.9386 21.916 14.9899 21.8654 15.0412C21.6687 15.2405 21.4709 15.4409 21.2675 15.6353L21.2673 15.6354C21.0023 15.905 20.7375 16.1743 20.4656 16.4394C20.41 16.4943 20.3553 16.55 20.3007 16.6055C20.1909 16.7173 20.0815 16.8288 19.9649 16.9331C19.7205 17.1891 19.4735 17.4429 19.2152 17.6828C18.9549 17.9569 18.6877 18.2243 18.4159 18.4846C18.2301 18.6772 18.042 18.8721 17.8472 19.0578C17.3871 18.6024 16.9305 18.1449 16.474 17.6875C16.2878 17.5009 16.1016 17.3143 15.9152 17.1279C15.5753 16.7702 15.1111 16.5481 14.6265 16.4756C14.1774 16.4262 13.7233 16.5023 13.3149 16.6954C12.9435 16.9084 12.6172 17.2052 12.4045 17.579C12.1258 18.0614 12.0624 18.6412 12.1711 19.1825C12.2756 19.5744 12.4704 19.9458 12.7602 20.2335C13.9464 21.4204 15.1317 22.6062 16.3162 23.7907C16.7014 24.1668 17.2246 24.3773 17.759 24.4112C18.2221 24.4201 18.6778 24.2941 19.0707 24.0487C19.2919 23.8877 19.483 23.6932 19.6738 23.499C19.7544 23.417 19.8349 23.3351 19.9176 23.2557C20.1186 23.0532 20.3215 22.8508 20.5238 22.649C20.6248 22.5483 20.7256 22.4477 20.8259 22.3474C20.9265 22.2468 21.0271 22.1465 21.1275 22.0463C21.328 21.8463 21.5282 21.6466 21.7274 21.4459C21.883 21.2894 22.0391 21.1338 22.1952 20.9783C22.3573 20.8167 22.5194 20.6551 22.681 20.4925C22.8743 20.2975 23.0699 20.1024 23.2655 19.9075C23.3493 19.8239 23.4332 19.7403 23.5169 19.6567C23.7727 19.3984 24.0287 19.1446 24.2847 18.8911C24.4849 18.6873 24.6866 18.486 24.8885 18.2846C24.9537 18.2195 25.0189 18.1544 25.0841 18.0893C25.168 18.0053 25.2516 17.9214 25.3352 17.8376C25.5021 17.6703 25.6686 17.5033 25.836 17.3373Z" fill="#F0F0F0"/>
</svg>
