<svg width="164" height="201" viewBox="0 0 164 201" fill="none" xmlns="http://www.w3.org/2000/svg">
<path d="M31.908 31.044C34.6362 28.6583 35.8771 25.3549 37.2678 22.1772C39.1364 17.8934 42.0722 15.0586 46.6787 13.7112C51.9177 12.1754 56.1572 8.59192 60.7781 5.84878C65.428 3.09116 69.7641 4.37093 74.2257 5.56864C80.4884 7.25412 86.7028 11.0549 93.2213 8.82369C102.246 5.73284 107.601 11.0743 113.931 15.5608C119.402 19.4389 123.796 24.22 127.625 29.4358C132.352 35.888 135.235 43.3592 136.756 51.2891C136.896 52.0087 137.326 52.6752 137.62 53.3658C137.639 54.6891 137.664 56.0124 137.683 57.3356C137.591 60.383 137.707 63.4593 137.359 66.4778C136.563 73.3742 134.694 80.1355 136.891 87.1913C138.866 93.5276 135.182 101.622 129.716 104.539C127.818 105.553 125.153 105.423 124.119 107.746C121.512 113.618 118.808 119.36 114.607 124.388C112.676 126.696 109.682 128.725 108.943 131.323C106.915 138.466 106.997 145.922 109.812 152.93C111.753 157.759 114.395 162.323 119.3 164.955C120.107 165.767 120.918 166.573 121.724 167.384C122.391 168.819 124.081 168.365 125.08 169.196C125.727 169.732 126.394 170.244 127.055 170.765C126.287 171.523 125.418 171.808 124.317 171.581C121.174 170.929 118.349 169.34 114.766 170.118C108.673 171.436 103.13 174.02 97.4898 176.42C94.3271 177.768 91.2851 179.386 88.1851 180.883C86.3985 181.168 84.4816 180.279 82.7916 181.472C77.5912 180.294 72.275 179.468 67.2243 177.826C63.5545 176.638 60.1697 176.102 56.5773 177.546C55.0901 177.623 54.9935 176.7 55.1673 175.58C58.5377 174.711 61.8887 173.431 64.0664 170.76C67.9099 166.047 70.8602 160.894 71.57 154.504C72.1349 149.385 71.3575 147.661 66.2827 147.033C64.4237 146.806 62.5502 146.507 60.7491 145.995C48.1079 142.402 34.1147 123.997 33.8829 110.701C33.7284 101.815 33.1731 92.8997 33.656 84.0473C34.023 77.3054 31.7728 71.2879 30.1263 65.1062C28.3928 58.6058 28.2721 52.1488 28.8612 45.5662C29.1364 42.4802 30.7733 39.6357 30.4112 36.4482C31.2658 34.7434 32.5889 33.169 31.908 31.0392V31.044ZM114.747 164.632C107.248 156.663 104.38 147.192 105.573 136.399C105.64 135.805 105.592 135.196 105.602 134.597C105.095 134.742 104.438 134.737 104.105 135.066C101.469 137.62 98.3058 139.417 95.0707 140.977C89.4406 143.691 83.6125 146.077 77.3015 146.492C74.4671 146.676 73.2455 147.56 73.4628 150.433C74.0808 158.532 71.6086 165.607 66.273 171.707C65.6405 172.431 64.4285 173.301 64.5444 173.899C64.7907 175.179 66.273 174.899 67.3498 175.121C69.175 175.498 70.9374 176.145 72.7578 176.556C77.3112 177.584 81.7921 179.54 86.6013 177.86C89.4647 178.227 91.6038 176.348 93.9842 175.343C100.768 172.475 107.152 168.568 114.684 167.689C115.293 167.616 116.278 167.143 116.336 166.742C116.481 165.718 115.751 164.989 114.752 164.632H114.747ZM35.515 88.1283C35.6888 89.4612 35.8627 90.7893 36.0365 92.1222C34.7714 96.2611 35.2398 100.439 35.7757 104.621C36.4228 114.671 38.866 123.929 45.5681 131.975C51.9322 139.62 59.4599 144.401 69.4985 144.594C73.3904 144.671 77.0794 144.029 80.9567 142.609C83.907 141.528 87.7023 141.648 90.8457 140.224C103.27 134.578 112.511 125.518 118.808 113.464C119.648 111.855 121.869 109.634 120.739 108.489C117.195 104.886 120.879 105.027 122.545 104.611C129.431 102.887 133.868 99.0428 135.22 91.7745C136.22 86.4234 132.4 81.5119 127.306 82.4585C124.037 83.0622 122.058 85.6266 120.295 88.2876C119.711 89.1666 119.32 90.6299 118.064 90.4705C116.939 90.3256 117.166 88.9203 116.905 88.0075C115.906 84.5496 116.374 81.0096 116.485 77.5276C116.765 68.7573 115.993 60.0932 112.444 52.0763C106.587 38.8533 96.5337 31.1551 81.6472 30.6963C80.8891 30.6722 79.6675 30.3583 79.5275 31.2469C79.3488 32.3866 80.7877 31.7782 81.2561 32.179C82.5453 33.2849 85.3749 32.4736 85.3749 34.6178C85.3749 36.1584 83.2503 36.8732 81.6665 36.9312C73.0041 37.2547 64.5541 36.2309 56.6255 32.4639C53.4773 30.9668 47.6685 32.5025 45.9592 35.405C44.9066 37.1871 43.9409 39.0223 42.8303 40.7657C39.1026 46.619 37.0939 53.1629 35.4039 59.7793C34.1051 64.8647 35.0708 70.0709 35.4039 75.224L35.515 88.1283Z" fill="#0C0A0A"/>
<path d="M82.7967 181.482C84.4867 180.293 86.4037 181.177 88.1903 180.892C86.1719 184.244 86.4278 187.987 86.7176 191.594C86.9976 195.038 84.6895 197.269 82.7533 198.761C79.9817 200.891 75.9595 200.906 72.8064 199.095C60.3583 191.942 51.5076 181.709 48.7553 167.375C47.1232 158.885 41.1599 155.407 34.5641 151.809C25.1387 146.666 17.611 139.316 11.6235 130.434C3.69982 118.684 -0.235472 105.76 0.633672 91.5136C1.81667 72.0992 7.4468 54.4716 20.9572 39.8528C23.7819 36.7958 27.0074 34.2796 30.0204 31.4882C30.566 30.9811 31.1503 30.6431 31.9084 31.0536C32.594 33.1833 31.2662 34.7578 30.4115 36.4626C27.5916 38.2205 24.9745 40.2006 23.2507 43.132C22.5071 43.2093 21.9615 43.5474 21.7297 44.2911C17.7172 48.826 14.4144 53.9114 11.9374 59.3542C8.26282 67.4242 5.75196 75.8709 4.82005 84.8296C3.15902 100.825 5.70851 115.545 15.2546 128.947C22.1402 138.615 31.1261 145.43 41.3096 151.075C45.2787 153.277 49.2768 155.707 50.2908 160.725C51.3337 165.882 52.9272 170.842 55.1773 175.599C55.0035 176.715 55.1049 177.637 56.5921 177.565C56.5969 177.888 56.4762 178.299 56.6259 178.516C61.7731 185.915 67.3743 192.932 76.2009 196.076C78.2772 196.815 82.1545 197.535 82.7919 194.338C83.6176 190.204 83.5307 185.775 82.8064 181.491L82.7967 181.482Z" fill="#BF8BD5"/>
<path d="M137.683 57.3403C137.664 56.017 137.64 54.6938 137.62 53.3705C141.237 53.8583 143.825 56.5386 147.123 57.8039C151.59 59.5184 156.278 60.9286 159.195 65.4779C164.245 73.3548 164.197 81.956 163.656 90.7504C162.792 104.746 151.903 111.28 142.633 118.901C137.572 123.06 133.226 127.908 130.141 133.438C128.152 137.007 128.823 141.687 132.169 145.304C134.868 148.226 137.789 151.186 139.059 155.021C140.358 158.962 134.955 164.434 129.47 165.404C126.853 165.863 124.308 166.713 121.73 167.389C120.923 166.578 120.112 165.771 119.306 164.96C122.092 162.743 125.515 161.946 128.818 161.121C135.819 159.367 136.766 156.769 132.01 151.399C131.276 150.568 130.498 149.771 129.735 148.97C124.844 143.855 124.303 133.646 128.325 128.531C133.492 121.973 139.335 116.192 145.998 111.145C150.233 107.939 154.912 104.954 157.36 100.028C161.107 92.4939 161.725 84.5253 159.837 76.3007C158.692 71.3167 156.988 66.4583 152.198 64.2368C147.34 61.9814 142.285 60.1414 137.683 57.3354V57.3403Z" fill="#BF8BD5"/>
<path d="M135.235 138.142C134.394 135.148 137.229 133.602 138.74 131.555C142.453 126.517 146.036 121.263 152.178 118.694C154.38 117.771 156.519 117.457 158.436 119.022C160.498 120.703 161.019 123.277 160.223 125.527C157.301 133.8 152.579 140.697 144.129 144.266C139.31 146.299 135.273 143.619 135.235 138.142ZM139.088 138.181C138.846 140.151 139.638 141.107 141.541 140.711C142.82 140.446 144.09 139.958 145.264 139.373C151.111 136.476 154.361 131.381 156.355 125.469C157.036 123.451 156.886 120.978 153.347 122.437C149.667 123.948 146.833 126.537 144.505 129.623C142.468 132.322 139.865 134.718 139.088 138.176V138.181Z" fill="#BF8BD5"/>
<path d="M36.6152 172.547C32.535 171.219 27.0401 169.852 22.8006 165.844C21.4293 164.545 19.1647 164.081 19.2854 161.27C19.4834 156.61 23.8822 154.21 28.4018 155.615C34.1574 157.407 38.7687 160.251 41.7624 165.477C42.6943 167.109 43.3559 168.896 42.2743 170.837C41.2844 172.62 39.7055 172.793 36.6103 172.537L36.6152 172.547ZM26.1661 159.165C25.0555 159.15 23.8243 159.034 23.3511 160.343C22.873 161.676 23.7373 162.439 24.7369 163.217C28.0734 165.81 32.197 166.776 35.8667 168.674C36.5234 169.012 37.663 169.123 38.3148 168.307C38.5514 168.012 38.6094 167.375 38.4645 167.008C36.929 163.052 30.7484 159.141 26.1613 159.169L26.1661 159.165Z" fill="#BF8BD5"/>
<path d="M87.3643 5.53967C84.7279 5.67489 82.4971 5.46723 80.5416 3.54994C79.4455 2.4778 79.8656 2.07695 80.4257 1.1014C81.2755 -0.376417 81.9032 0.922687 82.2702 1.23177C84.67 3.27946 87.4706 2.80135 90.1649 2.50676C92.5599 2.24597 94.9162 1.60366 97.2677 1.03861C98.499 0.744015 99.6965 0.657102 100.088 2.05282C100.508 3.55478 98.7598 3.8445 98.1224 3.88314C94.4092 4.11012 90.9809 6.10955 87.3643 5.53967Z" fill="#0C0A0A"/>
<path d="M36.0364 92.1174C35.8625 90.7844 35.6887 89.4563 35.5149 88.1282C37.229 83.8155 37.0021 79.5125 35.4038 75.2191C35.0755 70.0661 34.1098 64.8599 35.4038 59.7744C37.0938 53.1581 39.0977 46.6142 42.8302 40.7609C43.9407 39.0174 44.9065 37.1823 45.9591 35.4002C47.6684 32.4977 53.4772 30.9619 56.6254 32.4591C64.5588 36.226 73.0088 37.2499 81.6664 36.9263C83.2502 36.8684 85.3748 36.1536 85.3748 34.613C85.3748 32.4639 82.5404 33.2753 81.256 32.1741C80.7924 31.7781 79.3535 32.3818 79.5274 31.242C79.6674 30.3486 80.889 30.6673 81.6471 30.6915C96.5336 31.1503 106.587 38.8484 112.444 52.0715C115.993 60.0884 116.765 68.7524 116.485 77.5227C116.374 80.9999 115.906 84.5399 116.905 88.0027C117.166 88.9106 116.944 90.3208 118.064 90.4657C119.32 90.625 119.716 89.1617 120.295 88.2827C122.062 85.6217 124.037 83.0573 127.306 82.4536C132.4 81.5119 136.215 86.4186 135.22 91.7696C133.863 99.0379 129.431 102.882 122.545 104.606C120.879 105.026 117.195 104.886 120.739 108.484C121.869 109.629 119.648 111.851 118.808 113.459C112.511 125.513 103.269 134.573 90.8455 140.219C87.7021 141.648 83.902 141.523 80.9566 142.604C77.0793 144.029 73.3902 144.667 69.4984 144.589C59.4598 144.396 51.932 139.615 45.568 131.97C38.8659 123.924 36.4275 114.666 35.7804 104.621C37.118 100.482 36.4613 96.2997 36.0412 92.1174H36.0364ZM72.0479 116.632C71.4057 116.632 70.7635 116.646 70.1213 116.632C68.8321 116.593 67.5187 116.593 66.9731 118.052C66.3502 119.703 67.8132 120.239 68.7451 121.017C71.3671 123.209 74.467 124.228 77.8132 124.339C86.4853 124.624 92.9073 120.838 96.6157 110.88C97.4462 108.644 98.1512 105.688 96.2777 104.278C94.4042 102.868 92.9798 105.654 91.6761 106.929C86.1763 112.324 80.0923 116.434 72.0479 116.641V116.632ZM81.5988 82.7482C81.734 85.4479 83.6413 88.278 85.6452 87.8433C89.7205 86.9595 88.7354 82.8351 88.8851 79.6622C88.9382 78.479 88.2816 77.5083 87.4124 77.6338C84.496 78.0588 81.3767 78.5369 81.5988 82.7482ZM51.6954 83.3422C52.0914 80.7247 51.0677 78.6528 48.4458 78.5949C45.6935 78.5369 44.9547 80.8358 44.9547 83.3036C44.9547 85.5396 45.3217 88.2828 47.6781 88.3552C50.1841 88.4276 52.2797 86.549 51.7003 83.3422H51.6954ZM85.2444 60.6293C83.0908 60.2429 80.9614 61.4503 78.6872 61.5565C77.6394 61.6048 77.6828 62.2568 77.847 62.8364C78.0353 63.5077 78.1222 64.7488 79.1314 64.4156C84.2207 62.7446 89.2521 63.5221 94.3076 64.4591C95.0367 64.5943 96.0169 64.4832 96.0604 63.696C96.0845 63.1938 95.2733 62.3534 94.6746 62.1651C91.6761 61.233 88.6196 60.5037 85.2444 60.6196V60.6293ZM47.9195 61.5469C44.2594 61.6676 40.7587 61.2474 37.8567 63.8843C37.0648 64.6039 37.1228 65.2945 37.2821 65.9417C37.5332 66.9269 38.1078 66.159 38.5231 65.9417C41.3623 64.4397 44.3801 63.9085 47.5911 63.9182C49.653 63.923 53.1005 64.8792 53.2889 62.5901C53.4241 60.9432 49.6723 61.9429 47.9147 61.5517L47.9195 61.5469ZM122.217 95.0392C122.082 96.2224 122.246 97.2655 123.028 98.1976C123.38 98.613 122.898 99.7527 123.854 99.5837C124.626 99.4436 124.897 98.4536 124.602 97.7871C122.502 93.006 127.012 92.214 129.218 90.0552C129.788 89.495 131.106 89.3887 130.696 88.2827C130.338 87.3217 129.339 87.0706 128.257 87.2976C124.023 88.1814 122.589 91.1997 122.212 95.0392H122.217ZM61.3719 98.8786C61.4443 105.601 62.5839 106.833 66.553 105.538C67.567 105.205 68.354 104.505 68.1174 103.322C67.8229 101.878 66.4419 102.549 66.0315 102.815C63.2454 104.635 63.3033 102.607 63.3468 100.864C63.4047 98.4101 63.6413 95.9665 63.82 93.5179C63.8731 92.7983 63.6268 92.0932 62.946 92.0835C62.6032 92.0787 62.0141 92.8901 61.9465 93.3923C61.6423 95.5849 61.483 97.7968 61.3767 98.8834L61.3719 98.8786Z" fill="white"/>
<path d="M55.1714 175.59C52.9213 170.837 51.3279 165.873 50.2849 160.715C49.2709 155.697 45.2729 153.268 41.3038 151.066C31.1251 145.42 22.1343 138.606 15.2488 128.937C5.70267 115.535 3.15318 100.815 4.81421 84.8199C5.74613 75.8613 8.25699 67.4146 11.9315 59.3446C14.4086 53.9018 17.7113 48.8163 21.7239 44.2814C21.8832 44.6243 22.2309 44.9962 22.1778 45.3005C21.2314 50.6901 21.8832 56.0267 22.6655 61.3536C23.8195 69.2111 26.8518 76.634 25.8475 85.0035C24.7466 94.1794 26.0165 103.495 28.1169 112.57C28.4984 114.217 28.1314 117.221 30.4781 116.883C32.6075 116.578 31.0575 113.811 31.4245 112.188C31.4728 111.976 31.3279 111.725 31.2941 111.493C30.3864 105.48 29.073 99.487 28.6915 93.4405C28.2763 86.8676 29.8842 79.9953 28.5322 73.6977C26.5138 64.2802 24.2782 55.027 24.8528 45.3343C24.9349 43.9579 24.1189 43.6053 23.2401 43.1224C24.9687 40.1909 27.581 38.2108 30.4008 36.4529C30.763 39.6404 29.1261 42.4849 28.8509 45.5709C28.2618 52.1535 28.3825 58.6056 30.116 65.1109C31.7625 71.2926 34.0126 77.3101 33.6456 84.052C33.1628 92.9092 33.7181 101.82 33.8726 110.706C34.1044 124.001 48.1024 142.406 60.7388 145.999C62.535 146.511 64.4085 146.811 66.2724 147.038C71.3472 147.661 72.1246 149.39 71.5596 154.509C70.8547 160.898 67.8996 166.051 64.056 170.765C61.8783 173.44 58.5273 174.715 55.157 175.585L55.1714 175.59Z" fill="white"/>
<path d="M137.683 57.3404C142.285 60.1511 147.34 61.9863 152.198 64.2416C156.988 66.468 158.692 71.3217 159.837 76.3057C161.725 84.5302 161.107 92.5037 157.36 100.033C154.907 104.959 150.233 107.943 145.998 111.15C139.34 116.192 133.497 121.973 128.326 128.536C124.299 133.651 124.844 143.855 129.735 148.974C130.503 149.776 131.276 150.573 132.01 151.404C136.766 156.769 135.819 159.368 128.818 161.125C125.515 161.951 122.097 162.748 119.306 164.965C114.405 162.338 111.759 157.769 109.818 152.939C107.003 145.932 106.925 138.475 108.948 131.332C109.687 128.734 112.681 126.706 114.612 124.397C118.813 119.37 121.517 113.628 124.125 107.755C125.158 105.432 127.823 105.558 129.721 104.548C135.187 101.631 138.871 93.5323 136.896 87.2009C134.694 80.145 136.568 73.379 137.365 66.4873C137.712 63.4689 137.596 60.3926 137.688 57.3452L137.683 57.3404ZM154.245 74.7505C154.303 71.1477 152.213 68.6799 149.47 68.7572C145.206 68.8828 144.641 72.3069 144.501 75.3398C144.381 77.9042 145.481 80.5411 148.818 80.4107C152.695 80.261 153.613 77.2377 154.245 74.7457V74.7505ZM147.944 89.8861C148.258 90.9099 147.36 94.4306 151.155 94.3968C154.385 94.3678 156.481 92.1028 156.476 88.7318C156.471 85.781 154.912 83.8203 151.701 83.7768C148.446 83.7285 147.471 85.641 147.944 89.8861ZM113.048 137.886C111.961 138.388 111.16 138.949 112.28 140.272C113.965 142.262 115.718 144.15 118.089 145.367C118.553 145.604 118.688 146.579 119.422 145.536C119.798 145 120.75 144.551 120.262 143.908C118.34 141.392 116.351 138.881 113.048 137.886ZM121.237 133.68C120.18 133.467 119.117 132.974 118.152 133.124C116.742 133.341 114.883 133.438 114.646 135.36C114.516 136.423 115.506 137.017 116.578 136.882C118.509 136.635 120.16 135.843 121.237 133.68ZM124.12 125.851C120.696 125.725 119.383 126.479 119.306 128.594C119.286 129.179 118.919 130.405 120.117 130.086C121.86 129.623 123.748 129.053 124.178 126.865C124.443 125.498 123.396 125.817 124.12 125.851Z" fill="white"/>
<path d="M86.5955 177.855C81.7814 179.535 77.3053 177.584 72.752 176.551C70.9364 176.14 69.1691 175.493 67.3439 175.116C66.2672 174.894 64.7848 175.17 64.5385 173.895C64.4227 173.296 65.6298 172.426 66.2672 171.702C71.6028 165.602 74.075 158.527 73.4569 150.428C73.2396 147.56 74.4613 146.671 77.2956 146.487C83.6066 146.072 89.4347 143.686 95.0648 140.972C98.3 139.412 101.463 137.616 104.099 135.061C104.432 134.737 105.089 134.742 105.596 134.592C105.591 135.191 105.635 135.8 105.567 136.394C104.374 147.188 107.247 156.658 114.741 164.627C114.379 165.028 114.085 165.675 113.65 165.791C109.773 166.834 105.871 167.776 101.979 168.761C95.9629 170.282 89.9658 171.852 86.5955 177.855Z" fill="white"/>
<path d="M82.796 181.481C83.5203 185.77 83.6072 190.199 82.7815 194.328C82.1441 197.52 78.2668 196.805 76.1905 196.066C67.3638 192.923 61.7627 185.905 56.6154 178.507C56.4609 178.289 56.5865 177.879 56.5816 177.555C60.1789 176.111 63.5638 176.647 67.2287 177.835C72.2793 179.472 77.5956 180.303 82.796 181.481Z" fill="white"/>
<path d="M86.5966 177.855C89.967 171.852 95.9641 170.287 101.98 168.761C105.872 167.776 109.774 166.834 113.651 165.791C114.086 165.675 114.38 165.028 114.742 164.627C115.747 164.989 116.476 165.713 116.326 166.737C116.268 167.133 115.283 167.611 114.675 167.684C107.147 168.558 100.759 172.47 93.9747 175.339C91.5942 176.343 89.4551 178.222 86.5918 177.855H86.5966Z" fill="#BF8BD5"/>
<path d="M35.4033 75.2239C36.9968 79.5173 37.2285 83.8204 35.5144 88.1331C35.4758 83.8252 35.4419 79.527 35.4033 75.2239Z" fill="#BF8BD5"/>
<path d="M36.0364 92.1173C36.4565 96.2948 37.1132 100.482 35.7757 104.621C35.2397 100.438 34.7665 96.261 36.0364 92.1173Z" fill="#BF8BD5"/>
<path d="M23.2509 43.1225C24.1297 43.6103 24.9457 43.9581 24.8636 45.3345C24.289 55.0223 26.5295 64.2804 28.543 73.6979C29.8902 79.9955 28.2871 86.8678 28.7023 93.4407C29.0838 99.4872 30.3972 105.476 31.3049 111.493C31.3387 111.73 31.4836 111.981 31.4353 112.189C31.0683 113.816 32.6183 116.579 30.4889 116.883C28.1422 117.216 28.5044 114.212 28.1277 112.57C26.0273 103.496 24.7574 94.1844 25.8583 85.0036C26.8626 76.6342 23.8303 69.2064 22.6763 61.3537C21.894 56.0268 21.2422 50.6903 22.1886 45.3006C22.2417 44.9964 21.894 44.6245 21.7347 44.2816C21.9665 43.5379 22.5121 43.1998 23.2557 43.1225H23.2509Z" fill="#0C0A0A"/>
<path d="M139.088 138.181C139.865 134.723 142.468 132.327 144.505 129.628C146.833 126.537 149.667 123.953 153.347 122.441C156.886 120.988 157.036 123.455 156.355 125.474C154.361 131.385 151.111 136.481 145.264 139.378C144.085 139.963 142.82 140.446 141.541 140.716C139.638 141.112 138.851 140.156 139.088 138.185V138.181Z" fill="white"/>
<path d="M26.163 159.155C30.7502 159.131 36.9356 163.047 38.4711 167.003C38.6159 167.375 38.5532 168.007 38.3214 168.302C37.6695 169.118 36.5252 169.007 35.8733 168.669C32.2036 166.771 28.08 165.805 24.7434 163.212C23.7439 162.434 22.8796 161.676 23.3576 160.338C23.826 159.034 25.0573 159.15 26.1679 159.155H26.163Z" fill="white"/>
<path d="M72.0483 116.631C80.0927 116.424 86.1719 112.314 91.6765 106.919C92.9753 105.644 94.4046 102.858 96.2781 104.268C98.1516 105.678 97.4466 108.634 96.6161 110.87C92.9078 120.833 86.4857 124.614 77.8136 124.33C74.4626 124.218 71.3675 123.199 68.7455 121.007C67.8136 120.229 66.3506 119.693 66.9735 118.042C67.5239 116.588 68.8373 116.583 70.1217 116.622C70.7639 116.641 71.4061 116.622 72.0483 116.622V116.631ZM78.5041 121.461C86.7996 121.461 93.0333 116.786 94.3177 109.629C94.3901 109.223 95.0227 108.793 94.3322 108.47C93.69 108.17 93.5162 108.827 93.1154 109.17C88.6441 112.985 84.0859 116.728 78.3448 118.496C76.7417 118.993 74.1149 119.389 74.2646 120.621C74.4336 122.007 76.9783 121.316 78.5041 121.456V121.461Z" fill="#0C0A0A"/>
<path d="M81.5996 82.748C81.3775 78.5319 84.4967 78.0586 87.4132 77.6336C88.2823 77.5081 88.9439 78.4788 88.8859 79.662C88.7362 82.8349 89.7213 86.9593 85.6459 87.8431C83.6372 88.2778 81.7348 85.4477 81.5996 82.748Z" fill="#0C0A0A"/>
<path d="M51.6957 83.3421C52.28 86.5489 50.1844 88.4324 47.6735 88.3551C45.3172 88.2827 44.9502 85.5396 44.9502 83.3035C44.9502 80.8308 45.689 78.532 48.4413 78.5948C51.068 78.6527 52.0917 80.7246 51.6909 83.3421H51.6957Z" fill="#0C0A0A"/>
<path d="M85.2447 60.6292C88.6199 60.5132 91.6763 61.2377 94.6749 62.1746C95.2688 62.3581 96.0848 63.2032 96.0607 63.7055C96.0221 64.4927 95.0419 64.6038 94.3079 64.4686C89.2524 63.5317 84.2162 62.7541 79.1317 64.4251C78.1225 64.7583 78.0356 63.5172 77.8473 62.8459C77.6831 62.2615 77.6397 61.6144 78.6875 61.5661C80.9617 61.4598 83.0863 60.2525 85.2447 60.6388V60.6292Z" fill="#0C0A0A"/>
<path d="M47.925 61.5467C49.6826 61.9379 53.4344 60.9334 53.2992 62.5851C53.1109 64.8791 49.6633 63.9228 47.6015 63.9132C44.3905 63.9035 41.3727 64.4347 38.5335 65.9367C38.1182 66.1589 37.5436 66.9267 37.2925 65.9367C37.1283 65.2895 37.0752 64.5989 37.8671 63.8793C40.7691 61.2425 44.2698 61.6626 47.9299 61.5419L47.925 61.5467Z" fill="#0C0A0A"/>
<path d="M122.222 95.0391C122.594 91.2046 124.028 88.1814 128.267 87.2976C129.349 87.0706 130.348 87.3217 130.706 88.2827C131.116 89.3887 129.798 89.495 129.228 90.0552C127.022 92.2139 122.512 93.006 124.612 97.7871C124.902 98.4536 124.636 99.4436 123.864 99.5837C122.908 99.7527 123.39 98.6178 123.038 98.1976C122.256 97.2655 122.092 96.2224 122.227 95.0391H122.222Z" fill="#0C0A0A"/>
<path d="M61.3774 98.8786C61.4836 97.792 61.6381 95.5753 61.9472 93.3875C62.0148 92.8853 62.6087 92.0739 62.9467 92.0787C63.6275 92.0884 63.8738 92.7983 63.8207 93.5131C63.6468 95.9616 63.4054 98.4101 63.3474 100.859C63.304 102.602 63.2461 104.631 66.0321 102.81C66.4426 102.544 67.8284 101.873 68.1181 103.317C68.3595 104.5 67.5676 105.2 66.5536 105.534C62.5845 106.828 61.445 105.596 61.3726 98.8738L61.3774 98.8786Z" fill="#0C0A0A"/>
<path d="M154.246 74.7504C153.608 77.2424 152.691 80.2705 148.818 80.4154C145.482 80.5409 144.381 77.9089 144.502 75.3444C144.642 72.3115 145.206 68.8874 149.47 68.7619C152.213 68.6798 154.308 71.1524 154.246 74.7552V74.7504ZM151.276 74.4317C150.687 73.8908 150.175 73.0311 149.499 72.8814C148.408 72.6399 147.795 73.6879 147.626 74.5765C147.452 75.5038 148.166 76.2813 149.084 76.3634C150.156 76.46 150.581 75.4748 151.271 74.4317H151.276Z" fill="#BF8BD5"/>
<path d="M147.943 89.8862C147.47 85.6411 148.45 83.7287 151.7 83.777C154.911 83.8252 156.471 85.7812 156.475 88.732C156.48 92.1029 154.385 94.3631 151.154 94.3969C147.354 94.4356 148.252 90.9149 147.943 89.8862Z" fill="#BF8BD5"/>
<path d="M113.052 137.886C116.355 138.881 118.345 141.392 120.266 143.908C120.754 144.551 119.803 144.995 119.426 145.536C118.692 146.579 118.557 145.603 118.093 145.367C115.723 144.15 113.97 142.261 112.285 140.272C111.164 138.948 111.966 138.393 113.052 137.886Z" fill="#0C0A0A"/>
<path d="M121.237 133.675C120.16 135.833 118.509 136.625 116.577 136.877C115.505 137.017 114.51 136.418 114.646 135.355C114.887 133.433 116.741 133.332 118.151 133.119C119.117 132.97 120.179 133.462 121.237 133.675Z" fill="#0C0A0A"/>
<path d="M124.119 125.846C123.394 125.812 124.442 125.494 124.177 126.86C123.747 129.053 121.859 129.618 120.116 130.082C118.918 130.4 119.285 129.174 119.305 128.589C119.382 126.474 120.695 125.716 124.119 125.846Z" fill="#0C0A0A"/>
<path d="M78.4986 121.475C76.9776 121.321 74.4281 122.011 74.264 120.625C74.1143 119.394 76.7362 118.993 78.3441 118.5C84.0853 116.728 88.6386 112.985 93.1147 109.175C93.5155 108.832 93.6941 108.175 94.3315 108.475C95.022 108.798 94.3895 109.228 94.317 109.634C93.0278 116.791 86.7989 121.461 78.4986 121.48V121.475Z" fill="white"/>
<path d="M151.27 74.4319C150.58 75.4751 150.155 76.4555 149.083 76.3637C148.165 76.2816 147.446 75.504 147.625 74.5768C147.794 73.6882 148.407 72.6402 149.498 72.8816C150.169 73.0314 150.686 73.8862 151.275 74.4319H151.27Z" fill="white"/>
</svg>
