<svg width="207" height="201" viewBox="0 0 207 201" fill="none" xmlns="http://www.w3.org/2000/svg">
<path d="M88.4161 180.483C86.9232 180.323 85.4303 180.182 83.9424 179.994C82.4198 179.805 82.2765 179.269 83.5618 178.435C84.8816 178.002 86.2015 177.569 87.5214 177.136C93.1963 176.538 99.3408 176.755 103.098 171.671C106.019 167.721 108.204 163.306 109.771 158.659C110.602 156.188 114.24 152.78 106.924 154.409C97.927 156.414 90.4676 152.45 84.1253 146.458C76.918 139.646 72.1477 131.592 70.0913 122.078C69.9578 121.466 70.1357 119.159 68.2474 120.515C65.3852 122.568 65.0194 119.964 64.8563 118.736C63.4277 107.918 61.6629 97.1568 57.7429 86.8804C55.0141 79.7251 52.0778 72.664 50.1746 65.2356C48.7856 59.8173 48.5434 47.2908 54.9301 43.9062C58.6475 41.9338 62.3995 40.7004 63.5463 36.2425C63.8973 34.8726 64.8958 33.5781 65.8301 32.4247C71.9302 24.874 79.7801 19.4746 89.0044 15.9487C96.6813 13.0113 104.951 12.2816 112.979 12.7665C121.185 13.2608 129.357 14.8472 137.32 17.4315C145.996 20.2466 153.346 25.147 160.771 29.8215C167.208 33.8746 171.296 39.9896 173.609 47.2767C176.204 55.463 177.005 63.7339 176.358 72.1414C176.14 74.9894 175.532 77.9127 174.899 80.6807C174.375 82.9638 173.846 85.4305 173.293 87.7136C172.635 90.4298 172.032 93.1696 170.969 95.7539C167.593 103.973 163.129 111.59 157.81 118.877C153.608 124.629 149.145 130.038 143.791 134.802C143.178 135.348 142.051 135.706 141.245 135.593C140.85 135.537 140.484 134.228 140.39 133.456C140.158 131.521 140.365 129.591 141.156 127.783C141.413 127.195 141.225 126.889 140.805 126.625C140.677 126.545 140.237 126.687 140.128 126.842C139.184 128.169 137.997 129.417 137.894 131.112C137.187 142.899 141.285 153.081 148.789 162.369C154.137 168.992 160.391 173.469 169.516 173.337C170.238 174.335 173.016 173.85 171.805 176.232C170.604 176.101 169.392 176.035 168.206 175.828C163.871 175.055 159.303 172.965 155.269 173.676C145.472 175.399 136.806 180.064 128.941 185.958C126.92 187.474 124.369 188.345 122.07 187.21C116.39 184.404 110.641 181.881 104.427 180.304C100.918 179.415 97.6799 176.609 93.7895 179.207C91.9209 179.349 89.9436 179.071 88.4062 180.483H88.4161ZM134.933 77.2396C134.933 75.785 135.121 75.1542 134.903 74.7023C133.811 72.4333 133.46 68.3802 129.881 69.7171C127.068 70.7669 124.265 71.9202 121.329 72.7393C115.352 74.4104 109.321 75.0412 103.093 74.2598C94.7287 73.21 86.7848 70.9504 79.2413 67.3916C78.7272 67.1468 78.2329 66.6667 77.7682 67.2033C77.5754 67.4246 77.6891 68.1307 77.9313 68.399C78.7124 69.2793 79.7999 70.2255 79.0831 71.3412C78.3169 72.5368 76.8982 73.1347 75.3015 73.1818C72.4047 73.2665 69.8639 72.0096 67.239 71.1952C65.6868 70.7104 65.756 71.1434 65.7214 72.3109C65.5533 77.6633 67.323 82.7849 67.6888 88.0573C68.3265 97.3168 69.8095 106.473 71.1887 115.643C72.6865 125.632 75.9886 134.887 83.5716 142.362C87.5312 146.265 91.8369 149.678 97.1312 151.791C103.74 154.427 109.297 151.198 114.635 148.374C124.028 143.393 131.497 136.365 137.004 127.496C140.355 122.101 142.249 116.109 143.524 110.135C144.622 105.004 145.996 99.7129 145.289 94.3276C145.225 93.8427 144.953 93.1601 144.562 92.9813C143.786 92.6235 143.742 93.4897 143.485 93.8992C141.68 96.7378 139.935 99.6093 138.082 102.424C137.627 103.112 136.856 103.611 136.228 104.199C135.644 103.436 134.962 102.843 134.898 101.704C134.77 99.3363 136.262 97.105 136.03 94.9913C135.343 88.7822 136.92 82.4601 134.938 77.2537L134.933 77.2396ZM153.752 171.567C152.793 170.372 152.323 169.604 151.681 169.002C142.699 160.552 137.291 150.389 135.427 138.507C135.289 137.622 135.867 136.144 134.814 136.017C133.637 135.871 132.594 136.949 131.784 137.984C128.274 142.489 123.578 145.662 118.753 148.774C117.171 149.791 114.69 150.247 114.245 152.45C112.535 160.919 109.148 168.573 102.762 174.858C101.778 175.828 102.114 176.727 103.567 177.127C108.896 178.6 113.933 180.69 118.916 183.035C121.175 184.094 123.41 187.3 126.485 185.021C134.384 179.174 142.911 174.575 152.57 171.967C152.931 171.869 153.277 171.732 153.747 171.577L153.752 171.567Z" fill="white"/>
<path d="M88.4162 180.483C89.9536 179.071 91.9309 179.353 93.7995 179.207C98.723 182.884 104.798 184.461 110.35 186.824C117.646 189.926 125.679 191.451 133.386 193.683C143.361 196.573 153.317 197.99 163.688 195.109C172.675 192.609 176.625 183.981 171.815 176.232C173.021 173.855 170.243 174.335 169.521 173.337C169.056 170.442 166.995 168.314 165.566 165.885C165.749 163.734 165.848 161.639 162.63 161.592C162.521 160.985 162.546 160.316 162.274 159.78C159.595 154.404 160.569 149.141 163.589 144.41C167.03 139.02 170.5 133.606 174.079 128.296C180.134 119.305 185.009 109.584 188.088 99.0772C189.927 92.7975 191.445 86.4754 191.909 80.0874C192.379 73.6382 192.152 67.1561 191.02 60.5798C188.978 48.6982 184.875 37.6875 177.732 28.0137C168.241 15.1624 154.558 7.83759 138.443 5.04137C130.958 3.74212 123.291 3.9869 115.659 4.88132C106.731 5.92166 98.5055 9.00033 90.5814 12.6345C81.0013 17.0312 71.8858 22.3318 62.454 27.0345C54.9055 30.8005 47.3472 34.7077 42.6857 41.6841C35.7502 52.0546 32.8188 63.7949 32.2849 75.959C31.6324 90.8062 34.633 105.14 39.8037 119.15C42.6758 126.926 46.2795 134.364 51.0597 141.133C60.0367 153.858 70.6648 165.198 84.1304 173.911C85.3613 174.707 87.477 175.065 87.5215 177.145C86.2016 177.579 84.8818 178.012 83.5619 178.445C75.3264 172.358 67.2193 166.125 60.2839 158.65C49.6063 147.135 41.0939 134.397 36.0419 119.71C31.1826 105.592 28.5973 91.1499 29.0026 76.2414C29.2893 65.6403 30.9602 55.218 35.859 45.7278C39.8828 37.937 46.0916 31.6525 54.0751 26.931C61.2972 22.6613 69.4982 20.2229 76.4584 15.5907C85.0548 9.8665 94.6003 5.9452 104.601 3.51616C119.134 -0.00971413 133.875 -1.22894 148.561 3.58677C166.792 9.56051 179.991 20.7548 187.792 37.5274C194.688 52.3559 196.284 67.9187 194.92 84.004C193.956 95.4054 190.807 106.162 185.547 116.25C181.296 124.408 175.769 131.954 171.093 139.924C168.305 144.664 164.133 148.938 164.543 154.969C164.79 158.579 167.796 161.117 168.636 164.492C167.598 164.854 167.143 165.673 167.712 166.483C168.463 167.561 169.225 168.889 171.009 168.658C175.043 173.591 179.348 178.675 177.747 185.379C175.76 193.711 168.364 198.993 160.539 199.929C149.931 201.196 139.797 199.896 129.772 196.695C123.331 194.638 116.563 193.311 110.409 190.675C103.943 187.902 96.1624 188.071 90.8483 182.79C90.0624 182.008 89.2368 181.26 88.4261 180.492L88.4162 180.483Z" fill="#BF8BD5"/>
<path d="M206.038 134.28C206.063 145.469 195.869 159.94 185.919 162.468C182.107 163.437 177.708 164.77 174.425 160.961C171.296 157.332 172.334 153.702 174.361 149.885C177.985 143.068 180.614 135.72 186.373 130.08C188.815 127.689 191.45 125.354 194.871 124.53C202.489 122.69 206.166 126.018 206.038 134.275V134.28ZM202.607 133.912C202.607 128.569 199.612 126.413 195.064 128.649C191.065 130.617 187.654 133.46 185.414 137.113C182.295 142.202 179.814 147.639 176.922 152.86C175.889 154.719 175.305 156.621 176.63 158.306C177.965 160.001 179.987 159.77 182.181 159.46C193.813 157.798 201.856 143.073 202.607 133.912Z" fill="#BF8BD5"/>
<path d="M61.0106 19.1168C59.8687 18.7543 58.4104 19.6581 57.6886 17.8599C56.5813 15.106 57.0905 12.2251 58.7218 10.3656C60.6546 8.16255 63.2598 6.26545 66.4531 5.27218C69.7602 4.24125 72.5136 4.51428 74.6047 7.14103C77.0862 10.2621 74.2092 12.4134 72.4345 14.3058C69.4784 17.4503 65.4595 18.8814 61.0155 19.1121L61.0106 19.1168ZM63.0521 15.2614C66.1368 15.332 68.2377 13.6373 70.1655 11.7637C70.8131 11.1329 72.1231 10.4974 71.3717 9.27821C70.65 8.11076 69.1967 7.84244 68.1339 8.36026C65.8105 9.49475 63.591 10.8693 61.5049 12.3616C60.971 12.7429 60.7634 14.0092 60.9611 14.7341C61.2182 15.6756 62.3749 15.0637 63.0571 15.2661L63.0521 15.2614Z" fill="#BF8BD5"/>
<path d="M205.702 111.232C205.435 113.911 204.372 117.159 200.151 117.338C196.275 117.502 195.341 114.184 195.381 111.383C195.43 107.942 196.33 104.576 201.318 104.632C205.712 104.679 205.559 107.574 205.702 111.232ZM199.207 111.242C199.464 111.924 198.668 113.586 200.329 113.374C201.772 113.19 202.687 111.901 202.608 110.286C202.558 109.274 202.756 107.975 201.159 108.144C199.464 108.323 199.133 109.66 199.207 111.242Z" fill="#BF8BD5"/>
<path d="M171.005 168.649C169.22 168.88 168.464 167.552 167.708 166.474C167.139 165.664 167.594 164.845 168.632 164.483C170.763 165.184 172.691 165.98 171 168.649H171.005Z" fill="white"/>
<path d="M165.573 165.886C167.001 168.315 169.063 170.442 169.527 173.337C160.402 173.469 154.149 168.992 148.8 162.369C141.296 153.081 137.198 142.899 137.905 131.112C138.009 129.417 139.195 128.17 140.139 126.842C140.253 126.682 140.688 126.545 140.817 126.625C141.237 126.884 141.42 127.195 141.167 127.784C140.377 129.591 140.169 131.526 140.401 133.456C140.495 134.228 140.856 135.537 141.256 135.593C142.057 135.706 143.184 135.348 143.802 134.802C149.151 130.043 153.62 124.63 157.822 118.877C163.145 111.59 167.609 103.973 170.981 95.7541C172.043 93.1697 172.642 90.43 173.304 87.7138C173.858 85.4354 174.391 82.964 174.91 80.6808C175.543 77.9129 176.151 74.9896 176.369 72.1416C177.016 63.7341 176.216 55.4631 173.62 47.2768C171.312 39.9897 167.219 33.8748 160.783 29.8217C153.353 25.1472 146.007 20.2467 137.331 17.4317C129.368 14.8473 121.192 13.2609 112.991 12.7666C104.963 12.2817 96.6925 13.0114 89.0156 15.9488C79.7913 19.4794 71.9414 24.8741 65.8413 32.4249C64.907 33.5829 63.9134 34.8727 63.5575 36.2426C62.4107 40.7006 58.6636 41.9339 54.9413 43.9063C48.5496 47.291 48.7918 59.8175 50.1859 65.2357C52.089 72.6641 55.0254 79.7252 57.7541 86.8805C61.6741 97.1569 63.4389 107.918 64.8675 118.736C65.0306 119.964 65.4014 122.568 68.2586 120.515C70.1469 119.159 69.9739 121.466 70.1024 122.078C72.1589 131.592 76.9242 139.642 84.1365 146.458C90.4738 152.451 97.9382 156.409 106.935 154.409C114.251 152.78 110.613 156.188 109.782 158.66C108.22 163.306 106.03 167.721 103.109 171.671C99.352 176.75 93.2124 176.538 87.5326 177.136C87.493 175.056 85.3723 174.698 84.1415 173.902C70.6759 165.189 60.0527 153.849 51.0707 141.124C46.2905 134.35 42.6869 126.917 39.8148 119.141C34.6441 105.131 31.6435 90.7971 32.296 75.9499C32.8299 63.7858 35.7613 52.0455 42.6968 41.675C47.3583 34.7033 54.9166 30.7914 62.4651 27.0254C71.8969 22.3227 81.0123 17.0174 90.5925 12.6254C98.5117 8.99123 106.742 5.91256 115.67 4.87222C123.307 3.98251 130.969 3.73302 138.454 5.03227C154.564 7.82849 168.252 15.1533 177.743 28.0046C184.886 37.6784 188.994 48.6891 191.031 60.5707C192.158 67.1517 192.385 73.6338 191.92 80.0783C191.456 86.4663 189.938 92.7884 188.099 99.0681C185.02 109.575 180.15 119.296 174.09 128.287C170.511 133.602 167.041 139.011 163.6 144.401C160.58 149.132 159.606 154.399 162.285 159.771C162.552 160.307 162.528 160.976 162.636 161.583C161.821 161.978 161.198 162.628 161.831 163.405C162.775 164.567 163.309 166.465 165.568 165.876L165.573 165.886ZM56.7951 102.208C57.1411 100.744 56.1228 99.6189 55.93 98.3997C54.5656 89.8604 51.1103 81.8765 48.8116 73.5914C48.6139 72.8853 47.3336 72.0003 46.5624 72.0097C45.6281 72.0192 45.9544 73.2337 45.9099 73.9869C45.7221 77.0797 47.4324 79.7299 48.2728 82.5544C51.392 93.0049 54.3778 103.455 55.9152 114.259C56.8593 120.915 58.5598 127.393 64.7192 131.714C67.0475 133.348 68.5552 135.518 69.6625 137.994C70.6561 140.202 71.6003 142.433 72.6631 144.608C73.1179 145.535 73.7111 146.83 74.9766 146.524C76.3854 146.18 75.7675 144.674 75.5302 143.944C74.0818 139.434 72.238 135.033 69.01 131.399C66.83 128.942 63.2263 127.233 62.0004 124.484C58.8614 117.427 58.2929 109.655 56.7802 102.203L56.7951 102.208ZM156.739 156.965C156.689 156.499 156.813 155.92 156.566 155.586C152.947 150.699 150.891 145.182 149.23 139.486C148.943 138.493 148.172 137.486 147.099 137.754C145.765 138.088 146.16 139.514 146.338 140.395C147.614 146.67 150.832 152.206 153.995 157.732C154.238 158.156 155.043 159.149 156.111 158.768C157.085 158.42 156.492 157.563 156.734 156.965H156.739ZM167.15 26.3429C166.334 26.71 165.464 27.1055 164.589 27.4962C165.755 29.1909 167.466 30.2642 169.512 30.2171C170.427 30.1983 172.671 30.5513 172.35 28.819C171.88 26.277 169.023 27.3314 167.15 26.3381V26.3429ZM161.079 19.3617C159.908 19.8937 157.762 18.5991 157.683 20.9528C157.634 22.3651 158.776 22.8594 160.204 22.8076C161.835 22.7464 163.309 22.1626 163.536 20.6186C163.828 18.6603 161.91 19.8701 161.079 19.3617ZM153.862 17.6341C155.617 17.0174 156.052 15.4357 156.576 13.9435C156.912 12.9831 155.661 12.5077 155.449 12.5971C154 13.2138 152.325 13.7787 152.255 15.6805C152.221 16.6267 152.552 17.4505 153.862 17.6388V17.6341ZM79.5986 153.726C79.4058 152.672 80.2363 151.151 78.0958 151.231C77.1763 151.264 76.5634 151.471 76.598 152.54C76.6523 154.164 77.8733 155.317 79.0548 155.689C79.9298 155.967 79.3168 154.371 79.5986 153.726Z" fill="white"/>
<path d="M134.934 77.2348C136.911 82.4412 135.334 88.7633 136.026 94.9724C136.258 97.086 134.765 99.3127 134.894 101.685C134.958 102.824 135.64 103.422 136.224 104.18C136.852 103.596 137.623 103.097 138.077 102.405C139.931 99.5951 141.676 96.7236 143.481 93.8803C143.743 93.466 143.782 92.5998 144.558 92.9623C144.944 93.1412 145.221 93.8238 145.285 94.3086C145.992 99.6987 144.617 104.985 143.52 110.116C142.245 116.09 140.346 122.083 137 127.477C131.493 136.346 124.024 143.374 114.631 148.355C109.298 151.184 103.736 154.409 97.1271 151.772C91.8328 149.663 87.5272 146.246 83.5676 142.343C75.9846 134.868 72.6873 125.618 71.1846 115.624C69.8103 106.454 68.3274 97.2979 67.6847 88.0383C67.3189 82.766 65.5492 77.6443 65.7173 72.2919C65.7519 71.1245 65.6827 70.6961 67.2349 71.1763C69.8647 71.9954 72.4056 73.2476 75.2974 73.1628C76.8941 73.1157 78.3128 72.5179 79.0791 71.3222C79.7958 70.2065 78.7083 69.2556 77.9273 68.3801C77.685 68.1117 77.5713 67.4056 77.7641 67.1844C78.2288 66.6477 78.7231 67.1279 79.2372 67.3727C86.7807 70.9315 94.7246 73.1958 103.089 74.2408C109.317 75.0223 115.353 74.3915 121.325 72.7203C124.261 71.9012 127.059 70.7479 129.877 69.6981C133.455 68.3612 133.806 72.4143 134.899 74.6833C135.116 75.1352 134.929 75.766 134.929 77.2206L134.934 77.2348ZM105.808 131.526C118.65 131.785 125.368 122.572 125.531 112.122C125.546 111.062 125.279 109.824 124.315 109.556C122.902 109.165 122.659 110.804 122.239 111.566C117.246 120.656 110.177 126.663 98.7188 126.305C97.3891 126.263 97.3347 127.021 97.0381 127.779C96.6674 128.729 97.3792 129.158 98.0515 129.52C100.612 130.904 103.247 132.053 105.808 131.521V131.526ZM92.7621 106.148C92.9302 107.433 93.0241 108.737 93.3059 110.003C93.3998 110.418 92.9895 111.533 94.1858 111.161C94.7988 110.968 95.5106 110.723 95.4019 109.735C94.8532 104.764 96.1532 100.005 97.3644 95.2407C97.567 94.4405 97.3841 93.6449 96.3411 93.4237C95.303 93.2024 95.4661 93.998 95.3129 94.5628C94.2797 98.3759 92.6732 102.081 92.7621 106.153V106.148ZM84.5068 90.924C84.576 88.8339 84.8133 86.3813 81.7138 86.3719C78.4265 86.3578 79.8749 89.0693 79.6228 90.6839C79.4893 91.5313 79.7167 92.4916 80.0232 93.3201C80.3643 94.238 79.9095 96.0739 81.7435 95.6597C83.1919 95.3349 84.2992 94.158 84.492 92.5528C84.5562 92.0161 84.5019 91.4654 84.5068 90.9193V90.924ZM121.043 90.4156C121.374 87.9677 120.395 86.306 117.933 86.0565C115.892 85.8494 115.323 87.2663 115.66 88.9939C116.025 90.8958 115.19 93.739 117.879 94.1298C119.797 94.4075 121.76 92.9105 121.043 90.4203V90.4156ZM119.421 78.5764C118.482 79.0283 117.33 78.1762 117.162 79.419C117.029 80.3982 117.889 80.53 118.724 80.7983C120.712 81.4338 122.59 82.3941 124.592 82.9543C125.279 83.1473 126.214 82.5495 127.034 82.3094C126.649 81.8198 126.367 81.0902 125.853 80.883C123.683 80.0074 121.443 79.2872 119.416 78.5764H119.421ZM82.3268 76.8064C79.6574 77.0888 77.6801 78.3975 75.8165 79.8615C75.5644 80.0592 75.678 80.7277 75.7275 81.1702C75.7374 81.2737 76.2564 81.4667 76.4245 81.3867C78.56 80.384 81.2838 80.3746 82.658 78.0633C82.8607 77.7243 83.2215 77.4701 83.5132 77.1736C83.0831 77.037 82.6531 76.9005 82.3318 76.8017L82.3268 76.8064Z" fill="white"/>
<path d="M153.752 171.567C153.288 171.722 152.937 171.864 152.576 171.958C142.917 174.566 134.385 179.17 126.49 185.012C123.415 187.285 121.181 184.084 118.922 183.025C113.939 180.681 108.902 178.591 103.573 177.117C102.12 176.717 101.778 175.818 102.767 174.848C109.154 168.564 112.54 160.91 114.25 152.441C114.695 150.238 117.177 149.781 118.759 148.764C123.583 145.653 128.28 142.48 131.789 137.975C132.595 136.939 133.638 135.861 134.82 136.007C135.868 136.139 135.294 137.617 135.432 138.497C137.296 150.379 142.709 160.547 151.686 168.992C152.329 169.595 152.798 170.362 153.757 171.558L153.752 171.567Z" fill="white"/>
<path d="M171.816 176.232C176.625 183.981 172.681 192.609 163.689 195.109C153.318 197.99 143.362 196.568 133.386 193.683C125.68 191.451 117.647 189.926 110.351 186.824C104.799 184.461 98.7238 182.884 93.8003 179.207C97.6907 176.609 100.929 179.419 104.438 180.309C110.647 181.881 116.396 184.409 122.081 187.215C124.38 188.349 126.93 187.478 128.952 185.963C136.817 180.069 145.488 175.404 155.28 173.681C159.314 172.97 163.882 175.06 168.217 175.832C169.403 176.044 170.614 176.11 171.816 176.237V176.232Z" fill="white"/>
<path d="M165.572 165.885C163.313 166.474 162.78 164.576 161.835 163.414C161.203 162.632 161.825 161.987 162.641 161.592C165.854 161.639 165.755 163.739 165.577 165.885H165.572Z" fill="white"/>
<path d="M202.608 133.917C201.856 143.078 193.809 157.803 182.182 159.464C179.987 159.78 177.965 160.006 176.631 158.311C175.306 156.63 175.889 154.729 176.922 152.864C179.814 147.644 182.296 142.207 185.415 137.118C187.654 133.465 191.065 130.617 195.064 128.654C199.612 126.418 202.608 128.574 202.608 133.917Z" fill="white"/>
<path d="M63.0569 15.2611C62.3748 15.0634 61.218 15.6753 60.961 14.7291C60.7632 14.0042 60.9709 12.7379 61.5048 12.3566C63.5958 10.8643 65.8104 9.48977 68.1337 8.35527C69.1965 7.83745 70.6499 8.10578 71.3716 9.27322C72.123 10.4925 70.813 11.128 70.1654 11.7588C68.2375 13.637 66.1366 15.327 63.052 15.2564L63.0569 15.2611Z" fill="white"/>
<path d="M199.201 111.246C199.127 109.664 199.458 108.327 201.154 108.149C202.751 107.979 202.558 109.283 202.602 110.29C202.677 111.9 201.767 113.195 200.324 113.378C198.663 113.59 199.463 111.929 199.201 111.246Z" fill="white"/>
<path d="M56.7948 102.203C58.3025 109.655 58.871 117.427 62.0149 124.483C63.2359 127.233 66.8445 128.941 69.0245 131.399C72.2476 135.033 74.0963 139.434 75.5447 143.944C75.782 144.678 76.3999 146.185 74.9911 146.524C73.7256 146.83 73.1324 145.535 72.6776 144.608C71.6099 142.433 70.6657 140.202 69.677 137.994C68.5648 135.518 67.062 133.348 64.7337 131.714C58.5744 127.388 56.8739 120.915 55.9297 114.259C54.3973 103.455 51.4115 93.0048 48.2874 82.5543C47.447 79.7298 45.7366 77.0795 45.9244 73.9867C45.9689 73.2382 45.6427 72.019 46.577 72.0096C47.3481 72.0002 48.6334 72.8852 48.8262 73.5913C51.1248 81.8764 54.5802 89.8602 55.9445 98.3995C56.1373 99.6187 57.1556 100.744 56.8096 102.208L56.7948 102.203Z" fill="white"/>
<path d="M156.738 156.974C156.496 157.563 157.089 158.419 156.115 158.768C155.048 159.149 154.242 158.156 154 157.732C150.841 152.201 147.618 146.67 146.342 140.395C146.164 139.519 145.769 138.088 147.104 137.754C148.176 137.485 148.943 138.493 149.234 139.486C150.89 145.177 152.952 150.694 156.57 155.586C156.817 155.92 156.694 156.499 156.743 156.974H156.738Z" fill="white"/>
<path d="M167.149 26.3379C169.023 27.3264 171.88 26.2767 172.349 28.8187C172.671 30.551 170.426 30.1933 169.512 30.2168C167.465 30.2639 165.755 29.1906 164.588 27.4959C165.458 27.1005 166.333 26.7097 167.149 26.3426V26.3379Z" fill="white"/>
<path d="M161.073 19.3569C161.904 19.8606 163.822 18.6555 163.53 20.6138C163.303 22.1579 161.83 22.7416 160.198 22.8028C158.77 22.8546 157.628 22.3603 157.677 20.948C157.756 18.5943 159.902 19.8889 161.073 19.3569Z" fill="white"/>
<path d="M153.856 17.6295C152.546 17.4459 152.214 16.6174 152.249 15.6712C152.318 13.7694 153.994 13.2045 155.442 12.5879C155.655 12.4984 156.911 12.9739 156.569 13.9342C156.045 15.4265 155.61 17.0082 153.856 17.6248V17.6295Z" fill="white"/>
<path d="M79.593 153.721C79.3112 154.366 79.9242 155.962 79.0492 155.684C77.8678 155.307 76.6517 154.154 76.5924 152.535C76.5528 151.466 77.1708 151.264 78.0902 151.226C80.2307 151.146 79.4002 152.667 79.593 153.721Z" fill="white"/>
<path d="M105.812 131.526C103.256 132.053 100.616 130.904 98.0559 129.525C97.3836 129.163 96.6717 128.734 97.0425 127.783C97.339 127.021 97.3934 126.268 98.7232 126.31C110.182 126.672 117.251 120.661 122.243 111.571C122.664 110.808 122.906 109.17 124.32 109.561C125.284 109.829 125.551 111.067 125.536 112.126C125.373 122.577 118.655 131.789 105.812 131.53V131.526ZM107.646 129.205C108.748 129.04 109.856 128.852 110.963 128.711C116.257 128.042 121.868 122.657 122.11 118.086C122.13 117.709 122.416 117.356 121.912 117.196C121.749 117.144 121.398 117.427 121.225 117.629C117.434 122.068 112.98 125.651 107.226 127.595C106.677 127.783 105.466 127.501 105.762 128.654C106.02 129.657 107.028 128.922 107.646 129.205Z" fill="white"/>
<path d="M92.7623 106.148C92.6734 102.076 94.2799 98.3712 95.3131 94.5582C95.4663 93.9886 95.3032 93.1977 96.3413 93.419C97.3843 93.6402 97.5672 94.4358 97.3646 95.2361C96.1534 100.005 94.8583 104.759 95.4021 109.73C95.5108 110.724 94.799 110.964 94.186 111.157C92.9897 111.533 93.3951 110.413 93.3061 109.999C93.0243 108.732 92.9304 107.433 92.7623 106.143V106.148Z" fill="white"/>
<path d="M84.5012 90.9241C84.5012 91.4701 84.5556 92.0209 84.4913 92.5575C84.2985 94.1628 83.1912 95.3349 81.7428 95.6644C79.9039 96.0787 80.3636 94.2428 80.0225 93.3249C79.7161 92.4963 79.4887 91.5313 79.6221 90.6887C79.8792 89.074 78.4259 86.3673 81.7132 86.3767C84.8126 86.3861 84.5753 88.8387 84.5012 90.9288V90.9241Z" fill="white"/>
<path d="M121.043 90.4202C121.755 92.9105 119.797 94.4074 117.879 94.1297C115.19 93.7437 116.03 90.8957 115.659 88.9939C115.323 87.2615 115.892 85.8493 117.933 86.0564C120.395 86.3059 121.379 87.9676 121.043 90.4155V90.4202Z" fill="white"/>
<path d="M119.422 78.5813C121.444 79.2921 123.683 80.0123 125.858 80.8879C126.372 81.095 126.649 81.8247 127.039 82.3143C126.219 82.5543 125.284 83.1522 124.597 82.9592C122.595 82.399 120.717 81.4387 118.73 80.8032C117.894 80.5348 117.034 80.403 117.168 79.4239C117.336 78.1764 118.487 79.0285 119.427 78.5813H119.422Z" fill="white"/>
<path d="M82.3259 76.811C82.6472 76.9146 83.0773 77.0511 83.5074 77.1829C83.2206 77.4795 82.8548 77.7337 82.6521 78.0726C81.273 80.3792 78.5541 80.3887 76.4186 81.3961C76.2506 81.4761 75.7365 81.2784 75.7216 81.1795C75.6722 80.737 75.5635 80.0686 75.8106 79.8708C77.6742 78.4068 79.6516 77.0982 82.321 76.8157L82.3259 76.811Z" fill="white"/>
<path d="M107.647 129.205C107.024 128.918 106.02 129.657 105.763 128.654C105.467 127.501 106.678 127.783 107.226 127.595C112.985 125.651 117.434 122.068 121.226 117.629C121.399 117.427 121.75 117.144 121.913 117.196C122.417 117.351 122.13 117.704 122.111 118.086C121.868 122.657 116.258 128.042 110.963 128.71C109.851 128.852 108.749 129.04 107.647 129.205Z" fill="white"/>
<path d="M2.66623 154.045C2.46516 154.045 2.28381 154.009 2.11822 153.93L2.09062 153.918L2.06302 153.907C1.61358 153.753 1.23509 153.331 1.18778 152.925C1.04979 151.782 1.05768 150.548 1.06162 149.353C1.06162 148.442 1.06951 147.5 1.01037 146.585C1.00248 146.435 0.990655 146.282 0.978828 146.132C0.892092 144.961 0.821127 143.952 1.50318 143.242L1.57021 143.171L1.60963 143.08C1.76733 142.722 2.11033 142.28 2.83576 142.229C3.45079 142.189 4.06977 142.146 4.68481 142.099L6.19085 141.992L6.13172 141.417C4.05006 121.732 3.57301 101.593 3.11174 82.117C2.75691 67.1709 2.3942 51.7122 1.30212 36.5571C1.26269 36.0091 1.45587 35.6109 1.87378 35.3744L1.92504 35.3468L1.9684 35.3073C2.20101 35.1023 2.49276 34.988 2.83182 34.9643C6.79012 34.7002 11.1387 34.3848 16.5242 33.9787L17.159 33.9314L17.0289 33.3085C16.3547 30.1071 16.9106 27.8126 18.6808 26.4879C20.2342 25.3248 22.647 24.631 25.1387 24.631C25.801 24.631 26.4397 24.6822 27.039 24.7808C29.1009 25.1198 30.2837 26.3815 30.4611 28.4276C30.4926 28.7943 30.4887 29.1767 30.4887 29.5788C30.4847 30.2609 30.4808 30.9666 30.6424 31.6487C30.7213 31.9759 30.8474 32.2558 30.9618 32.4924L31.1313 32.8354L31.5098 32.8038C37.7508 32.2952 43.9918 31.7709 50.2368 31.2465C70.8168 29.5157 92.0947 27.7258 113.03 26.5707L113.656 26.5352L113.55 25.9162C113.282 24.3786 113.589 23.0382 114.469 21.9382C115.9 20.1444 118.888 18.9655 122.464 18.7802C122.906 18.7566 123.426 18.7329 123.962 18.7329C126.631 18.7329 128.244 19.3677 129.182 20.787C130.124 22.2142 130.373 23.9765 130.412 25.2026L130.432 25.7625L130.992 25.7428C136.835 25.5299 142.133 25.3919 147.195 25.317C148.284 25.317 148.686 26.1094 148.709 26.7875V26.8585L148.733 26.9255C150.026 31.282 150.353 36.0998 150.669 40.7559C150.744 41.8283 150.815 42.8928 150.898 43.9336C151.611 52.824 152.167 61.88 152.707 70.6364L152.999 75.3437C153.243 79.2942 153.448 83.351 153.649 87.2817C154.383 101.727 155.14 116.661 158.037 130.866L158.132 131.32L158.597 131.312C159.122 131.304 159.646 131.288 160.174 131.276C160.774 131.261 161.369 131.245 161.968 131.237C163.147 131.237 163.403 132.16 163.454 132.443L163.466 132.514L163.498 132.581C164.077 133.815 164.137 135.601 164.176 136.906L164.184 137.174C164.243 138.976 164.302 140.837 163.553 142.402C163.47 142.572 163.368 142.69 163.206 142.797L163.139 142.84L163.088 142.899C162.808 143.23 162.418 143.408 161.933 143.427C130.519 144.638 98.6511 147.082 67.8284 149.448C46.5072 151.084 24.4605 152.775 2.76085 154.041C2.72931 154.041 2.69383 154.041 2.66229 154.041L2.66623 154.045Z" fill="white"/>
<path d="M22.4795 72.3842C20.7461 72.4798 19.119 72.1302 17.5983 71.3355C16.0786 70.5594 14.8401 69.4593 13.8828 68.0352C12.9442 66.61 12.4271 65.0308 12.3314 63.2974L12.043 58.0694L17.1871 57.7856L17.4602 62.734C17.5034 63.5168 17.749 64.2417 18.1971 64.9087C18.6452 65.5757 19.2254 66.0952 19.9376 66.4672C20.6499 66.8392 21.3974 67.0036 22.1802 66.9604C23.0003 66.9152 23.7438 66.6685 24.4108 66.2204C25.0778 65.7723 25.5973 65.1921 25.9693 64.4799C26.3413 63.7676 26.5057 63.0201 26.4625 62.2373L26.1293 56.1985L31.1057 55.9239L31.4544 62.2423C31.55 63.9757 31.2191 65.6017 30.4616 67.1204C29.7041 68.6391 28.6221 69.8672 27.2157 70.8048C25.8102 71.761 24.2315 72.2875 22.4795 72.3842ZM19.1567 53.3303L23.4901 53.0912L23.7292 57.4246L19.3958 57.6637L19.1567 53.3303ZM32.5412 67.2019C31.5161 67.2585 30.7293 67.0589 30.1807 66.6031C29.6321 66.1473 29.2518 65.5233 29.0398 64.7311C28.8465 63.9379 28.7159 62.9262 28.648 61.6961L28.3379 56.0766L31.3294 55.9116L31.6209 61.1955C31.6312 61.3819 31.686 61.5284 31.7854 61.6351C31.9034 61.7408 32.0556 61.7885 32.242 61.7782L33.3603 61.7165C33.5467 61.7062 33.645 61.7942 33.6553 61.9806L33.9237 66.8452C33.934 67.0316 33.8459 67.1299 33.6595 67.1402L32.5412 67.2019ZM33.0502 67.1739C32.8638 67.1841 32.7654 67.0961 32.7552 66.9097L32.4867 62.0451C32.4765 61.8587 32.5645 61.7604 32.7509 61.7501L39.6843 61.3675C40.0571 61.347 40.2327 61.141 40.2111 60.7496L40.2065 60.6657L39.6473 60.6966C38.529 60.7583 37.49 60.5632 36.5304 60.1114C35.5707 59.6596 34.7876 59.0204 34.1811 58.1939C33.5923 57.3477 33.2686 56.3935 33.2099 55.3311C33.1472 54.1941 33.3692 53.135 33.8759 52.1536C34.3826 51.1721 35.087 50.3855 35.9891 49.7935C36.9088 49.1819 37.9091 48.8463 38.9902 48.7867C40.0712 48.727 41.0558 48.9531 41.944 49.465C42.8498 49.9571 43.5713 50.6651 44.1083 51.5889C44.663 52.4931 44.9722 53.523 45.036 54.6785L45.3738 60.8012C45.4304 61.8263 45.2312 62.7908 44.7763 63.6945C44.3204 64.5797 43.6781 65.3068 42.8495 65.876C42.0199 66.4265 41.0833 66.7306 40.0395 66.7882L33.0502 67.1739ZM40.2797 55.8944L40.2165 54.7482C40.2 54.45 40.0743 54.2045 39.8393 54.0118C39.622 53.7995 39.3642 53.7015 39.066 53.718C38.7305 53.7365 38.4659 53.8539 38.2722 54.0703C38.0785 54.2866 37.9903 54.5532 38.0078 54.87C38.0263 55.2055 38.1443 55.4794 38.3616 55.6918C38.578 55.8855 38.8539 55.9731 39.1894 55.9546L40.2797 55.8944ZM36.4919 42.643L40.8253 42.4039L41.0644 46.7373L36.731 46.9764L36.4919 42.643ZM48.8233 70.1173C50.3706 69.3589 51.5232 68.7345 52.2814 68.244C53.0405 67.7721 53.5325 67.371 53.7573 67.0408C53.9832 66.7292 54.0858 66.3871 54.0652 66.0143L53.0308 66.0714C51.838 66.1372 50.7239 65.9369 49.6886 65.4706C48.6523 64.9856 47.8103 64.2936 47.1624 63.3946C46.5322 62.4759 46.1847 61.4295 46.1199 60.2553C46.0541 59.0624 46.2916 57.9463 46.8325 56.9069C47.3734 55.8676 48.1218 55.0317 49.0777 54.3994C50.0513 53.7475 51.1345 53.3886 52.3274 53.3228C53.5016 53.258 54.5711 53.4981 55.5359 54.0431C56.5184 54.5684 57.2983 55.3199 57.8757 56.2976C58.4717 57.2743 58.8027 58.359 58.8685 59.5519L59.0829 63.4379C59.1888 65.3577 59.0127 66.9097 58.5546 68.0941C58.0976 69.2971 57.2693 70.3804 56.0699 71.3439C54.8705 72.3075 53.0695 73.379 50.6668 74.5585L48.8233 70.1173ZM52.75 60.9831L53.7845 60.926L53.7243 59.8357C53.7048 59.4816 53.5962 59.2071 53.3985 59.0124C53.2008 58.8177 52.9435 58.729 52.6266 58.7465C52.2911 58.765 52.0172 58.883 51.8049 59.1003C51.6112 59.3167 51.5241 59.6019 51.5436 59.956C51.5621 60.2915 51.6796 60.5561 51.8959 60.7498C52.1298 60.9239 52.4146 61.0016 52.75 60.9831ZM58.6306 60.3221L59.7768 60.2589C59.9632 60.2486 60.0615 60.3366 60.0718 60.523L60.3402 65.3876C60.3505 65.574 60.2625 65.6723 60.0761 65.6826L58.9298 65.7459L58.6306 60.3221ZM58.8865 60.5884C58.8762 60.4021 58.9642 60.3037 59.1506 60.2934L60.5485 60.2163C60.7349 60.206 60.8716 60.1424 60.9586 60.0254C61.0643 59.9074 61.1119 59.7552 61.1017 59.5688L60.8086 54.2569L65.9527 53.9731L66.2458 59.285C66.2561 59.4714 66.3109 59.6179 66.4103 59.7246C66.5283 59.8303 66.6805 59.878 66.8669 59.8677L68.2647 59.7905C68.4511 59.7803 68.5495 59.8683 68.5597 60.0547L68.8282 64.9193C68.8385 65.1057 68.7504 65.204 68.564 65.2143L67.1661 65.2914C66.4952 65.3284 65.9039 65.2863 65.3925 65.1649C64.8997 65.0426 64.4203 64.826 63.9545 64.5152C63.5257 64.8754 63.0638 65.1439 62.5688 65.3208C62.0924 65.4966 61.5187 65.603 60.8478 65.6401L59.4499 65.7172C59.2635 65.7275 59.1652 65.6394 59.1549 65.453L58.8865 60.5884ZM60.8654 47.6638L65.1988 47.4247L65.4379 51.7581L61.1045 51.9972L60.8654 47.6638ZM67.3903 60.1192C67.3801 59.9328 67.4681 59.8345 67.6545 59.8242L69.6115 59.7162C69.7979 59.7059 69.9346 59.6423 70.0216 59.5253C70.1273 59.4073 70.175 59.2552 70.1647 59.0688L69.8716 53.7568L75.0158 53.473L75.3089 58.7849C75.3191 58.9713 75.374 59.1178 75.4733 59.2245C75.5913 59.3302 75.7435 59.3779 75.9299 59.3676L77.8869 59.2596C78.0733 59.2493 78.1716 59.3374 78.1819 59.5238L78.4503 64.3884C78.4606 64.5747 78.3726 64.6731 78.1862 64.6834L76.2292 64.7913C75.5582 64.8284 74.967 64.7862 74.4555 64.6649C73.9627 64.5425 73.4834 64.3259 73.0175 64.0151C72.5887 64.3753 72.1268 64.6438 71.6318 64.8207C71.1554 64.9965 70.5818 65.103 69.9108 65.14L67.9538 65.248C67.7674 65.2582 67.669 65.1702 67.6588 64.9838L67.3903 60.1192ZM68.86 67.4414L73.1934 67.2023L73.4325 71.5357L69.0991 71.7748L68.86 67.4414ZM73.1934 67.2023L77.5268 66.9632L77.7659 71.2966L73.4325 71.5357L73.1934 67.2023ZM86.3588 64.2885C85.1845 64.3533 84.1062 64.123 83.1238 63.5977C82.159 63.0527 81.3785 62.2919 80.7825 61.3152C80.2051 60.3375 79.8835 59.2523 79.8176 58.0594L79.7606 57.025L77.9713 57.1237L77.6874 51.9795L85.6553 51.5399C86.8482 51.4741 87.9627 51.6837 88.999 52.1686C90.0343 52.635 90.8671 53.3275 91.4973 54.2462C92.1451 55.1452 92.5015 56.1818 92.5662 57.356C92.6321 58.5488 92.3945 59.6649 91.8536 60.7043C91.3304 61.724 90.5819 62.5599 89.6084 63.2118C88.6348 63.8638 87.5516 64.2227 86.3588 64.2885ZM77.577 64.717C77.3906 64.7273 77.2923 64.6392 77.282 64.4528L77.0136 59.5882C77.0033 59.4018 77.0914 59.3035 77.2778 59.2932L79.2907 59.1822C79.4771 59.1719 79.6138 59.1082 79.7008 58.9913C79.8065 58.8733 79.8541 58.7211 79.8439 58.5347L79.7899 57.5562L83.8996 57.3294L83.9721 58.6434C84.0647 60.3209 83.7395 61.7129 82.9967 62.8195C82.2725 63.9251 81.1369 64.5205 79.59 64.6059L77.577 64.717ZM86.0595 58.8648C86.4136 58.8452 86.6875 58.7273 86.8812 58.5109C87.0739 58.276 87.161 57.9907 87.1425 57.6553C87.125 57.3384 87.0086 57.0924 86.7933 56.9174C86.578 56.7423 86.2933 56.6645 85.9392 56.6841L84.8488 56.7442L84.9059 57.7787C84.9244 58.1142 85.033 58.3886 85.2318 58.602C85.4481 58.7957 85.724 58.8833 86.0595 58.8648ZM99.3653 63.5148C98.3215 63.5723 97.3571 63.3732 96.472 62.9172C95.5858 62.4427 94.8675 61.7906 94.3169 60.961C93.7654 60.1128 93.4613 59.1761 93.4047 58.151L92.6643 44.7314L97.8084 44.4476L98.5304 57.5317C98.5407 57.718 98.5955 57.8646 98.6949 57.9713C98.8118 58.0583 98.9542 58.0972 99.1219 58.0879L100.827 57.9938C101.014 57.9835 101.112 58.0716 101.122 58.258L101.391 63.1226C101.401 63.3089 101.313 63.4073 101.127 63.4176L99.3653 63.5148ZM99.9459 58.3229C99.9357 58.1365 100.024 58.0382 100.21 58.0279L102.167 57.9199C102.354 57.9096 102.49 57.846 102.577 57.729C102.683 57.611 102.731 57.4588 102.72 57.2724L102.427 51.9605L107.571 51.6767L107.864 56.9886C107.875 57.175 107.93 57.3215 108.029 57.4282C108.147 57.5339 108.299 57.5815 108.486 57.5713L110.443 57.4633C110.629 57.453 110.727 57.541 110.738 57.7274L111.006 62.592C111.016 62.7784 110.928 62.8767 110.742 62.887L108.785 62.995C108.114 63.032 107.523 62.9899 107.011 62.8685C106.518 62.7462 106.039 62.5296 105.573 62.2188C105.144 62.5789 104.682 62.8475 104.187 63.0243C103.711 63.2002 103.137 63.3066 102.466 63.3436L100.509 63.4516C100.323 63.4619 100.225 63.3739 100.214 63.1875L99.9459 58.3229ZM100.415 45.4815L104.749 45.2424L104.988 49.5758L100.654 49.8149L100.415 45.4815ZM104.749 45.2424L109.082 45.0033L109.321 49.3367L104.988 49.5758L104.749 45.2424ZM123.891 62.2176C122.344 62.3029 121.14 61.8365 120.28 60.8184C119.439 59.7992 118.972 58.4509 118.879 56.7734L118.565 51.0701L122.674 50.8433L122.97 56.2112C122.981 56.3975 123.036 56.5441 123.135 56.6508C123.253 56.7564 123.405 56.8041 123.592 56.7938C123.778 56.7835 123.915 56.7199 124.002 56.6029C124.107 56.4849 124.155 56.3328 124.145 56.1464L123.805 49.9957L127.915 49.769L128.273 56.2551C128.366 57.9325 128.04 59.3246 127.298 60.4312C126.573 61.5368 125.438 62.1322 123.891 62.2176ZM110.133 62.9206C109.946 62.9309 109.848 62.8429 109.838 62.6565L109.569 57.7919C109.559 57.6055 109.647 57.5072 109.833 57.4969L110.952 57.4352C111.138 57.4249 111.275 57.3613 111.362 57.2443C111.467 57.1263 111.515 56.9741 111.505 56.7877L111.212 51.4758L115.321 51.249L115.633 56.8964C115.726 58.5739 115.401 59.9659 114.658 61.0725C113.933 62.1781 112.798 62.7736 111.251 62.8589L110.133 62.9206ZM117.572 62.5662C116.025 62.6516 114.822 62.1852 113.962 61.167C113.12 60.1478 112.653 58.7995 112.561 57.122L112.246 51.4187L116.356 51.192L116.652 56.5598C116.662 56.7462 116.717 56.8927 116.817 56.9994C116.935 57.1051 117.087 57.1527 117.273 57.1425C117.46 57.1322 117.596 57.0685 117.683 56.9516C117.789 56.8336 117.837 56.6814 117.826 56.495L117.53 51.1272L121.64 50.9004L121.955 56.6037C122.047 58.2812 121.722 59.6732 120.979 60.7798C120.255 61.8854 119.119 62.4809 117.572 62.5662ZM130.206 61.813C128.659 61.8984 127.456 61.432 126.596 60.4138C125.754 59.3946 125.287 58.0463 125.195 56.3689L124.84 49.9386L128.949 49.7119L129.286 55.8066C129.296 55.993 129.351 56.1395 129.45 56.2462C129.568 56.3519 129.72 56.3996 129.907 56.3893L131.025 56.3276C131.212 56.3173 131.31 56.4053 131.32 56.5917L131.589 61.4563C131.599 61.6427 131.511 61.741 131.324 61.7513L130.206 61.813ZM130.704 61.7856C130.518 61.7958 130.419 61.7078 130.409 61.5214L130.141 56.6568C130.13 56.4704 130.218 56.3721 130.405 56.3618L133.424 56.1952C133.573 56.187 133.701 56.1239 133.806 56.0059C133.912 55.8879 133.96 55.745 133.951 55.5772L133.613 49.4546L138.757 49.1707L139.114 55.6289C139.17 56.654 138.971 57.6184 138.516 58.5222C138.06 59.4073 137.418 60.1345 136.589 60.7037C135.76 61.2542 134.823 61.5583 133.779 61.6159L130.704 61.7856ZM129.728 43.0789L134.061 42.8398L134.301 47.1732L129.967 47.4123L129.728 43.0789ZM134.061 42.8398L138.395 42.6007L138.634 46.9341L134.301 47.1732L134.061 42.8398Z" fill="black"/>
<path d="M23.4992 99.529C21.7659 99.6246 20.1388 99.2751 18.6181 98.4803C17.0983 97.7042 15.8598 96.6041 14.9026 95.18C13.964 93.7549 13.4469 92.1756 13.3512 90.4423L13.0627 85.2142L18.2069 84.9304L18.48 89.8789C18.5232 90.6617 18.7688 91.3866 19.2169 92.0536C19.665 92.7206 20.2452 93.24 20.9574 93.612C21.6696 93.984 22.4172 94.1484 23.2 94.1052C24.0201 94.06 24.7636 93.8133 25.4306 93.3652C26.0976 92.9171 26.6171 92.337 26.9891 91.6247C27.3611 90.9125 27.5255 90.1649 27.4823 89.3821L27.1491 83.3433L32.1255 83.0687L32.4741 89.3871C32.5698 91.1205 32.2389 92.7465 31.4814 94.2652C30.7239 95.7839 29.6419 97.0121 28.2354 97.9497C26.83 98.9059 25.2513 99.4323 23.4992 99.529ZM20.1765 80.4751L24.5099 80.236L24.749 84.5694L20.4156 84.8085L20.1765 80.4751ZM33.561 94.3468C32.5359 94.4033 31.7491 94.2037 31.2004 93.7479C30.6518 93.2921 30.2715 92.6681 30.0596 91.8759C29.8662 91.0827 29.7356 90.071 29.6678 88.8409L29.3577 83.2215L32.3492 83.0564L32.6407 88.3404C32.651 88.5267 32.7058 88.6733 32.8052 88.78C32.9232 88.8856 33.0754 88.9333 33.2618 88.923L34.3801 88.8613C34.5664 88.851 34.6648 88.9391 34.6751 89.1255L34.9435 93.9901C34.9538 94.1765 34.8657 94.2748 34.6793 94.2851L33.561 94.3468ZM34.0699 94.3187C33.8836 94.329 33.7852 94.2409 33.7749 94.0545L33.5065 89.1899C33.4962 89.0036 33.5843 88.9052 33.7707 88.8949L40.7041 88.5124C41.0769 88.4918 41.2525 88.2858 41.2309 87.8944L41.2262 87.8105L40.6671 87.8414C39.5488 87.9031 38.5098 87.708 37.5501 87.2562C36.5904 86.8044 35.8074 86.1653 35.2009 85.3387C34.6121 84.4926 34.2883 83.5383 34.2297 82.4759C34.167 81.339 34.389 80.2798 34.8957 79.2984C35.4024 78.317 36.1068 77.5303 37.0089 76.9384C37.9286 76.3268 38.9289 75.9912 40.0099 75.9315C41.091 75.8719 42.0756 76.098 42.9638 76.6098C43.8696 77.102 44.5911 77.81 45.1281 78.7338C45.6828 79.6379 45.992 80.6678 46.0557 81.8234L46.3936 87.9461C46.4501 88.9712 46.251 89.9356 45.7961 90.8394C45.3401 91.7245 44.6979 92.4517 43.8693 93.0208C43.0397 93.5714 42.1031 93.8754 41.0593 93.933L34.0699 94.3187ZM41.2995 83.0393L41.2362 81.893C41.2198 81.5948 41.0941 81.3493 40.8591 81.1567C40.6417 80.9443 40.384 80.8464 40.0857 80.8628C39.7503 80.8813 39.4857 80.9988 39.2919 81.2151C39.0982 81.4314 39.0101 81.698 39.0276 82.0149C39.0461 82.3504 39.1641 82.6243 39.3814 82.8366C39.5977 83.0303 39.8737 83.1179 40.2092 83.0994L41.2995 83.0393ZM37.5117 69.7878L41.8451 69.5487L42.0842 73.8821L37.7508 74.1212L37.5117 69.7878ZM49.8431 97.2622C51.3903 96.5038 52.543 95.8793 53.3011 95.3888C54.0603 94.9169 54.5523 94.5159 54.7771 94.1857C55.0029 93.8741 55.1056 93.5319 55.085 93.1591L54.0506 93.2162C52.8577 93.282 51.7437 93.0818 50.7084 92.6154C49.6721 92.1305 48.83 91.4385 48.1822 90.5395C47.552 89.6208 47.2044 88.5743 47.1397 87.4001C47.0738 86.2073 47.3114 85.0912 47.8523 84.0518C48.3932 83.0124 49.1416 82.1766 50.0975 81.5443C51.0711 80.8923 52.1543 80.5334 53.3471 80.4676C54.5214 80.4028 55.5909 80.6429 56.5557 81.1879C57.5381 81.7133 58.3181 82.4648 58.8955 83.4424C59.4915 84.4191 59.8224 85.5038 59.8883 86.6967L60.1027 90.5828C60.2086 92.5025 60.0325 94.0546 59.5744 95.239C59.1173 96.442 58.2891 97.5252 57.0897 98.4888C55.8903 99.4523 54.0892 100.524 51.6866 101.703L49.8431 97.2622ZM53.7698 88.128L54.8042 88.0709L54.7441 86.9805C54.7245 86.6264 54.6159 86.352 54.4182 86.1572C54.2205 85.9625 53.9633 85.8739 53.6464 85.8914C53.3109 85.9099 53.037 86.0278 52.8247 86.2452C52.6309 86.4615 52.5439 86.7467 52.5634 87.1009C52.5819 87.4363 52.6993 87.7009 52.9157 87.8947C53.1496 88.0687 53.4343 88.1465 53.7698 88.128ZM59.6503 87.467L60.7966 87.4037C60.983 87.3934 61.0813 87.4815 61.0916 87.6679L61.36 92.5325C61.3703 92.7189 61.2822 92.8172 61.0959 92.8275L59.9496 92.8907L59.6503 87.467ZM59.9062 87.7333C59.896 87.5469 59.984 87.4486 60.1704 87.4383L61.5683 87.3611C61.7546 87.3509 61.8913 87.2872 61.9784 87.1703C62.084 87.0523 62.1317 86.9001 62.1214 86.7137L61.8283 81.4018L66.9725 81.1179L67.2656 86.4298C67.2759 86.6162 67.3307 86.7628 67.4301 86.8694C67.5481 86.9751 67.7003 87.0228 67.8867 87.0125L69.2845 86.9354C69.4709 86.9251 69.5692 87.0131 69.5795 87.1995L69.8479 92.0641C69.8582 92.2505 69.7702 92.3488 69.5838 92.3591L68.1859 92.4363C67.5149 92.4733 66.9237 92.4311 66.4123 92.3098C65.9194 92.1874 65.4401 91.9708 64.9743 91.66C64.5455 92.0202 64.0836 92.2887 63.5886 92.4656C63.1122 92.6414 62.5385 92.7479 61.8675 92.7849L60.4697 92.862C60.2833 92.8723 60.1849 92.7843 60.1747 92.5979L59.9062 87.7333ZM61.8852 74.8086L66.2186 74.5695L66.4577 78.9029L62.1243 79.142L61.8852 74.8086ZM68.4101 87.264C68.3998 87.0777 68.4879 86.9793 68.6743 86.969L70.6313 86.8611C70.8177 86.8508 70.9544 86.7872 71.0414 86.6702C71.1471 86.5522 71.1947 86.4 71.1845 86.2136L70.8914 80.9017L76.0355 80.6178L76.3286 85.9298C76.3389 86.1161 76.3937 86.2627 76.4931 86.3694C76.6111 86.475 76.7633 86.5227 76.9497 86.5124L78.9067 86.4044C79.0931 86.3942 79.1914 86.4822 79.2017 86.6686L79.4701 91.5332C79.4804 91.7196 79.3924 91.8179 79.206 91.8282L77.2489 91.9362C76.578 91.9732 75.9867 91.931 75.4753 91.8097C74.9825 91.6873 74.5031 91.4708 74.0373 91.1599C73.6085 91.5201 73.1466 91.7886 72.6516 91.9655C72.1752 92.1414 71.6015 92.2478 70.9306 92.2848L68.9735 92.3928C68.7871 92.4031 68.6888 92.315 68.6785 92.1287L68.4101 87.264ZM69.8798 94.5862L74.2132 94.3471L74.4523 98.6805L70.1189 98.9196L69.8798 94.5862ZM74.2132 94.3471L78.5466 94.108L78.7857 98.4414L74.4523 98.6805L74.2132 94.3471ZM87.3785 91.4333C86.2043 91.4981 85.126 91.2679 84.1436 90.7425C83.1787 90.1975 82.3983 89.4367 81.8023 88.46C81.2248 87.4824 80.9032 86.3971 80.8374 85.2043L80.7803 84.1698L78.9911 84.2686L78.7072 79.1244L86.6751 78.6847C87.8679 78.6189 88.9825 78.8285 90.0188 79.3135C91.0541 79.7798 91.8868 80.4723 92.5171 81.391C93.1649 82.29 93.5212 83.3266 93.586 84.5008C93.6518 85.6937 93.4143 86.8098 92.8734 87.8492C92.3501 88.8689 91.6017 89.7047 90.6282 90.3567C89.6546 91.0086 88.5714 91.3675 87.3785 91.4333ZM78.5968 91.8618C78.4104 91.8721 78.3121 91.784 78.3018 91.5977L78.0334 86.7331C78.0231 86.5467 78.1111 86.4483 78.2975 86.4381L80.3105 86.327C80.4969 86.3167 80.6336 86.2531 80.7206 86.1361C80.8262 86.0181 80.8739 85.8659 80.8636 85.6795L80.8096 84.701L84.9194 84.4743L84.9919 85.7883C85.0845 87.4657 84.7593 88.8577 84.0165 89.9643C83.2923 91.0699 82.1567 91.6654 80.6097 91.7507L78.5968 91.8618ZM87.0793 86.0096C87.4334 85.9901 87.7073 85.8721 87.901 85.6558C88.0937 85.4208 88.1808 85.1356 88.1623 84.8001C88.1448 84.4832 88.0284 84.2373 87.8131 84.0622C87.5978 83.8871 87.3131 83.8094 86.9589 83.8289L85.8686 83.8891L85.9257 84.9235C85.9442 85.259 86.0528 85.5334 86.2515 85.7468C86.4679 85.9405 86.7438 86.0281 87.0793 86.0096ZM100.385 90.6596C99.3413 90.7172 98.3769 90.518 97.4918 90.0621C96.6056 89.5875 95.8872 88.9354 95.3367 88.1058C94.7851 87.2576 94.4811 86.3209 94.4245 85.2958L93.684 71.8762L98.8282 71.5924L99.5502 84.6765C99.5605 84.8629 99.6153 85.0094 99.7146 85.1161C99.8316 85.2031 99.974 85.242 100.142 85.2328L101.847 85.1387C102.034 85.1284 102.132 85.2164 102.142 85.4028L102.411 90.2674C102.421 90.4538 102.333 90.5521 102.146 90.5624L100.385 90.6596ZM100.966 85.4677C100.955 85.2813 101.043 85.183 101.23 85.1727L103.187 85.0647C103.373 85.0544 103.51 84.9908 103.597 84.8738C103.703 84.7558 103.75 84.6036 103.74 84.4173L103.447 79.1053L108.591 78.8215L108.884 84.1334C108.895 84.3198 108.949 84.4663 109.049 84.573C109.167 84.6787 109.319 84.7264 109.505 84.7161L111.462 84.6081C111.649 84.5978 111.747 84.6859 111.757 84.8723L112.026 89.7369C112.036 89.9232 111.948 90.0216 111.762 90.0319L109.805 90.1398C109.134 90.1769 108.542 90.1347 108.031 90.0134C107.538 89.891 107.059 89.6744 106.593 89.3636C106.164 89.7238 105.702 89.9923 105.207 90.1692C104.731 90.345 104.157 90.4515 103.486 90.4885L101.529 90.5965C101.343 90.6067 101.244 90.5187 101.234 90.3323L100.966 85.4677ZM101.435 72.6264L105.768 72.3872L106.007 76.7207L101.674 76.9598L101.435 72.6264ZM105.768 72.3872L110.102 72.1481L110.341 76.4815L106.007 76.7207L105.768 72.3872ZM124.911 89.3624C123.364 89.4478 122.16 88.9814 121.3 87.9632C120.459 86.944 119.992 85.5957 119.899 83.9183L119.584 78.2149L123.694 77.9882L123.99 83.356C124.001 83.5424 124.055 83.6889 124.155 83.7956C124.273 83.9013 124.425 83.9489 124.611 83.9387C124.798 83.9284 124.934 83.8648 125.021 83.7478C125.127 83.6298 125.175 83.4776 125.164 83.2912L124.825 77.1406L128.935 76.9138L129.293 83.3999C129.385 85.0774 129.06 86.4694 128.317 87.576C127.593 88.6816 126.458 89.2771 124.911 89.3624ZM111.152 90.0655C110.966 90.0758 110.868 89.9877 110.857 89.8013L110.589 84.9367C110.579 84.7503 110.667 84.652 110.853 84.6417L111.971 84.58C112.158 84.5697 112.295 84.5061 112.382 84.3891C112.487 84.2711 112.535 84.1189 112.525 83.9326L112.232 78.6206L116.341 78.3939L116.653 84.0413C116.745 85.7187 116.42 87.1108 115.677 88.2174C114.953 89.3229 113.818 89.9184 112.271 90.0038L111.152 90.0655ZM118.592 89.711C117.045 89.7964 115.842 89.33 114.982 88.3118C114.14 87.2927 113.673 85.9443 113.581 84.2669L113.266 78.5636L117.376 78.3368L117.672 83.7046C117.682 83.891 117.737 84.0375 117.836 84.1442C117.954 84.2499 118.107 84.2976 118.293 84.2873C118.479 84.277 118.616 84.2134 118.703 84.0964C118.809 83.9784 118.856 83.8262 118.846 83.6398L118.55 78.272L122.66 78.0452L122.974 83.7486C123.067 85.426 122.742 86.818 121.999 87.9246C121.275 89.0302 120.139 89.6257 118.592 89.711ZM131.226 88.9579C129.679 89.0432 128.475 88.5768 127.615 87.5587C126.774 86.5395 126.307 85.1912 126.214 83.5137L125.86 77.0835L129.969 76.8567L130.306 82.9514C130.316 83.1378 130.371 83.2844 130.47 83.3911C130.588 83.4967 130.74 83.5444 130.927 83.5341L132.045 83.4724C132.231 83.4621 132.33 83.5502 132.34 83.7366L132.608 88.6012C132.619 88.7875 132.531 88.8859 132.344 88.8962L131.226 88.9579ZM131.724 88.9304C131.537 88.9407 131.439 88.8526 131.429 88.6662L131.16 83.8016C131.15 83.6153 131.238 83.5169 131.425 83.5066L134.444 83.34C134.593 83.3318 134.72 83.2687 134.826 83.1507C134.932 83.0327 134.98 82.8898 134.971 82.7221L134.633 76.5994L139.777 76.3155L140.133 82.7737C140.19 83.7988 139.991 84.7633 139.536 85.667C139.08 86.5522 138.438 87.2793 137.609 87.8485C136.78 88.399 135.843 88.7031 134.799 88.7607L131.724 88.9304ZM130.748 70.2238L135.081 69.9846L135.32 74.3181L130.987 74.5572L130.748 70.2238ZM135.081 69.9846L139.415 69.7455L139.654 74.0789L135.32 74.3181L135.081 69.9846Z" fill="#696969"/>
<path d="M25.5378 126.674C23.8045 126.769 22.1774 126.42 20.6566 125.625C19.1369 124.849 17.8984 123.749 16.9412 122.325C16.0026 120.9 15.4854 119.32 15.3898 117.587L15.1013 112.359L20.2455 112.075L20.5185 117.024C20.5617 117.807 20.8074 118.531 21.2555 119.198C21.7036 119.865 22.2837 120.385 22.996 120.757C23.7082 121.129 24.4557 121.293 25.2386 121.25C26.0586 121.205 26.8022 120.958 27.4692 120.51C28.1362 120.062 28.6557 119.482 29.0276 118.77C29.3996 118.057 29.564 117.31 29.5208 116.527L29.1876 110.488L34.1641 110.214L34.5127 116.532C34.6083 118.265 34.2774 119.891 33.5199 121.41C32.7625 122.929 31.6805 124.157 30.274 125.094C28.8686 126.051 27.2898 126.577 25.5378 126.674ZM22.215 107.62L26.5484 107.381L26.7875 111.714L22.4541 111.953L22.215 107.62ZM35.5996 121.492C34.5745 121.548 33.7876 121.349 33.239 120.893C32.6904 120.437 32.3101 119.813 32.0982 119.021C31.9048 118.228 31.7742 117.216 31.7063 115.986L31.3963 110.366L34.3877 110.201L34.6793 115.485C34.6896 115.672 34.7444 115.818 34.8438 115.925C34.9618 116.03 35.1139 116.078 35.3003 116.068L36.4186 116.006C36.605 115.996 36.7033 116.084 36.7136 116.27L36.982 121.135C36.9923 121.321 36.9043 121.42 36.7179 121.43L35.5996 121.492ZM36.1085 121.464C35.9221 121.474 35.8238 121.386 35.8135 121.199L35.5451 116.335C35.5348 116.148 35.6229 116.05 35.8092 116.04L42.7427 115.657C43.1155 115.637 43.291 115.431 43.2695 115.039L43.2648 114.955L42.7057 114.986C41.5874 115.048 40.5484 114.853 39.5887 114.401C38.629 113.949 37.8459 113.31 37.2395 112.484C36.6506 111.637 36.3269 110.683 36.2683 109.621C36.2056 108.484 36.4275 107.425 36.9342 106.443C37.4409 105.462 38.1453 104.675 39.0474 104.083C39.9671 103.472 40.9675 103.136 42.0485 103.076C43.1295 103.017 44.1142 103.243 45.0024 103.755C45.9082 104.247 46.6296 104.955 47.1667 105.879C47.7213 106.783 48.0305 107.813 48.0943 108.968L48.4321 115.091C48.4887 116.116 48.2895 117.08 47.8346 117.984C47.3787 118.869 46.7365 119.596 45.9079 120.166C45.0783 120.716 44.1416 121.02 43.0979 121.078L36.1085 121.464ZM43.3381 110.184L43.2748 109.038C43.2584 108.74 43.1327 108.494 42.8977 108.301C42.6803 108.089 42.4225 107.991 42.1243 108.008C41.7888 108.026 41.5242 108.144 41.3305 108.36C41.1368 108.576 41.0487 108.843 41.0662 109.16C41.0847 109.495 41.2026 109.769 41.42 109.981C41.6363 110.175 41.9122 110.263 42.2477 110.244L43.3381 110.184ZM39.5502 96.9327L43.8837 96.6935L44.1228 101.027L39.7893 101.266L39.5502 96.9327ZM51.8817 124.407C53.4289 123.649 54.5816 123.024 55.3397 122.534C56.0989 122.062 56.5909 121.661 56.8157 121.33C57.0415 121.019 57.1441 120.677 57.1236 120.304L56.0892 120.361C54.8963 120.427 53.7822 120.227 52.747 119.76C51.7107 119.275 50.8686 118.583 50.2208 117.684C49.5905 116.766 49.243 115.719 49.1782 114.545C49.1124 113.352 49.3499 112.236 49.8908 111.197C50.4317 110.157 51.1801 109.321 52.1361 108.689C53.1097 108.037 54.1929 107.678 55.3857 107.612C56.5599 107.548 57.6294 107.788 58.5943 108.333C59.5767 108.858 60.3566 109.61 60.934 110.587C61.5301 111.564 61.861 112.649 61.9268 113.842L62.1413 117.728C62.2472 119.647 62.0711 121.199 61.613 122.384C61.1559 123.587 60.3277 124.67 59.1283 125.634C57.9289 126.597 56.1278 127.669 53.7251 128.848L51.8817 124.407ZM55.8084 115.273L56.8428 115.216L56.7827 114.125C56.7631 113.771 56.6545 113.497 56.4568 113.302C56.2591 113.107 56.0018 113.019 55.685 113.036C55.3495 113.055 55.0756 113.173 54.8632 113.39C54.6695 113.606 54.5824 113.892 54.602 114.246C54.6205 114.581 54.7379 114.846 54.9542 115.039C55.1882 115.214 55.4729 115.291 55.8084 115.273ZM61.6889 114.612L62.8352 114.549C63.0215 114.538 63.1199 114.626 63.1302 114.813L63.3986 119.677C63.4089 119.864 63.3208 119.962 63.1344 119.972L61.9882 120.036L61.6889 114.612ZM61.9448 114.878C61.9345 114.692 62.0226 114.593 62.209 114.583L63.6068 114.506C63.7932 114.496 63.9299 114.432 64.0169 114.315C64.1226 114.197 64.1703 114.045 64.16 113.859L63.8669 108.547L69.0111 108.263L69.3042 113.575C69.3145 113.761 69.3693 113.908 69.4686 114.014C69.5866 114.12 69.7388 114.168 69.9252 114.157L71.3231 114.08C71.5095 114.07 71.6078 114.158 71.6181 114.344L71.8865 119.209C71.8968 119.395 71.8088 119.494 71.6224 119.504L70.2245 119.581C69.5535 119.618 68.9623 119.576 68.4508 119.455C67.958 119.332 67.4787 119.116 67.0128 118.805C66.584 119.165 66.1221 119.434 65.6271 119.61C65.1508 119.786 64.5771 119.893 63.9061 119.93L62.5082 120.007C62.3218 120.017 62.2235 119.929 62.2132 119.743L61.9448 114.878ZM63.9238 101.953L68.2572 101.714L68.4963 106.048L64.1629 106.287L63.9238 101.953ZM70.4487 114.409C70.4384 114.223 70.5265 114.124 70.7128 114.114L72.6699 114.006C72.8562 113.996 72.9929 113.932 73.08 113.815C73.1856 113.697 73.2333 113.545 73.223 113.358L72.9299 108.047L78.0741 107.763L78.3672 113.075C78.3775 113.261 78.4323 113.408 78.5317 113.514C78.6497 113.62 78.8019 113.668 78.9882 113.657L80.9453 113.549C81.1317 113.539 81.23 113.627 81.2403 113.813L81.5087 118.678C81.519 118.864 81.4309 118.963 81.2445 118.973L79.2875 119.081C78.6165 119.118 78.0253 119.076 77.5139 118.955C77.021 118.832 76.5417 118.616 76.0759 118.305C75.6471 118.665 75.1852 118.933 74.6902 119.11C74.2138 119.286 73.6401 119.393 72.9691 119.43L71.0121 119.538C70.8257 119.548 70.7274 119.46 70.7171 119.273L70.4487 114.409ZM71.9183 121.731L76.2517 121.492L76.4908 125.825L72.1574 126.064L71.9183 121.731ZM76.2517 121.492L80.5851 121.253L80.8243 125.586L76.4908 125.825L76.2517 121.492ZM89.4171 118.578C88.2429 118.643 87.1646 118.413 86.1821 117.887C85.2173 117.342 84.4369 116.582 83.8408 115.605C83.2634 114.627 82.9418 113.542 82.876 112.349L82.8189 111.315L81.0296 111.413L80.7458 106.269L88.7137 105.83C89.9065 105.764 91.0211 105.973 92.0574 106.458C93.0927 106.925 93.9254 107.617 94.5556 108.536C95.2035 109.435 95.5598 110.471 95.6246 111.646C95.6904 112.839 95.4529 113.955 94.912 114.994C94.3887 116.014 93.6403 116.85 92.6667 117.502C91.6932 118.153 90.61 118.512 89.4171 118.578ZM80.6354 119.007C80.449 119.017 80.3507 118.929 80.3404 118.742L80.072 113.878C80.0617 113.692 80.1497 113.593 80.3361 113.583L82.349 113.472C82.5354 113.462 82.6721 113.398 82.7591 113.281C82.8648 113.163 82.9125 113.011 82.9022 112.824L82.8482 111.846L86.958 111.619L87.0305 112.933C87.123 114.611 86.7979 116.003 86.0551 117.109C85.3309 118.215 84.1953 118.81 82.6483 118.896L80.6354 119.007ZM89.1178 113.154C89.472 113.135 89.7459 113.017 89.9396 112.801C90.1323 112.566 90.2194 112.28 90.2008 111.945C90.1834 111.628 90.067 111.382 89.8517 111.207C89.6364 111.032 89.3516 110.954 88.9975 110.974L87.9072 111.034L87.9642 112.068C87.9828 112.404 88.0914 112.678 88.2901 112.892C88.5064 113.085 88.7823 113.173 89.1178 113.154ZM102.424 117.804C101.38 117.862 100.415 117.663 99.5303 117.207C98.6442 116.732 97.9258 116.08 97.3753 115.251C96.8237 114.402 96.5196 113.466 96.4631 112.441L95.7226 99.0211L100.867 98.7372L101.589 111.821C101.599 112.008 101.654 112.154 101.753 112.261C101.87 112.348 102.013 112.387 102.18 112.378L103.886 112.283C104.072 112.273 104.17 112.361 104.181 112.548L104.449 117.412C104.459 117.599 104.371 117.697 104.185 117.707L102.424 117.804ZM103.004 112.613C102.994 112.426 103.082 112.328 103.268 112.318L105.225 112.21C105.412 112.199 105.549 112.136 105.636 112.019C105.741 111.901 105.789 111.748 105.779 111.562L105.486 106.25L110.63 105.966L110.923 111.278C110.933 111.465 110.988 111.611 111.087 111.718C111.205 111.824 111.357 111.871 111.544 111.861L113.501 111.753C113.687 111.743 113.786 111.831 113.796 112.017L114.064 116.882C114.075 117.068 113.987 117.166 113.8 117.177L111.843 117.285C111.172 117.322 110.581 117.28 110.069 117.158C109.577 117.036 109.097 116.819 108.631 116.508C108.203 116.869 107.741 117.137 107.246 117.314C106.769 117.49 106.196 117.596 105.525 117.633L103.568 117.741C103.381 117.752 103.283 117.664 103.273 117.477L103.004 112.613ZM103.474 99.7712L107.807 99.5321L108.046 103.865L103.713 104.105L103.474 99.7712ZM107.807 99.5321L112.14 99.293L112.379 103.626L108.046 103.865L107.807 99.5321ZM126.949 116.507C125.402 116.593 124.199 116.126 123.339 115.108C122.497 114.089 122.03 112.741 121.938 111.063L121.623 105.36L125.733 105.133L126.029 110.501C126.039 110.687 126.094 110.834 126.193 110.94C126.311 111.046 126.463 111.094 126.65 111.084C126.836 111.073 126.973 111.01 127.06 110.893C127.166 110.775 127.213 110.622 127.203 110.436L126.864 104.285L130.973 104.059L131.331 110.545C131.424 112.222 131.099 113.614 130.356 114.721C129.632 115.826 128.496 116.422 126.949 116.507ZM113.191 117.21C113.005 117.221 112.906 117.133 112.896 116.946L112.628 112.082C112.617 111.895 112.705 111.797 112.892 111.787L114.01 111.725C114.196 111.715 114.333 111.651 114.42 111.534C114.526 111.416 114.573 111.264 114.563 111.077L114.27 105.765L118.38 105.539L118.691 111.186C118.784 112.864 118.459 114.256 117.716 115.362C116.992 116.468 115.856 117.063 114.309 117.149L113.191 117.21ZM120.631 116.856C119.084 116.941 117.88 116.475 117.02 115.457C116.179 114.437 115.712 113.089 115.619 111.412L115.305 105.708L119.414 105.482L119.71 110.849C119.721 111.036 119.776 111.182 119.875 111.289C119.993 111.395 120.145 111.442 120.331 111.432C120.518 111.422 120.655 111.358 120.742 111.241C120.847 111.123 120.895 110.971 120.885 110.785L120.588 105.417L124.698 105.19L125.013 110.893C125.105 112.571 124.78 113.963 124.038 115.069C123.313 116.175 122.178 116.771 120.631 116.856ZM133.264 116.103C131.717 116.188 130.514 115.722 129.654 114.703C128.812 113.684 128.345 112.336 128.253 110.659L127.898 104.228L132.008 104.002L132.344 110.096C132.354 110.283 132.409 110.429 132.509 110.536C132.627 110.642 132.779 110.689 132.965 110.679L134.083 110.617C134.27 110.607 134.368 110.695 134.378 110.881L134.647 115.746C134.657 115.932 134.569 116.031 134.383 116.041L133.264 116.103ZM133.762 116.075C133.576 116.086 133.478 115.997 133.467 115.811L133.199 110.946C133.189 110.76 133.277 110.662 133.463 110.651L136.483 110.485C136.632 110.477 136.759 110.414 136.865 110.296C136.97 110.178 137.019 110.035 137.009 109.867L136.671 103.744L141.816 103.46L142.172 109.919C142.229 110.944 142.029 111.908 141.575 112.812C141.119 113.697 140.476 114.424 139.648 114.993C138.818 115.544 137.882 115.848 136.838 115.906L133.762 116.075ZM132.786 97.3686L137.12 97.1295L137.359 101.463L133.025 101.702L132.786 97.3686ZM137.12 97.1295L141.453 96.8904L141.692 101.224L137.359 101.463L137.12 97.1295Z" fill="#A7A7A7"/>
<path d="M164.739 137.064C164.696 135.668 164.661 133.741 164.002 132.345C163.84 131.442 163.158 130.661 161.956 130.681C160.832 130.701 159.709 130.736 158.585 130.756C154.899 112.695 154.694 93.6253 153.554 75.3122C152.904 64.8369 152.293 54.3576 151.453 43.8941C151.008 38.3115 150.873 32.2006 149.265 26.7717C149.225 25.7349 148.539 24.7453 147.183 24.765C141.778 24.8478 136.373 24.9976 130.968 25.1908C130.912 23.5073 130.514 21.8002 129.647 20.4873C128.058 18.0824 124.991 18.0942 122.432 18.2283C117.524 18.4806 112.075 20.7397 112.998 26.0187C85.8059 27.5208 58.6143 30.0401 31.4621 32.2558C31.3477 32.0271 31.2452 31.7906 31.1861 31.5304C30.9456 30.529 31.1073 29.4132 31.0205 28.3921C30.8234 26.0818 29.412 24.6152 27.1332 24.2406C24.334 23.7794 20.6477 24.3274 18.3492 26.0542C16.0113 27.8086 15.9246 30.7498 16.4883 33.4346C11.9229 33.7776 7.36138 34.1127 2.79987 34.4203C2.30312 34.4557 1.90886 34.6371 1.60923 34.8973C1.06516 35.2009 0.694563 35.7686 0.753701 36.6084C3.26115 71.4879 1.89704 106.659 5.5833 141.484C4.65681 141.547 3.73031 141.618 2.80382 141.677C1.94435 141.736 1.38056 142.237 1.10459 142.86C0.146551 143.857 0.371275 145.213 0.458011 146.629C0.592057 148.722 0.394931 150.938 0.639367 152.996C0.718218 153.65 1.27806 154.234 1.89309 154.443C2.14936 154.561 2.44899 154.624 2.80382 154.604C55.8742 151.506 108.83 146.041 161.964 143.991C162.654 143.967 163.174 143.68 163.525 143.27C163.734 143.132 163.923 142.946 164.065 142.651C164.889 140.936 164.806 138.929 164.747 137.068L164.739 137.064ZM4.026 150.571C4.04177 149.692 3.98658 148.801 3.93532 147.934C3.89196 147.216 3.91561 146.372 3.85253 145.544C56.3789 142.45 108.795 137.08 161.38 135.03C161.392 135.408 161.408 135.787 161.412 136.157C161.428 137.159 161.625 138.499 161.538 139.67C108.996 140.545 56.438 147.019 4.026 150.567V150.571ZM12.6799 136.134C16.5987 135.759 20.5925 135.459 24.4365 134.612C24.7795 134.537 24.7046 133.985 24.3537 134.001C20.4664 134.186 16.583 134.521 12.7075 134.856C12.7075 134.572 12.7075 134.289 12.7075 134.009C15.3923 133.756 18.1481 133.528 20.7502 132.861C21.0932 132.775 21.0183 132.246 20.6674 132.25C18.0102 132.29 15.345 132.514 12.6917 132.743C12.6838 132.495 12.668 132.25 12.6601 132.002C13.9572 131.872 15.2859 131.71 16.4805 131.284C16.8156 131.166 16.7525 130.701 16.3977 130.673C15.1479 130.575 13.8666 130.654 12.6049 130.752C12.3408 126.285 11.7021 121.751 11.4656 117.462C11.0752 110.357 11.2014 103.277 11.0595 96.1682C10.7007 78.3046 9.84518 60.4489 9.02907 42.601C30.2438 41.7928 51.4744 40.0975 72.6655 38.8162C85.7586 38.0237 98.765 36.3087 111.878 35.812C122.054 35.4256 132.273 34.7869 142.393 33.5844C142.417 33.9432 142.444 34.302 142.468 34.6607C136.255 35.3507 129.95 35.9697 123.84 37.2983C123.516 37.3693 123.587 37.8857 123.918 37.8739C130.152 37.6334 136.357 36.5413 142.555 35.8277C142.59 36.3087 142.622 36.7858 142.657 37.2668C137.851 37.799 132.923 38.2248 128.224 39.376C127.9 39.4549 127.971 39.9556 128.302 39.9516C133.124 39.8925 137.954 38.9818 142.744 38.4338C142.779 38.8753 142.815 39.3208 142.85 39.7624C139.353 40.1488 135.691 40.3932 132.308 41.3828C131.989 41.4774 132.056 41.9466 132.387 41.9584C135.9 42.0688 139.46 41.3197 142.945 40.9294C143.04 42.1042 143.134 43.2831 143.233 44.4579C138.427 44.9902 133.503 45.416 128.803 46.5672C128.48 46.646 128.551 47.1467 128.882 47.1428C133.708 47.0837 138.541 46.1729 143.331 45.6249C144.207 55.9583 145.2 66.272 145.689 76.6408C146.138 86.1108 146.403 95.6123 147.231 105.059C147.593 109.182 148.232 113.271 148.701 117.379C149.088 120.734 148.961 124.144 149.474 127.484C147.203 127.381 144.916 127.535 142.649 127.697C142.515 125.508 142.231 123.336 141.754 121.132C141.62 120.517 140.97 120.052 140.351 120.064C131.63 120.229 121.975 120.793 113.467 122.796C112.812 122.95 112.442 123.565 112.402 124.196C112.292 125.832 112.394 127.405 112.623 128.966C90.7853 130.496 68.924 132.187 47.1612 134.541C40.183 135.298 33.2204 135.972 26.2185 136.469C21.7122 136.788 17.0955 136.855 12.6049 137.439C12.6365 137.001 12.668 136.567 12.6877 136.126L12.6799 136.134ZM115.142 125.93C115.127 125.268 114.37 125.548 116.073 125.3C119.416 124.819 122.783 124.491 126.142 124.14C129.639 123.774 133.144 123.451 136.653 123.186C137.705 123.107 138.758 123.037 139.811 122.989C139.168 123.017 139.31 128.154 139.46 131.371C131.594 131.71 123.729 132.148 115.868 132.656C115.537 130.421 115.197 128.205 115.142 125.93ZM117.39 22.6005C118.793 21.6662 120.823 21.6149 122.436 21.5045C124.183 21.3902 126.627 21.0156 127.25 23.0815C127.467 23.7991 127.498 24.556 127.506 25.3169C123.721 25.4707 119.936 25.6481 116.152 25.8452C116.073 24.5915 116.179 23.4048 117.39 22.5966V22.6005ZM21.7713 27.7219C22.9502 27.3355 27.2593 26.4209 27.7876 28.1083C28.0912 29.0781 27.9532 30.9232 28.1701 32.516C25.296 32.7486 22.4219 32.9733 19.5477 33.1981C19.2442 30.8877 18.8302 28.6918 21.7753 27.7219H21.7713ZM4.9525 38.2208C51.8726 35.4532 98.7019 31.0691 145.673 29.153C146.962 34.3493 147.041 40.0423 147.455 45.2977C148.291 55.8992 148.875 66.5203 149.525 77.1297C150.605 94.7528 150.558 113.472 154.39 130.851C150.503 130.949 146.616 131.071 142.728 131.225C142.736 130.571 142.72 129.924 142.701 129.274C145.263 129.088 147.853 128.879 150.416 129.092C150.448 129.092 150.467 129.084 150.499 129.08C150.519 129.08 150.538 129.076 150.562 129.073C150.743 129.053 150.893 128.99 150.992 128.875C151.146 128.741 151.244 128.556 151.216 128.308C147.755 96.5861 147.037 64.6595 143.805 32.9024C143.982 32.3859 143.741 31.7472 143.059 31.83C133.215 33.0088 123.248 33.6869 113.345 34.0339C99.7388 34.5149 86.2514 36.218 72.6734 37.1209C51.3167 38.5402 29.9048 40.3892 8.52049 41.2842C8.07104 41.1147 7.47572 41.3394 7.47966 41.9662C7.62948 59.7786 8.7531 77.5791 9.15524 95.3876C9.31294 102.449 9.15524 109.486 9.52189 116.547C9.90037 123.762 10.9018 131.02 11.0003 138.243C11.0082 138.909 11.6233 139.114 12.0767 138.909C17.0206 138.251 22.1498 138.278 27.1214 137.947C34.2731 137.47 41.3815 136.749 48.5056 135.98C69.9096 133.666 91.4122 132.041 112.887 130.543C113.037 131.3 113.214 132.057 113.408 132.818C78.7922 135.124 44.1925 138.724 9.65199 141.196C6.98684 106.923 7.36138 72.4814 4.94461 38.2248L4.9525 38.2208Z" fill="#2D2D2D"/>
<path d="M26.8066 134.178C26.9131 134.103 26.9289 133.981 26.8461 133.878C26.6489 133.642 26.44 133.563 26.1364 133.579C25.3282 133.626 25.7146 134.856 26.3769 134.47C26.5307 134.383 26.6647 134.281 26.8066 134.178Z" fill="#2D2D2D"/>
<path d="M125.972 47.399C126.342 47.4503 126.595 47.4818 126.784 47.127C126.847 47.0087 126.784 46.8944 126.669 46.847C126.409 46.7367 126.244 46.8076 125.972 46.8549C125.707 46.9022 125.696 47.3596 125.972 47.399Z" fill="#2D2D2D"/>
</svg>
