<svg width="25" height="16" viewBox="0 0 25 31" fill="none" xmlns="http://www.w3.org/2000/svg">
<path d="M11.0585 27.1625H2.44235C2.16666 27.1625 1.91537 27.3206 1.79601 27.5691C1.46573 28.2568 0.432617 28.0215 0.432617 27.2587V14.0196C0.432617 13.3397 0.432617 12.9998 0.487484 12.7168C0.720484 11.5153 1.65998 10.5758 2.86148 10.3428C3.14442 10.288 3.48437 10.288 4.16427 10.288H11.0585C13.887 10.288 15.3012 10.288 16.1799 11.1666C17.0585 12.0453 17.0585 13.4595 17.0585 16.288V21.1625C17.0585 23.991 17.0585 25.4052 16.1799 26.2839C15.3012 27.1625 13.887 27.1625 11.0585 27.1625Z" fill="#D2A2E5"/>
<path d="M3 22.1725H23" stroke="white" stroke-width="2.5" stroke-miterlimit="10" stroke-linecap="round" stroke-linejoin="round"/>
<path d="M3.94995 22.1725L3.99995 10.1425C3.99995 9.53247 4.28995 8.95253 4.76995 8.57253L11.77 3.12251C12.49 2.56251 13.4999 2.56251 14.2299 3.12251L21.23 8.56252C21.72 8.94252 22 9.52247 22 10.1425V22.1725" stroke="white" stroke-width="2.5" stroke-miterlimit="10" stroke-linejoin="round"/>
</svg>
