<svg width="38" height="38" viewBox="0 0 38 38" fill="none" xmlns="http://www.w3.org/2000/svg">
<path fill-rule="evenodd" clip-rule="evenodd" d="M0.112061 18.9112C0.112061 8.46684 8.5789 0 19.0233 0C29.4677 0 37.9345 8.46684 37.9345 18.9112C37.9345 29.3556 29.4677 37.8224 19.0233 37.8224C8.5789 37.8224 0.112061 29.3556 0.112061 18.9112ZM7.25632 19.3865C7.27018 19.392 7.28516 19.3965 7.30013 19.4009C7.33246 19.4106 7.36476 19.4202 7.38576 19.4412C8.38468 20.4346 9.38163 21.4301 10.3779 22.4261C11.1685 23.2169 11.9582 24.0086 12.7473 24.801L12.7534 24.8071C12.9306 24.9849 12.9315 24.9859 13.1128 24.806C13.7752 24.1477 14.4374 23.4892 15.0996 22.8306L16.0943 21.8415L17.7849 20.1608L18.6277 19.323L18.6445 19.3065L18.6445 19.3065L18.6446 19.3065L18.6446 19.3064C18.6648 19.2865 18.6851 19.2666 18.7042 19.2455C18.8188 19.1182 18.8661 19.1132 18.9862 19.2339C19.6619 19.9136 20.3366 20.5946 21.0106 21.2758C21.3202 21.5886 21.6292 21.9022 21.9382 22.2157L21.9383 22.2158L21.9384 22.2159C22.1237 22.4039 22.309 22.592 22.4944 22.7798L23.296 23.5921L23.3008 23.597C23.7001 24.0015 24.0993 24.406 24.4983 24.8108C24.5241 24.8369 24.5483 24.8645 24.5725 24.8921C24.5938 24.9163 24.615 24.9405 24.6374 24.9637C24.7036 25.0328 24.7757 25.0372 24.8492 24.9744C24.8761 24.9514 24.9011 24.9261 24.926 24.9009L24.9261 24.9009L24.9355 24.8914C25.2201 24.605 25.5047 24.3184 25.7893 24.0319C26.2876 23.5301 26.7859 23.0284 27.2848 22.5273C28.0941 21.7142 28.9043 20.9018 29.7154 20.0903C29.8361 19.9696 29.9579 19.85 30.0796 19.7304L30.0796 19.7304L30.0797 19.7304L30.0797 19.7304C30.2506 19.5625 30.4214 19.3946 30.5892 19.2239C30.6627 19.1491 30.7187 19.1326 30.791 19.2119V25.3789C30.773 25.4009 30.7556 25.4236 30.7382 25.4462L30.7381 25.4462L30.7381 25.4463L30.738 25.4465C30.7006 25.495 30.6632 25.5435 30.6204 25.5865C29.6799 26.5349 28.7383 27.4824 27.7958 28.429C27.6943 28.531 27.5929 28.633 27.4916 28.7351L27.4893 28.7374L27.4869 28.7398L27.4867 28.74C27.0987 29.1307 26.7107 29.5214 26.316 29.9054C26.0368 30.1769 25.7099 30.3796 25.3236 30.4652C25.2142 30.4894 25.1031 30.5053 24.992 30.5212C24.9419 30.5284 24.8919 30.5355 24.842 30.5434H24.6459C24.6355 30.5415 24.6252 30.5392 24.6149 30.537C24.5934 30.5322 24.572 30.5275 24.5502 30.526C24.0444 30.4931 23.6095 30.2944 23.2412 29.9522C23.0794 29.802 22.9243 29.6443 22.7693 29.4867L22.7693 29.4866L22.7692 29.4866L22.7692 29.4865L22.6849 29.4008L22.6387 29.3541C21.8233 28.5295 21.0082 27.7047 20.193 26.8798L18.9714 25.6436C18.8317 25.5024 18.8197 25.5031 18.6774 25.6452L17.6638 26.657L17.66 26.6609C16.9867 27.3331 16.3134 28.0053 15.6397 28.677C15.5612 28.7553 15.4828 28.8337 15.4045 28.912L15.4044 28.9121C15.1029 29.2137 14.8014 29.5152 14.4932 29.8097C13.7981 30.4737 12.8556 30.6232 11.9829 30.2177C11.6752 30.0747 11.4265 29.8555 11.1905 29.6156C10.8996 29.3198 10.6048 29.0279 10.3101 28.7359L10.3098 28.7357C10.1662 28.5935 10.0225 28.4512 9.87935 28.3085L9.42976 27.8604L9.42947 27.8601C8.84658 27.2793 8.26366 26.6984 7.68321 26.1152C7.58023 26.0122 7.48442 25.9019 7.38862 25.7915L7.38861 25.7915L7.3886 25.7915L7.38859 25.7915L7.38832 25.7912C7.34455 25.7407 7.30078 25.6903 7.25632 25.6406V19.3865ZM19.27 7.35762L19.27 7.35761C19.1958 7.34363 19.1216 7.32964 19.048 7.31403H18.4814C18.4465 7.31925 18.4115 7.32419 18.3765 7.32912L18.3764 7.32913L18.3764 7.32914C18.3004 7.33986 18.2244 7.35058 18.1491 7.36415C16.2944 7.69931 15.0931 9.38836 15.374 11.2561C15.6662 13.1999 17.5533 14.4239 19.4228 14.053C21.0182 13.7364 22.1417 12.3302 22.1417 10.6987C22.1415 9.21686 21.1648 7.89238 19.7477 7.46527C19.5919 7.41829 19.4309 7.38795 19.27 7.35762ZM16.133 17.1608C16.1273 18.1044 15.8353 18.8773 15.3566 19.5881C15.3407 19.6117 15.3182 19.6317 15.2958 19.6498C14.6529 20.1682 13.9388 20.5298 13.1062 20.6121C12.0569 20.7161 11.1375 20.4108 10.3729 19.6845C9.63786 18.9861 9.29683 18.1183 9.32581 17.1037C9.37135 15.5044 10.6 14.1104 12.1785 13.8716C13.9504 13.6036 15.5682 14.6559 16.0243 16.3757C16.0567 16.4981 16.0818 16.6234 16.0977 16.7489C16.1127 16.867 16.1208 16.9859 16.1268 17.0752C16.1291 17.1082 16.1311 17.1372 16.133 17.1606V17.1608ZM28.4649 17.3889C28.4686 15.4793 26.9547 13.9526 25.0547 13.9515C23.1469 13.9522 21.6949 15.4989 21.6579 17.2895C21.6184 19.1854 23.1432 20.7393 25.0159 20.7648C26.866 20.7899 28.4614 19.2808 28.4649 17.3889Z" fill="#F0F0F0"/>
</svg>
