<svg width="330" height="250" viewBox="0 0 402 289" fill="none" xmlns="http://www.w3.org/2000/svg">
<path d="M103.841 175.19C103.642 174.576 102.84 174.317 102.906 173.536C103.184 170.342 102.1 167.223 102.135 164.113C102.188 159.691 102.113 155.255 102.347 150.833C102.505 147.828 102.549 144.858 103.581 141.901C104.343 139.717 103.541 137.185 104.193 134.825C104.555 133.526 104.828 132.724 106.454 132.509C111.866 131.785 117.248 130.828 122.638 129.942C126.745 129.267 130.835 128.516 134.947 127.872C136.741 127.591 138.561 127.358 140.372 127.35C146.789 127.31 153.167 126.564 159.575 126.319C165.577 126.09 171.576 125.397 177.596 125.156C178.319 125.125 178.878 124.981 179.235 124.322C179.866 124.845 180.619 124.647 181.338 124.691C186.525 124.989 191.642 123.993 196.785 123.669C200.58 123.428 204.445 123.221 208.231 122.519C211.003 122.006 213.815 121.717 216.587 121.203C220.24 120.528 224.022 120.466 227.526 119.04C228.288 118.821 229.187 119.255 229.853 118.567C233.528 119.172 236.856 117.422 240.368 116.913C245.018 116.242 249.527 114.658 254.159 113.794C260.188 112.666 265.992 110.907 271.629 108.542C273.004 108.336 272.969 109.284 272.978 110.187C273.039 115.448 274.586 120.497 275.146 125.682C275.499 128.968 275.86 132.285 275.957 135.566C276.089 140.05 277.063 144.437 277.041 148.938C277.028 151.189 275.895 152.053 274.247 152.786C268.998 155.119 263.564 156.98 258.121 158.778C250.567 161.279 243.238 164.416 235.551 166.535C235.212 166.627 234.912 166.868 234.595 167.043C225.886 169.5 217.305 172.439 208.24 173.506C202.581 174.172 196.935 175.032 191.333 176.063C189.196 176.458 186.979 175.993 184.921 176.853C184.714 176.423 184.361 176.458 183.982 176.55C183.105 176.511 182.224 176.392 181.355 176.445C177.142 176.704 172.933 177.265 168.724 177.252C155.613 177.208 142.505 176.905 129.394 176.809C125.194 176.778 121.016 176.379 116.82 176.247C112.492 176.111 108.217 174.944 103.832 175.186L103.841 175.19Z" fill="#BF8BD5"/>
<path d="M264.388 176.962C265.212 177.256 265.842 177.55 265.987 178.669C266.891 185.605 268.469 192.431 269.65 199.314C270.47 204.092 271.58 208.847 271.726 213.757C271.792 216.042 270.562 216.691 268.879 217.367C260.368 220.798 251.708 223.798 243.004 226.694C242.867 226.738 242.748 226.83 242.625 226.9C238.689 228.102 234.749 229.287 230.818 230.506C225.815 232.059 220.888 233.911 215.811 235.148C208.12 237.021 200.223 237.732 192.334 238.359C187.803 237.942 183.44 239.272 178.98 239.605C172.364 240.096 165.762 240.614 159.112 240.583C153.422 240.561 147.847 239.627 142.219 239.197C140.103 239.035 137.957 239.057 135.837 239.201C133.193 239.386 130.637 238.561 128.005 238.714C126.912 238.776 126.084 238.026 125.52 237.223C124.823 236.236 126.053 235.863 126.476 235.336C129.733 231.331 133.215 227.514 136.269 223.333C137.137 222.145 137.675 221.732 135.687 221.105C131.377 219.749 127.177 218.047 122.897 216.564C120.778 215.827 118.887 214.248 116.776 213.239C116.344 213.033 115.577 212.941 115.683 212.089C115.78 211.265 116.419 211.067 117.031 210.848C120.822 209.484 124.704 208.404 128.644 207.588C139.539 205.333 150.434 203.079 161.377 201.082C165.85 200.266 170.452 200.152 174.987 199.657C178.653 199.257 182.316 198.775 185.97 198.279C186.26 198.24 186.498 197.818 186.763 197.573C187.552 198.174 188.464 198.003 189.306 197.867C193.581 197.169 197.838 196.362 202.118 195.691C206.631 194.98 211.183 194.502 215.679 193.703C221.082 192.743 226.485 191.712 231.809 190.387C234.127 189.812 236.631 189.452 238.645 187.921C238.98 187.798 239.434 187.921 239.606 187.461C240.333 187.408 241.1 187.487 241.787 187.285C249.663 184.995 256.926 181.292 264.167 177.542C264.308 177.467 264.322 177.147 264.396 176.945L264.388 176.962Z" fill="#BF8BD5"/>
<path d="M327.398 159.743C326.499 163.863 323.475 165.999 320.02 167.807C319.178 168.25 318.328 168.754 317.728 169.715C316.437 171.786 314.617 171.795 313.255 169.785C310.104 165.139 306.816 160.555 304.009 155.703C301.095 150.667 297.636 145.999 294.612 141.05C291.404 135.79 288.072 130.609 285.018 125.244C282.871 121.475 280.584 117.755 278.861 113.798C277.966 111.736 278.596 109.235 279.61 107.073C281.214 103.655 283.934 101.01 286.062 97.9564C290.884 91.0468 296.133 84.4444 301.801 78.1841C305.829 73.7356 309.685 69.1117 313.973 64.9264C318.363 60.6447 323.89 59.934 329.302 63.8516C338.513 70.5199 347.658 77.2935 356.649 84.2557C361.06 87.6776 365.811 90.7266 369.527 95.0171C371.814 97.6581 371.788 97.5133 370.443 100.856C366.754 110.051 361.267 118.286 356.468 126.885C352.858 133.351 348.729 139.488 344.304 145.455C343.193 146.951 340.796 147.376 340.752 149.728C340.743 150.197 339.98 150.324 339.654 150.123C337.861 149.035 337.556 150.46 336.803 151.54C335.776 153.018 335.441 155.15 332.739 155.155C331.461 155.155 331.43 157.107 331.122 158.348C330.448 161.09 329.91 161.288 327.398 159.739V159.743ZM303.356 123.857C303.317 123.682 303.528 123.467 303.193 123.34C302.823 123.199 302.92 123.555 302.779 123.647C303.317 123.537 303.317 123.274 302.955 122.954C302.849 122.862 302.695 122.476 302.559 122.853C302.484 123.055 302.695 123.366 302.783 123.621C302.99 123.686 303.198 123.757 303.405 123.822C303.387 124.099 303.506 124.27 303.788 124.314C303.925 124.564 304.031 124.836 304.202 125.06C310.117 132.917 316.062 140.748 321.942 148.627C324.242 151.711 326.397 154.905 328.68 158.138C330.783 153.391 330.756 153.413 327.742 150.083C324.537 146.547 321.435 142.915 318.204 139.401C313.489 134.272 309.328 128.635 304.061 124.011C303.854 123.853 303.7 123.458 303.365 123.857H303.356ZM292.761 117.299C292.982 117.659 293.202 118.018 293.422 118.378C294.85 120.55 296.309 122.704 297.693 124.902C299.645 128.012 301.928 130.925 303.369 134.338C302.127 134.518 301.655 133.412 301.263 132.724C299.623 129.855 297.847 127.078 296.005 124.34C294.727 122.44 293.563 120.422 291.408 118.475C291.796 121.094 293.859 122.243 294.119 124.244C292.338 122.278 290.514 120.357 288.799 118.339C287.543 116.865 286.895 114.89 285.159 113.776C287.08 117.768 289.015 121.739 291.311 125.485C294.846 131.241 298.588 136.869 302.479 142.406C306.944 148.763 311.131 155.313 315.437 161.779C316.15 162.977 316.864 164.17 317.578 165.363C317.473 163.81 316.574 162.683 315.749 161.52C315.551 161.064 315.397 160.581 315.146 160.156C312.016 154.878 308.812 149.64 305.745 144.327C302.206 138.194 298.843 131.965 294.683 126.205C294.335 125.722 293.471 125.086 294.066 124.187C294.246 124.301 294.484 124.371 294.599 124.529C300.593 132.991 306.049 141.796 311.289 150.737C314.194 155.685 317.107 160.625 320.152 165.802C320.888 164.574 320.403 163.837 319.976 163.117C319.253 161.884 318.486 160.678 317.75 159.454C313.392 152.18 309.416 144.678 304.793 137.554C304.185 136.615 302.876 135.773 303.317 134.285C305.295 135.61 306.031 137.861 307.235 139.725C310.236 144.371 313.004 149.166 315.864 153.9C316.305 154.633 316.75 155.361 317.191 156.093C317.645 156.808 317.755 157.778 318.936 157.984C318.46 157.26 317.988 156.536 317.512 155.817C317.261 154.97 316.953 154.163 316.177 153.637C315.485 150.868 313.973 148.486 312.603 146.034C307.107 136.185 300.483 127.091 293.753 118.067C293.528 117.707 293.308 117.352 293.083 116.992C292.404 116.461 292.338 115.443 291.505 115.035C290.822 113.267 290.187 111.464 288.129 110.819C288.896 112.517 289.738 114.149 291.188 115.355C291.461 116.202 292.083 116.772 292.752 117.299H292.761ZM320.712 161.818C321.258 162.634 321.461 163.731 323.03 164.402C322.263 163.099 321.946 162.13 321.034 161.525C320.663 160.283 319.927 159.3 318.976 158.476C319.134 159.84 319.994 160.788 320.712 161.818ZM303.854 121.168C303.506 120.431 302.982 120.12 302.105 120.479C302.616 120.83 303.079 121.151 303.537 121.467C309.275 126.972 314.559 132.904 319.91 138.769C322.197 141.278 324.242 144.007 326.49 146.56C328.314 148.635 330.262 150.601 332.175 152.597C332.479 152.917 332.682 153.474 333.383 152.917C335.939 150.877 336.01 148.6 333.506 146.622C326.146 140.796 319.764 133.882 312.567 127.876C309.751 125.525 307.239 122.791 303.859 121.168H303.854ZM294.189 115.439C294.11 115.04 293.616 114.636 293.506 114.737C293.012 115.193 293.674 115.417 293.845 115.75C297.019 120.098 300.223 124.423 303.356 128.802C309.434 137.291 314.938 146.117 319.421 155.571C320.597 158.054 322.387 160.248 323.978 162.696C324.476 161.99 324.727 161.647 324.965 161.296C326.71 158.739 326.746 157.752 324.987 155.251C320.562 148.956 316.186 142.621 311.642 136.413C306.265 129.065 300.236 122.243 294.189 115.443V115.439ZM339.139 148.394C340.888 145.937 339.438 144.433 337.631 143.235C332.656 139.936 328.473 135.685 323.846 131.965C313.832 123.923 303.748 115.992 293.272 108.56C291.483 107.292 289.266 106.516 286.825 106.792C287.133 107.814 288.068 107.586 288.636 107.998C297.384 114.36 306.261 120.515 314.348 127.771C320.386 133.189 326.261 138.813 332.651 143.836C334.758 145.494 336.807 147.254 339.134 148.39L339.139 148.394Z" fill="#390A4D"/>
<path d="M221.937 63.3647C224.202 63.2813 226.036 61.9608 227.948 61.0439C241.122 54.7441 254.163 48.1899 266.133 39.7405C269.055 37.6742 271.977 35.6035 274.947 33.6118C276.649 32.4712 276.97 32.7081 277.067 34.7524C277.288 39.3413 276.203 43.7766 275.419 48.2382C275.225 49.3481 275.362 50.5238 274.815 51.6118C274.537 52.1646 274.947 52.5111 275.63 52.8182C276.997 53.428 278.394 53.314 279.712 53.1516C284.277 52.5769 288.954 52.6647 293.374 51.1029C293.731 50.9757 294.286 50.7783 294.524 51.3223C294.758 51.8531 294.383 52.2567 294.11 52.6998C291.884 56.3015 289.209 59.5567 286.256 62.5706C276.975 72.0554 266.812 80.4697 255.388 87.3003C249.183 91.0118 242.567 93.916 235.895 96.6842C232.528 98.0837 229.209 99.5972 225.864 101.058C225.291 101.102 224.639 100.988 224.154 101.22C221.025 102.73 217.618 103.427 214.357 104.533C209.345 106.235 204.224 107.63 199.187 109.257C192.329 111.477 185.37 113.258 178.226 114.289C177.124 113.973 176.194 114.342 175.339 115.013C170.5 115.066 165.78 116.193 160.967 116.544C158.578 116.72 156.132 116.277 153.801 117.101C150.465 116.816 149.358 115.794 149.187 112.258C148.913 106.625 148.116 101.027 148.138 95.3681C148.151 91.3364 148.323 90.731 152.184 89.643C159.464 87.5943 166.401 84.6506 173.378 81.7902C175.317 81.6586 176.895 80.5311 178.649 79.8994C183.955 77.9867 189.231 75.9818 194.497 73.9769C201.465 71.3271 208.587 69.1029 215.498 66.3303C217.68 65.4529 220.099 65.0054 221.933 63.3603L221.937 63.3647Z" fill="#BF8BD5"/>
<path d="M221.937 63.3647C220.099 65.0098 217.68 65.4617 215.503 66.3347C208.592 69.1117 201.47 71.3359 194.502 73.9813C189.235 75.9818 183.96 77.991 178.654 79.9038C176.9 80.5355 175.322 81.663 173.383 81.7946C172.854 80.2723 172.638 78.7017 172.497 77.0917C172.122 72.8977 171.615 68.7125 171.139 64.5272C171.122 64.3781 170.848 64.2596 170.694 64.128C170.672 63.8604 170.646 63.5884 170.624 63.3208C171.113 58.732 169.434 54.4809 168.552 50.1027C170.209 48.361 172.409 47.2072 173.854 45.2418C176.97 44.8251 180.082 44.1144 183.206 44.0617C187.279 43.9959 191.205 43.0352 195.185 42.4999C200.179 41.8331 205.154 41.1224 210.187 40.9031C211.942 40.8241 213.7 40.8636 215.459 40.8899C216.234 40.9031 216.763 40.7846 216.543 39.8195C215.648 35.972 215.802 32.0062 215.172 28.128C214.903 25.7459 214.639 23.3593 214.344 20.749C215.626 21.3193 216.684 21.7229 217.16 22.9074C217.966 28.2991 218.557 33.7171 219.302 39.1131C220.091 44.8031 220.381 50.5458 221.236 56.2401C221.483 57.8765 221.611 59.8331 221.474 61.6493C221.43 62.2153 221.069 62.9874 221.933 63.3603L221.937 63.3647ZM218.583 62.9567C214.092 63.8253 209.522 63.527 205.053 64.2421C200.196 65.0186 195.362 65.8126 190.412 66.0013C185.599 66.1855 180.91 67.7122 176.053 67.7166C175.079 67.7166 174.401 68.3571 174.401 69.0459C174.401 69.9628 175.419 69.8092 176.128 69.875C178.993 70.147 181.703 69.1205 184.52 68.8879C189.244 68.4931 193.934 67.6727 198.636 67.0454C203.259 66.4268 207.825 65.431 212.484 64.9791C214.564 64.7773 216.878 64.7378 218.579 62.9611L218.583 62.9567ZM216.433 51.0064C210.703 50.9757 205.093 52.1032 199.487 52.9016C191.787 54.0027 184.101 55.0293 176.335 55.389C175.185 55.4417 174.379 55.9506 174.405 56.9684C174.432 58.0739 175.555 57.5869 176.164 57.565C180.703 57.4027 185.146 56.4288 189.641 55.8497C197.653 54.8143 205.67 53.8448 213.665 52.6998C214.612 52.5638 216.296 52.9148 216.437 51.0064H216.433Z" fill="#390A4D"/>
<path d="M238.636 187.939C236.622 189.47 234.123 189.83 231.8 190.404C226.476 191.725 221.073 192.76 215.67 193.721C211.174 194.519 206.622 194.998 202.109 195.708C197.829 196.38 193.572 197.191 189.297 197.884C188.455 198.02 187.543 198.191 186.754 197.59C186.745 194.129 186.251 190.694 186.102 187.237C185.947 183.771 185.749 180.266 184.929 176.857C186.983 175.997 189.204 176.462 191.342 176.068C196.943 175.037 202.589 174.177 208.248 173.51C217.314 172.439 225.895 169.505 234.603 167.048C235.494 172.83 236.388 178.616 237.256 184.403C237.353 185.048 237.331 185.719 237.292 186.373C237.234 187.351 237.644 187.882 238.636 187.943V187.939Z" fill="#390A4D"/>
<path d="M50.0326 95.9077C49.9974 95.2496 49.9665 94.6135 50.5262 94.0958C50.7818 93.8633 51.1432 93.372 51.0551 93.1965C49.5478 90.1607 52.4213 88.3313 53.078 85.9008C55.026 78.6754 60.5219 73.6347 64.7176 67.8131C70.7775 59.4075 78.0759 52.0329 84.8234 44.1933C85.815 43.0395 86.6392 43.0439 87.7895 43.6625C88.596 44.0968 89.6185 44.2854 90.2311 44.8952C92.2673 46.9264 93.6732 45.7419 94.938 44.0968C98.1906 39.8765 102.113 36.2879 105.85 32.5282C106.547 31.8306 107.393 31.2779 108.155 30.6461C108.609 30.2732 109.169 30.3171 109.619 30.4399C112.126 31.1199 114.458 32.1816 116.569 33.7171C117.177 34.1602 117.058 34.7129 116.996 35.2876C116.37 41.0829 117.3 46.7509 118.103 52.476C118.649 56.3717 119.248 60.2235 120.165 64.0446C120.742 66.4531 121.214 68.8879 121.708 71.3183C122.095 73.2355 121.783 74.8324 120.385 76.4643C115.273 82.4482 110.152 88.4322 105.352 94.6749C102.708 98.1143 100.055 101.554 96.9125 104.576C96.5423 104.932 96.1633 105.278 95.8327 105.669C92.9195 109.056 92.8887 108.806 88.6577 107.367C79.5788 104.283 70.5175 101.093 61.1741 98.8733C58.3447 98.2021 55.3962 98.3469 52.483 98.3907C50.8215 98.4127 49.8122 97.7414 50.037 95.9033L50.0326 95.9077ZM111.527 36.3668C111.712 36.1255 112.131 35.8974 111.589 35.5991C112.153 36.2001 112.355 35.5421 112.668 35.2876C112.827 35.1736 112.99 35.0551 113.149 34.941C113.321 34.8138 113.497 34.691 113.669 34.5638C113.805 34.2698 114.088 33.954 114.043 33.6907C113.995 33.3793 113.744 33.682 113.638 33.7697C113.343 34.0285 112.898 34.3313 113.664 34.5682C113.475 34.4892 113.396 34.1163 113.069 34.3927C112.73 34.6822 113.122 34.7919 113.171 34.9761C112.99 34.805 112.805 34.5287 112.58 34.884C112.527 34.9718 112.682 35.1867 112.743 35.3447C112.175 34.691 111.959 35.3227 111.668 35.6474C111.536 35.8009 111.404 35.9545 111.271 36.108C110.998 36.1255 110.831 36.2528 110.831 36.5423C110.553 36.5467 110.368 36.6564 110.372 36.9635C109.76 37.2486 109.072 37.4592 109.107 38.3322C108.94 38.3936 108.711 38.4112 108.623 38.5296C108.393 38.8455 108.808 38.7709 108.896 38.9069C108.671 38.8367 108.526 38.4682 108.204 38.7973C107.873 39.1307 108.266 39.2579 108.34 39.4729C108.226 39.3325 108.111 39.1921 107.992 39.0517C107.917 39.1394 107.842 39.2228 107.768 39.3105C107.961 39.3588 108.155 39.407 108.349 39.4509C108.332 39.0824 108.561 38.9552 108.869 38.9025C108.935 38.6963 109.002 38.4902 109.068 38.284C109.755 38.1611 110.125 37.6259 110.544 37.1565C110.707 37.0293 110.875 36.9021 111.038 36.7748L111.536 36.3624L111.527 36.3668ZM99.7375 48.747C99.5833 48.8874 99.429 49.0278 99.2792 49.1682L98.834 49.6025C98.6886 49.7517 98.5432 49.8964 98.3977 50.0456C98.1641 50.1684 97.8645 50.3615 98.076 50.6028C98.4065 50.98 98.6225 50.5896 98.8296 50.3527C98.9751 50.2079 99.1249 50.0588 99.2704 49.914C99.407 49.7692 99.5436 49.6288 99.6758 49.4841C99.8125 49.3393 99.9535 49.1945 100.09 49.0497C100.218 48.9094 100.346 48.769 100.474 48.6286C101.245 48.0758 101.262 47.6766 100.24 47.488L103.757 43.838C103.563 43.6405 103.369 43.4431 103.175 43.2457C101.333 45.4655 99.4863 47.6854 97.6441 49.9008C97.3003 49.563 96.9566 49.2252 96.6084 48.883C101.641 43.838 106.675 38.7885 111.708 33.7434L111.227 33.2959C101.549 42.0744 92.4039 51.3617 84.0786 61.9432C85.9825 62.1758 85.9693 60.456 86.9786 60.1621C87.102 60.2542 87.2254 60.3464 87.3532 60.4385C87.1284 61.136 86.128 61.4256 86.2998 62.7768C86.8463 61.8994 87.5868 62.4434 88.098 61.9038C90.8878 58.9425 93.6996 55.9988 96.4894 53.0332C96.723 52.7831 96.9566 52.3356 96.5467 52.1251C96.366 52.0329 95.9473 52.4102 95.6344 52.5769C95.5462 52.4716 95.4537 52.3663 95.3567 52.2654C96.8728 50.5282 98.217 48.6242 100.28 47.4441C100.681 47.7819 100.183 48.0056 100.174 48.2952C100.028 48.4443 99.883 48.5935 99.7419 48.7427L99.7375 48.747ZM106.714 39.7799C106.785 40.1879 106.481 40.223 106.203 40.2845C106.238 40.5828 106.035 40.6881 105.802 40.7583C105.687 40.9381 105.577 41.1224 105.463 41.3022C105.322 41.4514 105.176 41.6006 105.035 41.7453C104.938 41.8506 104.608 41.9603 105.035 42.07C105.017 41.9428 105 41.8155 104.987 41.6971C105.445 41.855 105.586 41.7059 105.418 41.2628C105.978 41.3812 106.009 41.1487 105.789 40.7451C105.961 40.7583 106.071 41.0697 106.309 40.7933C106.542 40.5257 106.251 40.4424 106.203 40.2757C106.362 40.3239 106.569 40.4643 106.675 40.4117C106.987 40.2494 106.842 39.9905 106.719 39.7624C106.864 39.8808 107.005 39.9949 107.151 40.1134C107.19 40.0519 107.23 39.9905 107.27 39.9291C107.084 39.8765 106.899 39.8282 106.719 39.7756L106.714 39.7799ZM81.5532 99.0312C81.6414 99.1672 81.1478 99.2901 81.5444 99.4305C81.5444 99.3032 81.5532 99.1716 81.5576 99.0444L80.4558 98.7724C70.7379 93.4246 54.9819 89.1911 51.6501 91.2092C53.6377 91.5601 55.4491 91.8672 57.2605 92.2006C62.3068 93.1307 67.2694 94.3196 72.1614 95.934C74.9424 96.8509 77.5559 98.2942 80.4999 98.7197C80.6145 99.6279 81.2227 98.8558 81.5532 99.0312ZM80.1473 95.6137C80.3501 95.7673 80.5572 95.9252 80.7599 96.0788C80.9891 95.6883 80.8613 95.4339 80.4514 95.2935C80.2311 95.0127 80.0636 94.6661 79.7903 94.4556C73.2808 89.3622 66.0574 85.5543 58.3623 82.5535C56.7537 81.9262 55.5284 81.4041 54.9247 83.6678C55.4491 83.8258 55.9868 83.9662 56.5113 84.1416C64.9027 86.923 72.8357 90.6388 80.1517 95.6137H80.1473ZM115.251 37.4109C114.528 37.1916 114.162 37.3934 113.845 37.7224C109.68 42.0129 105.37 46.1762 101.399 50.6379C97.719 54.7748 94.1447 58.9952 89.949 62.6276C89.3232 63.1672 89.2703 63.6279 89.2791 64.264C89.3629 71.2832 89.1601 78.2893 90.0724 85.3042C90.879 91.5338 91.9147 97.702 93.206 103.839C93.5101 105.283 94.039 104.844 94.7045 104.125C96.6833 101.988 98.8032 99.9701 100.619 97.7107C106.719 90.1212 112.796 82.5097 119.288 75.2447C120.02 74.4287 120.341 73.5864 120.037 72.6827C119.143 70.0549 118.623 67.3525 118.063 64.6457C116.873 58.8504 115.361 53.1034 115.26 47.137C115.207 43.873 115.251 40.6047 115.251 37.4066V37.4109ZM82.7432 95.2584C80.588 90.2089 78.8119 85.1857 78.1068 79.759C77.5955 75.8282 77.8247 71.9237 77.7454 68.0105C77.7145 66.4268 76.9168 64.786 78.023 63.2944C78.7546 62.3118 79.5788 61.3949 80.3897 60.4692C83.7392 56.6525 87.1108 52.8533 90.4427 49.0234C92.2276 46.9703 92.0645 46.7773 89.5524 45.6937C87.3972 44.7636 85.652 44.6408 84.0742 46.7027C81.9146 49.5279 79.4862 52.1207 77.049 54.7222C72.8004 59.2496 68.9221 64.106 65.2288 69.0985C62.3156 73.038 58.8074 76.5345 56.1851 80.9917C61.1609 82.4088 65.6431 84.5584 70.0591 86.9011C74.5545 89.2832 78.7767 92.0339 82.7388 95.254L82.7432 95.2584ZM85.1936 96.5043C84.9512 93.8194 84.0477 91.2662 83.3867 88.7085C81.6458 81.9481 81.5003 75.1263 81.8 68.265C81.9058 65.8828 81.8882 63.119 83.2985 61.2457C86.9477 56.4112 90.7291 51.5855 95.057 47.3651C99.6097 42.9298 104.039 38.3673 108.684 34.0242C109.389 33.3617 109.777 32.73 109.226 31.6025C105.251 34.6734 101.857 38.2533 98.4815 41.8243C95.3435 45.1453 92.4391 48.6856 89.3805 52.0856C86.5158 55.2662 83.5585 58.3678 80.6894 61.544C78.8824 63.5445 78.2258 65.9179 78.2698 68.6247C78.3359 72.8757 78.3888 77.1092 79.1337 81.3252C80.1033 86.8177 82.0865 91.8628 85.198 96.5043H85.1936ZM84.8851 72.5248C85.0923 80.088 85.0394 87.6776 87.2871 95.0215C87.7322 93.1833 87.0138 91.4636 86.8243 89.6912C86.5819 87.4056 85.5903 84.7997 86.3483 82.9001C87.5295 79.9476 86.6701 77.1663 86.983 74.341C87.3091 71.3841 86.9257 68.4536 86.6304 65.5231C86.4849 64.0622 85.0526 63.834 84.1447 63.4217C83.5233 63.1409 83.1927 64.5184 83.1266 65.194C82.7344 69.2213 82.5757 73.2618 82.849 77.311C83.2544 73.5513 83.1927 69.739 84.2196 66.0495C83.8582 74.012 83.6246 81.9569 85.0085 89.836C84.4664 84.0802 83.9464 78.3244 84.8851 72.5204V72.5248ZM75.5902 94.5696C74.8102 94.1178 74.0301 93.6615 73.2456 93.2184C67.785 90.1343 62.1349 87.4802 56.0617 85.7999C55.3081 85.5894 54.6734 85.5236 54.2592 86.4097C53.8361 87.3091 53.1353 88.1207 52.9326 89.0507C52.8753 89.3052 54.2107 89.6605 55.0348 89.6167C60.5968 89.3359 65.6475 91.3583 70.7731 93.0868C72.3509 93.6176 73.7216 94.7539 75.5858 94.5696H75.5902ZM60.5175 96.1797C60.5263 95.9515 60.5307 95.7234 60.5395 95.4997C59.2041 95.2979 57.8731 95.0127 56.5289 94.9206C55.2199 94.8285 53.8934 94.8987 52.58 94.9864C52.3068 95.0039 51.963 95.39 51.8396 95.6839C51.7074 95.9954 52.0247 96.1797 52.3508 96.1797C55.0745 96.1797 57.7982 96.1797 60.5175 96.1797ZM83.5585 102.751C83.5718 102.624 83.585 102.493 83.5982 102.365C80.09 101.229 76.5775 100.093 73.0693 98.9566C73.0517 99.0137 73.0296 99.0751 73.012 99.1321C76.529 100.339 80.046 101.545 83.5585 102.751Z" fill="#390A4D"/>
<path d="M117.561 254.003C117.248 251.195 117.345 248.511 117.477 245.856C117.578 243.882 117.583 241.829 118.548 240.009C118.856 239.425 119.046 238.592 120.073 238.719C120.981 238.833 121.69 239.162 122.043 240.039C122.281 240.627 122.717 241.118 122.743 241.816C122.933 246.379 122.642 250.91 121.62 255.359C121.443 256.113 121.351 256.741 121.994 257.013C123.55 257.671 124.793 258.939 126.516 259.36C126.322 255.701 124.603 252.389 124.903 248.761C124.991 247.69 125.048 246.646 125.304 245.576C125.63 244.203 126.216 243.334 127.6 243.137C129.191 242.908 130.447 243.334 131.135 244.966C132.55 248.318 132.704 251.801 132.25 255.328C132.016 257.144 131.686 258.982 130.866 260.65C130.465 261.466 130.919 261.755 131.457 261.966C133.184 262.633 134.974 263.137 136.666 263.878C138.089 264.497 137.785 263.786 137.543 262.97C136.551 259.667 134.74 256.635 134.348 253.135C134.105 251.007 133.717 248.809 135.401 247.098C137.389 245.08 140.703 246.054 141.527 248.989C142.594 252.801 142.298 256.745 141.858 260.619C141.717 261.86 142.016 263.207 141.28 264.418C141.025 264.839 141.329 265.3 142.03 265.445C143.982 265.844 145.859 266.686 148.116 266.283C147.111 263.334 146.071 260.421 145.45 257.377C145.049 255.407 145.071 253.455 145.282 251.533C145.454 249.972 146.745 249.055 148.288 248.827C149.663 248.62 150.655 249.397 151.175 250.608C152.66 254.065 153.118 257.706 152.475 261.382C152.188 263.01 152.532 264.681 151.858 266.283C151.474 267.191 152.298 267.265 153.012 267.261C155.141 267.243 157.27 267.261 159.398 267.252C160.157 267.252 161.042 267.252 160.99 268.226C160.945 269.007 160.117 269.029 159.434 269.02C157.305 268.998 155.168 269.095 153.052 268.95C151.47 268.84 150.694 269.577 150.527 270.942C150.038 275.008 147.931 278.329 145.643 281.541C143.973 283.883 140.703 284.585 138.649 283.282C137.164 282.339 136.776 280.51 137.688 278.93C139.747 275.372 142.426 272.398 145.886 270.126C146.424 269.77 147.261 269.41 147.186 268.766C147.093 267.963 146.093 268.366 145.586 268.108C141.408 265.975 139.658 268.748 137.653 271.639C135.648 274.535 133.418 277.369 130.099 278.961C128.764 279.602 127.309 280.295 125.789 279.773C122.175 278.54 122.32 275.157 125.3 272.008C128.38 268.748 132.21 266.748 137.133 266.063C135.07 265.212 133.405 264.519 131.734 263.843C129.614 262.988 128.385 264.721 127.221 265.76C124.652 268.051 121.65 269.709 118.984 271.854C117.278 273.227 114.899 273.201 112.73 272.911C111.236 272.714 110.593 271.121 111.227 269.639C112.536 266.576 115.123 264.971 118.028 263.734C120.377 262.733 122.942 262.466 125.815 261.781C124.145 260.505 122.735 259.667 121.276 258.868C120.077 258.21 119.39 259.114 118.504 259.491C114.101 261.382 109.94 263.927 104.841 263.813C103.017 263.773 101.747 263.08 101.227 261.623C100.716 260.185 102.025 259.083 103.021 258.21C104.731 256.706 106.93 256.008 109.121 255.925C111.373 255.837 113.541 255.017 115.908 255.46C113.184 251.845 111.214 251.332 106.763 252.613C103.695 253.494 100.628 254.516 97.3797 254.53C95.2907 254.538 93.2678 252.924 93.1708 251.279C93.065 249.546 94.5679 248.068 96.6658 247.484C99.6098 246.668 102.752 247.352 107.155 248.283C106.252 245.791 104.418 244.457 101.915 244.448C97.9483 244.435 93.9377 244.821 90.1651 243.115C88.5035 242.364 86.9213 241.531 87.6309 239.285C88.1113 237.767 90.7512 236.595 92.5053 237.043C95.0703 237.697 97.6398 238.337 100.337 239.833C99.6186 237.622 98.5036 236.192 96.9831 234.955C93.3295 231.993 89.9932 228.734 87.8204 224.487C87.2122 223.298 86.3396 222.127 87.7146 220.802C89.2175 219.354 90.7028 220.148 92.0029 220.881C94.2947 222.175 95.5331 224.496 96.6746 226.716C98.129 229.546 99.5834 232.397 100.469 235.499C100.901 237.021 101.972 238.271 103.061 239.491C102.281 235.832 101.412 232.208 101.58 228.453C101.593 228.159 101.54 227.861 101.589 227.576C101.897 225.799 102.179 223.825 104.317 223.443C106.397 223.075 107.19 224.843 107.724 226.396C109.557 231.739 110.037 237.052 106.811 242.119C106.181 243.11 106.137 244.058 107.049 244.808C108.023 245.611 108.896 246.493 109.777 247.51C109.764 244.47 110.337 241.614 110.844 238.745C111.122 237.161 111.73 235.722 112.699 234.463C113.158 233.867 113.673 233.095 114.683 233.586C115.489 233.976 116.036 234.534 116.141 235.486C116.375 237.534 116.172 239.561 115.573 241.505C114.881 243.738 114.304 246.054 112.986 248.024C112.17 249.239 112.382 250.015 113.493 250.827C114.881 251.845 116.207 252.946 117.565 254.008L117.561 254.003ZM137.393 267.748C132.444 269.253 127.825 271.148 125.405 276.206C124.621 277.842 125.247 278.272 126.789 278.202C127.301 278.18 127.732 278.044 128.222 277.834C132.77 275.851 135.163 271.915 137.393 267.752V267.748ZM128.896 260.443C130.866 255.855 131.1 251.63 129.817 247.326C129.482 246.199 128.795 245.65 127.605 245.76C126.327 245.874 126.327 246.852 126.265 247.76C125.97 252.099 127.609 256.008 128.896 260.443ZM139.707 262.817C140.284 259.746 140.496 256.846 140.342 253.924C140.253 252.283 140.126 250.638 138.865 249.344C138.279 248.739 137.653 248.195 136.781 248.436C135.745 248.726 135.974 249.704 135.939 250.445C135.723 254.955 137.591 258.833 139.711 262.817H139.707ZM148.191 271.051C145.978 272.148 144.603 273.855 143.074 275.368C141.532 276.899 140.39 278.693 139.676 280.755C139.478 281.326 139.297 281.949 139.707 282.383C140.051 282.747 140.637 282.515 141.139 282.405C142.796 282.045 143.907 281.067 144.74 279.628C146.243 277.035 147.874 274.504 148.191 271.051ZM107.697 250.068C106.564 249.761 105.56 249.156 104.493 249.02C101.597 248.651 98.6887 248.484 95.9959 250.068C95.1673 250.555 94.9073 251.253 95.0836 252.038C95.2554 252.806 96.0399 252.753 96.701 252.797C100.623 253.069 104.193 251.858 107.702 250.068H107.697ZM150.152 265.221C150.39 261.084 151.016 256.899 149.733 252.77C149.487 251.981 148.508 251.538 147.825 251.582C147.036 251.63 146.67 252.599 146.565 253.354C146.459 254.122 146.494 254.96 146.684 255.714C147.499 258.947 148.517 262.119 150.148 265.221H150.152ZM125.172 264.528C120.557 264.817 116.961 266.256 114.215 269.467C113.779 269.976 113.149 270.806 113.603 271.385C114.118 272.043 115.176 271.784 115.868 271.494C119.416 270.011 122.06 267.318 125.172 264.523V264.528ZM116.639 257.596C115.485 257.596 114.33 257.658 113.18 257.583C110.562 257.421 108.116 258.031 105.939 259.399C105.04 259.965 103.532 260.869 103.951 261.904C104.383 262.975 105.895 262.396 106.992 262.115C110.438 261.229 113.497 259.474 116.639 257.596ZM100.892 242.478C98.7592 240.057 95.868 239.377 92.9857 238.701C92.2541 238.53 91.5445 238.859 90.9187 239.258C90.359 239.614 89.7949 240.009 89.7464 240.741C89.6935 241.601 90.4383 241.759 91.0289 242.005C94.233 243.356 97.5692 242.356 100.892 242.483V242.478ZM105.683 239.473C107.464 235.428 107.164 231.305 105.872 227.198C105.758 226.83 105.749 226.036 105.106 226.08C104.436 226.124 104.392 226.755 104.22 227.343C102.99 231.568 104.436 235.464 105.683 239.478V239.473ZM97.1065 233.182C97.2872 231.708 96.5644 230.879 96.2206 229.98C95.2158 227.348 93.7922 224.908 91.8839 222.803C91.3418 222.206 90.6014 221.342 89.7199 221.995C88.8429 222.645 89.0985 223.584 89.6582 224.474C90.0285 225.066 90.3105 225.707 90.7116 226.303C92.4436 228.857 94.9205 230.686 97.1065 233.178V233.182ZM111.62 246.558C113.682 243.724 114.462 240.491 114.815 237.126C114.876 236.538 114.709 235.872 114.061 235.74C113.4 235.604 112.995 236.31 112.796 236.74C111.355 239.868 111.126 243.163 111.62 246.558ZM120.967 245.931C120.967 244.931 121.055 244.264 120.941 243.628C120.831 243.014 121.501 241.956 120.372 241.869C119.35 241.785 119.403 242.812 119.196 243.562C118.504 246.05 118.812 248.515 119.209 250.989C119.275 251.402 119.156 251.889 119.813 251.906C120.368 251.919 120.575 251.661 120.562 251.112C120.518 249.256 121.346 247.467 120.963 245.927L120.967 245.931Z" fill="#390A4D"/>
<path d="M192.333 238.368C200.222 237.74 208.116 237.03 215.811 235.157C220.888 233.919 225.815 232.068 230.818 230.515C234.749 229.295 238.689 228.107 242.625 226.909C242.387 230.318 243.286 233.63 243.497 236.995C243.779 241.456 241.822 245.4 240.306 249.419C237.001 258.193 233.211 266.761 228.94 275.114C226.626 279.641 223.757 283.76 220.073 287.305C219.055 288.288 218.548 288.441 217.521 287.042C211.421 278.707 205.657 270.205 201.474 260.698C199.579 256.399 197.045 252.38 194.863 248.204C193.598 245.786 192.893 243.198 192.779 240.452C192.752 239.754 192.488 239.07 192.333 238.377V238.368ZM223.973 267.23C224.709 267.23 225.441 267.256 226.177 267.226C228.513 267.134 230.403 266.572 231.307 263.975C232.347 260.974 233.964 258.197 235.15 255.223C236.662 251.441 238.054 247.655 239.205 243.751C239.592 242.439 239.376 242.329 238.209 242.206C236.499 242.027 234.916 242.663 233.246 242.707C229.39 242.807 225.529 242.882 221.681 243.145C218.812 243.343 215.934 243.663 213.114 244.207C208.354 245.124 203.673 246.449 198.79 246.611C197.728 246.646 197.212 246.813 197.909 247.984C198.931 249.704 199.874 251.472 200.817 253.24C203.286 257.868 205.912 262.431 208.116 267.182C209.033 269.16 210.121 269.138 211.787 268.818C215.815 268.042 219.866 267.432 223.973 267.23Z" fill="#390A4D"/>
<path d="M103.84 175.19C108.226 174.949 112.501 176.116 116.828 176.252C121.024 176.383 125.202 176.783 129.402 176.813C142.514 176.91 155.621 177.213 168.733 177.256C172.942 177.27 177.15 176.708 181.364 176.449C182.236 176.397 183.118 176.515 183.99 176.555C183.224 177.353 183.435 178.384 183.576 179.253C184.414 184.385 184.206 189.654 185.718 194.704C186.057 195.844 185.767 196.748 184.079 196.691C182.391 196.634 180.853 196.165 179.239 195.822C176.159 195.169 173.003 194.87 169.878 194.445C164.405 193.699 158.953 192.804 153.545 191.655C150.064 190.913 146.524 190.396 143.109 189.435C139.275 188.356 135.506 187 131.782 185.565C128.777 184.407 125.696 183.526 122.624 182.626C117.613 181.161 112.809 179.196 108.093 177.02C106.687 176.37 105.013 176.344 103.84 175.19Z" fill="#390A4D"/>
<path d="M217.155 22.9118C216.679 21.7317 215.621 21.3237 214.339 20.7534C214.63 23.368 214.898 25.7502 215.167 28.1324C212.946 31.427 210.165 33.9627 206.278 35.2744C200.623 37.1828 195.313 40.2099 188.988 39.6966C186.987 39.5343 185.577 38.7227 184.356 37.3627C183.351 36.244 182.743 34.8665 182.135 33.5065C180.883 30.7222 178.843 29.9486 176.013 31.1857C175.881 31.2428 175.749 31.3261 175.608 31.3568C174.449 31.62 174.295 32.1816 174.7 33.3134C176.163 37.3846 176.168 41.4075 173.854 45.2418C172.404 47.2072 170.209 48.361 168.552 50.1026C165.639 51.6907 162.73 53.2745 159.557 55.0029C163.325 57.8326 166.974 60.5789 170.619 63.3208C170.641 63.5884 170.667 63.8604 170.689 64.128C169.671 66.6725 169.116 66.8655 166.921 65.1545C163.554 62.5223 160.178 59.8945 156.948 57.0999C155.409 55.7707 153.722 56.1874 152.175 56.3498C148.605 56.7314 146.04 55.06 144.643 52.2786C143.034 49.0761 141.813 45.5006 142.183 41.8111C142.377 39.8721 144.343 38.7972 145.921 37.9242C151.54 34.827 157.274 31.9447 163.135 29.3212C164.497 28.7114 166.198 29.0317 167.283 27.7507C168.477 27.6629 169.618 27.3778 170.689 26.8294C173.224 28.4307 177.776 28.0534 178.9 25.6317C180.341 22.5257 182.858 21.2754 185.678 20.0909C192.47 17.2437 199.222 14.2869 206.485 12.769C208.477 12.1197 210.474 11.9179 211.716 13.9666C212.801 15.7478 214.295 16.8533 216.146 17.621C223.083 21.6045 229.716 26.1143 236.882 29.6985C242.827 32.6729 243.193 37.5908 241.686 42.9518C241.483 43.6668 241.064 44.167 240.284 44.009C239.619 43.873 239.372 43.2852 239.478 42.6578C240.39 37.2749 237.86 34.4541 233.012 32.2123C227.922 29.8565 223.387 26.3074 218.592 23.3154C218.186 23.0609 217.631 23.039 217.146 22.9118H217.155ZM172.034 43.0614C173.184 39.3719 172.655 35.8974 170.681 32.6071C169.843 29.9003 169.12 29.659 166.771 31.3086C165.819 31.2121 164.951 31.3744 164.039 31.7604C158.618 34.0417 153.32 36.5686 148.212 39.4948C145.731 40.9162 145.577 41.175 146.56 43.8204C146.855 44.6188 147.26 45.3032 148.005 45.8516C150.385 47.6064 152.703 49.449 155.035 51.2696C155.361 51.524 155.524 52.011 156.097 51.8092C160.315 50.3439 164.577 48.9795 168.186 46.2157C170.024 45.8384 171.302 44.7768 172.034 43.0614ZM192.629 36.5555C194.568 36.358 197.292 35.4148 199.989 34.3312C203.519 32.9098 207.314 32.1421 210.575 30.0495C211.796 29.2642 212.452 28.0929 212.113 26.7943C211.364 23.9208 210.69 21.021 209.83 18.1694C208.949 15.2476 208.354 14.9713 205.167 15.8092C197.362 17.8667 189.998 21.0956 182.77 24.6403C181.73 25.1492 181.844 25.5572 182.184 26.4609C183.232 29.2554 184.66 31.8438 186.467 34.1865C187.701 35.7921 189.526 36.6037 192.629 36.5598V36.5555Z" fill="#BF8BD5"/>
<path d="M178.226 114.294C185.37 113.263 192.325 111.482 199.187 109.262C204.224 107.634 209.341 106.239 214.357 104.537C217.618 103.427 221.02 102.73 224.154 101.225C224.639 100.992 225.291 101.106 225.864 101.062C225.97 107.099 225.992 113.14 227.534 119.041C224.031 120.471 220.249 120.528 216.596 121.203C213.823 121.717 211.012 122.006 208.239 122.519C204.454 123.221 200.588 123.428 196.794 123.669C191.646 123.993 186.534 124.989 181.346 124.691C180.628 124.652 179.874 124.845 179.244 124.322C178.909 120.98 178.57 117.637 178.235 114.289L178.226 114.294Z" fill="#390A4D"/>
<path d="M271.633 108.542C265.996 110.907 260.192 112.666 254.163 113.794C249.531 114.658 245.022 116.242 240.373 116.913C236.86 117.422 233.533 119.172 229.857 118.567C229.271 114.842 228.729 111.109 228.076 107.393C227.865 106.173 228.411 105.59 229.421 105.844C232.343 106.586 235.326 106.077 238.266 106.516C241.188 106.954 244.176 106.954 247.138 107.147C253.766 107.582 260.395 108.029 267.023 108.441C268.553 108.538 270.095 108.512 271.629 108.542H271.633Z" fill="#390A4D"/>
<path d="M264.388 176.963C264.313 177.169 264.3 177.489 264.159 177.559C256.917 181.306 249.654 185.013 241.779 187.303C241.091 187.5 240.324 187.426 239.597 187.478C239.121 182.429 238.085 177.476 237.023 172.527C236.842 171.685 236.807 170.794 236.82 169.93C236.834 168.662 237.649 168.167 238.738 168.588C245.194 171.084 251.999 172.47 258.508 174.769C260.47 175.462 262.726 175.471 264.388 176.967V176.963Z" fill="#390A4D"/>
<path d="M87.1283 140.923C88.3844 140.765 89.9578 140.971 91.4959 141.384C92.9459 141.77 93.3998 143.446 92.1922 144.332C85.8723 148.969 79.9225 154.229 72.1216 156.431C70.8259 156.795 69.5743 157.265 68.1684 157.186C65.7708 157.059 64.3429 155.462 65.0657 153.176C65.8634 150.645 67.0533 148.342 69.398 146.688C74.7307 142.924 80.4822 140.914 87.1327 140.927L87.1283 140.923Z" fill="#390A4D"/>
<path d="M72.1523 113.71C75.33 114.149 78.49 115.426 81.2445 117.76C84.7747 120.751 86.9387 124.735 89.3714 128.525C90.1559 129.745 89.5521 130.789 88.0978 130.837C85.8412 130.916 83.6508 130.118 81.6896 129.368C77.4851 127.749 73.1748 126.209 69.411 123.603C67.3088 122.147 66.132 119.036 66.8592 116.917C67.4763 115.119 69.5917 113.737 72.1479 113.71H72.1523Z" fill="#390A4D"/>
<path d="M298.465 229.892C294.084 230.454 289.888 229.589 285.803 228.014C284.546 227.532 283.621 226.606 282.607 225.764C281.007 224.435 281.99 223.114 282.969 222.614C290.871 218.6 298.623 214.226 307.023 211.309C308.87 210.668 311.127 210.602 313.136 211.747C314.842 212.712 315.582 214.134 315.732 215.963C316.204 221.688 311.241 226.527 307.257 228.124C304.516 229.225 301.647 230.458 298.469 229.888L298.465 229.892ZM298.002 226.926C299.32 227.071 300.893 226.804 302.431 226.444C306.759 225.431 310.558 223.531 312.986 219.605C313.85 218.205 313.872 216.573 313.246 215.204C312.678 213.972 311.272 213.726 309.853 213.7C307.931 213.664 306.063 214.011 304.414 214.796C298.619 217.56 292.92 220.521 287.164 223.36C286.583 223.645 286.063 224.101 286.018 224.544C285.948 225.216 286.887 225.343 287.31 225.444C290.725 226.26 294.181 226.891 298.006 226.926H298.002Z" fill="#390A4D"/>
<path d="M216.155 17.6255C214.304 16.8577 212.81 15.7522 211.725 13.9711C210.478 11.9223 208.482 12.1197 206.49 12.7734C205.414 12.5189 204.343 12.0627 203.268 12.0408C195.114 11.9004 186.988 11.6722 179.209 15.0108C173.576 17.428 170.341 21.5343 170.694 26.8338C169.623 27.3822 168.481 27.6674 167.287 27.7551C167.358 22.6354 168.68 17.7439 173.074 14.9274C176.234 12.905 179.826 11.1634 183.753 10.5316C190.5 9.44802 197.164 7.67127 204.07 8.00907C209.156 8.25913 213.36 10.1236 215.555 15.1248C215.908 15.9321 216.296 16.7086 216.155 17.6211V17.6255Z" fill="#390A4D"/>
<path d="M324.608 10.2245C328.011 10.2245 329.826 11.2379 329.655 13.1945C329.491 15.0152 328.993 16.8182 327.442 18.1212C323.828 21.157 319.668 23.197 315.234 24.693C311.153 26.0661 307.01 27.2331 302.828 28.2991C300.893 28.7905 298.945 29.4003 297.063 30.0978C296.256 30.3961 295.93 30.2294 295.423 29.7468C294.758 29.1151 295.476 28.6896 295.684 28.343C297.587 25.1712 300.483 22.9206 303.317 20.6744C308.332 16.7042 313.511 12.9708 319.756 11.0405C321.417 10.5272 323.053 10.0754 324.608 10.2201V10.2245ZM299.606 26.6057C301.223 27.3427 302.114 26.3118 303.158 25.9608C309.32 23.8945 315.626 22.2362 321.497 19.3671C323.462 18.4063 325.424 17.4719 326.997 15.8926C327.707 15.1775 327.83 14.322 327.574 13.4753C327.314 12.6111 326.455 12.4619 325.657 12.4312C323.714 12.361 321.832 12.6286 319.985 13.3218C316.041 14.8002 312.453 16.9674 308.905 19.1434C305.573 21.1833 302.352 23.4602 299.606 26.6057Z" fill="#390A4D"/>
<path d="M302.109 247.225C302.083 251.599 296.874 254.802 293.088 253.174C287.438 250.748 284.467 245.821 281.351 241.009C279.844 238.684 279.262 236.047 278.821 233.362C278.716 232.713 278.442 231.923 278.91 231.507C279.434 231.046 280.223 231.221 280.95 231.485C283.806 232.511 286.433 233.968 289.002 235.556C292.832 237.916 297.067 239.644 300.179 243.106C301.369 244.431 301.783 245.918 302.109 247.225ZM281.369 234.854C283.092 239.623 285.833 243.194 288.777 246.515C290.426 248.375 292.766 249.792 295.432 250.099C297.037 250.283 298.861 249.941 299.65 248.603C300.505 247.151 299.716 245.677 298.376 244.431C293.573 239.969 287.424 238.004 281.369 234.854Z" fill="#390A4D"/>
<path d="M323.312 43.1448C318.61 43.2896 313.815 42.0217 308.998 40.9294C308.169 40.7407 307.041 40.5784 306.953 39.6571C306.851 38.5648 307.631 37.683 308.658 37.1477C311.682 35.5728 315.027 35.0551 318.301 34.3795C322.144 33.5899 326.049 33.2915 329.989 33.4232C331.109 33.4583 332.145 33.682 333.136 34.0286C335.877 34.9849 336.459 37.6303 334.635 39.8984C332.682 42.3244 329.967 42.8553 327.133 43.1273C325.97 43.237 324.789 43.1448 323.308 43.1448H323.312ZM310.373 38.2664C313.775 40.1309 316.891 40.4249 319.87 40.732C323.528 41.1092 327.275 41.333 330.955 40.5345C332.281 40.2494 333.37 39.622 333.317 38.1612C333.268 36.788 332.105 36.7178 330.977 36.4327C330.188 36.2309 329.434 36.13 328.663 36.1256C325.538 36.1124 322.4 35.972 319.302 36.5555C316.525 37.0776 313.749 37.6172 310.373 38.2664Z" fill="#390A4D"/>
<path d="M110.394 110.946C110.073 115.333 108.481 119.312 106.203 123.006C105.123 124.761 103.532 124.546 103.091 122.388C102.043 117.294 100.839 112.109 103.55 107.068C103.946 106.327 104.493 105.757 105.088 105.287C106.811 103.927 108.587 104.357 109.354 106.388C109.901 107.836 110.491 109.323 110.394 110.946Z" fill="#390A4D"/>
<path d="M286.618 21.6966C287.323 15.1862 288.16 8.68905 292.325 3.21403C292.761 2.63933 293.229 2.05585 293.784 1.60837C295.776 0.0114943 298.125 -0.471079 299.289 0.71342C300.628 2.08217 299.861 3.79312 299.425 5.33735C298.57 8.35125 296.693 10.8826 295.304 13.6464C293.312 17.6079 291.479 21.6264 289.8 25.7195C289.531 26.3688 289.368 26.9128 288.508 26.9128C287.649 26.9128 287.349 26.3074 287.16 25.7195C286.741 24.4297 286.389 23.1048 286.618 21.6922V21.6966ZM288.702 23.8945C290.47 20.3015 291.646 17.0595 293.449 14.0895C295.269 11.0931 296.75 7.86867 297.896 4.52575C298.134 3.8326 298.513 2.99029 297.874 2.48578C297.138 1.90669 296.389 2.49456 295.758 3.00784C295.428 3.27545 295.066 3.51235 294.762 3.80628C291.748 6.70611 290.333 10.4526 289.346 14.3615C288.61 17.2832 288.006 20.2664 288.698 23.8901L288.702 23.8945Z" fill="#390A4D"/>
<path d="M270.364 241.904C270.364 240.447 270.413 238.986 270.346 237.534C270.307 236.727 270.637 236.319 271.351 236.109C272.092 235.889 272.669 236.174 272.991 236.806C274.63 240.031 276.274 243.255 277.83 246.519C278.764 248.48 279.553 250.502 279.981 252.656C280.518 255.363 279.042 257.526 276.442 257.601C274.882 257.644 274.194 256.429 273.573 255.297C271.779 252.029 269.994 247.348 270.364 241.904ZM271.924 240.096C271.391 242.369 271.81 244.163 272.114 245.962C272.616 248.949 273.661 251.748 275.128 254.394C275.595 255.24 276.437 255.565 277.31 255.407C278.324 255.227 278.341 254.35 278.275 253.503C278.235 252.994 278.39 252.441 278.235 251.981C276.838 247.809 274.542 244.115 271.924 240.101V240.096Z" fill="#390A4D"/>
<path d="M153.801 117.106C156.137 116.277 158.583 116.72 160.967 116.549C165.78 116.198 170.5 115.07 175.339 115.018C174.696 116.268 175.573 117.4 175.647 118.597C175.744 120.186 175.427 120.949 173.576 120.822C169.195 120.519 164.938 119.501 160.619 118.869C158.274 118.527 156.004 117.961 153.801 117.106Z" fill="#390A4D"/>
<path d="M95.934 161.897C94.5898 160.542 94.9909 158.835 94.9997 157.238C94.9997 156.558 95.6696 156.264 96.2161 156.26C97.0182 156.251 96.7802 157.006 96.7185 157.405C96.4761 158.892 98.3668 160.761 95.934 161.897Z" fill="#390A4D"/>
<path d="M250.051 45.0532C252.135 43.7809 253.837 41.8331 256.446 41.4778C254.793 43.5133 252.761 44.8777 250.051 45.0532Z" fill="#390A4D"/>
<path d="M260.597 90.0598C260.112 90.051 259.817 90.0247 259.782 89.6474C259.747 89.2876 259.76 88.9542 260.055 88.6559C261.1 87.6162 262.475 87.1336 263.775 86.5765C264.542 86.2474 264.846 86.9274 264.493 87.5635C263.625 89.1429 261.774 89.2218 260.597 90.0554V90.0598Z" fill="#390A4D"/>
<path d="M159.337 244.865C159.698 244.865 160.06 244.887 160.421 244.861C161.02 244.821 161.752 244.896 161.761 245.527C161.765 246.124 161.298 246.694 160.443 246.637C159.579 246.58 158.711 246.629 157.843 246.629C157.168 246.629 156.556 246.651 156.613 245.642C156.666 244.72 157.261 244.874 157.821 244.865C158.328 244.856 158.834 244.865 159.341 244.865H159.337Z" fill="#390A4D"/>
<path d="M307.671 65.6854C308.001 63.4436 309.099 62.1582 310.355 60.9562C310.69 60.6359 310.981 60.6316 311.28 60.9255C311.457 61.0966 311.717 61.2545 311.443 61.6055C310.373 62.9654 309.901 64.865 307.675 65.6854H307.671Z" fill="#390A4D"/>
<path d="M270.897 181.099C270.932 181.801 270.584 182.495 270.099 182.578C269.354 182.701 269.086 182.069 269.024 181.297C268.953 180.463 268.46 179.682 268.583 178.801C268.64 178.393 268.557 177.91 269.156 177.787C269.76 177.664 269.883 178.108 270.024 178.502C270.328 179.362 270.611 180.235 270.901 181.099H270.897Z" fill="#390A4D"/>
<path d="M271.219 81.8516C271.241 82.7466 268.16 85.0278 267.288 84.7207C266.477 84.44 266.754 83.4529 266.992 83.3564C268.248 82.8431 269.293 82.049 270.386 81.2901C270.73 81.0532 271.263 81.176 271.219 81.8472V81.8516Z" fill="#390A4D"/>
<path d="M166.798 72.7485C166.798 73.1126 166.846 73.4855 166.785 73.8409C166.701 74.3234 167.159 75.1307 166.146 75.1351C165.15 75.1438 165.511 74.3542 165.484 73.8584C165.445 73.1477 165.485 72.4897 165.105 71.779C164.784 71.1736 164.881 70.1294 165.753 69.9671C166.723 69.7873 166.815 70.6778 166.802 71.4412C166.793 71.8799 166.802 72.3142 166.802 72.7529L166.798 72.7485Z" fill="#390A4D"/>
<path d="M272.598 188.737C272.334 189.606 273.048 191.137 271.858 191.084C270.875 191.041 270.849 189.43 270.783 188.395C270.734 187.632 270.615 186.539 271.735 186.596C273.352 186.675 272.188 188.079 272.598 188.737Z" fill="#390A4D"/>
<path d="M141.694 91.7093C141.694 91.2004 141.681 90.6959 141.694 90.187C141.708 89.7176 142.021 89.6167 142.426 89.6342C142.757 89.6474 143.043 89.7702 142.977 90.1212C142.796 91.0951 143.418 91.9111 143.453 92.8411C143.479 93.5299 143.396 94.324 142.664 94.3854C141.972 94.4424 141.593 93.7887 141.664 93.0166C141.703 92.5867 141.672 92.148 141.672 91.7137C141.677 91.7137 141.686 91.7137 141.69 91.7137L141.694 91.7093Z" fill="#390A4D"/>
<path d="M263.625 36.4853C262.889 38.3498 260.95 38.477 260.126 39.8458C259.866 40.2757 259.531 39.9774 259.227 39.7449C258.693 39.3412 259.205 39.1877 259.381 38.942C260.377 37.5557 261.783 36.8889 263.625 36.4853Z" fill="#390A4D"/>
<path d="M96.9829 164.109C97.212 165.135 97.4765 166.083 97.6307 167.048C97.7409 167.719 97.4236 168.109 96.6567 168.136C95.9207 168.162 95.7576 167.763 95.8634 167.206C96.0706 166.148 95.1583 164.679 96.9829 164.109Z" fill="#390A4D"/>
<path d="M373.458 113.794C372.757 114.57 373.11 116.281 371.382 116.356C370.924 116.378 370.655 116.101 370.889 115.68C371.444 114.68 371.241 113.127 372.85 112.877C373.489 112.776 373.555 113.206 373.458 113.794Z" fill="#390A4D"/>
<path d="M275.194 197.06C275.194 197.81 275.185 198.854 274.485 198.63C273.453 198.305 273.383 197.099 273.449 196.072C273.484 195.55 273.255 194.734 274.207 194.901C275.595 195.147 275.066 196.327 275.194 197.06Z" fill="#390A4D"/>
<path d="M167.261 246.19C166.419 246.194 165.537 246.26 165.555 245.255C165.564 244.641 166.269 244.211 166.855 244.479C167.565 244.804 168.865 244.409 168.913 245.431C168.953 246.238 167.895 246.243 167.265 246.19H167.261Z" fill="#390A4D"/>
<path d="M377.001 106.371C376.265 106.906 376.843 108.319 375.547 108.477C375.053 108.538 374.652 108.384 374.745 107.788C374.886 106.871 375 105.84 375.992 105.458C376.494 105.265 376.847 105.814 377.001 106.371Z" fill="#390A4D"/>
<path d="M280.029 198.038C280.06 197.31 279.95 196.23 280.681 196.379C281.893 196.621 281.166 198.134 281.77 198.942C282.026 199.284 281.545 199.99 281.193 199.92C280.183 199.714 279.901 198.902 280.025 198.038H280.029Z" fill="#390A4D"/>
<path d="M275.049 78.0831C274.634 78.0524 274.282 77.7453 274.343 77.4602C274.621 76.2143 275.855 75.8852 276.745 75.2623C277.12 74.9991 277.42 75.4816 277.389 75.837C277.265 77.2452 275.705 77.2057 275.049 78.0875V78.0831Z" fill="#390A4D"/>
<path d="M367.473 122.954C367.39 122.743 367.262 122.581 367.297 122.484C367.667 121.554 367.478 120.295 368.756 119.892C369.025 119.804 369.487 119.892 369.435 120.199C369.219 121.392 368.875 122.55 367.473 122.958V122.954Z" fill="#390A4D"/>
<path d="M306.565 63.2813C306.384 63.7244 306.292 63.9613 306.19 64.1982C305.785 65.137 305.304 66.032 304.238 66.3391C303.846 66.4531 303.731 65.8916 303.85 65.7644C304.621 64.9265 304.793 63.4305 306.565 63.2857V63.2813Z" fill="#390A4D"/>
<path d="M303.938 70.3006C303.67 68.6905 304.573 67.971 305.454 67.2735C305.697 67.0805 306.01 67.2823 306.032 67.6376C306.124 69.0678 304.837 69.4144 303.938 70.3049V70.3006Z" fill="#390A4D"/>
<path d="M339.134 148.394C336.807 147.258 334.758 145.494 332.651 143.84C326.261 138.813 320.386 133.193 314.348 127.775C306.261 120.519 297.384 114.364 288.636 108.003C288.068 107.59 287.129 107.818 286.825 106.796C289.262 106.516 291.479 107.292 293.273 108.564C303.749 115.996 313.832 123.928 323.846 131.969C328.473 135.685 332.656 139.94 337.631 143.239C339.438 144.437 340.888 145.942 339.139 148.399L339.134 148.394Z" fill="#F8F7F7"/>
<path d="M294.185 115.439C300.236 122.239 306.261 129.065 311.638 136.409C316.182 142.616 320.558 148.951 324.983 155.247C326.741 157.747 326.706 158.734 324.961 161.292C324.723 161.643 324.472 161.99 323.974 162.691C322.383 160.239 320.593 158.05 319.417 155.567C314.939 146.113 309.43 137.291 303.352 128.797C300.219 124.419 297.015 120.093 293.841 115.746C293.956 115.641 294.07 115.54 294.185 115.434V115.439Z" fill="#F8F7F7"/>
<path d="M303.85 121.168C307.23 122.791 309.743 125.529 312.559 127.876C319.76 133.882 326.137 140.796 333.498 146.622C336.001 148.6 335.93 150.877 333.374 152.917C332.673 153.474 332.475 152.917 332.167 152.597C330.254 150.601 328.306 148.635 326.481 146.56C324.238 144.007 322.193 141.278 319.901 138.769C314.551 132.904 309.267 126.972 303.528 121.467C303.639 121.374 303.744 121.274 303.841 121.168H303.85Z" fill="#F8F7F7"/>
<path d="M304.049 124.011C309.32 128.635 313.48 134.268 318.191 139.401C321.422 142.915 324.525 146.543 327.729 150.083C330.743 153.413 330.77 153.387 328.668 158.138C326.385 154.909 324.229 151.715 321.929 148.627C316.05 140.748 310.104 132.917 304.19 125.06C304.022 124.836 303.912 124.564 303.775 124.314C303.868 124.217 303.96 124.121 304.044 124.015L304.049 124.011Z" fill="#F8F7F7"/>
<path d="M315.437 161.779C311.131 155.313 306.949 148.763 302.48 142.406C298.588 136.869 294.846 131.241 291.312 125.485C289.011 121.739 287.076 117.773 285.159 113.776C286.896 114.89 287.539 116.86 288.8 118.339C290.518 120.357 292.343 122.278 294.124 124.244L294.066 124.182C293.476 125.081 294.339 125.722 294.688 126.205C298.848 131.965 302.211 138.194 305.75 144.327C308.817 149.64 312.021 154.878 315.15 160.156C315.402 160.581 315.556 161.064 315.754 161.52C315.648 161.604 315.543 161.691 315.441 161.779H315.437Z" fill="#F8F7F7"/>
<path d="M303.317 134.281C302.876 135.768 304.185 136.611 304.793 137.549C309.417 144.674 313.392 152.176 317.751 159.449C318.487 160.673 319.254 161.884 319.976 163.113C320.4 163.832 320.889 164.569 320.153 165.798C317.107 160.621 314.19 155.681 311.29 150.732C306.045 141.796 300.593 132.987 294.6 124.524C294.485 124.366 294.247 124.292 294.066 124.182L294.124 124.244C293.863 122.239 291.801 121.094 291.413 118.47C293.568 120.418 294.727 122.436 296.01 124.336C297.852 127.073 299.628 129.85 301.268 132.719C301.66 133.408 302.131 134.514 303.379 134.334L303.326 134.281H303.317Z" fill="#F8F7F7"/>
<path d="M293.762 118.058C300.487 127.082 307.116 136.176 312.611 146.025C313.982 148.477 315.494 150.864 316.186 153.628C316.08 153.711 315.974 153.799 315.873 153.891C313.013 149.157 310.245 144.362 307.243 139.717C306.04 137.852 305.304 135.602 303.321 134.277L303.374 134.329C301.928 130.916 299.645 128.003 297.697 124.893C296.318 122.69 294.855 120.541 293.427 118.369C293.541 118.264 293.652 118.159 293.766 118.053L293.762 118.058Z" fill="#F8F7F7"/>
<path d="M291.192 115.351C289.742 114.145 288.901 112.513 288.134 110.815C290.192 111.46 290.831 113.263 291.51 115.031C291.404 115.136 291.294 115.241 291.188 115.351H291.192Z" fill="#F8F7F7"/>
<path d="M320.712 161.818C319.994 160.788 319.134 159.84 318.976 158.476C319.928 159.305 320.659 160.283 321.034 161.525C320.924 161.617 320.813 161.718 320.712 161.818Z" fill="#F8F7F7"/>
<path d="M315.749 161.52C316.574 162.687 317.473 163.815 317.578 165.363C316.864 164.17 316.15 162.972 315.437 161.779C315.538 161.691 315.644 161.603 315.749 161.52Z" fill="#F8F7F7"/>
<path d="M321.034 161.525C321.946 162.13 322.264 163.099 323.031 164.402C321.462 163.736 321.254 162.634 320.712 161.818C320.814 161.718 320.924 161.617 321.034 161.525Z" fill="#F8F7F7"/>
<path d="M316.182 153.632C316.957 154.159 317.266 154.966 317.517 155.813C317.407 155.9 317.301 155.992 317.195 156.089C316.755 155.356 316.309 154.628 315.869 153.895C315.97 153.803 316.076 153.716 316.182 153.632Z" fill="#F8F7F7"/>
<path d="M291.514 115.031C292.347 115.439 292.413 116.457 293.092 116.987C292.982 117.093 292.872 117.194 292.757 117.299C292.087 116.768 291.461 116.202 291.192 115.355C291.298 115.25 291.408 115.145 291.514 115.035V115.031Z" fill="#F8F7F7"/>
<path d="M317.517 155.813C317.993 156.536 318.465 157.26 318.941 157.98C317.764 157.774 317.649 156.804 317.195 156.089C317.301 155.992 317.407 155.9 317.517 155.813Z" fill="#F8F7F7"/>
<path d="M303.537 121.467C303.075 121.151 302.616 120.83 302.105 120.479C302.978 120.12 303.502 120.431 303.855 121.168C303.753 121.273 303.652 121.374 303.542 121.467H303.537Z" fill="#F8F7F7"/>
<path d="M293.092 116.987C293.317 117.347 293.537 117.702 293.762 118.062C293.648 118.167 293.537 118.273 293.423 118.378C293.202 118.018 292.982 117.659 292.762 117.299C292.872 117.194 292.982 117.093 293.097 116.987H293.092Z" fill="#F8F7F7"/>
<path d="M293.841 115.746C293.669 115.412 293.004 115.193 293.502 114.732C293.612 114.632 294.106 115.035 294.185 115.434C294.07 115.54 293.956 115.641 293.841 115.746Z" fill="#F8F7F7"/>
<path d="M302.775 123.621C302.691 123.357 302.479 123.05 302.554 122.848C302.691 122.476 302.85 122.857 302.951 122.949C303.312 123.27 303.317 123.533 302.775 123.643V123.621Z" fill="#F8F7F7"/>
<path d="M303.78 124.309C303.498 124.265 303.379 124.09 303.396 123.818L303.352 123.857C303.687 123.463 303.841 123.857 304.048 124.011C303.965 124.116 303.872 124.213 303.78 124.309Z" fill="#F8F7F7"/>
<path d="M303.396 123.814C303.189 123.748 302.982 123.678 302.775 123.616V123.642C302.916 123.55 302.823 123.195 303.189 123.335C303.524 123.463 303.313 123.682 303.352 123.853L303.396 123.814Z" fill="#F8F7F7"/>
<path d="M173.854 45.2462C176.168 41.4119 176.159 37.389 174.7 33.3179C174.295 32.186 174.449 31.6245 175.608 31.3612C175.749 31.3305 175.877 31.2472 176.014 31.1902C178.837 29.953 180.878 30.7266 182.135 33.5109C182.748 34.8753 183.356 36.2528 184.356 37.3671C185.577 38.7271 186.988 39.5387 188.988 39.701C195.308 40.2187 200.624 37.1872 206.278 35.2789C210.165 33.9671 212.946 31.4271 215.168 28.1368C215.798 32.0149 215.644 35.9808 216.538 39.8282C216.763 40.7934 216.234 40.9074 215.454 40.8987C213.696 40.8723 211.937 40.8329 210.183 40.9118C205.15 41.1312 200.174 41.8419 195.181 42.5087C191.201 43.0395 187.274 44.0047 183.202 44.0705C180.081 44.1187 176.966 44.8338 173.85 45.2506L173.854 45.2462Z" fill="#F8F7F7"/>
<path d="M218.579 62.9567C216.877 64.7378 214.564 64.7773 212.483 64.9747C207.825 65.4266 203.259 66.4224 198.636 67.041C193.929 67.6727 189.244 68.4931 184.519 68.8835C181.703 69.1161 178.993 70.1426 176.128 69.8706C175.418 69.8048 174.396 69.9584 174.4 69.0415C174.4 68.3527 175.079 67.7122 176.053 67.7122C180.91 67.7122 185.599 66.1811 190.412 65.9969C195.361 65.8082 200.196 65.0142 205.053 64.2377C209.522 63.5226 214.092 63.8209 218.583 62.9523L218.579 62.9567Z" fill="#F8F7F7"/>
<path d="M216.432 51.002C216.291 52.9103 214.603 52.5594 213.66 52.6954C205.666 53.8404 197.644 54.8099 189.636 55.8453C185.145 56.4244 180.703 57.4027 176.159 57.5606C175.551 57.5825 174.427 58.0695 174.401 56.964C174.374 55.9418 175.181 55.4373 176.331 55.3846C184.096 55.0205 191.783 53.9939 199.482 52.8972C205.088 52.0944 210.699 50.9713 216.428 51.002H216.432Z" fill="#F8F7F7"/>
<path d="M170.624 63.3208C166.975 60.5789 163.325 57.837 159.562 55.003C162.73 53.2745 165.644 51.6908 168.557 50.1027C169.438 54.4765 171.117 58.732 170.628 63.3208H170.624Z" fill="#F8F7F7"/>
<path d="M115.255 37.411C115.255 40.6091 115.211 43.8775 115.264 47.1414C115.366 53.1078 116.873 58.8548 118.067 64.6501C118.623 67.3525 119.143 70.0593 120.042 72.6871C120.35 73.5864 120.024 74.4331 119.292 75.2491C112.801 82.5141 106.723 90.1256 100.623 97.7151C98.8076 99.9745 96.6833 101.997 94.7088 104.129C94.0434 104.844 93.5145 105.287 93.2104 103.844C91.9235 97.7064 90.8878 91.5382 90.0768 85.3086C89.1645 78.2893 89.3673 71.2876 89.2835 64.2684C89.2747 63.6367 89.3276 63.176 89.9534 62.632C94.1491 58.9996 97.7234 54.7748 101.403 50.6423C105.374 46.1807 109.685 42.0174 113.85 37.7268C114.171 37.3978 114.537 37.1916 115.255 37.4154V37.411Z" fill="#FFE4DA"/>
<path d="M82.7475 95.2584C78.7854 92.0427 74.5632 89.2876 70.0679 86.9055C65.6518 84.5628 61.1696 82.4132 56.1938 80.9962C58.8162 76.5433 62.3243 73.0468 65.2375 69.1029C68.9308 64.1061 72.8092 59.254 77.0577 54.7266C79.495 52.1295 81.9233 49.5323 84.0829 46.7071C85.6651 44.6408 87.406 44.7636 89.5611 45.6981C92.0732 46.7817 92.2363 46.9747 90.4514 49.0278C87.1195 52.8577 83.7435 56.6525 80.3984 60.4736C79.5875 61.3949 78.7634 62.3118 78.0317 63.2988C76.9255 64.7904 77.7232 66.4268 77.7541 68.0149C77.829 71.9325 77.6042 75.8326 78.1155 79.7634C78.8206 85.1901 80.5924 90.2133 82.7519 95.2628L82.7475 95.2584Z" fill="#F8F7F7"/>
<path d="M85.1978 96.5043C82.0907 91.8672 80.103 86.8178 79.1335 81.3252C78.3886 77.1092 78.3401 72.8801 78.2696 68.6247C78.2256 65.9179 78.8866 63.5445 80.6892 61.544C83.5583 58.3678 86.5156 55.2662 89.3803 52.0856C92.4389 48.6856 95.3433 45.1453 98.4813 41.8243C101.857 38.2533 105.251 34.6735 109.226 31.6025C109.777 32.73 109.389 33.3617 108.684 34.0242C104.039 38.3673 99.6095 42.9342 95.0568 47.3652C90.7289 51.5811 86.9475 56.4112 83.2983 61.2457C81.8836 63.119 81.9012 65.8828 81.7998 68.265C81.5001 75.1263 81.6456 81.9482 83.3864 88.7086C84.0475 91.2662 84.951 93.8195 85.1934 96.5043H85.1978Z" fill="#F8F7F7"/>
<path d="M95.6344 52.5813C95.9473 52.4146 96.366 52.0373 96.5467 52.1294C96.961 52.34 96.723 52.7875 96.4894 53.0376C93.6996 56.0032 90.8878 58.9469 88.098 61.9081C87.5912 62.4477 86.8464 61.9081 86.2999 62.7812C86.128 61.43 87.124 61.1404 87.3532 60.4429C87.4766 60.2279 87.7807 59.9998 87.3708 59.8068C87.3135 59.7804 87.1152 60.0393 86.983 60.1665C85.9781 60.4604 85.9913 62.1758 84.083 61.9476C92.4083 51.3705 101.553 42.0831 111.232 33.3003L111.712 33.7478C106.679 38.7929 101.646 43.8423 96.6128 48.8874C96.9566 49.2252 97.3003 49.563 97.6485 49.9052C99.4907 47.6854 101.337 45.4655 103.18 43.2501C103.374 43.4475 103.567 43.6449 103.761 43.8423C102.589 45.0575 101.417 46.2771 100.244 47.4923L100.28 47.4485C98.217 48.633 96.8728 50.5369 95.3567 52.2742C95.2025 52.2611 95.0659 52.3005 94.9469 52.3971C94.7574 52.0329 95.392 51.4626 94.8147 51.2915C94.2197 51.116 94.0125 51.7785 93.704 52.1645C93.6115 52.2786 93.5145 52.3927 93.422 52.5067C93.0606 53.0332 92.1835 53.156 92.2452 54.0071C91.8926 54.3624 91.5445 54.7134 91.1919 55.0688C90.7335 55.5513 90.2003 55.9856 90.0284 56.8543C90.8437 56.5077 91.2139 56.0207 91.518 55.468C91.875 55.1039 92.2364 54.7397 92.5934 54.3756C92.8094 54.2703 93.0297 54.165 93.2457 54.0554C93.4308 54.2835 92.7873 55.1258 93.5542 54.7748C94.2505 54.4546 94.7045 53.6079 95.2686 52.9893C95.392 52.8533 95.511 52.7173 95.6344 52.5813Z" fill="#F8F7F7"/>
<path d="M84.8892 72.5248C83.9504 78.3288 84.4705 84.0846 85.0126 89.8404C83.6287 81.9569 83.8623 74.0164 84.2237 66.0539C83.1968 69.7434 83.2585 73.5601 82.853 77.3154C82.5798 73.2662 82.7385 69.2257 83.1307 65.1984C83.1968 64.5228 83.5274 63.1453 84.1488 63.4261C85.0523 63.8385 86.4846 64.0666 86.6345 65.5275C86.9297 68.458 87.3132 71.3886 86.987 74.3454C86.6741 77.1707 87.5335 79.952 86.3524 82.9045C85.5899 84.8041 86.5816 87.41 86.8284 89.6956C87.0179 91.468 87.7363 93.1833 87.2911 95.0259C85.0434 87.682 85.0963 80.0924 84.8892 72.5292V72.5248ZM85.7927 77.605C85.872 77.5699 85.9469 77.5348 86.0263 77.4997V72.3274C85.9469 72.3318 85.872 72.3405 85.7927 72.3449V77.6006V77.605Z" fill="#F8F7F7"/>
<path d="M75.5945 94.5696C73.7258 94.7539 72.3596 93.6176 70.7818 93.0868C65.6561 91.3583 60.6054 89.3359 55.0435 89.6167C54.2193 89.6605 52.8839 89.3052 52.9412 89.0507C53.144 88.1207 53.8447 87.3091 54.2678 86.4098C54.6821 85.5236 55.3167 85.5894 56.0704 85.8C62.1436 87.4846 67.7937 90.1343 73.2542 93.2184C74.0387 93.6615 74.8144 94.1178 75.5989 94.5696H75.5945Z" fill="#F8F7F7"/>
<path d="M80.1514 95.6137C72.8354 90.6388 64.9023 86.923 56.5109 84.1416C55.9865 83.9662 55.4488 83.8258 54.9243 83.6678C55.5281 81.4041 56.7533 81.9218 58.362 82.5535C66.057 85.5543 73.2805 89.3622 79.79 94.4556C80.0632 94.6705 80.2351 95.0127 80.4511 95.2935C80.3497 95.3988 80.2483 95.5084 80.147 95.6137H80.1514Z" fill="#F8F7F7"/>
<path d="M80.5085 98.7154C77.5645 98.2942 74.9466 96.8509 72.17 95.934C67.278 94.3196 62.3154 93.1307 57.2691 92.2006C55.4577 91.8672 53.6464 91.5601 51.6587 91.2092C54.9906 89.1911 70.7465 93.4246 80.46 98.7724L80.5085 98.7154Z" fill="#F8F7F7"/>
<path d="M60.5172 96.1753C57.7935 96.1753 55.0698 96.1753 52.3506 96.1753C52.0244 96.1753 51.7115 95.991 51.8393 95.6795C51.9627 95.3856 52.3109 95.0039 52.5797 94.982C53.8931 94.8899 55.2197 94.8241 56.5286 94.9162C57.8728 95.0083 59.2038 95.2935 60.5392 95.4953C60.5304 95.7234 60.526 95.9515 60.5172 96.1753Z" fill="#F8F7F7"/>
<path d="M83.5583 102.747C80.0413 101.541 76.5243 100.334 73.0117 99.1278C73.0293 99.0707 73.0514 99.0093 73.069 98.9523C76.5772 100.089 80.0898 101.225 83.5979 102.361C83.5847 102.488 83.5715 102.62 83.5583 102.747Z" fill="#F8F7F7"/>
<path d="M110.539 37.1609C110.121 37.6303 109.746 38.1612 109.063 38.2884L109.103 38.3279C109.067 37.4548 109.755 37.2399 110.368 36.9591C110.429 37.0249 110.482 37.0907 110.539 37.1609Z" fill="#F8F7F7"/>
<path d="M100.244 47.488C101.271 47.6766 101.249 48.0758 100.478 48.6286C100.377 48.5189 100.275 48.4092 100.174 48.2996C100.178 48.0144 100.681 47.7863 100.28 47.4485L100.244 47.488Z" fill="#F8F7F7"/>
<path d="M113.669 34.5682C112.902 34.3313 113.347 34.0285 113.642 33.7697C113.743 33.6776 113.999 33.3749 114.048 33.6908C114.087 33.9584 113.81 34.2698 113.673 34.5638V34.5725L113.669 34.5682Z" fill="#F8F7F7"/>
<path d="M80.4555 95.2935C80.8653 95.4383 80.9932 95.6883 80.764 96.0788C80.5612 95.9252 80.3541 95.7673 80.1514 95.6137C80.2527 95.5085 80.3541 95.3988 80.4555 95.2935Z" fill="#F8F7F7"/>
<path d="M111.659 35.6342C111.959 35.3184 112.175 34.6866 112.743 35.3403L112.677 35.292C112.355 35.5421 112.148 36.2001 111.588 35.5991L111.659 35.6342Z" fill="#F8F7F7"/>
<path d="M81.5574 99.0225C81.2268 98.8558 80.6186 99.6235 80.504 98.7154L80.4556 98.7724C80.8258 98.8602 81.1916 98.9523 81.5618 99.04V99.0225H81.5574Z" fill="#F8F7F7"/>
<path d="M104.981 41.6927C104.999 41.8199 105.017 41.9472 105.034 42.0744C104.608 41.9647 104.937 41.8594 105.034 41.7497L104.977 41.6927H104.981Z" fill="#F8F7F7"/>
<path d="M113.175 34.9805C113.122 34.7875 112.73 34.6778 113.069 34.3883C113.396 34.1119 113.475 34.4892 113.664 34.5638V34.555C113.493 34.6822 113.321 34.8094 113.14 34.9279C113.136 34.9191 113.171 34.9761 113.171 34.9761L113.175 34.9805Z" fill="#F8F7F7"/>
<path d="M105.039 41.7497C105.18 41.6006 105.326 41.4514 105.471 41.3066L105.418 41.2584C105.59 41.7059 105.449 41.855 104.991 41.6971L105.044 41.7497H105.039Z" fill="#F8F7F7"/>
<path d="M105.78 40.7363C106.013 41.1487 105.978 41.3856 105.418 41.2628C105.418 41.2628 105.471 41.3154 105.467 41.311C105.577 41.1268 105.687 40.9425 105.806 40.7714C105.815 40.7802 105.775 40.7407 105.775 40.7407L105.78 40.7363Z" fill="#F8F7F7"/>
<path d="M106.203 40.2757C106.251 40.4424 106.542 40.5258 106.309 40.7934C106.066 41.0697 105.956 40.7627 105.784 40.7407C105.78 40.7363 105.815 40.7714 105.811 40.767C106.04 40.6881 106.238 40.5828 106.207 40.2889V40.2757H106.203Z" fill="#F8F7F7"/>
<path d="M106.723 39.758C106.846 39.9862 106.992 40.2494 106.679 40.4073C106.573 40.46 106.366 40.324 106.203 40.2713C106.203 40.2713 106.207 40.2845 106.203 40.2801C106.476 40.2143 106.78 40.1836 106.709 39.7712V39.7493L106.723 39.758Z" fill="#F8F7F7"/>
<path d="M106.718 39.78C106.903 39.8326 107.088 39.8809 107.269 39.9335C107.23 39.9949 107.19 40.0564 107.15 40.1178C107.005 39.9993 106.864 39.8853 106.723 39.7624L106.718 39.78Z" fill="#F8F7F7"/>
<path d="M81.5613 99.04C81.5613 99.1672 81.5525 99.2988 81.5481 99.4261C81.1525 99.2857 81.6448 99.1628 81.5569 99.0225L81.5613 99.0356V99.04Z" fill="#F8F7F7"/>
<path d="M108.336 39.4773C108.266 39.2579 107.873 39.1307 108.204 38.7973C108.526 38.4682 108.676 38.8411 108.896 38.9069H108.874C108.561 38.9596 108.327 39.0868 108.349 39.4553L108.341 39.4773H108.336Z" fill="#F8F7F7"/>
<path d="M109.063 38.2884C108.997 38.4946 108.931 38.7007 108.865 38.9069H108.891C108.808 38.7709 108.389 38.8411 108.618 38.5296C108.706 38.4112 108.935 38.3936 109.103 38.3322L109.063 38.2927V38.2884Z" fill="#F8F7F7"/>
<path d="M98.8339 50.3571C98.6268 50.5896 98.4108 50.9845 98.0803 50.6072C97.8687 50.3659 98.1684 50.1685 98.402 50.05C98.5474 50.1553 98.6885 50.2562 98.8339 50.3615V50.3571Z" fill="#F8F7F7"/>
<path d="M98.4019 50.0456C98.5473 49.8965 98.6927 49.7517 98.8382 49.6025C98.9836 49.7078 99.1291 49.8087 99.2745 49.914C99.1291 50.0588 98.9792 50.2079 98.8338 50.3527C98.6883 50.2474 98.5473 50.1465 98.4019 50.0412V50.0456Z" fill="#F8F7F7"/>
<path d="M98.8384 49.6025C98.9882 49.4578 99.1337 49.313 99.2835 49.1682C99.4157 49.2735 99.5479 49.3788 99.6802 49.4885C99.5435 49.6332 99.4069 49.7736 99.2747 49.9184C99.1293 49.8131 98.9838 49.7122 98.8384 49.6069V49.6025Z" fill="#F8F7F7"/>
<path d="M99.2788 49.1682C99.4331 49.0278 99.5873 48.8875 99.7372 48.7471C99.8562 48.848 99.9752 48.9489 100.09 49.0498C99.9531 49.1945 99.8121 49.3393 99.6755 49.4841C99.5432 49.3788 99.411 49.2735 99.2788 49.1638V49.1682Z" fill="#F8F7F7"/>
<path d="M110.372 36.9591C110.368 36.652 110.553 36.5423 110.831 36.5379C110.897 36.6213 110.967 36.7003 111.033 36.7792C110.87 36.9064 110.703 37.0337 110.54 37.1609C110.487 37.0907 110.429 37.0249 110.372 36.9591Z" fill="#F8F7F7"/>
<path d="M108.345 39.4553C108.151 39.4071 107.957 39.3588 107.763 39.3149C107.838 39.2272 107.913 39.1438 107.988 39.0561C108.103 39.1965 108.217 39.3369 108.332 39.4772L108.341 39.4597L108.345 39.4553Z" fill="#F8F7F7"/>
<path d="M111.588 35.5991C112.135 35.8974 111.716 36.1212 111.527 36.3669C111.447 36.2703 111.364 36.1826 111.271 36.1036C111.403 35.9501 111.535 35.7965 111.663 35.6386C111.659 35.6386 111.588 35.5991 111.588 35.5991Z" fill="#F8F7F7"/>
<path d="M100.478 48.6286C100.35 48.769 100.222 48.9094 100.094 49.0497C99.9753 48.9488 99.8563 48.8479 99.7417 48.747C99.8871 48.5979 100.033 48.4487 100.174 48.2996C100.275 48.4092 100.376 48.5189 100.478 48.6286Z" fill="#F8F7F7"/>
<path d="M112.743 35.3403C112.682 35.1823 112.527 34.9674 112.58 34.8796C112.805 34.5243 112.99 34.8007 113.175 34.9761C113.175 34.9805 113.14 34.9235 113.144 34.9323C112.99 35.0551 112.827 35.1692 112.673 35.2876C112.677 35.2876 112.743 35.3403 112.743 35.3403Z" fill="#F8F7F7"/>
<path d="M111.527 36.3669C111.359 36.5029 111.196 36.6432 111.029 36.7792C110.963 36.7003 110.892 36.6169 110.826 36.538C110.826 36.244 110.998 36.1212 111.267 36.1036C111.359 36.1826 111.448 36.2703 111.523 36.3669H111.527Z" fill="#F8F7F7"/>
<path d="M137.393 267.748C135.163 271.911 132.77 275.851 128.221 277.829C127.732 278.04 127.3 278.176 126.789 278.198C125.247 278.268 124.621 277.838 125.405 276.202C127.825 271.148 132.439 269.248 137.393 267.743V267.748Z" fill="#F8F7F7"/>
<path d="M128.9 260.439C127.613 256.004 125.969 252.09 126.269 247.756C126.331 246.848 126.331 245.87 127.609 245.756C128.799 245.646 129.486 246.194 129.821 247.322C131.104 251.63 130.87 255.85 128.9 260.439Z" fill="#F8F7F7"/>
<path d="M139.711 262.812C137.591 258.829 135.722 254.951 135.938 250.441C135.974 249.7 135.745 248.721 136.78 248.432C137.657 248.186 138.279 248.734 138.865 249.34C140.125 250.634 140.253 252.283 140.341 253.92C140.496 256.842 140.284 259.741 139.707 262.812H139.711Z" fill="#F8F7F7"/>
<path d="M148.195 271.047C147.878 274.499 146.252 277.026 144.744 279.623C143.911 281.058 142.801 282.041 141.144 282.4C140.641 282.51 140.055 282.747 139.711 282.379C139.306 281.944 139.482 281.321 139.68 280.751C140.394 278.689 141.536 276.895 143.078 275.364C144.603 273.85 145.978 272.144 148.195 271.047Z" fill="#F8F7F7"/>
<path d="M107.701 250.064C104.197 251.854 100.627 253.06 96.7006 252.792C96.0395 252.749 95.2594 252.801 95.0831 252.033C94.9069 251.248 95.1669 250.551 95.9954 250.064C98.6883 248.48 101.597 248.647 104.493 249.015C105.559 249.151 106.564 249.757 107.697 250.064H107.701Z" fill="#F8F7F7"/>
<path d="M150.152 265.216C148.517 262.115 147.503 258.939 146.688 255.71C146.498 254.955 146.463 254.122 146.569 253.35C146.67 252.591 147.036 251.625 147.829 251.577C148.512 251.533 149.491 251.976 149.737 252.766C151.015 256.894 150.39 261.079 150.156 265.216H150.152Z" fill="#F8F7F7"/>
<path d="M125.172 264.523C122.056 267.318 119.411 270.011 115.868 271.494C115.176 271.784 114.118 272.043 113.603 271.385C113.149 270.806 113.779 269.976 114.215 269.467C116.965 266.256 120.557 264.817 125.172 264.528V264.523Z" fill="#F8F7F7"/>
<path d="M116.639 257.596C113.497 259.474 110.438 261.229 106.992 262.115C105.894 262.396 104.387 262.975 103.951 261.904C103.532 260.869 105.039 259.965 105.938 259.399C108.111 258.026 110.562 257.416 113.18 257.583C114.33 257.653 115.485 257.596 116.639 257.596Z" fill="#F8F7F7"/>
<path d="M100.892 242.474C97.5692 242.351 94.2329 243.347 91.0288 241.996C90.4426 241.75 89.6934 241.592 89.7463 240.732C89.7904 240.004 90.3589 239.605 90.9186 239.25C91.5445 238.855 92.2496 238.521 92.9856 238.692C95.868 239.368 98.7591 240.048 100.892 242.47V242.474Z" fill="#F8F7F7"/>
<path d="M105.678 239.469C104.431 235.455 102.99 231.559 104.215 227.334C104.387 226.747 104.427 226.115 105.101 226.071C105.744 226.031 105.753 226.821 105.868 227.19C107.159 231.296 107.463 235.42 105.678 239.465V239.469Z" fill="#F8F7F7"/>
<path d="M97.1017 233.178C94.9157 230.686 92.4388 228.857 90.7068 226.303C90.3013 225.707 90.0236 225.066 89.6534 224.474C89.0937 223.584 88.8381 222.645 89.7151 221.995C90.601 221.342 91.3414 222.206 91.8791 222.803C93.7874 224.908 95.211 227.348 96.2158 229.98C96.5596 230.879 97.278 231.708 97.1017 233.182V233.178Z" fill="#F8F7F7"/>
<path d="M111.615 246.554C111.121 243.163 111.346 239.864 112.792 236.736C112.99 236.302 113.395 235.6 114.057 235.736C114.704 235.867 114.872 236.534 114.81 237.122C114.458 240.491 113.673 243.72 111.615 246.554Z" fill="#F8F7F7"/>
<path d="M120.963 245.931C121.346 247.467 120.518 249.261 120.562 251.117C120.575 251.665 120.368 251.924 119.812 251.911C119.156 251.893 119.275 251.406 119.209 250.994C118.812 248.519 118.503 246.054 119.195 243.566C119.402 242.816 119.35 241.794 120.372 241.873C121.5 241.965 120.83 243.018 120.941 243.632C121.051 244.268 120.967 244.935 120.967 245.935L120.963 245.931Z" fill="#F8F7F7"/>
<path d="M223.973 267.23C219.87 267.432 215.816 268.042 211.787 268.818C210.121 269.138 209.033 269.16 208.116 267.182C205.912 262.431 203.286 257.873 200.818 253.24C199.875 251.472 198.931 249.704 197.909 247.984C197.213 246.813 197.728 246.646 198.79 246.611C203.674 246.449 208.354 245.124 213.114 244.207C215.935 243.663 218.812 243.343 221.682 243.145C225.529 242.882 229.39 242.807 233.246 242.707C234.912 242.663 236.499 242.027 238.209 242.206C239.381 242.329 239.593 242.443 239.205 243.751C238.054 247.655 236.662 251.437 235.15 255.223C233.96 258.197 232.347 260.97 231.307 263.975C230.408 266.572 228.513 267.134 226.177 267.226C225.445 267.256 224.709 267.23 223.973 267.23ZM206.997 257.965C207.089 256.284 206.662 255.157 206.036 253.718C205.15 255.525 205.78 256.592 206.997 257.965Z" fill="#F8F7F7"/>
<path d="M192.625 36.5555C189.522 36.5993 187.697 35.7877 186.463 34.1821C184.661 31.8394 183.228 29.2511 182.179 26.4565C181.84 25.5528 181.725 25.1448 182.766 24.6359C189.998 21.0912 197.362 17.8623 205.163 15.8048C208.35 14.9669 208.945 15.2433 209.826 18.165C210.685 21.021 211.36 23.9164 212.109 26.7899C212.448 28.0885 211.792 29.2598 210.571 30.0451C207.31 32.1377 203.515 32.9055 199.985 34.3269C197.287 35.4105 194.564 36.3537 192.625 36.5511V36.5555Z" fill="#F8F7F7"/>
<path d="M168.186 46.2157C164.577 48.9796 160.315 50.3439 156.097 51.8092C155.529 52.0066 155.361 51.5197 155.035 51.2696C152.704 49.449 150.39 47.6064 148.006 45.8516C147.261 45.3032 146.855 44.6189 146.56 43.8204C145.582 41.175 145.731 40.9162 148.213 39.4948C153.321 36.5686 158.614 34.0461 164.039 31.7605C164.951 31.3744 165.82 31.2121 166.772 31.3086C166.807 36.3186 167.737 41.2452 168.182 46.2157H168.186Z" fill="#F8F7F7"/>
<path d="M170.698 26.8338C170.346 21.5343 173.581 17.428 179.213 15.0108C186.992 11.6722 195.119 11.9003 203.272 12.0407C204.352 12.0583 205.419 12.5189 206.494 12.7734C199.231 14.2913 192.479 17.2481 185.688 20.0953C182.871 21.2754 180.35 22.5301 178.909 25.6361C177.785 28.0578 173.233 28.4395 170.698 26.8338ZM177.38 18.6081C179.2 18.9021 179.923 17.836 180.156 16.1909L177.38 18.6081Z" fill="#F8F7F7"/>
<path d="M168.186 46.2157C167.741 41.2452 166.811 36.3186 166.776 31.3086C169.125 29.6591 169.848 29.9004 170.685 32.6072C169.72 34.2172 170.747 35.8755 170.954 37.3627C171.214 39.2272 170.438 41.4295 172.038 43.0615C171.307 44.7768 170.028 45.8385 168.191 46.2157H168.186Z" fill="#390A4D"/>
<path d="M172.034 43.0614C170.439 41.4295 171.21 39.2272 170.95 37.3627C170.743 35.8755 169.716 34.2216 170.681 32.6071C172.651 35.8974 173.184 39.372 172.034 43.0614Z" fill="#F8F7F7"/>
<path d="M298.006 226.926C294.185 226.891 290.725 226.26 287.31 225.444C286.887 225.343 285.948 225.216 286.018 224.544C286.067 224.101 286.583 223.649 287.164 223.36C292.925 220.521 298.623 217.56 304.414 214.796C306.063 214.011 307.931 213.664 309.853 213.7C311.272 213.726 312.682 213.972 313.246 215.204C313.872 216.573 313.85 218.205 312.986 219.605C310.558 223.531 306.759 225.43 302.431 226.444C300.893 226.804 299.315 227.076 298.002 226.926H298.006Z" fill="#FFE4DA"/>
<path d="M299.606 26.6057C302.347 23.4602 305.569 21.1833 308.905 19.1433C312.458 16.9674 316.041 14.8002 319.985 13.3217C321.832 12.633 323.714 12.3654 325.657 12.4312C326.459 12.4575 327.319 12.611 327.574 13.4753C327.83 14.322 327.707 15.1774 326.997 15.8925C325.424 17.4719 323.462 18.4063 321.497 19.3671C315.626 22.2362 309.315 23.8945 303.158 25.9608C302.114 26.3117 301.219 27.3383 299.606 26.6057Z" fill="#F8F7F7"/>
<path d="M281.373 234.854C287.433 238.008 293.581 239.973 298.381 244.431C299.72 245.672 300.509 247.151 299.654 248.603C298.865 249.941 297.041 250.283 295.437 250.099C292.766 249.796 290.426 248.375 288.782 246.515C285.838 243.189 283.096 239.623 281.373 234.854Z" fill="#FFE4DA"/>
<path d="M310.377 38.2621C313.757 37.6128 316.529 37.0776 319.306 36.5511C322.404 35.9676 325.538 36.108 328.667 36.1212C329.443 36.1212 330.192 36.2265 330.981 36.4283C332.109 36.7178 333.273 36.788 333.321 38.1568C333.374 39.6176 332.285 40.2406 330.959 40.5301C327.274 41.3242 323.533 41.1048 319.875 40.7276C316.895 40.4205 313.779 40.1265 310.377 38.2621Z" fill="#F8F7F7"/>
<path d="M288.698 23.8945C288.006 20.2708 288.61 17.2877 289.346 14.3659C290.329 10.457 291.748 6.71052 294.763 3.81069C295.067 3.51676 295.428 3.27986 295.759 3.01225C296.389 2.49897 297.138 1.91111 297.874 2.49019C298.509 2.99032 298.134 3.83263 297.896 4.53017C296.75 7.87309 295.269 11.0932 293.449 14.0939C291.647 17.0595 290.47 20.3016 288.703 23.8989L288.698 23.8945Z" fill="#F8F7F7"/>
<path d="M271.924 240.096C274.542 244.11 276.838 247.804 278.235 251.976C278.39 252.437 278.235 252.994 278.275 253.499C278.341 254.345 278.324 255.223 277.31 255.403C276.437 255.561 275.595 255.236 275.128 254.389C273.661 251.744 272.616 248.945 272.114 245.957C271.814 244.159 271.391 242.364 271.924 240.092V240.096Z" fill="#FFE4DA"/>
<path d="M95.2684 52.9893C94.7087 53.6035 94.2548 54.4546 93.554 54.7748C92.7828 55.1258 93.4306 54.2835 93.2455 54.0554L93.175 54.1168C93.5452 54.1563 93.6554 53.9281 93.6818 53.6211L93.6245 53.6869C94.0564 53.3666 94.4839 53.0464 94.9159 52.7217C95.0349 52.8095 95.1494 52.9016 95.2684 52.9893Z" fill="#390A4D"/>
<path d="M93.2457 54.0598C93.0298 54.165 92.8094 54.2703 92.5934 54.38C92.4789 54.2572 92.3599 54.1343 92.2453 54.0071C92.1836 53.156 93.065 53.0332 93.422 52.5067C93.5586 52.6471 93.6953 52.7875 93.8275 52.9279C93.7614 53.1823 93.6953 53.4368 93.6247 53.6912L93.682 53.6254C93.2986 53.5728 93.1928 53.8053 93.1752 54.1212L93.2457 54.0598Z" fill="#390A4D"/>
<path d="M91.5136 55.468C91.2095 56.0208 90.8393 56.5077 90.0239 56.8543C90.1958 55.9857 90.7335 55.547 91.1874 55.0688C91.2976 55.2004 91.4034 55.3364 91.5136 55.468Z" fill="#390A4D"/>
<path d="M91.1919 55.0688C91.5445 54.7134 91.8926 54.3625 92.2452 54.0071C92.3598 54.1299 92.4788 54.2528 92.5934 54.38C92.2364 54.7441 91.875 55.1083 91.518 55.4724C91.4078 55.3408 91.3021 55.2048 91.1919 55.0732V55.0688Z" fill="#390A4D"/>
<path d="M93.7041 52.1602C94.0082 51.7741 94.2197 51.1117 94.8147 51.2871C95.3921 51.4582 94.7574 52.0286 94.9469 52.3927L95.0086 52.3225C94.6649 51.9408 94.4886 52.4716 94.2153 52.4673C94.0435 52.3664 93.876 52.2611 93.7041 52.1602Z" fill="#390A4D"/>
<path d="M86.9785 60.1665C87.1107 60.0393 87.3091 59.7804 87.3664 59.8068C87.7762 59.9998 87.4721 60.2279 87.3487 60.4429C87.2253 60.3508 87.1019 60.2586 86.9741 60.1665H86.9785Z" fill="#390A4D"/>
<path d="M93.4219 52.5023C93.5144 52.3883 93.6114 52.2742 93.7039 52.1602C93.8758 52.2611 94.0433 52.3663 94.2152 52.4672C94.0874 52.6208 93.9596 52.77 93.8273 52.9235C93.6907 52.7831 93.5541 52.6427 93.4219 52.5023Z" fill="#390A4D"/>
<path d="M95.6344 52.5813C95.511 52.7173 95.392 52.8533 95.2686 52.9893C95.154 52.9016 95.035 52.8095 94.916 52.7217C94.916 52.5813 94.9425 52.4497 95.0086 52.3225L94.9469 52.3927C95.0659 52.2962 95.2025 52.2567 95.3567 52.2699C95.4537 52.3708 95.5463 52.476 95.6344 52.5813Z" fill="#390A4D"/>
<path d="M85.793 77.6006V72.3449C85.8721 72.3405 85.9468 72.3317 86.0259 72.3274V77.4997C85.9468 77.5348 85.8721 77.5699 85.793 77.605V77.6006Z" fill="#390A4D"/>
<path d="M206.992 257.969C205.776 256.596 205.146 255.53 206.031 253.722C206.662 255.161 207.089 256.284 206.992 257.969Z" fill="#390A4D"/>
<path d="M177.375 18.6081L180.152 16.1909C179.918 17.836 179.196 18.902 177.375 18.6081Z" fill="#390A4D"/>
<path d="M95.0084 52.3225C94.9467 52.4497 94.9158 52.5813 94.9158 52.7217C94.4839 53.042 94.0564 53.3622 93.6245 53.6869C93.6906 53.4324 93.7567 53.178 93.8272 52.9235C93.9551 52.77 94.0829 52.6208 94.2151 52.4673C94.4883 52.4716 94.6646 51.9408 95.0084 52.3225Z" fill="#F8F7F7"/>
<path d="M93.1748 54.1212C93.1968 53.8053 93.2982 53.5728 93.6816 53.6254C93.6552 53.9369 93.545 54.1607 93.1748 54.1212Z" fill="#F8F7F7"/>
<mask id="path-145-outside-1_1468_705" maskUnits="userSpaceOnUse" x="-2.17721" y="166.547" width="96.8329" height="91.1628" fill="black">
<rect fill="white" x="-2.17721" y="166.547" width="96.8329" height="91.1628"/>
<path d="M15.2305 233.222C7.15466 221.672 9.97122 205.762 21.5214 197.686L63.3485 168.441L92.5936 210.268L50.7666 239.513C39.2164 247.589 23.3063 244.772 15.2305 233.222Z"/>
</mask>
<path d="M13.5914 234.368C4.88264 221.913 7.91993 204.756 20.3754 196.047L62.2024 166.802L64.4945 170.08L22.6675 199.325C12.0225 206.768 9.42669 221.431 16.8696 232.076L13.5914 234.368ZM93.7397 211.907L51.9126 241.152C39.4572 249.861 22.3002 246.824 13.5914 234.368L16.8696 232.076C24.3125 242.721 38.9756 245.317 49.6206 237.874L91.4476 208.629L93.7397 211.907ZM51.9126 241.152C39.4572 249.861 22.3002 246.824 13.5914 234.368C4.88264 221.913 7.91993 204.756 20.3754 196.047L22.6675 199.325C12.0225 206.768 9.42669 221.431 16.8696 232.076L16.8696 232.076C24.3125 242.721 38.9756 245.317 49.6206 237.874L51.9126 241.152ZM63.3485 168.441L92.5936 210.268L63.3485 168.441Z" fill="#390A4D" mask="url(#path-145-outside-1_1468_705)"/>
<mask id="path-147-inside-2_1468_705" fill="white">
<path d="M15.2305 233.222C7.15466 221.672 9.97122 205.762 21.5214 197.686L63.3485 168.441L92.5936 210.268L50.7666 239.513C39.2164 247.589 23.3063 244.772 15.2305 233.222Z"/>
</mask>
<path d="M15.2305 233.222C7.15466 221.672 9.97122 205.762 21.5214 197.686L63.3485 168.441L92.5936 210.268L50.7666 239.513C39.2164 247.589 23.3063 244.772 15.2305 233.222Z" fill="#F7F7F7"/>
<path d="M11.9523 235.514C2.61062 222.153 5.86865 203.749 19.2294 194.408L61.0564 165.163L65.6405 171.719L23.8135 200.964C14.0738 207.774 11.6987 221.19 18.5087 230.93L11.9523 235.514ZM94.8857 213.546L53.0587 242.791C39.698 252.133 21.294 248.875 11.9523 235.514L18.5087 230.93C25.3186 240.67 38.7348 243.045 48.4745 236.235L90.3016 206.99L94.8857 213.546ZM53.0587 242.791C39.698 252.133 21.294 248.875 11.9523 235.514C2.61062 222.153 5.86865 203.749 19.2294 194.408L23.8135 200.964C14.0738 207.774 11.6987 221.19 18.5087 230.93L18.5087 230.93C25.3186 240.67 38.7348 243.045 48.4745 236.235L53.0587 242.791ZM63.3485 168.441L92.5936 210.268L63.3485 168.441Z" fill="#A7A7A7" mask="url(#path-147-inside-2_1468_705)"/>
<mask id="path-149-outside-3_1468_705" maskUnits="userSpaceOnUse" x="328.794" y="159.809" width="75.2945" height="67.5999" fill="black">
<rect fill="white" x="328.794" y="159.809" width="75.2945" height="67.5999"/>
<path d="M329.714 190.123L365.225 171.711C375.031 166.627 387.102 170.454 392.186 180.26C397.27 190.066 393.443 202.137 383.637 207.222L348.126 225.633L329.714 190.123Z"/>
</mask>
<path d="M328.794 188.347L364.304 169.935C375.091 164.343 388.369 168.553 393.962 179.34L390.411 181.181C385.835 172.356 374.971 168.911 366.146 173.486L330.635 191.898L328.794 188.347ZM393.962 179.34C399.554 190.126 395.344 203.404 384.557 208.997L349.047 227.409L347.206 223.858L382.716 205.446C391.542 200.87 394.987 190.006 390.411 181.181L393.962 179.34ZM348.126 225.633L329.714 190.123L348.126 225.633ZM364.304 169.935C375.091 164.343 388.369 168.553 393.962 179.34C399.554 190.126 395.344 203.404 384.557 208.997L382.716 205.446C391.542 200.87 394.987 190.006 390.411 181.181C385.835 172.356 374.971 168.911 366.146 173.486L364.304 169.935Z" fill="#390A4D" mask="url(#path-149-outside-3_1468_705)"/>
<mask id="path-151-inside-4_1468_705" fill="white">
<path d="M329.714 190.123L365.225 171.711C375.031 166.627 387.102 170.454 392.186 180.26C397.27 190.066 393.443 202.137 383.637 207.222L348.126 225.633L329.714 190.123Z"/>
</mask>
<path d="M329.714 190.123L365.225 171.711C375.031 166.627 387.102 170.454 392.186 180.26C397.27 190.066 393.443 202.137 383.637 207.222L348.126 225.633L329.714 190.123Z" fill="#F7F7F7"/>
<path d="M327.873 186.572L363.384 168.16C375.151 162.059 389.636 166.652 395.737 178.419L388.635 182.102C384.568 174.257 374.911 171.195 367.066 175.262L331.556 193.674L327.873 186.572ZM395.737 178.419C401.838 190.186 397.245 204.672 385.478 210.773L349.967 229.184L346.285 222.082L381.796 203.671C389.64 199.603 392.703 189.946 388.635 182.102L395.737 178.419ZM348.126 225.633L329.714 190.123L348.126 225.633ZM363.384 168.16C375.151 162.059 389.636 166.652 395.737 178.419C401.838 190.186 397.245 204.672 385.478 210.773L381.796 203.671C389.64 199.603 392.703 189.946 388.635 182.102C384.568 174.257 374.911 171.195 367.066 175.262L363.384 168.16Z" fill="#BF8BD5" mask="url(#path-151-inside-4_1468_705)"/>
</svg>
