<svg width="39" height="38" viewBox="0 0 39 38" fill="none" xmlns="http://www.w3.org/2000/svg">
<path fill-rule="evenodd" clip-rule="evenodd" d="M19.556 0C9.11162 0 0.644775 8.46684 0.644775 18.9112C0.644775 29.3556 9.11162 37.8224 19.556 37.8224C30.0004 37.8224 38.4672 29.3556 38.4672 18.9112C38.4672 8.46684 30.0004 0 19.556 0ZM15.0958 20.3641C13.3688 23.0939 13.8437 25.9356 16.2669 26.9874V26.9866C16.4631 24.2601 18.2243 22.8127 20.4416 21.7396C21.4706 21.2419 22.5004 20.745 23.5473 20.2865C26.1921 19.1276 27.6452 17.1383 27.87 14.2729C28.1249 11.0266 26.7307 8.20289 23.361 7.13224C21.7043 6.60591 20.0338 6.69908 18.3943 7.27363C11.9647 9.52689 7.14437 17.162 7.99271 23.8646C8.34333 26.6392 9.78094 28.765 12.3153 30.0833C16.1942 32.1045 20.6263 31.5855 24.099 28.7274C25.9943 27.168 27.4605 25.2384 28.9202 23.2982C29.1325 23.0159 29.3417 22.7298 29.5511 22.4435C30.2619 21.4716 30.9747 20.4968 31.8207 19.6572C32.51 18.9724 32.4419 18.2836 32.3707 17.564C32.3504 17.3586 32.3299 17.1507 32.3266 16.9397C31.8583 17.2241 31.4333 17.5208 31.0704 17.8796C30.6706 18.2744 30.2813 18.6805 29.8922 19.0864C29.2608 19.745 28.6297 20.4032 27.9541 21.013C26.6645 22.1769 25.3511 23.3366 23.9249 24.3222C22.2871 25.4534 20.3967 25.7312 18.4262 25.3136L18.4159 25.3114C17.6005 25.1386 17.5704 25.1323 17.3433 25.9339C17.201 26.435 17.0953 26.9462 16.9896 27.4573C16.9429 27.6832 16.8962 27.9091 16.8464 28.1341C15.0034 27.9731 13.1441 25.8677 13.0239 23.8776C13.0043 23.5532 12.8245 23.1658 12.59 22.9386C11.5226 21.9072 10.9456 20.7147 11.1695 19.2142C11.3174 18.2245 11.7817 17.3696 12.424 16.6218C14.5563 14.1413 17.2853 12.7576 20.5487 12.528C22.3492 12.4021 23.9788 12.9186 25.1165 14.4519C25.5268 15.0052 25.5006 15.4522 25.0323 15.9524C24.8632 16.133 24.6752 16.3063 24.4668 16.4379C22.5984 17.6189 20.5495 18.1542 18.3453 17.9776C16.8366 17.8567 16.2604 17.153 16.2906 15.6729C16.2922 15.5982 16.2846 15.5232 16.2745 15.4223C16.2688 15.3664 16.2624 15.3027 16.2563 15.2267C15.3115 15.5936 14.7345 16.227 14.3635 17.0631C13.7979 18.3389 14.1542 19.4349 15.0958 20.3641Z" fill="#F0F0F0"/>
</svg>
