<svg width="182" height="48" viewBox="0 0 182 48" fill="none" xmlns="http://www.w3.org/2000/svg">
<path d="M14.3142 42.0384C11.8342 42.0384 9.54087 41.4117 7.4342 40.1584C5.32753 38.9317 3.64753 37.2651 2.3942 35.1584C1.16753 33.0517 0.554199 30.7584 0.554199 28.2784V20.7984H7.9142V27.8784C7.9142 28.9984 8.20753 30.0517 8.7942 31.0384C9.38087 32.0251 10.1675 32.8117 11.1542 33.3984C12.1409 33.9851 13.1942 34.2784 14.3142 34.2784C15.4875 34.2784 16.5675 33.9851 17.5542 33.3984C18.5409 32.8117 19.3275 32.0251 19.9142 31.0384C20.5009 30.0517 20.7942 28.9984 20.7942 27.8784V19.2384H27.9142V28.2784C27.9142 30.7584 27.3142 33.0517 26.1142 35.1584C24.9142 37.2651 23.2742 38.9317 21.1942 40.1584C19.1142 41.4117 16.8209 42.0384 14.3142 42.0384ZM29.0742 35.4384C27.6075 35.4384 26.5009 35.0917 25.7542 34.3984C25.0075 33.7051 24.5142 32.7851 24.2742 31.6384C24.0609 30.4917 23.9542 29.0384 23.9542 27.2784V19.2384H28.2342V26.7984C28.2342 27.0651 28.3009 27.2784 28.4342 27.4384C28.5942 27.5984 28.8075 27.6784 29.0742 27.6784H30.6742C30.9409 27.6784 31.0742 27.8117 31.0742 28.0784V35.0384C31.0742 35.3051 30.9409 35.4384 30.6742 35.4384H29.0742Z" fill="white"/>
<path d="M29.8023 35.4384C29.5357 35.4384 29.4023 35.3051 29.4023 35.0384V28.0784C29.4023 27.8117 29.5357 27.6784 29.8023 27.6784H39.7223C40.2557 27.6784 40.5223 27.3984 40.5223 26.8384V26.7184H39.7223C38.1223 26.7184 36.6557 26.3584 35.3223 25.6384C33.989 24.9184 32.9223 23.9451 32.1223 22.7184C31.349 21.4651 30.9623 20.0784 30.9623 18.5584C30.9623 16.9317 31.3623 15.4384 32.1623 14.0784C32.9623 12.7184 34.029 11.6517 35.3623 10.8784C36.7223 10.0784 38.1757 9.67841 39.7223 9.67841C41.269 9.67841 42.6557 10.0784 43.8823 10.8784C45.1357 11.6517 46.109 12.7184 46.8023 14.0784C47.5223 15.4117 47.8823 16.9051 47.8823 18.5584V27.3184C47.8823 28.7851 47.5223 30.1451 46.8023 31.3984C46.0823 32.6251 45.109 33.6117 43.8823 34.3584C42.6557 35.0784 41.2957 35.4384 39.8023 35.4384H29.8023ZM41.0023 19.9184V18.2784C41.0023 17.8517 40.8423 17.4917 40.5223 17.1984C40.229 16.8784 39.869 16.7184 39.4423 16.7184C38.9623 16.7184 38.5757 16.8651 38.2823 17.1584C37.989 17.4517 37.8423 17.8251 37.8423 18.2784C37.8423 18.7584 37.989 19.1584 38.2823 19.4784C38.5757 19.7717 38.9623 19.9184 39.4423 19.9184H41.0023Z" fill="white"/>
<path d="M52.0695 40.8784C54.3362 39.9184 56.0295 39.1184 57.1495 38.4784C58.2695 37.8651 59.0028 37.3317 59.3495 36.8784C59.6962 36.4517 59.8695 35.9717 59.8695 35.4384H58.3895C56.6828 35.4384 55.1095 35.0651 53.6695 34.3184C52.2295 33.5451 51.0828 32.4917 50.2295 31.1584C49.4028 29.7984 48.9895 28.2784 48.9895 26.5984C48.9895 24.8917 49.4162 23.3184 50.2695 21.8784C51.1228 20.4384 52.2562 19.3051 53.6695 18.4784C55.1095 17.6251 56.6828 17.1984 58.3895 17.1984C60.0695 17.1984 61.5762 17.6251 62.9095 18.4784C64.2695 19.3051 65.3228 20.4384 66.0695 21.8784C66.8428 23.3184 67.2295 24.8917 67.2295 26.5984V32.1584C67.2295 34.9051 66.8562 37.1051 66.1095 38.7584C65.3628 40.4384 64.0962 41.9184 62.3095 43.1984C60.5228 44.4784 57.8695 45.8651 54.3495 47.3584L52.0695 40.8784ZM58.3895 28.1584H59.8695V26.5984C59.8695 26.0917 59.7362 25.6917 59.4695 25.3984C59.2028 25.1051 58.8428 24.9584 58.3895 24.9584C57.9095 24.9584 57.5095 25.1051 57.1895 25.3984C56.8962 25.6917 56.7495 26.0917 56.7495 26.5984C56.7495 27.0784 56.8962 27.4651 57.1895 27.7584C57.5095 28.0251 57.9095 28.1584 58.3895 28.1584ZM66.8295 27.6784H68.4695C68.7362 27.6784 68.8695 27.8117 68.8695 28.0784V35.0384C68.8695 35.3051 68.7362 35.4384 68.4695 35.4384H66.8295V27.6784Z" fill="white"/>
<path d="M67.1736 28.0784C67.1736 27.8117 67.3069 27.6784 67.5736 27.6784H69.5736C69.8402 27.6784 70.0402 27.5984 70.1736 27.4384C70.3336 27.2784 70.4136 27.0651 70.4136 26.7984V19.1984H77.7736V26.7984C77.7736 27.0651 77.8402 27.2784 77.9736 27.4384C78.1336 27.5984 78.3469 27.6784 78.6136 27.6784H80.6136C80.8802 27.6784 81.0136 27.8117 81.0136 28.0784V35.0384C81.0136 35.3051 80.8802 35.4384 80.6136 35.4384H78.6136C77.6536 35.4384 76.8136 35.3317 76.0936 35.1184C75.4002 34.9051 74.7336 34.5584 74.0936 34.0784C73.4536 34.5584 72.7736 34.9051 72.0536 35.1184C71.3602 35.3317 70.5336 35.4384 69.5736 35.4384H67.5736C67.3069 35.4384 67.1736 35.3051 67.1736 35.0384V28.0784Z" fill="white"/>
<path d="M79.3405 28.0784C79.3405 27.8117 79.4738 27.6784 79.7405 27.6784H82.5405C82.8071 27.6784 83.0071 27.5984 83.1404 27.4384C83.3005 27.2784 83.3805 27.0651 83.3805 26.7984V19.1984H90.7405V26.7984C90.7405 27.0651 90.8071 27.2784 90.9405 27.4384C91.1005 27.5984 91.3138 27.6784 91.5805 27.6784H94.3805C94.6471 27.6784 94.7805 27.8117 94.7805 28.0784V35.0384C94.7805 35.3051 94.6471 35.4384 94.3805 35.4384H91.5805C90.6205 35.4384 89.7805 35.3317 89.0605 35.1184C88.3671 34.9051 87.7005 34.5584 87.0605 34.0784C86.4205 34.5584 85.7405 34.9051 85.0205 35.1184C84.3271 35.3317 83.5005 35.4384 82.5405 35.4384H79.7405C79.4738 35.4384 79.3405 35.3051 79.3405 35.0384V28.0784Z" fill="white"/>
<path d="M106.069 35.5184C104.389 35.5184 102.869 35.1051 101.509 34.2784C100.176 33.4251 99.1222 32.2784 98.3489 30.8384C97.6022 29.3984 97.2289 27.8251 97.2289 26.1184V24.6384H94.6689V17.2784H106.069C107.776 17.2784 109.349 17.6651 110.789 18.4384C112.229 19.1851 113.362 20.2384 114.189 21.5984C115.042 22.9317 115.469 24.4384 115.469 26.1184C115.469 27.8251 115.042 29.3984 114.189 30.8384C113.362 32.2517 112.229 33.3851 110.789 34.2384C109.349 35.0917 107.776 35.5184 106.069 35.5184ZM93.5089 35.4384C93.2422 35.4384 93.1089 35.3051 93.1089 35.0384V28.0784C93.1089 27.8117 93.2422 27.6784 93.5089 27.6784H96.3889C96.6556 27.6784 96.8556 27.5984 96.9889 27.4384C97.1489 27.2784 97.2289 27.0651 97.2289 26.7984V25.3984H103.109V27.2784C103.109 29.6784 102.536 31.6384 101.389 33.1584C100.269 34.6784 98.6022 35.4384 96.3889 35.4384H93.5089ZM106.069 27.7584C106.576 27.7584 106.976 27.6117 107.269 27.3184C107.562 26.9984 107.709 26.5984 107.709 26.1184C107.709 25.6651 107.562 25.3051 107.269 25.0384C106.976 24.7717 106.576 24.6384 106.069 24.6384H104.509V26.1184C104.509 26.5984 104.642 26.9984 104.909 27.3184C105.202 27.6117 105.589 27.7584 106.069 27.7584Z" fill="white"/>
<path d="M124.682 35.4384C123.189 35.4384 121.829 35.0784 120.602 34.3584C119.376 33.6117 118.402 32.6251 117.682 31.3984C116.962 30.1451 116.602 28.7851 116.602 27.3184V8.11841H123.962V26.8384C123.962 27.1051 124.029 27.3184 124.162 27.4784C124.322 27.6117 124.522 27.6784 124.762 27.6784H127.202C127.469 27.6784 127.602 27.8117 127.602 28.0784V35.0384C127.602 35.3051 127.469 35.4384 127.202 35.4384H124.682Z" fill="white"/>
<path d="M125.919 28.0784C125.919 27.8117 126.053 27.6784 126.319 27.6784H129.119C129.386 27.6784 129.586 27.5984 129.719 27.4384C129.879 27.2784 129.959 27.0651 129.959 26.7984V19.1984H137.319V26.7984C137.319 27.0651 137.386 27.2784 137.519 27.4384C137.679 27.5984 137.893 27.6784 138.159 27.6784H140.959C141.226 27.6784 141.359 27.8117 141.359 28.0784V35.0384C141.359 35.3051 141.226 35.4384 140.959 35.4384H138.159C137.199 35.4384 136.359 35.3317 135.639 35.1184C134.946 34.9051 134.279 34.5584 133.639 34.0784C132.999 34.5584 132.319 34.9051 131.599 35.1184C130.906 35.3317 130.079 35.4384 129.119 35.4384H126.319C126.053 35.4384 125.919 35.3051 125.919 35.0384V28.0784Z" fill="white"/>
<path d="M159.768 35.5184C157.554 35.5184 155.874 34.7584 154.728 33.2384C153.608 31.7184 153.048 29.7584 153.048 27.3584V19.1984H158.928V26.8784C158.928 27.1451 158.994 27.3584 159.128 27.5184C159.288 27.6784 159.501 27.7584 159.768 27.7584C160.034 27.7584 160.234 27.6784 160.368 27.5184C160.528 27.3584 160.608 27.1451 160.608 26.8784V18.0784H166.488V27.3584C166.488 29.7584 165.914 31.7184 164.768 33.2384C163.648 34.7584 161.981 35.5184 159.768 35.5184ZM140.088 35.4384C139.821 35.4384 139.688 35.3051 139.688 35.0384V28.0784C139.688 27.8117 139.821 27.6784 140.088 27.6784H141.688C141.954 27.6784 142.154 27.5984 142.288 27.4384C142.448 27.2784 142.528 27.0651 142.528 26.7984V19.1984H148.408V27.2784C148.408 29.6784 147.834 31.6384 146.688 33.1584C145.568 34.6784 143.901 35.4384 141.688 35.4384H140.088ZM150.728 35.5184C148.514 35.5184 146.834 34.7584 145.688 33.2384C144.568 31.7184 144.008 29.7584 144.008 27.3584V19.1984H149.888V26.8784C149.888 27.1451 149.954 27.3584 150.088 27.5184C150.248 27.6784 150.461 27.7584 150.728 27.7584C150.994 27.7584 151.194 27.6784 151.328 27.5184C151.488 27.3584 151.568 27.1451 151.568 26.8784V19.1984H157.448V27.3584C157.448 29.7584 156.874 31.7184 155.728 33.2384C154.608 34.7584 152.941 35.5184 150.728 35.5184ZM168.808 35.4384C166.594 35.4384 164.914 34.6784 163.768 33.1584C162.648 31.6384 162.088 29.6784 162.088 27.2784V18.0784H167.968V26.7984C167.968 27.0651 168.034 27.2784 168.168 27.4384C168.328 27.5984 168.541 27.6784 168.808 27.6784H170.408C170.674 27.6784 170.808 27.8117 170.808 28.0784V35.0384C170.808 35.3051 170.674 35.4384 170.408 35.4384H168.808Z" fill="white"/>
<path d="M169.52 35.4384C169.253 35.4384 169.12 35.3051 169.12 35.0384V28.0784C169.12 27.8117 169.253 27.6784 169.52 27.6784H173.84C174.053 27.6784 174.24 27.5984 174.4 27.4384C174.56 27.2784 174.64 27.0784 174.64 26.8384V18.0784H182V27.3184C182 28.7851 181.64 30.1451 180.92 31.3984C180.2 32.6251 179.227 33.6117 178 34.3584C176.773 35.0784 175.413 35.4384 173.92 35.4384H169.52Z" fill="white"/>
<path d="M17.2742 13.88H11.0742V20.08H17.2742V13.88Z" fill="#D2A2E5"/>
<path d="M42.8423 0H36.6423V6.2H42.8423V0Z" fill="#D2A2E5"/>
<path d="M77.2136 9.08H71.0136V15.28H77.2136V9.08Z" fill="#D2A2E5"/>
<path d="M80.8605 37.92H87.0605H93.2605V44.12H87.0605H80.8605V37.92Z" fill="#D2A2E5"/>
<path d="M127.599 9.08H133.799H139.999V15.28H133.799H127.599V9.08Z" fill="#D2A2E5"/>
<path d="M169.6 7.96H175.8H182V14.16H175.8H169.6V7.96Z" fill="#D2A2E5"/>
</svg>
