<svg width="38" height="38" viewBox="0 0 38 38" fill="none" xmlns="http://www.w3.org/2000/svg">
<path fill-rule="evenodd" clip-rule="evenodd" d="M0 18.9112C0 8.46684 8.46684 0 18.9112 0C29.3556 0 37.8224 8.46684 37.8224 18.9112C37.8224 29.3556 29.3556 37.8224 18.9112 37.8224C8.46684 37.8224 0 29.3556 0 18.9112ZM7.56372 13.8274C7.56372 10.3743 10.3731 7.56479 13.8262 7.56479H23.9945C27.4479 7.56479 30.2573 10.3743 30.2572 13.8274V23.9957C30.2572 27.4488 27.4479 30.2583 23.9945 30.2583H13.8262C10.3731 30.2583 7.56372 27.4489 7.56372 23.9957V13.8274ZM23.9958 28.2448C26.3388 28.2448 28.245 26.3387 28.245 23.9957H28.2449V13.8274C28.2449 11.4845 26.3387 9.57828 23.9957 9.57828H13.8273C11.4845 9.57828 9.57838 11.4845 9.57838 13.8274V23.9957C9.57838 26.3387 11.4845 28.2449 13.8273 28.2448H23.9958ZM12.9655 18.9116C12.9655 15.6342 15.6317 12.9679 18.909 12.9679C22.1863 12.9679 24.8525 15.6342 24.8525 18.9116C24.8525 22.1888 22.1863 24.8549 18.909 24.8549C15.6317 24.8549 12.9655 22.1888 12.9655 18.9116ZM15.012 18.9114C15.012 21.0601 16.7603 22.8082 18.909 22.8082C21.0577 22.8082 22.806 21.0601 22.806 18.9114C22.806 16.7625 21.0579 15.0143 18.909 15.0143C16.7601 15.0143 15.012 16.7625 15.012 18.9114Z" fill="#F0F0F0"/>
</svg>
