<svg width="25" height="24" viewBox="0 0 25 24" fill="none" xmlns="http://www.w3.org/2000/svg">
<path d="M8.49561 6.29C8.07561 6.29 7.74561 5.95 7.74561 5.54V2.75C7.74561 2.34 8.07561 2 8.49561 2C8.91561 2 9.24561 2.34 9.24561 2.75V5.53C9.24561 5.95 8.91561 6.29 8.49561 6.29Z" fill="#BF8BD5"/>
<path d="M15.9175 6.29C15.4975 6.29 15.1675 5.95 15.1675 5.54V2.75C15.1675 2.33 15.5075 2 15.9175 2C16.3375 2 16.6675 2.34 16.6675 2.75V5.53C16.6675 5.95 16.3375 6.29 15.9175 6.29Z" fill="#BF8BD5"/>
<path d="M19.7765 4.5C19.1165 4.01 18.1665 4.48 18.1665 5.31V5.41C18.1665 6.58 17.3265 7.66 16.1565 7.78C14.8065 7.92 13.6665 6.86 13.6665 5.54V4.5C13.6665 3.95 13.2165 3.5 12.6665 3.5H11.7465C11.1965 3.5 10.7465 3.95 10.7465 4.5V5.54C10.7465 6.33 10.3365 7.03 9.71654 7.42C9.62654 7.48 9.52654 7.53 9.42654 7.58C9.33654 7.63 9.23654 7.67 9.12654 7.7C9.00654 7.74 8.87654 7.77 8.73654 7.78C8.57654 7.8 8.41654 7.8 8.25654 7.78C8.11654 7.77 7.98654 7.74 7.86654 7.7C7.76654 7.67 7.66654 7.63 7.56654 7.58C7.46654 7.53 7.36654 7.48 7.27654 7.42C6.64654 6.98 6.24654 6.22 6.24654 5.41V5.31C6.24654 4.54 5.42654 4.08 4.77654 4.41C4.76654 4.42 4.75654 4.42 4.74654 4.43C4.70654 4.45 4.67654 4.47 4.63654 4.5C4.60654 4.53 4.56654 4.55 4.53654 4.58C4.25654 4.8 4.00654 5.05 3.79654 5.32C3.68654 5.44 3.59654 5.57 3.51654 5.7C3.50654 5.71 3.49654 5.72 3.48654 5.74C3.39654 5.87 3.31654 6.02 3.24654 6.16C3.22654 6.18 3.21654 6.19 3.21654 6.21C3.15654 6.33 3.09654 6.45 3.05654 6.58C3.02654 6.63 3.01654 6.67 2.99654 6.72C2.93654 6.87 2.89654 7.02 2.85654 7.17C2.81654 7.31 2.78654 7.46 2.76654 7.61C2.74654 7.72 2.73654 7.83 2.72654 7.95C2.71654 8.09 2.70654 8.23 2.70654 8.37V17.13C2.70654 19.82 4.88654 22 7.57654 22H16.8365C19.5265 22 21.7065 19.82 21.7065 17.13V8.37C21.7065 6.78 20.9465 5.39 19.7765 4.5ZM12.2065 17.42H7.56654C7.15654 17.42 6.81654 17.08 6.81654 16.67C6.81654 16.25 7.15654 15.91 7.56654 15.91H12.2065C12.6265 15.91 12.9565 16.25 12.9565 16.67C12.9565 17.08 12.6265 17.42 12.2065 17.42ZM14.9865 13.71H7.56654C7.15654 13.71 6.81654 13.37 6.81654 12.96C6.81654 12.54 7.15654 12.2 7.56654 12.2H14.9865C15.4065 12.2 15.7465 12.54 15.7465 12.96C15.7465 13.37 15.4065 13.71 14.9865 13.71Z" fill="#BF8BD5"/>
</svg>
