<svg width="25" height="24" viewBox="0 0 25 24" fill="none" xmlns="http://www.w3.org/2000/svg">
<path d="M21.1765 16H18.2365C16.9665 16 16.2065 16.76 16.2065 18.03V20.97C16.2065 22.24 16.9665 23 18.2365 23H21.1765C22.4465 23 23.2065 22.24 23.2065 20.97V18.03C23.2065 16.76 22.4465 16 21.1765 16ZM21.8365 18.45L19.4665 21.22C19.3665 21.33 19.2365 21.4 19.0865 21.4C19.0865 21.4 19.0765 21.4 19.0665 21.4C18.9365 21.4 18.7965 21.35 18.7065 21.25L17.6065 20.17C17.4065 19.97 17.4065 19.64 17.6065 19.43C17.8065 19.23 18.1365 19.23 18.3465 19.43L19.0365 20.12L21.0465 17.78C21.2265 17.56 21.5565 17.53 21.7765 17.72C21.9965 17.91 22.0165 18.24 21.8365 18.45Z" fill="#BF8BD5"/>
<path d="M21.1765 16H18.2365C16.9665 16 16.2065 16.76 16.2065 18.03V20.97C16.2065 22.24 16.9665 23 18.2365 23H21.1765C22.4465 23 23.2065 22.24 23.2065 20.97V18.03C23.2065 16.76 22.4465 16 21.1765 16ZM21.8365 18.45L19.4665 21.22C19.3665 21.33 19.2365 21.4 19.0865 21.4C19.0865 21.4 19.0765 21.4 19.0665 21.4C18.9365 21.4 18.7965 21.35 18.7065 21.25L17.6065 20.17C17.4065 19.97 17.4065 19.64 17.6065 19.43C17.8065 19.23 18.1365 19.23 18.3465 19.43L19.0365 20.12L21.0465 17.78C21.2265 17.56 21.5565 17.53 21.7765 17.72C21.9965 17.91 22.0165 18.24 21.8365 18.45Z" fill="#BF8BD5"/>
<path d="M22.1765 7.21C21.8965 4.48 19.7265 2.31 16.9965 2.03C16.7965 2.01 16.5965 2 16.3965 2H8.01654C7.81654 2 7.61654 2.01 7.41654 2.03C4.68654 2.31 2.51654 4.48 2.23654 7.21C2.21654 7.41 2.20654 7.61 2.20654 7.81V16.19C2.20654 16.39 2.21654 16.59 2.23654 16.79C2.51654 19.52 4.68654 21.69 7.41654 21.97C7.61654 21.99 7.81654 22 8.01654 22H14.2065C14.7565 22 15.2065 21.55 15.2065 21V18.03C15.2065 16.36 16.5665 15 18.2365 15H21.2065C21.7565 15 22.2065 14.55 22.2065 14V7.81C22.2065 7.61 22.1965 7.41 22.1765 7.21ZM7.95654 13.5C7.95654 13.91 7.61654 14.25 7.20654 14.25C6.79654 14.25 6.45654 13.91 6.45654 13.5V10.5C6.45654 10.09 6.79654 9.75 7.20654 9.75C7.61654 9.75 7.95654 10.09 7.95654 10.5V13.5ZM12.9565 13.5C12.9565 13.91 12.6165 14.25 12.2065 14.25C11.7965 14.25 11.4565 13.91 11.4565 13.5V10.5C11.4565 10.09 11.7965 9.75 12.2065 9.75C12.6165 9.75 12.9565 10.09 12.9565 10.5V13.5Z" fill="#BF8BD5"/>
</svg>
