<svg width="25" height="25" viewBox="0 0 25 25" fill="none" xmlns="http://www.w3.org/2000/svg">
<path d="M18.5546 11.5741C18.1246 11.5741 17.7846 11.2241 17.7846 10.8041C17.7846 10.4341 17.4146 9.66407 16.7946 8.99407C16.1846 8.34407 15.5146 7.96407 14.9546 7.96407C14.5246 7.96407 14.1846 7.61407 14.1846 7.19407C14.1846 6.77407 14.5346 6.42407 14.9546 6.42407C15.9546 6.42407 17.0046 6.96407 17.9246 7.93407C18.7846 8.84407 19.3346 9.97407 19.3346 10.7941C19.3346 11.2241 18.9846 11.5741 18.5546 11.5741Z" fill="#744884"/>
<path d="M22.1643 11.5725C21.7343 11.5725 21.3943 11.2225 21.3943 10.8025C21.3943 7.25251 18.5043 4.37251 14.9643 4.37251C14.5343 4.37251 14.1943 4.02251 14.1943 3.60251C14.1943 3.18251 14.5343 2.82251 14.9543 2.82251C19.3543 2.82251 22.9343 6.40251 22.9343 10.8025C22.9343 11.2225 22.5843 11.5725 22.1643 11.5725Z" fill="#744884"/>
<path d="M11.9846 15.7725L10.1346 17.6225C9.74457 18.0125 9.12457 18.0125 8.72457 17.6325C8.61457 17.5225 8.50457 17.4225 8.39457 17.3125C7.36457 16.2725 6.43457 15.1825 5.60457 14.0425C4.78457 12.9025 4.12457 11.7625 3.64457 10.6325C3.17457 9.49251 2.93457 8.40251 2.93457 7.36251C2.93457 6.68251 3.05457 6.03251 3.29457 5.43251C3.53457 4.82251 3.91457 4.26251 4.44457 3.76251C5.08457 3.13251 5.78457 2.82251 6.52457 2.82251C6.80457 2.82251 7.08457 2.88251 7.33457 3.00251C7.59457 3.12251 7.82457 3.30251 8.00457 3.56251L10.3246 6.83251C10.5046 7.08251 10.6346 7.31251 10.7246 7.53251C10.8146 7.74251 10.8646 7.95251 10.8646 8.14251C10.8646 8.38251 10.7946 8.62251 10.6546 8.85251C10.5246 9.08251 10.3346 9.32251 10.0946 9.56251L9.33457 10.3525C9.22457 10.4625 9.17457 10.5925 9.17457 10.7525C9.17457 10.8325 9.18457 10.9025 9.20457 10.9825C9.23457 11.0625 9.26457 11.1225 9.28457 11.1825C9.46457 11.5125 9.77457 11.9425 10.2146 12.4625C10.6646 12.9825 11.1446 13.5125 11.6646 14.0425C11.7646 14.1425 11.8746 14.2425 11.9746 14.3425C12.3746 14.7325 12.3846 15.3725 11.9846 15.7725Z" fill="#744884"/>
<path d="M22.9042 19.1516C22.9042 19.4316 22.8542 19.7216 22.7542 20.0016C22.7242 20.0816 22.6942 20.1616 22.6542 20.2416C22.4842 20.6016 22.2642 20.9416 21.9742 21.2616C21.4842 21.8016 20.9442 22.1916 20.3342 22.4416C20.3242 22.4416 20.3142 22.4516 20.3042 22.4516C19.7142 22.6916 19.0742 22.8216 18.3842 22.8216C17.3642 22.8216 16.2742 22.5816 15.1242 22.0916C13.9742 21.6016 12.8242 20.9416 11.6842 20.1116C11.2942 19.8216 10.9042 19.5316 10.5342 19.2216L13.8042 15.9516C14.0842 16.1616 14.3342 16.3216 14.5442 16.4316C14.5942 16.4516 14.6542 16.4816 14.7242 16.5116C14.8042 16.5416 14.8842 16.5516 14.9742 16.5516C15.1442 16.5516 15.2742 16.4916 15.3842 16.3816L16.1442 15.6316C16.3942 15.3816 16.6342 15.1916 16.8642 15.0716C17.0942 14.9316 17.3242 14.8616 17.5742 14.8616C17.7642 14.8616 17.9642 14.9016 18.1842 14.9916C18.4042 15.0816 18.6342 15.2116 18.8842 15.3816L22.1942 17.7316C22.4542 17.9116 22.6342 18.1216 22.7442 18.3716C22.8442 18.6216 22.9042 18.8716 22.9042 19.1516Z" fill="#744884"/>
</svg>
