<svg width="25" height="24" viewBox="0 0 25 24" fill="none" xmlns="http://www.w3.org/2000/svg">
<path d="M7.20654 5C7.20654 3.34 8.54654 2 10.2065 2H14.2065C15.8665 2 17.2065 3.34 17.2065 5C17.2065 5.55 16.7565 6 16.2065 6H8.20654C7.65654 6 7.20654 5.55 7.20654 5Z" fill="#BF8BD5"/>
<path d="M17.9565 15C17.9565 15.41 17.6165 15.75 17.2065 15.75H16.2065V19C16.2065 20.66 14.8665 22 13.2065 22H11.2065C9.54654 22 8.20654 20.66 8.20654 19V15.75H7.20654C6.79654 15.75 6.45654 15.41 6.45654 15C6.45654 14.59 6.79654 14.25 7.20654 14.25H17.2065C17.6165 14.25 17.9565 14.59 17.9565 15Z" fill="#BF8BD5"/>
<path d="M18.2065 7H6.20654C4.20654 7 3.20654 8 3.20654 10V15C3.20654 17 4.20654 18 6.20654 18H6.58154C6.92672 18 7.20654 17.7202 7.20654 17.375C7.20654 17.0298 6.91785 16.7604 6.59495 16.6384C5.93273 16.3882 5.45654 15.7453 5.45654 15C5.45654 14.04 6.24654 13.25 7.20654 13.25H17.2065C18.1665 13.25 18.9565 14.04 18.9565 15C18.9565 15.7453 18.4804 16.3882 17.8181 16.6384C17.4952 16.7604 17.2065 17.0298 17.2065 17.375C17.2065 17.7202 17.4864 18 17.8315 18H18.2065C20.2065 18 21.2065 17 21.2065 15V10C21.2065 8 20.2065 7 18.2065 7ZM10.2065 11.75H7.20654C6.79654 11.75 6.45654 11.41 6.45654 11C6.45654 10.59 6.79654 10.25 7.20654 10.25H10.2065C10.6165 10.25 10.9565 10.59 10.9565 11C10.9565 11.41 10.6165 11.75 10.2065 11.75Z" fill="#BF8BD5"/>
</svg>
