<svg width="466" height="440" viewBox="0 0 466 440" fill="none" xmlns="http://www.w3.org/2000/svg">
<path d="M380.298 221.537C369.917 220.178 359.476 221.24 349.069 220.785C321.526 219.585 293.976 221.154 266.427 220.739C265.345 220.726 264.264 220.739 262.839 220.739C263.888 217.857 265.293 215.799 267.627 214.163C271.571 211.4 274.572 207.766 276.848 203.459C277.428 202.357 278.985 201.599 280.258 201.071C283.371 199.778 283.588 197.773 282.17 195.089C281.834 194.449 281.386 193.321 281.669 192.992C284.551 189.621 281.564 188.21 279.4 186.264C278.912 186.891 278.411 187.537 277.844 188.263C282.368 189.423 281.537 191.692 278.589 194.331C279.486 195.01 280.212 195.564 281.016 196.177C280.601 200.418 277.046 201.513 273.959 203.439C273.379 208.043 269.876 210.661 266.209 213.068C262.14 215.74 260.359 220.172 257.615 223.865C256.705 225.085 256.046 226.49 254.634 227.255C254.166 226.893 253.698 226.53 253.157 226.114C253.427 225.554 253.638 225.112 253.856 224.663C259.528 218.569 262.681 210.12 271.182 207.047C269.698 200.135 276.742 201.236 278.622 197.615C276.103 195.175 273.59 198.974 270.727 197.82C272.943 194.792 276.782 194.087 279.156 191.389C275.291 189.872 272.554 192.424 268.913 193.315C270.872 189.483 274.546 188.685 277 186.488C270.681 179.669 247.907 197.358 240.071 209.949C239.577 210.061 239.042 210.417 238.535 209.566C238.627 209.21 238.759 208.702 238.891 208.194C241.127 205.662 243.363 203.129 245.592 200.59C252.088 193.183 259.179 186.587 268.9 183.646C270.984 183.013 272.191 181.819 273.273 179.84C279.618 168.206 286.444 156.829 292.631 145.108C299.339 132.399 305.519 119.406 311.929 106.538C315.234 100.608 318.538 94.6791 321.842 88.7498C325.318 84.5814 327.237 79.3578 330.99 75.3279C310.597 110.231 295.658 148.01 273.095 182.379C276.287 182.129 277.963 183.362 279.308 185.189C280.258 182.841 279.117 181.238 277.349 179.834C287.658 163.635 297.307 147.311 305.248 129.965C313.361 112.236 324.157 95.8465 332.052 77.9793C332.639 76.6404 333.807 75.295 332.178 73.778C331.208 73.4614 330.172 73.3163 329.579 73.6461C326.716 78.7906 324.078 83.5459 321.433 88.2947C317.595 93.9404 314.462 99.9819 311.448 106.089C305.063 116.556 299.695 127.577 293.746 138.282C286.029 152.146 277.699 165.673 271.05 179.926C265.174 182.109 260.056 185.136 255.3 189.1C250.4 193.19 246.133 197.958 240.968 201.797C238.093 203.934 234.729 206.196 233.713 210.186C229.215 214.493 224.585 218.635 219.315 221.992C215.16 222.203 210.998 222.414 206.889 222.619C201.963 208.498 198.124 194.311 194.272 180.117C192.775 174.597 190.012 169.505 186.898 164.822C182.994 158.946 176.306 157.343 169.737 156.578C161.684 155.641 153.571 155.589 145.683 156.967C143.711 154.487 144.377 152.073 144.437 149.554C147.616 147.562 151.25 146.131 153.387 142.615C156.348 137.741 155.88 132.372 155.273 127.287C153.993 116.603 151.988 105.997 150.26 95.3651C150.122 94.5208 149.964 93.6305 149.575 92.8918C147.583 89.0993 147.556 85.6763 149.924 81.7849C152.437 77.6496 149.416 74.121 147.114 70.8694C145.466 68.5412 143.012 68.7588 140.492 69.7481C137.914 67.387 135.394 66.2855 132.314 69.2601C130.903 70.6254 128.818 68.2312 126.741 69.1677C123.911 71.7796 124.103 75.3543 124.617 79.305C122.388 79.9778 120.211 80.6241 117.771 81.3562C116.993 61.108 117.309 40.9984 117.494 20.9019C117.52 17.9603 117.283 14.9989 117.982 12.0573C118.978 7.89555 121.095 5.56075 125.752 5.50139C133.857 5.40245 141.759 3.26551 149.792 2.47405C157.608 1.70238 165.47 1.28686 173.318 1.02304C207.621 -0.0981924 241.911 -0.0520239 276.201 0.0469086C298.395 0.106268 320.596 -0.0784059 342.77 0.508594C369.581 1.22091 396.385 0.877942 423.182 0.7922C428.525 0.779009 433.88 0.271156 439.222 0.765818C447.625 1.55068 456.015 2.44767 464.708 3.33147C465.598 7.6779 465.512 12.0705 464.892 16.3642C464.391 19.8466 464.503 23.362 464.45 26.7851C464.259 38.9735 462.221 51.0037 461.805 63.1263C461.469 73.0393 461.37 82.9721 461.007 92.8918C460.13 117.058 459.392 141.23 458.198 165.376C457.888 171.695 457.248 178.046 456.542 184.371C455.5 193.658 455.507 203.063 455.012 212.415C454.9 214.559 454.63 216.696 454.359 218.833C454.194 220.159 453.403 221.016 452.07 221.306C448.957 221.985 445.943 222.572 442.626 222.032C433.042 220.455 423.334 221.55 414.001 221.161C412.221 220.68 412.141 218.266 410.097 218.589L410.169 218.688C410.849 217.778 410.11 217.547 409.49 217.263L409.556 217.342C409.312 217.098 409.061 216.848 408.817 216.604L408.896 216.683L408.151 215.944L408.237 216.023C407.993 215.773 407.742 215.528 407.498 215.278L407.584 215.357C407.34 215.106 407.089 214.862 406.845 214.612L406.924 214.678C406.529 214.289 406.443 213.24 405.5 213.998L405.572 214.051C402.077 209.705 397.051 209.757 392.197 209.52C389.4 209.381 388.628 210.971 389.486 213.53C390.502 214.044 391.438 214.513 392.441 215.021C391.385 218.846 387.791 217.599 385.403 218.635C383.609 219.413 381.004 218.78 380.437 221.603L380.298 221.537Z" fill="black"/>
<path d="M161.057 284.662C161.202 291.686 161.538 298.711 161.466 305.735C161.076 342.551 160.588 379.367 160.133 416.183C160.107 418.261 160.133 420.338 160.133 422.475C163.563 423.933 166.92 422.568 170.145 423.227C172.032 425.898 170.976 428.642 167.026 430.607C159.071 434.565 151.223 433.991 143.321 429.743V433.384C138.52 435.073 133.751 435.026 128.376 434.624C129.062 382.737 129.167 331.187 125.942 279.801C123.396 277.73 120.263 279.478 117.592 277.572C118.687 330.884 117.869 383.661 114.407 436.405C109.328 438.232 104.606 437.724 99.9955 438.331C99.026 436.266 99.8834 434.255 99.3821 431.953C95.7216 434.901 91.8764 437.282 87.53 438.687C82.2998 440.369 77.0959 440.692 72.0174 438.14C68.8779 436.563 67.8095 434.4 68.1524 430.126C72.6835 428.715 78.2304 431.531 81.8843 427.804C81.8843 415.893 82.1151 404.357 81.8381 392.835C81.3105 370.865 80.6905 348.902 79.688 326.953C79.2724 317.811 79.688 308.696 79.5231 299.568C79.4901 297.82 78.5008 296.072 79.4901 294.325C79.7605 292.399 81.1258 291.311 82.8142 291.271C86.3494 291.192 88.3479 289.048 90.2606 286.555C94.5872 280.929 96.1503 274.353 96.6516 267.488C96.9418 263.445 96.7901 259.362 96.7307 255.299C96.6978 253.301 97.2386 252.061 99.4943 252.278C102.225 253.907 104.922 252.344 107.633 252.186C111.854 251.942 116.075 251.718 120.263 251.487C121.682 227.328 121.141 203.419 121.279 179.787C118.067 177.156 115.376 174.01 111.966 172.4C107.93 170.501 104.777 174.26 101.374 175.942C99.9493 175.375 100.108 174.069 99.9757 172.908C99.4547 168.351 98.9468 163.793 98.4324 159.229V138.605C92.9713 137.372 90.7618 132.807 93.1362 127.768C93.9342 126.08 93.9276 124.537 93.8485 122.624C93.466 113.417 92.5228 104.368 97.1792 95.3318C99.2766 91.2624 100.774 88.7693 105.028 87.1402C110.871 84.9043 116.953 83.8227 122.895 82.1276C123.832 81.8638 124.762 81.5868 125.685 81.3164C126.641 71.8452 128.448 69.6424 132.808 72.7488C133.672 71.6936 134.543 70.6251 135.374 69.6094C137.102 70.1502 138.975 70.1502 139.588 72.5576C141.58 70.7306 143.407 68.8773 145.887 71.0868C148.393 73.3226 148.914 78.8497 146.797 81.943C145.966 83.1565 144.779 84.1327 143.783 85.1879C147.852 93.9995 149.449 103.372 150.365 112.929C150.88 118.291 151.671 123.64 152.443 128.962C154.085 140.307 151.757 145.167 141.382 148.689C140.591 151.789 141.712 154.797 142.259 157.837C142.279 158.365 142.319 158.899 142.312 159.427C142.233 164.69 143.645 170.065 141.112 175.137C138.117 173.343 135.117 171.549 132.069 169.729C128.93 173.139 125.843 176.503 122.361 180.288C122.249 203.373 122.644 227.433 121.22 250.946H144.053C144.673 254.145 145.313 257.337 145.867 260.549C146.988 267.052 148.862 273.331 153.749 278.331C156.031 280.665 159.256 281.833 161.057 284.656V284.662ZM100.747 165.211C100.273 165.97 100.233 166.715 100.853 167.421V174.069C104.164 172.954 106.637 171.688 109.256 169.584C105.997 167.856 104.078 165.158 101.605 163.061C101.242 162.573 100.879 162.072 100.174 162.454C99.9361 163.206 100.2 163.714 100.787 164.103C100.774 164.472 100.761 164.842 100.754 165.211H100.747ZM105.213 96.7103C105.76 106.043 106.044 115.197 106.927 124.299C107.561 130.816 106.848 132.168 101.407 131.244C100.721 129.655 100.015 128.019 99.3557 126.489C96.6516 125.902 94.3168 126.377 93.7298 129.094C92.6811 133.929 95.8008 135.921 100.543 136.811C100.543 143.406 100.662 149.87 100.49 156.327C100.418 159.11 102.001 160.852 103.788 162.289C105.054 163.305 106.228 164.4 107.442 165.462C112.013 169.472 116.649 173.403 121.411 177.492C124.247 173.851 127.875 171.675 130.75 168.694C133.619 165.719 137.333 163.628 139.628 160.205C138.54 155.977 139.397 151.743 139.067 147.568C140.221 146.849 141.25 146.401 142.405 146.012C148.941 143.796 151.434 140.979 150.939 135.934C150.385 130.248 149.402 124.609 148.571 118.95C148.532 118.68 148.202 118.456 148.769 119.175C146.87 117.387 146.824 119.696 145.821 118.983C145.142 117.09 147.424 117.15 147.859 115.54C147.641 110.713 146.685 105.627 145.353 100.542C142.754 100.786 140.34 101.875 137.735 100.734C137.953 96.308 141.639 96.9147 144.898 96.1035C142.879 92.687 143.031 88.5912 139.707 85.8541C128.303 89.7718 116.24 91.0513 105.206 96.7301L105.213 96.7103ZM140.743 172.572V162.045C138.678 164.004 136.521 166.049 134.351 168.107C136.014 170.158 138.276 171.028 140.743 172.572ZM112.659 91.4273C113.925 90.5897 115.548 90.3588 115.29 88.1559C114.321 88.268 113.391 88.0042 112.923 86.9951C111.663 87.6349 110.548 88.2153 110.021 89.7125C111.188 89.9037 112.197 90.2599 112.659 91.4273ZM99.3162 109.908C100.629 108.727 100.174 107.685 99.6987 105.707C98.8809 107.639 98.5049 108.655 99.3162 109.908ZM97.7464 106.689C95.7612 107.843 95.1412 108.556 96.3482 110.159C96.8033 109.037 97.1133 108.259 97.7464 106.689ZM119.294 88.4857C118.219 87.8723 117.876 88.7429 117.454 89.3827C117.394 89.4684 117.566 89.7059 117.711 90.062C118.516 89.8378 119.182 89.5542 119.301 88.4857H119.294Z" fill="#252525"/>
<path d="M99.4944 252.278C97.2322 252.06 96.698 253.3 96.7309 255.299C96.7969 259.362 96.9486 263.444 96.6518 267.487C96.1571 274.353 94.594 280.929 90.2608 286.555C88.3415 289.048 86.3496 291.192 82.8144 291.271C81.126 291.31 79.7607 292.392 79.4903 294.324C72.7827 292.61 72.9542 292.596 72.321 285.368C71.3449 274.267 72.6969 263.22 72.6771 252.146C72.6771 250.51 72.6771 248.868 72.6771 246.547C70.1709 249.567 70.006 252.832 69.3003 255.754C67.4997 263.213 64.3866 269.862 60.0468 276.273C51.776 288.501 29.8196 289.173 20.9157 275.31C15.7448 267.256 13.9112 258.201 11.8666 249.211C10.1782 241.778 9.10312 234.18 8.21932 226.602C7.70487 222.216 6.51109 217.757 7.78402 213.279C9.40651 213.78 9.96713 212.764 10.3563 211.492C16.3252 209.724 22.2875 207.956 28.2565 206.195C28.7313 206.98 29.2062 207.765 29.8196 208.787C30.3208 208.22 30.6968 207.785 31.0793 207.356C33.4273 208.939 32.5303 211.63 32.7282 213.635C33.7109 223.509 35.0498 233.27 38.1035 242.761C38.8356 245.036 40.3262 246.349 41.9685 247.641C44.6397 247.417 45.286 245.623 45.3982 243.546C45.8796 234.563 46.3149 225.579 46.7436 216.59C47.1394 208.266 48.9993 200.167 50.3975 191.995C51.1165 187.794 51.8617 183.619 53.016 179.49C56.4258 167.255 65.4815 162.968 76.9576 161.115C84.1071 159.961 91.3358 160.508 98.426 159.235C98.9404 163.799 99.4483 168.357 99.9693 172.914C100.101 174.075 99.9429 175.381 101.368 175.948C101.15 176.542 100.767 177.129 100.748 177.729C100.372 189.443 99.8572 201.156 99.7385 212.877C99.6 226.008 100.827 239.146 99.4878 252.278H99.4944ZM95.3195 212.56C93.42 202.904 88.3547 194.501 84.3512 186.033C85.6043 182.616 89.4759 181.165 89.6078 177.347C86.653 175.592 83.8961 173.957 81.2843 172.407C83.1904 168.067 87.207 165.626 88.8031 161.491C85.8418 163.668 83.5201 166.372 81.2711 169.181C78.6131 172.506 79.576 174.478 83.1244 176.232C87.5962 178.441 87.794 179.193 84.3182 183.019C82.1417 185.419 82.1945 187.345 83.6059 190.01C85.9341 194.403 87.5698 199.184 90.142 203.412C91.9624 206.406 92.3054 210.133 95.3063 212.56H95.3195ZM72.8948 203.748V237.662C74.8471 226.358 73.9039 215.066 72.8948 203.748ZM72.2748 199.738C74.1875 198.597 74.1743 197.542 73.2444 196.177C71.2789 196.902 71.9121 198.136 72.2748 199.738ZM13.0143 218.226C11.5413 218.595 10.8685 219.406 10.996 220.659C12.4866 220.692 13.067 219.967 13.0143 218.226ZM46.4271 249.205C45.1409 251.111 44.6265 252.516 44.7914 254.481C46.836 253.221 46.9613 251.652 46.4271 249.205ZM13.654 227.248C11.6556 227.11 11.1741 227.921 11.4907 229.741C13.3638 229.721 13.7925 228.864 13.654 227.248ZM42.5027 253.3C43.6833 252.72 44.5473 251.849 44.9497 250.161C43.2546 250.82 42.9842 252.133 42.5027 253.3Z" fill="#EE6A36"/>
<path d="M141.112 175.144C143.645 170.072 142.233 164.697 142.312 159.434C142.319 158.906 142.279 158.372 142.26 157.844C151.328 157.871 160.364 157.943 169.413 158.919C180.164 160.08 185.849 166.168 189.318 175.896C194.258 189.753 197.761 204 201.85 218.088C203.156 222.586 204.587 227.051 206.13 232.09C211.631 230.045 214.975 225.323 219.328 222.012C224.598 218.648 229.228 214.506 233.726 210.206C235.533 209.751 236.496 207.119 238.903 208.207C238.771 208.715 238.64 209.223 238.547 209.579C239.055 210.437 239.583 210.081 240.084 209.968C243.092 212.613 245.71 215.601 248.302 218.655C250.056 220.719 250.696 223.911 253.862 224.676C253.644 225.118 253.433 225.567 253.163 226.127C253.704 226.543 254.172 226.906 254.64 227.268C249.06 235.117 240.783 239.971 233.515 245.881C225.066 252.747 216.4 259.553 205.794 262.977C198.539 265.318 191.185 266.156 184.589 261.196C179.577 257.43 176.873 251.916 174.69 246.198C170.713 235.783 170.673 224.729 169.519 213.853C169.308 211.855 168.853 209.876 168.015 207.944C168.233 212.488 168.47 217.039 168.668 221.583C169.525 241.422 168.602 261.301 170.165 281.121C170.33 283.231 169.585 284.537 167.289 284.577C165.212 284.61 163.134 284.636 161.057 284.663C159.25 281.84 156.031 280.672 153.749 278.337C148.862 273.331 146.989 267.053 145.867 260.556C145.313 257.344 144.673 254.152 144.054 250.953C143.598 244.437 142.919 237.92 142.728 231.391C142.187 212.64 139.826 193.941 141.119 175.144H141.112ZM156.46 182.637C154.125 193.295 149.383 203.221 146.613 214.058C147.193 213.761 147.483 213.708 147.536 213.57C151.038 204 154.56 194.436 157.99 184.84C158.907 182.274 158.267 180.21 155.635 178.805C153.868 177.862 152.344 176.463 150.636 175.217C158.458 168.634 158.287 165.759 149.198 158.022C149.29 163.338 153.782 165.594 154.831 169.413C150.209 174.417 150.752 178.825 156.46 182.637ZM167.402 187.728C166.887 189.364 166.412 190.373 167.56 191.488C168.12 190.255 168.107 189.298 167.402 187.728ZM203.327 236.436C204.745 236.153 206.031 235.698 205.721 233.62C204.712 234.801 204.02 235.618 203.327 236.436ZM207.054 237.933C207.905 236.766 208.782 235.981 207.713 234.398C206.942 235.447 206.111 236.245 207.054 237.933ZM242.847 234.794C241.364 234.378 240.513 234.51 240.869 236.35C242.28 236.588 242.768 236.034 242.847 234.794ZM246.976 230.322C247.781 229.913 248.124 229.537 247.379 228.957C246.699 229.161 246.548 229.551 246.976 230.322Z" fill="#EE6A36"/>
<path d="M410.109 218.582C412.391 223.258 415.781 227.255 416.942 232.657C420.181 247.734 410.729 262.343 395.592 264.81C393.37 265.173 391.127 265.43 388.773 265.746C387.678 267.428 387.625 269.44 387.83 271.603C390.277 273.133 394.577 272.546 394.517 277.48C400.796 277.48 407.049 277.48 413.301 277.48C419.554 277.48 425.576 277.48 432.118 277.48C431.366 282.558 434.117 286.773 431.716 290.987C428.827 291.739 425.78 290.631 423.069 291.733C420.728 332.46 421.361 373.108 419.719 413.275C416.382 416.322 413.071 414.646 409.977 414.363C408.401 414.218 408.197 412.509 408.216 410.946C408.295 405.571 408.249 400.196 408.249 394.583C354.014 395.341 300.162 390.302 246.04 391.885C246.04 396.357 246.092 401.145 246.026 405.921C245.921 413.38 245.789 413.479 237.795 414.482C236.621 411.032 236.014 407.53 235.975 403.803C235.724 379.842 234.689 355.907 233.35 331.992C232.664 319.757 231.998 307.542 232.143 295.123H223.503C223.503 292.056 223.232 288.996 223.602 286.008C223.839 284.075 225.039 282.591 227.592 282.512C233.501 282.321 239.404 281.8 245.486 281.398C245.921 280.263 246.66 279.261 247.893 278.832C247.913 276.814 247.161 275.178 246.356 273.476H243.098C242.214 272.441 242.841 271.353 242.531 270.033C246.963 269.315 251.164 268.629 255.484 267.923C252.272 265.179 249.133 262.317 251.263 257.436C251.474 256.948 251.705 256.077 252.582 256.816C251.111 261.934 253.07 264.896 258.34 266.419C263.96 268.042 269.579 266.96 275.04 266.34C286.595 265.034 298.052 265.37 309.798 266.413C309.534 265.819 310.794 265.45 309.996 264.52C306.863 264.52 303.678 264.289 300.532 264.572C295.117 265.054 289.649 265.377 284.267 265.779C278.496 266.208 272.514 266.221 266.624 266.129C263.326 266.076 259.844 266.828 257.008 264.289C257.186 264.084 257.371 263.886 257.549 263.682C258.921 264.309 260.279 264.744 261.856 264.849C268.319 265.278 274.723 264.513 281.147 264.163C289.999 263.682 298.85 263.26 307.951 262.798C307.582 260.068 307.707 257.548 308.327 254.758C291.839 255.622 275.568 256.48 259.296 257.331L259.244 256.335C276.214 255.358 293.191 254.389 310.161 253.413C309.732 253.076 309.31 252.978 308.888 252.978C293.863 252.997 278.905 254.343 263.913 255.095C260.088 255.286 256.296 256.282 252.49 256.902C251.982 255.649 252.404 255.114 253.75 254.857C264.19 252.852 274.789 252.674 285.349 252.061C292.986 251.619 300.637 251.441 308.281 251.151C309.462 251.104 310.682 250.775 311.942 251.744C312.093 254.732 307.945 255.748 308.499 259.217C308.934 261.928 313.023 263.576 310.59 266.907C314.224 270.456 315.932 272.144 311.249 278.654H320.536C320.008 272.672 319.474 266.92 318.992 261.169C318.742 258.122 318.452 255.062 318.425 252.008C318.412 250.128 320.034 249.667 321.855 249.383V238.487C323.161 237.386 324.308 237.696 325.786 238.012V249.277H329.037V232.446C330.62 229.999 332.322 230.737 332.922 230.968C338.146 236.33 336.919 241.752 335.666 248.486C333.377 243.777 336.114 239.958 334.624 236.113C333.601 240.789 335.85 245.129 334.202 249.495H337.209C339.405 244.522 337.486 238.764 340.395 233.956C341.443 233.738 342.11 234.438 343.178 235.058C341.47 248.948 342.697 262.97 341.806 277.183H377.719C379.348 273.991 382.646 272.837 385.858 271.346C385.97 269.46 386.082 267.639 386.194 265.826C384.11 264.942 380.034 266.373 381.656 261.756C397.017 264.038 410.96 260.582 414.818 243.163C417.265 232.123 407.741 217.078 395.81 213.444C395.705 215.522 395.461 217.553 394.155 219.261C393.799 219.275 393.442 219.288 393.086 219.301C393.423 217.382 393.759 215.456 394.089 213.536C392.763 213.029 390.771 214.13 390.362 211.874C391.088 210.568 392.268 210.634 393.489 210.595C397.894 210.45 401.819 211.921 405.558 214.057C405.558 214.057 405.486 214.005 405.486 213.998C405.75 214.664 406.033 215.304 406.91 214.677L406.831 214.611C406.811 214.869 406.792 215.126 406.772 215.383C407.036 215.377 407.306 215.363 407.57 215.357L407.484 215.278C407.075 216.181 407.372 216.379 408.223 216.023L408.137 215.944C408.131 216.208 408.117 216.471 408.111 216.735C408.368 216.722 408.625 216.702 408.876 216.689L408.797 216.61C408.784 216.874 408.77 217.144 408.751 217.408C409.014 217.388 409.272 217.368 409.535 217.355L409.469 217.276C408.83 218.166 409.483 218.437 410.149 218.701L410.076 218.602L410.109 218.582ZM417.391 391.622C417.661 358.004 417.496 324.776 420.068 291.799C358.895 290.724 297.405 293.17 235.401 294.371C237.089 326.135 238.349 357.259 238.903 388.522C243.309 388.825 247.444 389.359 251.58 389.359C285.395 389.379 319.177 390.151 352.959 391.932C368.63 392.756 384.38 392.169 400.091 392.116C403.276 392.103 406.785 393.099 409.298 389.735C411.448 393.125 414.39 391.41 417.391 391.622ZM226.451 292.392C294.431 290.051 362.035 288.336 429.678 288.653C430.001 285.797 430.272 283.376 430.568 280.731C362.516 278.027 294.714 281.985 226.866 284.537C225.963 287.406 226.167 289.998 226.451 292.392ZM319.837 251.777C320.555 260.674 322.561 269.209 322.607 277.711H340.164V251.777H319.837ZM250.373 279.861C270.139 278.977 289.491 279.148 308.407 274.215C288.587 268.47 268.636 271.511 248.44 272.823C249.12 275.297 249.726 277.526 250.373 279.867V279.861ZM243.883 272.025C248.018 271.775 251.514 271.801 254.924 271.306C270.278 269.064 285.692 269.09 301.119 270.086C304.232 270.284 307.707 270.35 310.055 274.255C301.917 280.547 291.872 277.572 282.922 279.795C290.032 280.191 297.049 279.419 304.067 279.425C306.896 279.425 309 278.113 310.761 276.596C313.287 274.419 313.023 271.161 310.181 269.605C307.965 268.391 305.564 267.62 303.051 267.554C286.226 267.098 269.473 268.266 252.807 270.357C250.043 270.706 246.91 269.77 243.889 272.025H243.883ZM417.021 411.362V394.332H410.571C411.672 400.004 411.679 405.492 411.474 411.085C413.381 411.177 414.97 411.256 417.021 411.362ZM243.342 410.359V391.681C241.739 391.377 240.433 391.127 239.596 390.969V411.434C241.363 410.927 242.366 410.643 243.342 410.359ZM341.595 239.457C341.298 239.411 341.002 239.371 340.698 239.325C340.368 241.706 340.039 244.087 339.709 246.468C339.986 246.507 340.269 246.553 340.546 246.593C340.896 244.212 341.246 241.838 341.595 239.457ZM253.011 281.081C253.011 281.015 253.011 280.942 253.011 280.876H247.919C247.919 280.942 247.919 281.015 247.919 281.081H253.011Z" fill="#252525"/>
<path d="M393.1 219.301C393.457 219.288 393.813 219.274 394.169 219.261C396.662 221.266 399.933 221.398 402.769 222.552C412.161 226.378 414.18 240.426 411.337 248.572C410.684 250.445 410.361 252.648 408.164 253.597C408.092 252.984 408.019 252.364 407.947 251.737C406.812 251.645 406.041 251.823 405.869 252.971C406.436 254.059 407.492 253.149 408.204 253.551C405.408 257.588 400.81 258.689 396.629 260.068C391.227 261.842 385.186 261.538 380.134 259.758C376.209 258.373 372.008 255.378 369.983 250.867C370.88 251.17 371.771 251.48 372.661 251.784C374.178 250.339 374.363 248.42 373.327 247.233C371.038 244.614 371.876 242.207 373.169 239.312C374.837 238.87 376.711 238.349 378.597 237.874C381.743 237.076 382.772 234.721 383.141 231.832C383.517 228.858 381.796 227.347 379.322 226.503C377.891 226.015 376.75 225.349 376.117 223.944C377.317 222.81 378.689 221.972 380.292 221.53L380.43 221.596C384.401 219.459 388.747 219.36 393.1 219.294V219.301ZM400.487 241.58C405.638 238.843 407.512 242.768 409.668 246.25C411.086 243.374 408.831 241.402 409.873 239.391C412.729 233.89 409.292 230.282 405.995 226.701C404.959 225.573 403.706 225.309 401.899 225.58C397.908 226.186 394.525 228.6 390.317 228.746C388.055 228.825 386.591 231.206 388.589 233.626C391.663 237.353 394.268 241.204 394.169 246.309C394.149 247.444 394.987 248.117 395.996 248.354C397.256 248.657 398.047 247.866 398.647 246.863C399.663 245.168 400.435 243.388 400.481 241.574L400.487 241.58ZM383.781 223.726C387.679 224.036 391.247 224.228 395.277 223.654C394.063 220.284 391.55 220.725 389.446 220.587C387.145 220.429 384.849 220.534 383.781 223.733V223.726ZM376.928 251.981C375.807 252.034 375.451 252.615 375.774 253.624C375.82 253.769 376.091 253.841 376.275 253.96C377.278 253.564 377.443 252.905 376.922 251.981H376.928Z" fill="#EE6A36"/>
<path d="M31.0796 207.35C30.6971 207.785 30.3212 208.214 29.8199 208.781C29.2065 207.759 28.7316 206.974 28.2568 206.189C28.9295 205.925 28.7844 205.483 28.6789 204.89C27.5511 198.578 26.8783 192.246 27.2674 185.796C27.6104 180.104 28.58 174.59 31.2643 168.839C27.4983 170.362 27.0168 173.898 24.4776 176.285C23.9895 173.39 26.5222 171.517 25.7307 169.024C23.1782 170.567 22.5187 173.634 20.1509 175.316C17.6644 172.842 21.9976 170.244 19.709 167.784C17.051 169.611 17.7897 174.049 14.2018 175.151C13.008 173.502 14.6437 171.299 12.8497 169.459C10.7853 176.971 10.5149 184.279 10.2511 191.6C10.0136 198.235 9.73001 204.864 10.3632 211.492C9.97405 212.765 9.40683 213.781 7.79094 213.279C6.89395 204.29 7.4084 195.287 7.93604 186.324C8.31858 179.88 9.24854 173.39 12.2759 167.394C14.0501 167.144 15.8506 166.267 16.1342 169.235C18.1327 168.16 17.8557 163.998 21.5623 165.772C21.6745 166.86 21.7866 167.975 22.0372 170.395C24.7414 164.704 28.7251 167.981 33.0847 166.887C28.1315 180.579 27.7555 193.928 31.0928 207.363L31.0796 207.35Z" fill="#252525"/>
<path d="M376.124 223.951C376.757 225.356 377.898 226.022 379.329 226.51C381.796 227.354 383.524 228.864 383.148 231.839C382.778 234.728 381.749 237.089 378.603 237.88C376.717 238.355 374.844 238.876 373.175 239.318C371.883 242.214 371.045 244.621 373.334 247.239C374.362 248.42 374.184 250.346 372.667 251.79C371.777 251.487 370.887 251.177 369.99 250.874L370.009 250.933C369.944 250.095 369.502 249.535 368.743 249.205C361.185 239.509 368.967 225.943 376.124 223.951Z" fill="#252525"/>
<path d="M395.996 218.351C396.457 217.144 396.794 216.254 397.203 215.172C400.513 215.937 402.756 217.995 405.051 220.29C401.483 222.084 399.142 219.321 395.996 218.351Z" fill="#252525"/>
<path d="M86.4613 114.182C88.8423 115.752 88.9148 118.845 86.857 121.14C85.7226 118.898 86.4481 116.728 86.4613 114.182Z" fill="#252525"/>
<path d="M88.3672 102.91C89.5675 106.815 88.5716 109.255 87.8131 112.889C86.3753 109.024 87.8395 106.63 88.3672 102.91Z" fill="#252525"/>
<path d="M35.4461 170.857C36.4618 168.245 36.2903 165.957 35.4329 163.055C38.2755 165.403 38.1436 168.799 35.4461 170.857Z" fill="#252525"/>
<path d="M5.04729 180.078C4.23604 182.327 5.34409 185.117 3.00269 186.924C3.11481 184.483 2.87078 181.957 5.04729 180.078Z" fill="#252525"/>
<path d="M103.537 83.2822C101.822 84.3309 100.721 86.5997 97.9509 85.7951C99.3558 83.5856 101.104 82.6622 103.537 83.2822Z" fill="#252525"/>
<path d="M86.5939 128.712C84.0942 126.476 84.8658 124.748 86.4488 122.67C87.847 124.682 87.4711 126.417 86.5939 128.712Z" fill="#252525"/>
<path d="M110.443 78.1772C111.228 82.0686 108.24 80.9869 107.297 83.0513C106.295 79.1534 109.223 79.9844 110.443 78.1772Z" fill="#252525"/>
<path d="M2.70557 190.479C3.56958 192.431 3.85319 194.383 2.55388 197.021C1.48541 194.258 2.14496 192.385 2.70557 190.479Z" fill="#252525"/>
<path d="M1.53101 199.924C1.36612 201.15 1.20783 202.377 0.950603 204.323C-0.454239 202.219 -0.33552 200.959 1.53101 199.924Z" fill="#252525"/>
<path d="M33.0114 185.822C32.919 184.18 32.6025 182.913 33.8028 181.179C34.3437 183.052 34.6932 184.279 33.0114 185.822Z" fill="#252525"/>
<path d="M108.062 75.9873C106.697 77.6955 105.76 78.4474 104.145 77.9857C105.022 76.8513 106.044 76.2973 108.062 75.9873Z" fill="#252525"/>
<path d="M81.1456 118.489C80.9345 116.939 81.2775 115.982 82.1283 115.125C82.6757 116.457 82.4647 117.526 81.1456 118.489Z" fill="#252525"/>
<path d="M368.736 249.205C369.495 249.535 369.936 250.095 370.002 250.933C369.211 250.629 368.927 249.95 368.736 249.205Z" fill="#EE6A36"/>
<path d="M253.855 224.67C250.69 223.905 250.043 220.712 248.295 218.648C245.703 215.594 243.085 212.606 240.077 209.962C247.913 197.371 270.687 179.675 277.006 186.501C274.545 188.698 270.878 189.496 268.92 193.328C272.56 192.437 275.297 189.885 279.162 191.402C276.788 194.093 272.949 194.805 270.733 197.833C273.596 198.987 276.109 195.188 278.628 197.628C276.748 201.249 269.704 200.148 271.188 207.06C262.687 210.133 259.534 218.582 253.862 224.676L253.855 224.67Z" fill="#FEFEFE"/>
<path d="M321.446 88.3012C324.091 83.5524 326.729 78.8036 329.592 73.6525C330.185 73.3228 331.221 73.4679 332.19 73.7845C333.813 75.3014 332.652 76.6469 332.065 77.9858C324.17 95.853 313.38 112.243 305.261 129.972C297.32 147.318 287.671 163.642 277.362 179.84C279.13 181.245 280.271 182.848 279.321 185.196C277.975 183.369 276.3 182.135 273.108 182.386C295.671 148.01 310.61 110.238 331.003 75.3344C327.25 79.3642 325.331 84.5879 321.855 88.7562C321.723 88.6045 321.591 88.4528 321.453 88.3012H321.446Z" fill="#FEFEFE"/>
<path d="M238.903 208.201C236.502 207.106 235.533 209.744 233.726 210.199C234.741 206.209 238.105 203.947 240.981 201.81C246.145 197.965 250.412 193.203 255.313 189.114C260.068 185.143 265.186 182.116 271.063 179.939C277.711 165.68 286.041 152.159 293.758 138.295C299.714 127.597 305.082 116.57 311.46 106.103C311.612 106.254 311.77 106.406 311.935 106.544C305.524 119.412 299.344 132.405 292.637 145.115C286.457 156.835 279.624 168.212 273.279 179.847C272.197 181.825 270.99 183.026 268.906 183.652C259.184 186.594 252.087 193.19 245.597 200.596C243.368 203.136 241.132 205.668 238.896 208.201H238.903Z" fill="#FEFEFE"/>
<path d="M393.1 219.301C388.747 219.367 384.408 219.466 380.43 221.603C380.998 218.78 383.603 219.413 385.397 218.635C387.791 217.599 391.379 218.853 392.434 215.021C391.432 214.513 390.495 214.038 389.479 213.53C388.622 210.964 389.4 209.381 392.19 209.52C397.044 209.757 402.077 209.711 405.566 214.051C401.826 211.914 397.902 210.443 393.496 210.588C392.276 210.628 391.095 210.562 390.37 211.868C390.779 214.13 392.771 213.022 394.096 213.53C393.76 215.449 393.424 217.375 393.094 219.294L393.1 219.301Z" fill="#FEFEFE"/>
<path d="M321.849 88.7561C318.545 94.6855 315.24 100.615 311.936 106.544C311.771 106.399 311.613 106.254 311.461 106.102C314.468 99.9948 317.608 93.9534 321.447 88.3076C321.585 88.4593 321.717 88.6044 321.849 88.7627V88.7561Z" fill="#FEFEFE"/>
<path d="M406.93 214.684C406.047 215.311 405.77 214.671 405.506 214.005C406.449 213.246 406.535 214.295 406.93 214.684Z" fill="#FEFEFE"/>
<path d="M410.181 218.681C409.515 218.417 408.862 218.147 409.502 217.256C410.122 217.54 410.867 217.771 410.181 218.681Z" fill="#FEFEFE"/>
<path d="M407.59 215.357C407.326 215.363 407.056 215.376 406.792 215.383C406.812 215.126 406.831 214.869 406.851 214.611C407.095 214.862 407.346 215.106 407.59 215.357Z" fill="#FEFEFE"/>
<path d="M408.249 216.017C407.392 216.379 407.095 216.181 407.511 215.271C407.755 215.522 408.005 215.766 408.249 216.017Z" fill="#FEFEFE"/>
<path d="M408.909 216.676C408.652 216.689 408.395 216.709 408.144 216.722C408.151 216.458 408.164 216.194 408.171 215.931L408.916 216.669L408.909 216.676Z" fill="#FEFEFE"/>
<path d="M409.562 217.335C409.298 217.355 409.041 217.375 408.777 217.388C408.79 217.124 408.803 216.854 408.823 216.59C409.067 216.834 409.318 217.085 409.562 217.329V217.335Z" fill="#FEFEFE"/>
<path d="M105.206 96.7105C116.241 91.0383 128.304 89.7522 139.707 85.8345C143.031 88.5716 142.88 92.6674 144.898 96.0839C141.64 96.8951 137.953 96.2883 137.735 100.714C140.341 101.855 142.754 100.767 145.353 100.523C146.685 105.608 147.635 110.693 147.859 115.521C147.424 117.13 145.142 117.071 145.821 118.964C146.824 119.676 146.87 117.368 148.77 119.155C148.202 118.443 148.532 118.667 148.572 118.931C149.396 124.59 150.379 130.229 150.939 135.914C151.434 140.966 148.941 143.776 142.405 145.992C141.251 146.381 140.222 146.83 139.068 147.549C139.397 151.724 138.54 155.958 139.628 160.186C137.333 163.615 133.62 165.699 130.751 168.674C127.875 171.655 124.247 173.825 121.411 177.472C116.649 173.383 112.013 169.446 107.442 165.442C106.229 164.38 105.055 163.285 103.788 162.27C102.001 160.832 100.418 159.097 100.491 156.307C100.662 149.85 100.543 143.387 100.543 136.791C95.8011 135.901 92.6748 133.909 93.7301 129.075C94.3171 126.357 96.6519 125.889 99.3561 126.469C100.016 128 100.721 129.635 101.407 131.225C106.855 132.155 107.561 130.803 106.928 124.28C106.044 115.178 105.76 106.023 105.213 96.6907L105.206 96.7105ZM140.393 114.327C143.909 114.195 144.568 110.911 146.27 108.84C146.765 108.246 146.151 107.257 145.498 106.538C144.45 105.384 143.256 104.717 141.752 105.219C139.582 105.944 138.131 107.415 137.617 110.126C139.226 110.983 139.556 112.85 140.453 114.393H136.436C134.893 112.269 135.961 109.321 133.455 107.718C133.118 110.548 133.758 113.76 135.15 116.49C136.482 116.622 137.96 115.943 139.14 116.879C139.965 117.829 139.721 118.812 139.595 119.775C138.863 121.292 135.889 120.283 135.875 122.928C141.257 121.615 142.253 119.636 140.38 114.32L140.393 114.327ZM127.037 117.526C126.793 117.506 126.543 117.486 126.279 117.46C126.424 117.044 126.536 116.715 126.648 116.378L126.582 116.438C128.706 114.822 127.75 113.14 126.8 111.478C123.205 109.901 120.059 110.449 117.54 113.278C115.944 115.066 115.964 117.519 118.094 118.489C121.088 119.847 124.393 119.036 127.479 117.961C127.875 117.645 128.225 117.321 127.519 116.866C127.354 117.091 127.196 117.308 127.031 117.526H127.037ZM144.436 136.844C146.098 135.011 146.422 128.435 144.938 126.865C144.232 126.12 143.434 126.219 142.55 126.443C139.252 127.3 135.928 128.065 132.644 128.976C131.094 129.404 129.563 130.07 129.253 131.944C128.851 134.377 132.136 139.687 134.563 140.604C137.913 141.876 142.695 140.043 144.502 136.785L144.43 136.837L144.436 136.844ZM127.651 103.985C122.737 101.657 114.341 104.691 112.132 109.598C115.785 111.537 124.736 108.305 127.651 103.985Z" fill="#FEFEFE"/>
<path d="M99.4941 252.279C100.826 239.154 99.6063 226.009 99.7448 212.877C99.8635 201.157 100.378 189.443 100.754 177.73C100.774 177.129 101.156 176.542 101.374 175.949C104.777 174.267 107.93 170.508 111.966 172.407C115.383 174.016 118.074 177.162 121.279 179.794C121.141 203.426 121.681 227.334 120.263 251.494C116.082 251.725 111.854 251.949 107.633 252.193C104.922 252.351 102.225 253.914 99.4941 252.285V252.279Z" fill="#FDFFAA"/>
<path d="M141.112 175.144C139.819 193.948 142.18 212.646 142.721 231.391C142.912 237.92 143.591 244.43 144.047 250.953C136.627 250.953 129.2 250.953 121.219 250.953C122.644 227.44 122.248 203.373 122.361 180.295C125.843 176.509 128.93 173.152 132.069 169.736C135.116 171.563 138.117 173.35 141.112 175.144Z" fill="#FDFFAA"/>
<path d="M101.599 163.061C104.072 165.158 105.991 167.856 109.249 169.584C106.631 171.688 104.158 172.954 100.847 174.069C100.847 171.622 100.847 169.525 100.847 167.427C100.814 166.689 100.781 165.95 100.741 165.211C100.754 164.842 100.768 164.472 100.774 164.103C101.045 163.754 101.322 163.411 101.592 163.068L101.599 163.061Z" fill="#F0F0F0"/>
<path d="M140.736 172.579C138.269 171.035 136.013 170.165 134.345 168.114C136.515 166.056 138.671 164.011 140.736 162.052V172.579Z" fill="#F0F0F0"/>
<path d="M112.653 91.4341C112.191 90.2601 111.176 89.9106 110.015 89.7193C110.543 88.2221 111.657 87.6351 112.917 87.002C113.385 88.0177 114.322 88.2815 115.285 88.1628C115.549 90.3657 113.919 90.5965 112.653 91.4341Z" fill="#FEFEFE"/>
<path d="M99.31 109.915C98.5053 108.662 98.8813 107.646 99.6925 105.713C100.161 107.685 100.622 108.728 99.31 109.915Z" fill="#FEFEFE"/>
<path d="M97.7399 106.696C97.1067 108.266 96.7901 109.044 96.3417 110.166C95.1413 108.563 95.7547 107.857 97.7399 106.696Z" fill="#FEFEFE"/>
<path d="M119.287 88.4922C119.169 89.5607 118.502 89.8443 117.698 90.0685C117.553 89.7124 117.381 89.475 117.441 89.3892C117.863 88.756 118.206 87.8788 119.281 88.4922H119.287Z" fill="#FEFEFE"/>
<path d="M101.598 163.061C101.328 163.404 101.051 163.754 100.781 164.097C100.194 163.714 99.9298 163.2 100.167 162.448C100.873 162.072 101.236 162.567 101.598 163.055V163.061Z" fill="#EE6A36"/>
<path d="M100.748 165.211C100.781 165.95 100.814 166.689 100.853 167.428C100.233 166.715 100.279 165.97 100.748 165.211Z" fill="#EE6A36"/>
<path d="M10.3561 211.492C9.72289 204.863 10.0065 198.235 10.2439 191.6C10.5078 184.279 10.7782 176.971 12.8426 169.458C14.6365 171.299 13.0074 173.502 14.1946 175.15C17.7826 174.049 17.0439 169.61 19.7019 167.783C21.9905 170.243 17.6639 172.842 20.1438 175.315C22.5116 173.633 23.1711 170.566 25.7236 169.023C26.515 171.516 23.9824 173.389 24.4704 176.285C27.0097 173.897 27.4912 170.369 31.2572 168.838C28.5728 174.59 27.6033 180.104 27.2603 185.796C26.8712 192.246 27.5439 198.571 28.6718 204.889C28.7773 205.483 28.929 205.925 28.2497 206.189C22.2807 207.956 16.3184 209.724 10.3495 211.485L10.3561 211.492Z" fill="#FEFEFE"/>
<path d="M95.3197 212.561C92.3187 210.14 91.9691 206.414 90.1554 203.413C87.5897 199.185 85.9475 194.403 83.6192 190.011C82.2078 187.346 82.155 185.42 84.3316 183.019C87.8074 179.194 87.6095 178.442 83.1378 176.233C79.5894 174.478 78.6264 172.506 81.2844 169.182C83.5335 166.366 85.8551 163.662 88.8165 161.492C87.2204 165.627 83.2037 168.067 81.2976 172.407C83.9094 173.957 86.6664 175.593 89.6212 177.347C89.4892 181.166 85.6177 182.624 84.3645 186.034C88.368 194.502 93.4333 202.905 95.3328 212.561H95.3197Z" fill="#FEFEFE"/>
<path d="M72.8943 203.749C73.9034 215.066 74.8466 226.351 72.8943 237.663V203.749Z" fill="#FEFEFE"/>
<path d="M72.2753 199.739C71.9125 198.143 71.2859 196.903 73.2448 196.177C74.1682 197.543 74.188 198.591 72.2753 199.739Z" fill="#FEFEFE"/>
<path d="M13.0076 218.232C13.0603 219.974 12.4799 220.699 10.9894 220.666C10.8618 219.409 11.5346 218.597 13.0076 218.232Z" fill="#FEFEFE"/>
<path d="M46.4207 249.211C46.9483 251.652 46.8296 253.228 44.785 254.488C44.6201 252.529 45.1345 251.124 46.4207 249.211Z" fill="#FEFEFE"/>
<path d="M13.6481 227.255C13.7866 228.877 13.3579 229.728 11.4847 229.748C11.1681 227.921 11.6496 227.11 13.6481 227.255Z" fill="#FEFEFE"/>
<path d="M42.5024 253.307C42.9839 252.14 43.2477 250.828 44.9494 250.168C44.547 251.856 43.683 252.727 42.5024 253.307Z" fill="#FEFEFE"/>
<path d="M156.459 182.636C150.752 178.824 150.209 174.416 154.83 169.412C153.781 165.594 149.29 163.338 149.198 158.022C158.286 165.758 158.458 168.634 150.635 175.216C152.344 176.463 153.867 177.861 155.635 178.804C158.273 180.209 158.906 182.274 157.989 184.839C154.566 194.436 151.044 203.999 147.535 213.569C147.483 213.708 147.192 213.761 146.612 214.057C149.382 203.221 154.124 193.295 156.459 182.636Z" fill="#FEFEFE"/>
<path d="M167.402 187.728C168.107 189.298 168.121 190.254 167.56 191.487C166.412 190.373 166.887 189.364 167.402 187.728Z" fill="#FEFEFE"/>
<path d="M203.327 236.436C204.019 235.618 204.719 234.807 205.721 233.62C206.031 235.697 204.738 236.152 203.327 236.436Z" fill="#FEFEFE"/>
<path d="M207.061 237.933C206.117 236.245 206.949 235.447 207.72 234.398C208.789 235.981 207.911 236.766 207.061 237.933Z" fill="#FEFEFE"/>
<path d="M242.855 234.794C242.775 236.034 242.287 236.588 240.876 236.35C240.52 234.51 241.371 234.378 242.855 234.794Z" fill="#FEFEFE"/>
<path d="M246.983 230.322C246.554 229.55 246.706 229.161 247.385 228.957C248.131 229.544 247.788 229.913 246.983 230.322Z" fill="#FEFEFE"/>
<path d="M417.385 391.622C414.384 391.41 411.442 393.125 409.292 389.735C406.779 393.099 403.264 392.103 400.085 392.116C384.374 392.169 368.624 392.756 352.953 391.932C319.171 390.157 285.389 389.386 251.574 389.359C247.438 389.359 243.303 388.825 238.897 388.522C238.343 357.266 237.083 326.135 235.395 294.371C297.399 293.171 358.883 290.724 420.062 291.799C417.49 324.776 417.655 358.004 417.385 391.622Z" fill="#FEFEFE"/>
<path d="M226.445 292.392C226.161 289.998 225.957 287.406 226.86 284.537C294.708 281.991 362.51 278.034 430.562 280.731C430.265 283.376 429.988 285.797 429.672 288.653C362.028 288.336 294.424 290.051 226.445 292.392Z" fill="#FEFEFE"/>
<path d="M257.014 264.289C259.85 266.828 263.333 266.083 266.63 266.129C272.52 266.215 278.502 266.208 284.273 265.779C289.655 265.377 295.123 265.054 300.538 264.572C303.684 264.295 306.869 264.52 310.002 264.52C310.807 265.45 309.541 265.819 309.804 266.413C298.058 265.37 286.601 265.041 275.046 266.34C269.585 266.96 263.966 268.035 258.346 266.419C253.077 264.902 251.118 261.941 252.588 256.816L252.503 256.902C256.308 256.275 260.101 255.286 263.926 255.095C278.918 254.343 293.876 252.997 308.901 252.978C309.323 252.978 309.752 253.076 310.174 253.413C293.204 254.389 276.227 255.359 259.257 256.335L259.309 257.331C275.58 256.48 291.852 255.622 308.34 254.758C307.72 257.548 307.595 260.068 307.964 262.798C298.863 263.26 290.011 263.682 281.16 264.164C274.736 264.513 268.332 265.278 261.868 264.849C260.292 264.744 258.933 264.315 257.562 263.682C255.682 262.165 256.744 260.186 257.001 257.977C254.501 261.571 254.541 262.37 257.021 264.289H257.014ZM298.427 259.705C300.478 259.586 302.53 259.468 304.581 259.349C302.411 257.891 300.432 258.92 298.427 259.705ZM297.807 257.073C297.807 257.166 297.814 257.258 297.82 257.35H304.244C304.244 257.258 304.244 257.166 304.238 257.073H297.814H297.807ZM304.568 261.506C304.508 261.215 304.449 260.925 304.39 260.635C302.582 260.74 300.769 260.846 298.961 260.951C298.988 261.136 299.008 261.321 299.034 261.506H304.568Z" fill="#FEFEFE"/>
<path d="M319.83 251.777H340.158V277.711H322.6C322.554 269.209 320.549 260.681 319.83 251.777Z" fill="#FDFFAA"/>
<path d="M250.366 279.861C249.727 277.526 249.113 275.29 248.434 272.817C268.629 271.504 288.581 268.464 308.4 274.209C289.478 279.142 270.133 278.977 250.366 279.854V279.861ZM252.596 276.161C254.634 277.691 256.632 277.552 258.762 276.161H252.596ZM257.423 274.637C257.384 274.519 257.344 274.406 257.298 274.288H251.718C251.732 274.406 251.751 274.519 251.765 274.637H257.417H257.423ZM254.416 278.41C256.197 278.687 257.542 278.997 259.343 278.278C257.516 277.836 256.177 277.882 254.416 278.41Z" fill="#FEFEFE"/>
<path d="M243.876 272.025C246.897 269.769 250.03 270.699 252.794 270.356C269.46 268.266 286.213 267.098 303.038 267.553C305.551 267.619 307.952 268.391 310.168 269.605C313.01 271.161 313.274 274.419 310.748 276.596C308.987 278.113 306.883 279.425 304.054 279.425C297.036 279.419 290.025 280.184 282.909 279.795C291.859 277.572 301.904 280.546 310.043 274.254C307.695 270.35 304.219 270.29 301.106 270.086C285.679 269.09 270.272 269.064 254.911 271.306C251.494 271.807 248.005 271.774 243.87 272.025H243.876Z" fill="#FEFEFE"/>
<path d="M417.015 411.362C414.964 411.256 413.375 411.177 411.469 411.085C411.673 405.498 411.666 400.004 410.565 394.332H417.015V411.362Z" fill="#FEFEFE"/>
<path d="M243.329 410.359C242.347 410.643 241.344 410.926 239.583 411.434V390.969C240.421 391.127 241.727 391.377 243.329 391.681V410.359Z" fill="#FEFEFE"/>
<path d="M341.582 239.457C341.232 241.838 340.883 244.212 340.533 246.593C340.256 246.553 339.972 246.507 339.695 246.468C340.025 244.087 340.355 241.706 340.685 239.325C340.981 239.371 341.278 239.41 341.582 239.457Z" fill="#FEFEFE"/>
<path d="M252.997 281.081H247.906C247.906 281.015 247.906 280.942 247.906 280.876H252.997C252.997 280.942 252.997 281.015 252.997 281.081Z" fill="#FEFEFE"/>
<path d="M400.486 241.581C400.44 243.394 399.662 245.175 398.653 246.87C398.053 247.873 397.261 248.664 396.001 248.361C394.992 248.117 394.155 247.45 394.174 246.316C394.273 241.211 391.668 237.353 388.595 233.633C386.596 231.212 388.06 228.831 390.323 228.752C394.524 228.607 397.914 226.193 401.904 225.586C403.705 225.309 404.958 225.58 406 226.708C409.298 230.289 412.734 233.897 409.878 239.397C408.836 241.409 411.092 243.381 409.674 246.257C407.517 242.774 405.644 238.843 400.493 241.587L400.486 241.581Z" fill="#252525"/>
<path d="M383.781 223.727C384.849 220.528 387.145 220.422 389.447 220.581C391.55 220.726 394.063 220.277 395.277 223.647C391.247 224.221 387.679 224.037 383.781 223.72V223.727Z" fill="#252525"/>
<path d="M376.927 251.981C377.448 252.905 377.283 253.564 376.28 253.96C376.096 253.841 375.819 253.769 375.779 253.624C375.456 252.615 375.812 252.034 376.933 251.981H376.927Z" fill="#252525"/>
<path d="M408.203 253.558C407.484 253.149 406.435 254.066 405.868 252.978C406.039 251.83 406.811 251.659 407.946 251.744C408.018 252.371 408.091 252.984 408.163 253.604L408.203 253.558Z" fill="#252525"/>
<path d="M144.503 136.798C142.689 140.056 137.914 141.89 134.563 140.617C132.143 139.694 128.852 134.391 129.254 131.957C129.564 130.084 131.094 129.418 132.644 128.989C135.929 128.079 139.253 127.307 142.55 126.456C143.434 126.226 144.232 126.127 144.938 126.879C146.422 128.448 146.099 135.024 144.437 136.858C143.949 134.074 145.162 131.199 143.863 128.125C139.662 129.18 135.414 130.249 130.903 131.377C132.393 134.305 133.119 137.187 135.783 138.625C139.16 139.951 141.7 137.768 144.516 136.805L144.503 136.798Z" fill="#252525"/>
<path d="M127.651 103.992C124.742 108.305 115.792 111.544 112.131 109.604C114.341 104.697 122.73 101.663 127.651 103.992Z" fill="#252525"/>
<path d="M126.648 116.391C126.536 116.721 126.417 117.057 126.278 117.473C126.542 117.493 126.786 117.512 127.037 117.539C127.182 117.684 127.334 117.829 127.479 117.974C124.392 119.049 121.088 119.867 118.093 118.502C115.963 117.532 115.943 115.079 117.539 113.291C120.059 110.462 123.205 109.914 126.799 111.491C127.749 113.159 128.706 114.841 126.582 116.457C125.81 115.402 127.32 114.017 125.718 112.764C123.521 112.572 120.883 111.438 118.713 114.004C118.093 114.736 117.783 115.474 118.443 116.312C118.878 116.859 119.393 117.301 119.795 116.253C119.393 116.253 118.938 116.18 119.116 116.853C119.188 117.117 119.175 117.4 119.201 117.677C119.386 117.499 119.577 117.321 119.762 117.143V116.226C119.597 114.023 120.639 113.443 122.763 113.984C122.611 115.019 122.486 115.91 122.354 116.787C123.911 118.06 125.111 115.428 126.648 116.391Z" fill="#252525"/>
<path d="M140.459 114.399C139.562 112.856 139.232 110.989 137.623 110.132C138.137 107.421 139.588 105.944 141.758 105.225C143.256 104.724 144.449 105.39 145.505 106.544C146.158 107.263 146.771 108.252 146.276 108.846C144.568 110.917 143.915 114.202 140.4 114.333L140.466 114.406L140.459 114.399ZM145.327 108.668C144.034 107.098 142.932 105.515 140.769 107.19C139.978 107.804 139.232 108.496 140.129 109.842C140.4 108.701 141.092 108.351 142.062 108.516C142.86 108.912 141.91 110.442 142.029 110.442C144.344 110.475 144.839 109.848 145.327 108.668Z" fill="#252525"/>
<path d="M140.393 114.333C142.266 119.649 141.27 121.634 135.888 122.94C135.902 120.302 138.876 121.311 139.608 119.788C139.727 118.825 139.971 117.842 139.147 116.892C137.966 115.949 136.489 116.635 135.156 116.503C133.765 113.772 133.118 110.56 133.461 107.731C135.968 109.334 134.893 112.282 136.442 114.406C137.597 114.406 139.028 114.406 140.459 114.406L140.393 114.333Z" fill="#252525"/>
<path d="M127.037 117.533C127.202 117.315 127.36 117.091 127.525 116.873C128.231 117.335 127.881 117.651 127.485 117.968C127.334 117.823 127.189 117.678 127.043 117.533H127.037Z" fill="#252525"/>
<path d="M257.015 264.289C254.535 262.37 254.496 261.572 256.995 257.977C256.738 260.187 255.676 262.165 257.556 263.682C257.378 263.887 257.193 264.084 257.015 264.289Z" fill="#252525"/>
<path d="M298.422 259.712C300.421 258.933 302.399 257.898 304.576 259.355C302.525 259.474 300.473 259.593 298.422 259.712Z" fill="#252525"/>
<path d="M297.801 257.08H304.225C304.225 257.172 304.225 257.265 304.232 257.357H297.808C297.808 257.265 297.801 257.172 297.794 257.08H297.801Z" fill="#252525"/>
<path d="M304.568 261.512H299.034C299.008 261.327 298.988 261.143 298.962 260.958C300.769 260.852 302.583 260.747 304.39 260.641C304.449 260.932 304.508 261.222 304.568 261.512Z" fill="#252525"/>
<path d="M252.596 276.167H258.763C256.632 277.559 254.634 277.697 252.596 276.167Z" fill="#252525"/>
<path d="M257.43 274.644H251.778C251.765 274.525 251.745 274.413 251.732 274.294H257.312C257.351 274.413 257.391 274.525 257.437 274.644H257.43Z" fill="#252525"/>
<path d="M254.423 278.416C256.184 277.882 257.522 277.842 259.349 278.284C257.555 279.003 256.203 278.693 254.423 278.416Z" fill="#252525"/>
<path d="M144.502 136.798C141.685 137.761 139.153 139.944 135.769 138.618C133.111 137.18 132.386 134.298 130.888 131.37C135.4 130.235 139.647 129.173 143.849 128.118C145.148 131.192 143.934 134.067 144.422 136.851L144.495 136.798H144.502Z" fill="#FEFEFE"/>
<path d="M126.648 116.391C125.111 115.428 123.911 118.06 122.354 116.787C122.48 115.91 122.612 115.019 122.763 113.984C120.64 113.443 119.604 114.023 119.762 116.226L119.802 116.246C119.393 117.295 118.885 116.853 118.45 116.305C117.79 115.474 118.1 114.729 118.72 113.997C120.89 111.431 123.528 112.566 125.725 112.757C127.327 114.01 125.817 115.395 126.589 116.451L126.655 116.391H126.648Z" fill="#FEFEFE"/>
<path d="M119.762 116.226V117.143C119.577 117.321 119.386 117.499 119.201 117.677C119.175 117.4 119.188 117.116 119.115 116.853C118.937 116.18 119.392 116.252 119.795 116.252L119.762 116.233V116.226Z" fill="#FEFEFE"/>
<path d="M145.326 108.668C144.838 109.849 144.344 110.475 142.028 110.442C141.916 110.442 142.86 108.912 142.068 108.516C141.099 108.352 140.406 108.701 140.136 109.842C139.239 108.497 139.99 107.804 140.775 107.191C142.939 105.515 144.04 107.105 145.333 108.668H145.326Z" fill="#FEFEFE"/>
<path d="M293.162 64.4162C291.178 64.4162 289.343 63.9149 287.658 62.9122C285.973 61.9309 284.629 60.5976 283.626 58.9122C282.645 57.2269 282.154 55.3922 282.154 53.4082V47.4242H288.042V53.0882C288.042 53.9842 288.277 54.8269 288.746 55.6162C289.215 56.4056 289.845 57.0349 290.634 57.5042C291.423 57.9736 292.266 58.2082 293.162 58.2082C294.101 58.2082 294.965 57.9736 295.754 57.5042C296.543 57.0349 297.173 56.4056 297.642 55.6162C298.111 54.8269 298.346 53.9842 298.346 53.0882V46.1762H304.042V53.4082C304.042 55.3922 303.562 57.2269 302.602 58.9122C301.642 60.5976 300.33 61.9309 298.666 62.9122C297.002 63.9149 295.167 64.4162 293.162 64.4162ZM290.57 42.4642H295.53V47.4242H290.57V42.4642ZM304.97 59.1362C303.797 59.1362 302.911 58.8589 302.314 58.3042C301.717 57.7496 301.322 57.0136 301.13 56.0962C300.959 55.1789 300.874 54.0162 300.874 52.6082V46.1762H304.298V52.2242C304.298 52.4376 304.351 52.6082 304.458 52.7362C304.586 52.8642 304.757 52.9282 304.97 52.9282H306.25C306.463 52.9282 306.57 53.0349 306.57 53.2482V58.8162C306.57 59.0296 306.463 59.1362 306.25 59.1362H304.97ZM305.553 59.1362C305.339 59.1362 305.233 59.0296 305.233 58.8162V53.2482C305.233 53.0349 305.339 52.9282 305.553 52.9282H313.489C313.915 52.9282 314.129 52.7042 314.129 52.2562V52.1602H313.489C312.209 52.1602 311.035 51.8722 309.969 51.2962C308.902 50.7202 308.049 49.9416 307.409 48.9602C306.79 47.9576 306.481 46.8482 306.481 45.6322C306.481 44.3309 306.801 43.1362 307.441 42.0482C308.081 40.9602 308.934 40.1069 310.001 39.4882C311.089 38.8482 312.251 38.5282 313.489 38.5282C314.726 38.5282 315.835 38.8482 316.817 39.4882C317.819 40.1069 318.598 40.9602 319.153 42.0482C319.729 43.1149 320.017 44.3096 320.017 45.6322V52.6402C320.017 53.8136 319.729 54.9016 319.153 55.9042C318.577 56.8856 317.798 57.6749 316.817 58.2722C315.835 58.8482 314.747 59.1362 313.553 59.1362H305.553ZM314.513 46.7202V45.4082C314.513 45.0669 314.385 44.7789 314.129 44.5442C313.894 44.2882 313.606 44.1602 313.265 44.1602C312.881 44.1602 312.571 44.2776 312.337 44.5122C312.102 44.7469 311.985 45.0456 311.985 45.4082C311.985 45.7922 312.102 46.1122 312.337 46.3682C312.571 46.6029 312.881 46.7202 313.265 46.7202H314.513ZM311.025 31.3602H315.985V36.3202H311.025V31.3602ZM323.366 63.4882C325.18 62.7202 326.534 62.0802 327.43 61.5682C328.326 61.0776 328.913 60.6509 329.19 60.2882C329.468 59.9469 329.606 59.5629 329.606 59.1362H328.422C327.057 59.1362 325.798 58.8376 324.646 58.2402C323.494 57.6216 322.577 56.7789 321.894 55.7122C321.233 54.6242 320.902 53.4082 320.902 52.0642C320.902 50.6989 321.244 49.4402 321.926 48.2882C322.609 47.1362 323.516 46.2296 324.646 45.5682C325.798 44.8856 327.057 44.5442 328.422 44.5442C329.766 44.5442 330.972 44.8856 332.038 45.5682C333.126 46.2296 333.969 47.1362 334.566 48.2882C335.185 49.4402 335.494 50.6989 335.494 52.0642V56.5122C335.494 58.7096 335.196 60.4696 334.598 61.7922C334.001 63.1362 332.988 64.3202 331.558 65.3442C330.129 66.3682 328.006 67.4776 325.19 68.6722L323.366 63.4882ZM328.422 53.3122H329.606V52.0642C329.606 51.6589 329.5 51.3389 329.286 51.1042C329.073 50.8696 328.785 50.7522 328.422 50.7522C328.038 50.7522 327.718 50.8696 327.462 51.1042C327.228 51.3389 327.11 51.6589 327.11 52.0642C327.11 52.4482 327.228 52.7576 327.462 52.9922C327.718 53.2056 328.038 53.3122 328.422 53.3122ZM335.174 52.9282H336.486C336.7 52.9282 336.806 53.0349 336.806 53.2482V58.8162C336.806 59.0296 336.7 59.1362 336.486 59.1362H335.174V52.9282ZM335.45 53.2482C335.45 53.0349 335.556 52.9282 335.77 52.9282H337.37C337.583 52.9282 337.743 52.8642 337.85 52.7362C337.978 52.6082 338.042 52.4376 338.042 52.2242V46.1442H343.93V52.2242C343.93 52.4376 343.983 52.6082 344.09 52.7362C344.218 52.8642 344.388 52.9282 344.602 52.9282H346.202C346.415 52.9282 346.522 53.0349 346.522 53.2482V58.8162C346.522 59.0296 346.415 59.1362 346.202 59.1362H344.602C343.834 59.1362 343.162 59.0509 342.586 58.8802C342.031 58.7096 341.498 58.4322 340.986 58.0482C340.474 58.4322 339.93 58.7096 339.354 58.8802C338.799 59.0509 338.138 59.1362 337.37 59.1362H335.77C335.556 59.1362 335.45 59.0296 335.45 58.8162V53.2482ZM338.522 38.6242H343.482V43.5842H338.522V38.6242ZM345.183 53.2482C345.183 53.0349 345.29 52.9282 345.503 52.9282H347.743C347.956 52.9282 348.116 52.8642 348.223 52.7362C348.351 52.6082 348.415 52.4376 348.415 52.2242V46.1442H354.303V52.2242C354.303 52.4376 354.356 52.6082 354.463 52.7362C354.591 52.8642 354.762 52.9282 354.975 52.9282H357.215C357.428 52.9282 357.535 53.0349 357.535 53.2482V58.8162C357.535 59.0296 357.428 59.1362 357.215 59.1362H354.975C354.207 59.1362 353.535 59.0509 352.959 58.8802C352.404 58.7096 351.871 58.4322 351.359 58.0482C350.847 58.4322 350.303 58.7096 349.727 58.8802C349.172 59.0509 348.511 59.1362 347.743 59.1362H345.503C345.29 59.1362 345.183 59.0296 345.183 58.8162V53.2482ZM346.399 61.6962H351.359V66.6562H346.399V61.6962ZM351.359 61.6962H356.319V66.6562H351.359V61.6962ZM366.566 59.2002C365.222 59.2002 364.006 58.8696 362.918 58.2082C361.851 57.5256 361.009 56.6082 360.39 55.4562C359.793 54.3042 359.494 53.0456 359.494 51.6802V50.4962H357.446V44.6082H366.566C367.931 44.6082 369.19 44.9176 370.342 45.5362C371.494 46.1336 372.401 46.9762 373.062 48.0642C373.745 49.1309 374.086 50.3362 374.086 51.6802C374.086 53.0456 373.745 54.3042 373.062 55.4562C372.401 56.5869 371.494 57.4936 370.342 58.1762C369.19 58.8589 367.931 59.2002 366.566 59.2002ZM356.518 59.1362C356.305 59.1362 356.198 59.0296 356.198 58.8162V53.2482C356.198 53.0349 356.305 52.9282 356.518 52.9282H358.822C359.035 52.9282 359.195 52.8642 359.302 52.7362C359.43 52.6082 359.494 52.4376 359.494 52.2242V51.1042H364.198V52.6082C364.198 54.5282 363.739 56.0962 362.822 57.3122C361.926 58.5282 360.593 59.1362 358.822 59.1362H356.518ZM366.566 52.9922C366.971 52.9922 367.291 52.8749 367.526 52.6402C367.761 52.3842 367.878 52.0642 367.878 51.6802C367.878 51.3176 367.761 51.0296 367.526 50.8162C367.291 50.6029 366.971 50.4962 366.566 50.4962H365.318V51.6802C365.318 52.0642 365.425 52.3842 365.638 52.6402C365.873 52.8749 366.182 52.9922 366.566 52.9922ZM381.457 59.1362C380.262 59.1362 379.174 58.8482 378.193 58.2722C377.211 57.6749 376.433 56.8856 375.857 55.9042C375.281 54.9016 374.993 53.8136 374.993 52.6402V37.2802H380.881V52.2562C380.881 52.4696 380.934 52.6402 381.041 52.7682C381.169 52.8749 381.329 52.9282 381.521 52.9282H383.473C383.686 52.9282 383.793 53.0349 383.793 53.2482V58.8162C383.793 59.0296 383.686 59.1362 383.473 59.1362H381.457ZM382.446 53.2482C382.446 53.0349 382.553 52.9282 382.766 52.9282H385.006C385.219 52.9282 385.379 52.8642 385.486 52.7362C385.614 52.6082 385.678 52.4376 385.678 52.2242V46.1442H391.566V52.2242C391.566 52.4376 391.619 52.6082 391.726 52.7362C391.854 52.8642 392.025 52.9282 392.238 52.9282H394.478C394.691 52.9282 394.798 53.0349 394.798 53.2482V58.8162C394.798 59.0296 394.691 59.1362 394.478 59.1362H392.238C391.47 59.1362 390.798 59.0509 390.222 58.8802C389.667 58.7096 389.134 58.4322 388.622 58.0482C388.11 58.4322 387.566 58.7096 386.99 58.8802C386.435 59.0509 385.774 59.1362 385.006 59.1362H382.766C382.553 59.1362 382.446 59.0296 382.446 58.8162V53.2482ZM383.79 38.6242H388.75V43.5842H383.79V38.6242ZM388.75 38.6242H393.71V43.5842H388.75V38.6242ZM409.525 59.2002C407.754 59.2002 406.41 58.5922 405.493 57.3762C404.597 56.1602 404.149 54.5922 404.149 52.6722V46.1442H408.853V52.2882C408.853 52.5016 408.906 52.6722 409.013 52.8002C409.141 52.9282 409.312 52.9922 409.525 52.9922C409.738 52.9922 409.898 52.9282 410.005 52.8002C410.133 52.6722 410.197 52.5016 410.197 52.2882V45.2482H414.901V52.6722C414.901 54.5922 414.442 56.1602 413.525 57.3762C412.629 58.5922 411.296 59.2002 409.525 59.2002ZM393.781 59.1362C393.568 59.1362 393.461 59.0296 393.461 58.8162V53.2482C393.461 53.0349 393.568 52.9282 393.781 52.9282H395.061C395.274 52.9282 395.434 52.8642 395.541 52.7362C395.669 52.6082 395.733 52.4376 395.733 52.2242V46.1442H400.437V52.6082C400.437 54.5282 399.978 56.0962 399.061 57.3122C398.165 58.5282 396.832 59.1362 395.061 59.1362H393.781ZM402.293 59.2002C400.522 59.2002 399.178 58.5922 398.261 57.3762C397.365 56.1602 396.917 54.5922 396.917 52.6722V46.1442H401.621V52.2882C401.621 52.5016 401.674 52.6722 401.781 52.8002C401.909 52.9282 402.08 52.9922 402.293 52.9922C402.506 52.9922 402.666 52.9282 402.773 52.8002C402.901 52.6722 402.965 52.5016 402.965 52.2882V46.1442H407.669V52.6722C407.669 54.5922 407.21 56.1602 406.293 57.3762C405.397 58.5922 404.064 59.2002 402.293 59.2002ZM416.757 59.1362C414.986 59.1362 413.642 58.5282 412.725 57.3122C411.829 56.0962 411.381 54.5282 411.381 52.6082V45.2482H416.085V52.2242C416.085 52.4376 416.138 52.6082 416.245 52.7362C416.373 52.8642 416.544 52.9282 416.757 52.9282H418.037C418.25 52.9282 418.357 53.0349 418.357 53.2482V58.8162C418.357 59.0296 418.25 59.1362 418.037 59.1362H416.757ZM417.327 59.1362C417.114 59.1362 417.007 59.0296 417.007 58.8162V53.2482C417.007 53.0349 417.114 52.9282 417.327 52.9282H420.783C420.954 52.9282 421.103 52.8642 421.231 52.7362C421.359 52.6082 421.423 52.4482 421.423 52.2562V45.2482H427.311V52.6402C427.311 53.8136 427.023 54.9016 426.447 55.9042C425.871 56.8856 425.092 57.6749 424.111 58.2722C423.13 58.8482 422.042 59.1362 420.847 59.1362H417.327ZM417.391 37.7282H422.351V42.6882H417.391V37.7282ZM422.351 37.7282H427.311V42.6882H422.351V37.7282Z" fill="#FDFFAA"/>
</svg>
