<svg width="25" height="24" viewBox="0 0 25 24" fill="none" xmlns="http://www.w3.org/2000/svg">
<path d="M12.8826 19.9589C13.1574 20.0228 13.1825 20.3827 12.9149 20.4719L11.3349 20.9919C7.36493 22.2719 5.27493 21.2019 3.98493 17.2319L2.70493 13.2819C1.42493 9.31187 2.48493 7.21187 6.45493 5.93187L6.97893 5.75834C7.38179 5.62493 7.77386 6.02899 7.65946 6.43766C7.60276 6.64023 7.54821 6.85164 7.49493 7.07188L6.51493 11.2619C5.41493 15.9719 7.02493 18.5719 11.7349 19.6919L12.8826 19.9589Z" fill="#BF8BD5"/>
<path d="M17.3767 3.20854L15.7067 2.81854C12.3667 2.02854 10.3767 2.67854 9.20672 5.09854C8.90672 5.70854 8.66672 6.44854 8.46672 7.29854L7.48672 11.4885C6.50672 15.6685 7.79672 17.7285 11.9667 18.7185L13.6467 19.1185C14.2267 19.2585 14.7667 19.3485 15.2667 19.3885C18.3867 19.6885 20.0467 18.2285 20.8867 14.6185L21.8667 10.4385C22.8467 6.25854 21.5667 4.18854 17.3767 3.20854ZM15.4967 13.3285C15.4067 13.6685 15.1067 13.8885 14.7667 13.8885C14.7067 13.8885 14.6467 13.8785 14.5767 13.8685L11.6667 13.1285C11.2667 13.0285 11.0267 12.6185 11.1267 12.2185C11.2267 11.8185 11.6367 11.5785 12.0367 11.6785L14.9467 12.4185C15.3567 12.5185 15.5967 12.9285 15.4967 13.3285ZM18.4267 9.94854C18.3367 10.2885 18.0367 10.5085 17.6967 10.5085C17.6367 10.5085 17.5767 10.4985 17.5067 10.4885L12.6567 9.25854C12.2567 9.15854 12.0167 8.74854 12.1167 8.34854C12.2167 7.94854 12.6267 7.70854 13.0267 7.80854L17.8767 9.03854C18.2867 9.12854 18.5267 9.53854 18.4267 9.94854Z" fill="#BF8BD5"/>
</svg>
