<svg width="25" height="24" viewBox="0 0 25 24" fill="none" xmlns="http://www.w3.org/2000/svg">
<path d="M15.7965 12.4V16.47C15.7965 16.83 15.7565 17.17 15.6665 17.48C15.2965 18.95 14.0765 19.87 12.3965 19.87H9.67654L6.65654 21.88C6.20654 22.19 5.60654 21.86 5.60654 21.32V19.87C4.58654 19.87 3.73654 19.53 3.14654 18.94C2.54654 18.34 2.20654 17.49 2.20654 16.47V12.4C2.20654 10.5 3.38654 9.19 5.20654 9.02C5.33654 9.01 5.46654 9 5.60654 9H12.3965C14.4365 9 15.7965 10.36 15.7965 12.4Z" fill="#BF8BD5"/>
<path d="M17.9565 15.6C19.2265 15.6 20.2965 15.18 21.0365 14.43C21.7865 13.69 22.2065 12.62 22.2065 11.35V6.25C22.2065 3.9 20.3065 2 17.9565 2H9.45654C7.10654 2 5.20654 3.9 5.20654 6.25V7C5.20654 7.28 5.42654 7.5 5.70654 7.5H12.3965C15.1065 7.5 17.2965 9.69 17.2965 12.4V15.1C17.2965 15.38 17.5165 15.6 17.7965 15.6H17.9565Z" fill="#BF8BD5"/>
</svg>
