<svg width="39" height="38" viewBox="0 0 39 38" fill="none" xmlns="http://www.w3.org/2000/svg">
<path fill-rule="evenodd" clip-rule="evenodd" d="M19.201 0C8.75663 0 0.289795 8.46684 0.289795 18.9112C0.289795 29.3556 8.75663 37.8224 19.201 37.8224C29.6454 37.8224 38.1122 29.3556 38.1122 18.9112C38.1122 8.46684 29.6454 0 19.201 0ZM28.9899 11.4685C29.0039 11.3174 29.018 11.1663 29.0334 11.0154C29.0282 11.0146 29.0238 11.0139 29.0194 11.0139C29.0194 10.9876 29.0196 10.9613 29.0199 10.9349C29.0204 10.8821 29.0209 10.8291 29.0194 10.7765C29.0032 10.1557 28.6065 9.74946 27.985 9.74651C27.7476 9.74577 27.5043 9.77674 27.2728 9.8313C26.8194 9.93747 26.3785 10.0886 25.939 10.2464C24.9087 10.6165 23.8964 11.0316 22.884 11.4468L22.7872 11.4865C22.3043 11.6848 21.8228 11.8905 21.3421 12.0962C21.1539 12.177 20.963 12.2525 20.772 12.328C20.5725 12.4069 20.3728 12.4859 20.1758 12.571C20.16 12.5778 20.1442 12.5847 20.1284 12.5915C19.9126 12.6849 19.6965 12.7785 19.4842 12.8829C19.3764 12.9363 19.2596 12.9824 19.1429 13.0284C19.0681 13.0579 18.9932 13.0874 18.9209 13.1188C18.8277 13.1591 18.7339 13.1985 18.64 13.2379C18.454 13.3161 18.2676 13.3943 18.0848 13.4801C17.8806 13.5759 17.6699 13.6597 17.459 13.7436C17.3143 13.8012 17.1696 13.8587 17.0268 13.9202C16.7235 14.0507 16.4201 14.1811 16.1167 14.3115C14.9235 14.8244 13.7304 15.3373 12.5383 15.8534C11.5599 16.2768 10.5832 16.7046 9.60619 17.1326C9.45529 17.1987 9.30439 17.2648 9.15348 17.3309C9.08832 17.3594 9.02314 17.3879 8.95794 17.4164C8.58862 17.5778 8.21911 17.7393 7.8544 17.9104C7.56686 18.0453 7.29407 18.2082 7.08394 18.4545C6.84285 18.7376 6.8635 19.059 7.13334 19.3149C7.31766 19.4904 7.53884 19.6017 7.77403 19.6879C8.41104 19.9224 9.06058 20.1133 9.71233 20.3014C10.1952 20.4407 10.6782 20.5793 11.1685 20.6914C11.6241 20.7961 12.0805 20.8986 12.5531 20.8565C13.2085 20.7983 13.7843 20.5292 14.3196 20.1694C14.7068 19.9092 15.0943 19.6493 15.4818 19.3894C16.8729 18.4563 18.2638 17.5233 19.6449 16.5759C20.5864 15.93 21.5456 15.31 22.5063 14.6922C22.6692 14.5867 22.8403 14.4842 23.018 14.3995C23.1956 14.3147 23.4743 14.3427 23.554 14.4518C23.6682 14.6081 23.6446 14.7703 23.4692 14.9679C23.3232 15.1323 23.1743 15.296 23.0202 15.453C22.3787 16.1063 21.7255 16.7484 21.0583 17.3758C20.5999 17.8064 20.1406 18.2356 19.6813 18.6648C19.2614 19.0571 18.8415 19.4495 18.4225 19.8428C18.3686 19.8933 18.3147 19.9438 18.2608 19.9943C17.9104 20.3225 17.56 20.6506 17.2208 20.9892C17.0372 21.1713 16.8587 21.363 16.715 21.5813C16.4112 22.0421 16.4274 22.3842 16.771 22.8133C16.9096 22.9873 17.0733 23.1354 17.2554 23.26C17.6765 23.5476 18.0987 23.8337 18.5209 24.1198C19.0197 24.4578 19.5186 24.7958 20.0158 25.1364C20.5046 25.4717 20.9978 25.8006 21.491 26.1295C22.1321 26.5571 22.7733 26.9847 23.405 27.4264C23.8334 27.7257 24.2971 27.9543 24.8235 28.042C25.4207 28.1408 25.8174 27.9742 26.1588 27.5134C26.27 27.3633 26.3343 27.1936 26.3985 27.0242C26.4292 26.9432 26.4599 26.8622 26.4957 26.7835C26.6271 26.4943 26.6803 26.1824 26.7335 25.8709C26.7546 25.7472 26.7757 25.6235 26.8017 25.5014C26.8856 25.1086 26.9534 24.7125 27.0211 24.3166C27.0427 24.1907 27.0642 24.0648 27.0862 23.9391C27.1186 23.7536 27.149 23.5677 27.1794 23.3818C27.2259 23.0976 27.2724 22.8134 27.3259 22.5309C27.3716 22.2897 27.4082 22.047 27.4447 21.8044C27.4717 21.6251 27.4986 21.4458 27.5293 21.2672C27.5462 21.1678 27.5566 21.0678 27.567 20.9681C27.5733 20.9066 27.5797 20.8453 27.5876 20.7843C27.5987 20.6998 27.6233 20.6151 27.6481 20.5299C27.6662 20.4678 27.6844 20.4054 27.6974 20.3426C27.7373 20.1506 27.7635 19.956 27.7897 19.7614C27.7979 19.7005 27.8061 19.6396 27.8147 19.5788C27.8372 19.419 27.865 19.2596 27.8928 19.1001C27.9188 18.9513 27.9448 18.8023 27.9666 18.6528C27.9769 18.5817 27.9831 18.5084 27.9893 18.4355C27.998 18.3324 28.0067 18.2301 28.027 18.136C28.0389 18.0809 28.0475 18.0244 28.056 17.9678C28.0718 17.8631 28.0877 17.7581 28.1251 17.6604C28.1393 17.6231 28.1311 17.589 28.1231 17.5559C28.1137 17.5172 28.1046 17.4798 28.1324 17.44C28.1966 17.3478 28.2084 17.2387 28.2084 17.1281C28.2084 17.0212 28.2091 16.9025 28.2371 16.8111C28.2747 16.6894 28.3079 16.5752 28.3094 16.4476C28.3099 16.386 28.327 16.3257 28.344 16.2653C28.3732 16.1618 28.4025 16.0581 28.3485 15.9477C28.4549 15.801 28.4614 15.6339 28.4679 15.4662C28.4718 15.3668 28.4756 15.2671 28.5003 15.1714C28.5315 15.0508 28.5493 14.9227 28.567 14.795C28.5753 14.7353 28.5836 14.6757 28.5932 14.617C28.6155 14.4815 28.6335 14.3455 28.6516 14.2094C28.6773 14.0161 28.703 13.8226 28.7407 13.6305C28.7854 13.4033 28.8076 13.172 28.8299 12.9405C28.8443 12.7903 28.8587 12.64 28.8793 12.4907C28.9263 12.1513 28.9581 11.8099 28.9899 11.4685Z" fill="#F0F0F0"/>
</svg>
