<svg width="25" height="24" viewBox="0 0 25 24" fill="none" xmlns="http://www.w3.org/2000/svg">
<path d="M14.5563 2H9.85631C8.81631 2 7.96631 2.84 7.96631 3.88V4.82C7.96631 5.86 8.80631 6.7 9.84631 6.7H14.5563C15.5963 6.7 16.4363 5.86 16.4363 4.82V3.88C16.4463 2.84 15.5963 2 14.5563 2Z" fill="#BF8BD5"/>
<path d="M17.4456 4.81949C17.4456 6.40949 16.1456 7.70949 14.5556 7.70949H9.85561C8.2656 7.70949 6.96561 6.40949 6.96561 4.81949C6.96561 4.25949 6.36561 3.90949 5.86561 4.16949C4.45561 4.91949 3.49561 6.40949 3.49561 8.11949V17.5295C3.49561 19.9895 5.50561 21.9995 7.96561 21.9995H16.4456C18.9056 21.9995 20.9156 19.9895 20.9156 17.5295V8.11949C20.9156 6.40949 19.9556 4.91949 18.5456 4.16949C18.0456 3.90949 17.4456 4.25949 17.4456 4.81949ZM15.5456 12.7295L11.5456 16.7295C11.3956 16.8795 11.2056 16.9495 11.0156 16.9495C10.8256 16.9495 10.6356 16.8795 10.4856 16.7295L8.98561 15.2295C8.69561 14.9395 8.69561 14.4595 8.98561 14.1695C9.27561 13.8795 9.75561 13.8795 10.0456 14.1695L11.0156 15.1395L14.4856 11.6695C14.7756 11.3795 15.2556 11.3795 15.5456 11.6695C15.8356 11.9595 15.8356 12.4395 15.5456 12.7295Z" fill="#BF8BD5"/>
</svg>
