<svg width="39" height="38" viewBox="0 0 39 38" fill="none" xmlns="http://www.w3.org/2000/svg">
<path fill-rule="evenodd" clip-rule="evenodd" d="M19.7337 0C9.28935 0 0.82251 8.46684 0.82251 18.9112C0.82251 29.3556 9.28935 37.8224 19.7337 37.8224C30.1781 37.8224 38.6449 29.3556 38.6449 18.9112C38.6449 8.46684 30.1781 0 19.7337 0ZM19.7503 7.26964C13.0727 7.27889 7.68077 12.4511 7.68077 18.8841H7.67983C7.68077 25.3364 13.0509 30.5448 19.7047 30.5475C26.2979 30.5494 31.7259 25.3605 31.7932 19.1125C31.8644 12.5529 26.3908 7.26039 19.7503 7.26964ZM14.495 25.8859C12.5784 25.86 11.0414 24.3523 11.0442 22.5024H11.0452C11.048 20.6507 12.6069 19.144 14.5168 19.1477C16.4314 19.1514 17.9912 20.6544 17.9931 22.4987C17.995 24.3653 16.3973 25.9118 14.495 25.8859ZM12.7947 13.6378C12.8574 11.7547 14.4096 10.2988 16.3176 10.334C18.2427 10.3691 19.7882 11.8888 19.7607 13.7192C19.7332 15.5858 18.1288 17.0925 16.2113 17.0527C14.3014 17.0129 12.735 15.4479 12.7947 13.6378ZM24.9544 18.6649C23.0426 18.6713 21.4676 17.1628 21.4666 15.3249H21.4676C21.4657 13.4408 23.0217 11.9285 24.9515 11.9369C26.8567 11.9452 28.4298 13.4667 28.4269 15.2999C28.4241 17.1396 26.8567 18.6593 24.9544 18.6649ZM23.1849 20.7663C25.1071 20.7673 26.6489 22.2564 26.6499 24.1155C26.6508 25.9783 25.1147 27.4777 23.2001 27.4814C21.274 27.4851 19.6658 25.9414 19.6867 24.1072C19.7076 22.2619 21.274 20.7663 23.1849 20.7663ZM19.6336 17.4865C20.496 17.4726 21.2171 18.1432 21.2294 18.9701V18.971C21.2418 19.7942 20.5283 20.4925 19.6715 20.4953C18.8214 20.4981 18.0861 19.7942 18.0928 18.984C18.0994 18.1737 18.7939 17.4994 19.6336 17.4865ZM32.7395 17.2333C32.2073 13.7805 30.5459 11.0325 27.8656 8.80246C28.1128 8.86842 28.3596 8.9363 28.6065 9.0042L28.6066 9.00424L28.6068 9.00429L28.607 9.00433L28.607 9.00434C29.1803 9.16204 29.7538 9.3198 30.3334 9.45361C31.6399 9.75514 32.5858 10.4951 33.2101 11.6346C33.7206 12.567 33.7993 13.5594 33.545 14.575C33.3843 15.217 33.2036 15.8537 33.0228 16.4908C32.9741 16.6624 32.9254 16.834 32.8771 17.0057C32.8648 17.0489 32.8374 17.0881 32.8023 17.1383C32.7832 17.1656 32.7619 17.1962 32.7395 17.2323V17.2333ZM29.8253 28.0408C29.9258 27.5989 30.0263 27.157 30.1706 26.7314C27.3005 29.7023 26.3498 30.248 21.6049 31.5781C21.9157 31.656 22.2164 31.7339 22.5105 31.81C23.1485 31.9752 23.7557 32.1324 24.3687 32.2653C26.0974 32.6418 27.5348 32.109 28.6677 30.8187C29.3771 30.0116 29.6012 29.026 29.8253 28.0408ZM9.66381 9.68308L9.66381 9.68307C9.86101 8.78969 10.0583 7.89581 10.6585 7.14742C11.7212 5.82569 13.1216 5.2143 14.8455 5.51398C15.7915 5.67862 16.7175 5.95148 17.6501 6.23173C16.0581 6.52217 14.5609 7.01701 13.1605 7.77453C11.7458 8.53945 10.5266 9.54209 9.41181 10.7149L9.41087 10.714C9.51084 10.3761 9.58732 10.0296 9.66381 9.68308ZM10.2066 28.6275C10.5795 28.7101 10.9529 28.7929 11.3183 28.8973V28.8963C8.79265 26.8208 7.19679 24.2245 6.55731 21.0612C6.30683 21.8298 6.06678 22.5837 5.8941 23.3523C5.581 24.7425 5.91118 25.9809 6.87325 27.0696C7.7736 28.0883 8.98674 28.3572 10.2066 28.6275Z" fill="#F0F0F0"/>
</svg>
