<svg width="77" height="77" viewBox="0 0 77 77" fill="none" xmlns="http://www.w3.org/2000/svg">
<path d="M61.9273 22.7925H58.7692C57.8975 22.7925 57.1901 23.5 57.1901 24.3716C57.1901 25.2433 57.8975 25.9507 58.7692 25.9507H61.9273C67.4794 25.9507 72.0462 30.0816 72.8199 35.4253H3.66202C4.43578 30.0816 9.00251 25.9507 14.5546 25.9507H17.7128C18.5844 25.9507 19.2919 25.2433 19.2919 24.3716C19.2919 23.5 18.5844 22.7925 17.7128 22.7925H14.5546C6.71914 22.7925 0.342773 29.1689 0.342773 37.0043V62.2698C0.342773 70.1053 6.71914 76.4816 14.5546 76.4816H61.9273C69.7628 76.4816 76.1392 70.1053 76.1392 62.2698V37.0043C76.1392 29.1689 69.7628 22.7925 61.9273 22.7925ZM30.3455 60.6907V51.2162H72.981V60.6907H30.3455ZM27.1873 48.058H3.50096V38.5834H27.1873V48.058ZM30.3455 38.5834H72.981V48.058H30.3455V38.5834ZM3.50096 51.2162H27.1873V60.6907H3.50096V51.2162ZM3.66202 63.8489H27.1873V73.3234H14.5546C9.00251 73.3234 4.43578 69.1925 3.66202 63.8489ZM61.9273 73.3234H30.3455V63.8489H72.8199C72.0462 69.1925 67.4794 73.3234 61.9273 73.3234ZM28.7538 25.9602L47.7029 26.0044H47.7187C49.402 26.0044 50.9842 25.3475 52.178 24.16C53.375 22.9662 54.0319 21.3777 54.0319 19.688V3.55919C54.0319 2.33382 53.2866 1.27267 52.1243 0.85579C50.9684 0.442068 49.7115 0.792626 48.8746 1.82535L45.2553 6.80581L41.0928 1.89167C39.5137 0.325215 36.924 0.363113 35.2312 2.06537L31.2172 6.8216C31.2172 6.8216 27.0452 1.26951 26.9126 1.17477C26.1767 0.650508 25.0587 0.587344 24.1176 1.01054C23.0912 1.48427 22.4532 2.48541 22.4532 3.61604V19.647C22.4532 23.121 25.2798 25.957 28.7569 25.9633L28.7538 25.9602ZM25.6082 4.57929L28.9749 9.09233C29.5023 9.73976 30.2823 10.1251 30.9614 10.1377C31.8141 10.2451 32.6668 9.91977 33.3521 9.18076L37.5525 4.2003C37.922 3.83396 38.5378 3.80553 38.7747 4.02976L43.174 9.22813C43.7457 9.83766 44.5163 10.1882 45.3816 10.1408C46.2154 10.1093 46.9923 9.71765 47.5608 9.00706L50.8737 4.44664V19.6912C50.8737 20.5376 50.5452 21.3303 49.9452 21.9272C49.3483 22.5209 48.5588 22.8494 47.7155 22.8494H47.7092L28.7601 22.8052C27.0231 22.802 25.6082 21.384 25.6082 19.647V4.57929Z" fill="white"/>
</svg>
