<svg width="75" height="85" viewBox="0 0 75 85" fill="none" xmlns="http://www.w3.org/2000/svg">
<path d="M74.1657 72.4263L54.2052 52.4657C59.1837 46.9668 62.2476 39.7019 62.2476 31.7183C62.2445 14.6359 48.3468 0.738159 31.2643 0.738159C14.1819 0.738159 0.28418 14.6359 0.28418 31.7183C0.28418 48.8008 14.1819 62.6985 31.2643 62.6985C39.2479 62.6985 46.5128 59.6345 52.0118 54.656L71.9723 74.6166C72.2759 74.9202 72.6724 75.0689 73.069 75.0689C73.4655 75.0689 73.8621 74.9171 74.1657 74.6166C74.7698 74.0124 74.7698 73.0304 74.1657 72.4263ZM31.2643 59.5974C15.892 59.5974 3.3822 47.0907 3.3822 31.7152C3.3822 16.3398 15.8889 3.83618 31.2643 3.83618C46.6398 3.83618 59.1465 16.3429 59.1465 31.7183C59.1465 47.0938 46.6367 59.6005 31.2643 59.6005V59.5974Z" fill="white"/>
<path d="M53.664 26.2863C53.6663 24.5846 52.6731 23.1144 51.1312 22.5402L35.5427 16.736C32.3732 15.5575 28.8841 15.5529 25.7099 16.7221L9.93164 22.5472C8.38507 23.119 7.38721 24.5869 7.38721 26.2909C7.38721 27.9949 8.38739 29.4651 9.93396 30.0323L16.6203 32.4934V36.7071C16.6203 44.3682 22.8506 50.5985 30.5117 50.5985C38.1728 50.5985 44.4031 44.3682 44.4031 36.7071V32.4911C44.4031 32.4911 51.2678 29.9281 51.3488 29.8911V42.4952C51.3488 43.1342 51.8674 43.6528 52.5064 43.6528C53.1454 43.6528 53.664 43.1342 53.664 42.4952V26.2863ZM42.0879 36.7094C42.0879 43.0925 36.8948 48.2856 30.5117 48.2856C24.1286 48.2856 18.9356 43.0925 18.9356 36.7094V33.3477L25.6243 35.8111C27.1986 36.3899 28.854 36.6793 30.5071 36.6793C32.1602 36.6793 33.8156 36.3899 35.3899 35.8111L42.0856 33.3477V36.7118L42.0879 36.7094ZM50.3185 27.8491L34.5935 33.6371C31.9587 34.6072 29.0578 34.6072 26.4277 33.6371L10.7373 27.8606C9.97563 27.5805 9.70475 26.8651 9.70475 26.2909C9.70475 25.7167 9.97563 25.0013 10.735 24.7212L26.5156 18.8961C27.8353 18.4076 29.2221 18.1645 30.6113 18.1645C32.0097 18.1645 33.4081 18.4122 34.737 18.9076L50.3255 24.7119C51.0825 24.9944 51.3511 25.7098 51.3511 26.284C51.3511 26.8605 51.0779 27.5735 50.3208 27.8514L50.3185 27.8491ZM51.2955 82.4382C51.4877 83.0471 51.1497 83.6977 50.5385 83.8898C50.4227 83.9269 50.3046 83.9431 50.1912 83.9431C49.698 83.9431 49.2419 83.6282 49.0868 83.1327C46.6651 75.43 39.0248 70.0517 30.5117 70.0517C21.9986 70.0517 14.3584 75.43 11.9366 83.1327C11.7445 83.744 11.0962 84.082 10.485 83.8898C9.87376 83.6977 9.53574 83.0471 9.7279 82.4382C12.4506 73.7815 20.9984 67.7365 30.5117 67.7365C40.025 67.7365 48.5728 73.7815 51.2955 82.4382Z" fill="white" stroke="white"/>
</svg>
