<svg width="77" height="77" viewBox="0 0 77 77" fill="none" xmlns="http://www.w3.org/2000/svg">
<path d="M73.1635 5.10955C71.2248 3.61296 68.7558 3.12041 66.4035 3.74241C65.57 3.96342 64.5944 4.26337 63.5367 4.58542C60.5561 5.50106 56.8494 6.63455 54.1498 6.63455C49.6348 6.63455 44.1252 5.05903 38.7987 3.53718C33.2607 1.95534 27.5364 0.319824 22.5762 0.319824C16.3625 0.322982 9.62151 2.83309 5.05912 4.93589C2.27432 6.21778 0.477783 9.03099 0.477783 12.1031V30.2485C0.477783 30.2927 0.477783 30.3369 0.477783 30.3811V74.521C0.477783 75.3925 1.18503 76.0997 2.05647 76.0997C2.9279 76.0997 3.63515 75.3925 3.63515 74.521V54.7559C6.11052 53.1362 14.9985 47.6835 22.5856 47.6835C27.1007 47.6835 32.6103 49.259 37.9336 50.7808C43.4716 52.3627 48.877 53.9761 55.4601 53.9761C62.0432 53.9761 67.6665 52.3058 71.1238 50.4967C74.3349 48.8138 76.2514 45.9785 76.2514 42.9095V11.3864C76.2514 8.90786 75.1305 6.61877 73.1635 5.10955ZM64.4618 7.60702C65.4784 7.29444 66.413 7.01028 67.2118 6.79874C68.62 6.42617 70.0819 6.72612 71.2375 7.61334C72.4152 8.52266 73.094 9.89611 73.094 11.3864V24.922C70.6028 25.7998 63.8745 27.9973 57.3009 28.5909V9.48565C59.7163 9.06257 62.2706 8.27954 64.4618 7.60702ZM54.1435 9.79508V28.7393C49.7169 28.7393 43.9642 27.23 38.363 25.7366V6.70086C43.7621 8.24165 49.3159 9.79192 54.1435 9.79508ZM35.2056 5.80732V24.8999C30.1854 23.5864 25.1747 22.4245 21.0007 22.4245C20.4734 22.4245 19.9461 22.4435 19.4188 22.4782V3.70768C20.4828 3.56244 21.5406 3.48035 22.5762 3.48035C26.324 3.48035 30.7601 4.56648 35.2056 5.80732ZM6.38205 7.80593C8.66483 6.75138 12.3368 5.23268 16.2646 4.30442V22.8729C11.0581 23.8169 6.35995 26.046 3.63515 27.5426V12.1031C3.63515 10.2592 4.71181 8.57317 6.38205 7.80593ZM3.63515 31.1925C5.45063 30.0969 10.5498 27.2553 16.2646 26.0902V45.4291C11.1686 46.7773 6.40731 49.3411 3.63515 51.0208V31.1925ZM19.422 44.7724V25.645C19.9492 25.604 20.4765 25.5819 21.0038 25.5819C25.0168 25.5819 30.1191 26.8196 35.2088 28.1646V46.7331C30.8358 45.5364 26.4755 44.5292 22.5856 44.5292C21.5406 44.5292 20.4797 44.6177 19.422 44.7755V44.7724ZM38.3662 47.6171V29.0013C43.9042 30.4727 49.5369 31.8935 54.1467 31.8935V50.8377C49.6348 50.8377 44.1252 49.2621 38.805 47.7403L38.3662 47.614V47.6171ZM69.6588 47.6961C66.8803 49.1516 61.958 50.3167 57.304 50.7019V31.7577C63.5903 31.2367 69.8956 29.3455 73.0972 28.2625V42.9032C73.0972 44.7755 71.8121 46.5689 69.6588 47.6961Z" fill="white"/>
</svg>
