<svg width="62" height="75" viewBox="0 0 62 75" fill="none" xmlns="http://www.w3.org/2000/svg">
<path d="M49.2341 60.4505C49.2341 61.293 48.5503 61.9767 47.7079 61.9767H35.4984C34.656 61.9767 33.9722 61.293 33.9722 60.4505C33.9722 59.6081 34.656 58.9243 35.4984 58.9243H47.7079C48.5503 58.9243 49.2341 59.6081 49.2341 60.4505ZM25.8072 56.3604L20.4197 61.5799C20.1664 61.8363 19.8306 61.9767 19.4674 61.9767C19.1652 62.0286 18.7623 61.8332 18.6066 61.6837L16.3082 58.8267C15.7771 58.1674 14.8187 58.0697 14.1624 58.5947C13.5061 59.1227 13.4024 60.0842 13.9304 60.7405L16.3265 63.7074C17.1568 64.556 18.2709 65.026 19.4552 65.0291H19.4674C20.6487 65.0291 21.7567 64.5682 22.5656 63.7501L27.9286 58.555C28.5329 57.969 28.5482 57.0014 27.9652 56.397C27.3791 55.7926 26.4115 55.7774 25.8072 56.3604ZM21.8788 50.9027L26.9518 31.6484C27.2235 30.4733 28.0293 29.4446 29.1556 28.8677C30.2819 28.2878 31.6128 28.242 32.791 28.7426C34.0241 29.2554 34.9551 30.3817 35.2756 31.7492L40.0281 50.921C40.2662 51.8825 39.5397 52.8135 38.5477 52.8135C37.8457 52.8135 37.2352 52.3343 37.0673 51.6536L35.8403 46.7088H26.1399L24.8304 51.675C24.6534 52.3465 24.049 52.8135 23.3561 52.8135C22.3549 52.8135 21.6254 51.8673 21.8818 50.8997L21.8788 50.9027ZM26.9426 43.6625H35.0833L32.3087 32.4665C32.208 32.03 31.9485 31.7003 31.6128 31.5599C31.2587 31.4103 30.868 31.4195 30.5414 31.5874C30.2209 31.7522 29.9889 32.0422 29.9126 32.384L26.9426 43.6625ZM61.4405 31.4073V60.4505C61.4405 68.0234 55.2777 74.1862 47.7048 74.1862H14.1319C6.55896 74.1862 0.39624 68.0234 0.39624 60.4505V14.6651C0.39624 7.09216 6.55896 0.929443 14.1319 0.929443H30.9657C36.2646 0.929443 41.2491 2.99589 44.9943 6.74114L55.6318 17.3786C59.3252 21.072 61.4405 26.1847 61.4405 31.4073ZM42.8302 8.89916C41.1514 7.22036 39.1704 5.97195 37.0215 5.13865V20.7698C37.0215 23.2941 39.0758 25.3483 41.6001 25.3483H57.2099C56.3705 23.1903 55.1221 21.191 53.4677 19.5397L42.8302 8.89916ZM58.3881 31.4073C58.3881 30.3939 58.269 29.3897 58.0859 28.4007H41.6001C37.3909 28.4007 33.9692 24.979 33.9692 20.7698V4.27483C32.9833 4.0978 31.9821 3.98181 30.9626 3.98181H14.1288C8.23776 3.98181 3.44555 8.77402 3.44555 14.6651V60.4505C3.44555 66.3416 8.23776 71.1338 14.1288 71.1338H47.7048C53.5959 71.1338 58.3881 66.3416 58.3881 60.4505V31.4073Z" fill="white"/>
</svg>
