<svg width="72" height="74" viewBox="0 0 72 74" fill="none" xmlns="http://www.w3.org/2000/svg">
<path d="M31.8948 61.3863C31.5277 61.4811 31.1544 61.5056 30.7842 61.5576L30.7383 33.8713L54.8479 20.1705C55.1049 21.0975 55.2426 22.0613 55.2395 23.0465L55.2181 29.5848C55.2181 30.4293 55.9004 31.1146 56.7418 31.1177H56.7479C57.5893 31.1177 58.2746 30.4354 58.2777 29.591L58.2991 23.0495C58.3083 18.1083 55.6526 13.5128 51.36 11.062L36.0895 2.33913C31.8764 -0.0687724 26.6415 -0.0687724 22.4284 2.33913L7.13044 11.0835C2.85006 13.5281 0.194336 18.1083 0.194336 23.0342V42.2791C0.194336 47.2112 2.85618 51.7944 7.13656 54.236L22.4315 62.965C24.5365 64.1674 26.874 64.7794 29.2391 64.7794C30.3772 64.7794 31.5246 64.6386 32.6536 64.348C33.4736 64.1399 33.9662 63.3077 33.7581 62.4877C33.55 61.6678 32.7148 61.1721 31.8979 61.3832L31.8948 61.3863ZM8.648 13.7392L23.946 4.99486C27.2228 3.12239 31.2951 3.12239 34.572 4.99486L49.8455 13.7239C51.4089 14.6173 52.6786 15.884 53.5996 17.3617L29.2085 31.2217L4.88164 17.3923C5.80563 15.9054 7.07843 14.6326 8.64494 13.7361L8.648 13.7392ZM8.65106 51.5833C5.32222 49.6833 3.25087 46.1189 3.25087 42.2822V23.0373C3.25087 22.0674 3.38549 21.1189 3.63638 20.2072L27.6787 33.8744L27.7246 61.6035C26.409 61.4138 25.127 60.9855 23.946 60.3093L8.65106 51.5833ZM55.2212 49.4783C51.8464 49.4783 49.102 52.2228 49.102 55.5975C49.102 58.9723 51.8464 61.7167 55.2212 61.7167C58.5959 61.7167 61.3404 58.9723 61.3404 55.5975C61.3404 52.2228 58.5959 49.4783 55.2212 49.4783ZM55.2212 58.6571C53.5323 58.6571 52.1616 57.2834 52.1616 55.5975C52.1616 53.9117 53.5323 52.5379 55.2212 52.5379C56.9101 52.5379 58.2808 53.9117 58.2808 55.5975C58.2808 57.2834 56.9101 58.6571 55.2212 58.6571ZM69.4146 58.6173L68.7048 58.1982C68.8976 57.2834 68.9924 56.4358 68.9924 55.5975C68.9924 54.7592 68.9006 53.9117 68.7048 52.9969L69.4146 52.5777C70.4733 51.9566 71.2259 50.9622 71.5319 49.772C71.8409 48.5849 71.6665 47.3488 71.0485 46.2963C70.4274 45.2377 69.433 44.4851 68.2428 44.1791C67.0618 43.8701 65.8227 44.0445 64.761 44.6656L64.0818 45.0664C62.8334 44.0261 61.3832 43.2123 59.8106 42.6615V41.8324C59.8106 39.3021 57.7515 37.243 55.2212 37.243C52.6909 37.243 50.6318 39.3021 50.6318 41.8324V42.6615C49.0561 43.2123 47.6089 44.0261 46.3606 45.0664L45.6783 44.6656C44.6227 44.0445 43.3836 43.8701 42.1995 44.1791C41.0093 44.4881 40.015 45.2408 39.3969 46.2963C38.7728 47.3519 38.6014 48.588 38.9074 49.7751C39.2164 50.9622 39.9691 51.9566 41.0277 52.5808L41.7375 52.9999C41.5448 53.9147 41.4499 54.7622 41.4499 55.6006C41.4499 56.4389 41.5417 57.2864 41.7375 58.2012L41.0277 58.6204C39.9691 59.2415 39.2164 60.2359 38.9074 61.426C38.5984 62.6132 38.7728 63.8492 39.3939 64.9017C40.015 65.9604 41.0093 66.71 42.1995 67.019C43.3836 67.3219 44.6227 67.1536 45.6813 66.5325L46.3606 66.1348C47.6089 67.172 49.0591 67.9889 50.6318 68.5396V69.3688C50.6318 71.899 52.6909 73.9582 55.2212 73.9582C57.7515 73.9582 59.8106 71.899 59.8106 69.3688V68.5396C61.3863 67.9889 62.8334 67.175 64.0818 66.1348L64.764 66.5356C65.8196 67.1567 67.0557 67.3249 68.2428 67.022C69.433 66.713 70.4274 65.9604 71.0454 64.9048C71.6665 63.8492 71.8409 62.6132 71.5319 61.426C71.2229 60.2389 70.4702 59.2446 69.4146 58.6204V58.6173ZM65.4708 52.6756C65.786 53.7801 65.9298 54.7072 65.9298 55.5975C65.9298 56.4879 65.7829 57.4149 65.4708 58.5194C65.2811 59.1895 65.5626 59.9054 66.1684 60.2573L67.8695 61.2578C68.2214 61.4658 68.4723 61.7963 68.5732 62.1909C68.6742 62.5856 68.6191 62.9987 68.408 63.3505C68.203 63.7024 67.8695 63.9533 67.4748 64.0542C67.0771 64.1644 66.6641 64.1001 66.3153 63.8951L64.6631 62.9222C64.0665 62.5673 63.2954 62.6652 62.8059 63.1608C61.4903 64.4765 59.7953 65.4311 57.8983 65.9237C57.2221 66.0981 56.751 66.7069 56.751 67.4045V69.3688C56.751 70.2132 56.0626 70.8986 55.2212 70.8986C54.3798 70.8986 53.6914 70.2132 53.6914 69.3688V67.4045C53.6914 66.7069 53.2202 66.0981 52.544 65.9237C50.6501 65.4311 48.9521 64.4765 47.6364 63.1608C47.3427 62.8641 46.948 62.7111 46.5533 62.7111C46.2871 62.7111 46.0179 62.7784 45.7762 62.9222L44.1271 63.8921C43.7722 64.1032 43.3561 64.1583 42.9644 64.0542C42.5697 63.9533 42.2393 63.7024 42.0282 63.3475C41.8232 62.9956 41.7651 62.5856 41.866 62.1909C41.967 61.7963 42.2179 61.4658 42.5697 61.2578L44.2709 60.2573C44.8736 59.9024 45.1582 59.1895 44.9685 58.5194C44.6533 57.4149 44.5095 56.4879 44.5095 55.5975C44.5095 54.7072 44.6564 53.7801 44.9685 52.6756C45.1582 52.0056 44.8767 51.2896 44.2709 50.9378L42.5697 49.9373C42.2179 49.7292 41.967 49.3988 41.866 49.0041C41.7651 48.6094 41.8201 48.1964 42.0312 47.8445C42.2362 47.4926 42.5697 47.2418 42.9644 47.1408C43.3622 47.0368 43.7783 47.0949 44.124 47.303L45.7762 48.2759C46.3789 48.6339 47.1438 48.5329 47.6334 48.0403C48.9521 46.7216 50.6471 45.767 52.541 45.2775C53.2171 45.1031 53.6883 44.4942 53.6883 43.7967V41.8324C53.6883 40.9879 54.3767 40.3026 55.2181 40.3026C56.0595 40.3026 56.7479 40.9879 56.7479 41.8324V43.7967C56.7479 44.4942 57.2191 45.1031 57.8953 45.2775C59.7861 45.767 61.4842 46.7247 62.8028 48.0403C63.2893 48.5329 64.0573 48.6278 64.66 48.2759L66.3091 47.306C66.661 47.101 67.074 47.0459 67.4718 47.1439C67.8665 47.2479 68.1969 47.4957 68.408 47.8506C68.613 48.2025 68.6712 48.6125 68.5702 49.0071C68.4692 49.4018 68.2183 49.7323 67.8665 49.9403L66.1653 50.9408C65.5626 51.2957 65.2781 52.0086 65.4678 52.6787L65.4708 52.6756Z" fill="white"/>
</svg>
