<svg
    fill="none"
    height="156"
    viewBox="0 0 171 156"
    width="171"
    xmlns="http://www.w3.org/2000/svg"
>
    <path
    d="M142 88.9276C141.805 91.6851 140.061 93.8067 138.972 96.1944C138.784 96.6096 138.181 97.252 137.436 96.9211C136.878 96.681 136.703 96.162 136.768 95.5845C136.93 94.1052 136.723 92.6583 137.137 91.1271C137.76 88.8043 137.928 86.3258 138.013 83.8992C138.065 82.3291 138.402 81.3688 139.971 80.707C141.663 79.9933 141.617 79.7922 140.586 78.1961C140.295 77.7419 139.899 77.424 140.12 76.7946C141.702 72.2074 142.616 67.4386 143.595 62.7087C144.963 56.1296 147.238 49.7452 147.925 43.0234C148.463 37.742 150.246 32.7591 151.517 27.6593C153.235 20.7624 155.128 13.9043 156.898 7.02032C157.831 3.39989 160.989 1.24581 164.528 1.92707C166.344 2.27743 167.679 3.88003 167.9 6.3196C168.023 7.68212 168.198 9.10953 167.478 10.4396C166.914 11.4907 167.251 12.2109 168.431 12.6132C170 13.1452 170.454 13.807 170.11 15.8702C169.319 20.6586 167.738 25.2003 166.506 29.8329C165.326 34.2903 164.386 38.6958 164.645 43.3089C164.684 44.0616 164.755 44.8466 164.593 45.5603C164.405 46.3908 163.679 46.7088 162.843 46.6828C161.857 46.6504 161.857 45.7809 162.02 45.2878C163.115 41.875 162.512 38.313 163.063 34.8353C164.062 28.5223 166.253 22.5661 167.887 16.4412C168.023 15.9351 167.952 15.3707 167.913 14.8386C167.9 14.657 167.692 14.339 167.576 14.3455C167.284 14.3455 166.772 14.4493 166.739 14.5921C166.59 15.3252 166.097 15.8832 165.896 16.6164C163.601 24.8694 161.203 33.09 158.836 41.317C158.778 41.5247 158.797 41.8426 158.661 41.9204C156.165 43.4841 156.574 46.2351 156.029 48.5449C155.024 52.8271 153.572 56.9666 152.366 61.1775C150.817 66.5887 149.287 72.0063 147.88 77.4564C147.582 78.6178 147.147 79.0201 146.006 79.1888C144.165 79.4613 143.672 80.6162 144.606 82.3615C145.053 83.1985 144.619 83.9252 144.457 84.5805C144.211 85.5732 143.504 86.4491 142.992 87.3704C142.81 87.1758 142.629 86.9876 142.447 86.793C142.447 85.8781 142.914 85.0801 143.4 84.4377C144.366 83.1725 142.719 83.1725 142.609 82.4653C142.486 81.6997 142 81.6867 141.449 81.9917C140.833 82.3356 139.971 82.4459 140.029 83.4775C140.081 84.295 140.042 85.119 140.042 85.9949C140.807 85.7873 140.483 84.9633 141.008 84.7232C141.157 84.853 141.306 84.9827 141.449 85.119C141.183 86.2544 140.904 87.3899 140.651 88.5318C140.586 88.8108 139.834 89.2131 140.697 89.3818C141.183 89.4726 141.293 88.8627 141.611 88.6161C141.74 88.7135 141.87 88.8173 142 88.9211V88.9276ZM157.092 37.7161C157.527 36.9245 158 36.4055 158.104 35.815C159.186 29.8069 161.76 24.253 163.284 18.3812C164.165 14.9749 165.008 11.5556 165.754 8.12332C166.052 6.75431 165.585 5.32041 164.678 4.36015C163.789 3.41936 162.532 4.0033 161.358 4.26932C159.815 4.62617 159.361 5.85893 158.966 6.96842C158.661 7.81838 158.434 8.78512 158.285 9.68049C156.801 18.3747 153.974 26.725 151.737 35.3544C153.63 35.7566 155.199 36.8661 157.099 37.7226L157.092 37.7161ZM150.019 43.6139C149.572 45.9561 149.254 48.3438 148.651 50.6536C147.264 56.0129 145.721 61.3397 144.269 66.686C143.504 69.5148 142.752 72.3567 142.104 75.218C141.916 76.0485 141.65 76.8855 143.212 77.2942C146.136 78.0533 146.35 78.1377 147.095 75.2115C147.147 75.0039 147.095 74.7768 147.141 74.5692C148.023 70.3583 148.82 66.128 149.812 61.9431C150.946 57.1678 152.191 52.4184 153.507 47.6885C154.713 43.3349 154.784 43.3543 150.006 43.6204L150.019 43.6139ZM154.253 40.8564C155.485 40.785 156.01 40.798 156.522 40.7072C156.989 40.6228 156.878 40.1686 156.729 39.9675C156.347 39.442 151.692 38.2481 151.128 38.5336C150.862 38.6634 150.544 38.9748 150.525 39.2213C150.506 39.4419 150.836 39.8377 151.076 39.9026C152.36 40.2335 153.566 40.9472 154.259 40.8564H154.253Z"
    fill="#131313"
    />
    <path
    d="M142.991 87.377C142.583 87.8442 142.926 88.7914 141.999 88.9277C141.869 88.8239 141.74 88.7266 141.61 88.6227C141.96 88.0453 141.675 87.1824 142.446 86.7996C142.628 86.9942 142.809 87.1824 142.991 87.377Z"
    fill="#131313"
    />
    <path
    d="M150.019 43.614C154.797 43.3415 154.733 43.3285 153.52 47.6821C152.204 52.412 150.959 57.1614 149.825 61.9367C148.833 66.1216 148.029 70.3519 147.154 74.5628C147.109 74.7704 147.154 75.004 147.109 75.2051C146.363 78.1313 146.149 78.047 143.225 77.2878C141.663 76.8791 141.929 76.0421 142.117 75.2116C142.765 72.3503 143.51 69.5149 144.282 66.6796C145.728 61.3333 147.271 56.013 148.664 50.6472C149.261 48.3374 149.585 45.9562 150.032 43.6075L150.019 43.614Z"
    fill="#FAF9F8"
    />
    <path
    d="M142.447 86.7997C141.675 87.1825 141.961 88.0454 141.61 88.6228C141.293 88.8694 141.183 89.4858 140.696 89.3885C139.834 89.2198 140.593 88.8175 140.651 88.5385C140.904 87.3966 141.183 86.2611 141.448 85.1257C141.98 84.9311 142.084 84.4055 141.753 84.159C141.247 83.7761 141.196 84.4379 141.008 84.7299C140.489 84.97 140.807 85.794 140.042 86.0016C140.042 85.1257 140.08 84.3017 140.029 83.4842C139.964 82.4461 140.826 82.3358 141.448 81.9984C141.993 81.6934 142.486 81.7064 142.609 82.472C142.726 83.1792 144.366 83.1792 143.4 84.4444C142.907 85.0868 142.44 85.8848 142.447 86.7997Z"
    fill="#FAF9F8"
    />
    <path
    d="M154.253 40.8565C153.565 40.9473 152.36 40.2271 151.069 39.9027C150.83 39.8378 150.499 39.442 150.518 39.2214C150.538 38.9684 150.856 38.6635 151.121 38.5337C151.685 38.2547 156.347 39.442 156.723 39.9676C156.872 40.1752 156.982 40.6294 156.515 40.7072C156.003 40.7981 155.478 40.7851 154.246 40.8565H154.253Z"
    fill="#FAF9F8"
    />
    <path
    d="M141.008 84.73C141.196 84.4445 141.241 83.7827 141.753 84.159C142.084 84.4055 141.98 84.9311 141.449 85.1257C141.306 84.9895 141.157 84.8597 141.008 84.73Z"
    fill="#131313"
    />
    <path
    d="M23.6877 24.2133C18.3291 25.74 13.6876 28.7802 8.83746 31.3508C8.0943 31.7422 7.23375 31.951 6.51665 32.3947C-0.0284576 36.4919 -0.576019 38.7623 2.87906 46.0302C5.51276 51.5758 7.70312 57.3432 10.5976 62.7322C16.3213 73.4188 22.2275 84.001 28.7987 94.2309C35.7219 105.022 43.5317 115.134 50.7157 125.691C56.6871 134.459 62.9063 143.11 68.3953 152.218C70.1033 155.049 74.2624 156.289 76.857 154.462C83.4151 149.83 90.56 146.111 97.3397 141.871C103.207 138.204 109.413 134.864 115.45 131.367C123.038 126.969 130.717 122.546 136.545 115.682C138.996 112.786 139.857 107.971 137.458 105.231C129.231 95.8098 124.159 84.3925 117.653 73.9277C110.208 61.9492 101.864 50.4536 95.8013 37.6401C94.2106 34.2736 91.2901 32.0032 89.4517 28.8847C86.4008 23.6914 83.1022 18.6547 80.2208 13.3832C78.3564 9.97753 75.7227 7.2765 73.3889 4.27538C70.4944 0.543539 66.9089 0.0738112 62.9845 1.63962C58.6558 3.362 54.5228 5.56719 50.3115 7.56359C50.4288 10.8648 52.3715 13.5267 53.6362 16.3843C54.6662 18.7199 56.3481 19.8943 59.1252 17.8457C60.9245 16.5148 63.0627 15.2882 65.5138 15.1838C68.6299 10.369 69.9468 10.2907 73.102 14.7141C73.3367 15.0533 73.3106 15.6405 73.5975 15.8754C75.9182 17.7935 75.8009 20.9904 77.4437 23.1955C83.7932 31.7031 89.0606 40.8892 94.4975 49.9708C99.2955 57.9956 105.319 65.2766 108.904 74.0451C110.456 77.8291 114.302 80.1517 116.023 83.7531C118.057 88.0069 119.896 92.3259 122.295 96.4231C124.433 100.064 123.507 102.151 119.661 104.435C118.383 105.192 117.105 106.066 115.971 106.953C111.708 110.307 105.919 111.259 102.333 115.33C100.651 117.235 98.6827 118.344 96.6618 119.179C92.8547 120.745 89.4648 122.977 85.9706 125.051C82.2677 127.269 78.591 129.553 74.7839 131.562C70.1032 134.042 69.686 133.755 67.7825 128.235C65.5269 127.752 65.227 125.965 65.0184 124.112C62.7889 123.707 61.9806 122.011 61.3808 120.106C60.0248 119.114 59.0861 117.849 58.7211 116.191C57.3651 115.226 56.3611 114.012 56.0482 112.316C53.0234 109.406 50.5201 106.131 49.2815 102.034C48.1732 101.773 47.404 101.081 46.7521 100.155C41.3673 92.4955 35.8262 84.9405 30.624 77.1506C27.899 73.0534 24.4962 69.2955 23.2575 64.311C21.8103 63.8935 21.0932 62.8496 20.8064 61.4403C19.9068 60.8793 18.7464 60.5009 18.1727 59.7049C15.6042 56.1297 13.2182 52.4109 10.741 48.7704C8.6288 45.6649 8.53755 44.6471 11.6536 42.3245C15.0957 39.767 18.7594 37.4574 22.5534 35.4349C28.7856 32.1206 29.7374 33.0732 24.9133 25.6748C24.5613 25.1398 24.092 24.6831 23.6748 24.1872L23.6877 24.2133Z"
    fill="#BF8BD5"
    />
    <path
    d="M65.5021 15.1575C63.0509 15.2619 60.9127 16.4884 59.1135 17.8194C56.3364 19.868 54.6544 18.6936 53.6244 16.358C52.3597 13.5004 50.4171 10.8385 50.2997 7.53724C47.7443 1.61327 46.7925 1.0522 41.4991 3.71407C35.5928 6.67606 29.6214 9.66413 24.5104 13.944C20.3383 17.4279 20.4686 17.7019 22.7894 22.5559C23.0632 23.1301 23.3892 23.665 23.689 24.2131C24.1063 24.7089 24.5756 25.1526 24.9277 25.7006C29.7518 33.099 28.8 32.1335 22.5678 35.4608C18.7868 37.4703 15.11 39.7798 11.668 42.3504C8.5519 44.673 8.63011 45.6777 10.7553 48.7962C13.2325 52.4367 15.6185 56.1555 18.187 59.7308C18.7607 60.5267 19.9341 60.8921 20.8207 61.4662C21.3031 60.9965 21.7986 60.5267 22.281 60.057C19.3083 55.1638 16.2444 50.336 12.6719 46.2257C13.4542 43.877 15.6446 43.5378 17.2222 42.6244C22.7504 39.4275 27.9525 34.6387 35.2668 37.5094C35.997 37.7964 37.014 37.6399 37.8093 37.405C43.6894 35.6304 49.5566 33.7906 54.7979 30.4502C56.219 29.5499 58.1096 28.5713 57.7445 26.5618C56.884 21.76 60.2999 20.1159 63.4943 18.3674C64.6286 17.7411 65.8802 17.441 66.3235 16.0448C66.0497 15.7577 65.7759 15.4576 65.489 15.1706L65.5021 15.1575Z"
    fill="#131313"
    />
    <path
    d="M67.782 128.222C69.6725 133.741 70.1027 134.028 74.7834 131.549C78.5905 129.527 82.2673 127.243 85.9701 125.038C89.4643 122.95 92.8411 120.732 96.6613 119.166C98.6822 118.331 100.651 117.235 102.333 115.317C105.918 111.246 111.72 110.293 115.971 106.94C117.092 106.053 118.383 105.178 119.66 104.422C123.507 102.138 124.432 100.05 122.294 96.41C119.895 92.3128 118.057 87.9938 116.023 83.74C114.302 80.1517 110.456 77.816 108.904 74.032C105.305 65.2635 99.295 57.9825 94.497 49.9577C89.0601 40.876 83.7927 31.69 77.4432 23.1824C75.8004 20.9773 75.9047 17.7804 73.597 15.8623C73.3101 15.6274 73.3492 15.0272 73.1015 14.701C69.9463 10.2776 68.6294 10.3689 65.5134 15.1707C65.7872 15.4578 66.061 15.7579 66.3478 16.045C69.1901 15.4317 69.7508 17.7413 70.859 19.4636C82.3846 37.2877 94.0797 55.0205 105.41 72.962C109.934 80.1256 113.78 87.7328 117.731 95.2487C119.921 99.398 119.66 99.4894 115.475 101.929C113.259 103.221 109.869 103.208 108.617 104.644C104.393 109.445 98.5387 111.716 93.7016 115.474C87.8475 120.014 81.7588 124.255 75.6701 128.483C72.1758 130.91 71.3805 130.662 68.4078 127.426C68.1732 127.674 67.9775 127.935 67.795 128.222H67.782Z"
    fill="#131313"
    />
    <path
    d="M23.2732 64.3239C24.5118 69.2954 27.9016 73.0664 30.6396 77.1636C35.8418 84.9534 41.383 92.5085 46.7677 100.168C47.4196 101.094 48.1888 101.773 49.2971 102.047C49.623 101.799 49.936 101.551 50.2358 101.277C48.9972 97.3102 45.9202 94.5309 43.6646 91.2297C37.2629 81.8871 30.7309 72.6357 24.251 63.3583C23.9251 63.6845 23.6121 64.0108 23.2861 64.337L23.2732 64.3239Z"
    fill="#131313"
    />
    <path
    d="M49.2816 102.034C50.5202 106.131 53.0105 109.393 56.0483 112.316C56.4525 111.938 56.8567 111.572 57.2739 111.194C54.8619 107.932 53.506 103.913 50.2334 101.264C49.9335 101.525 49.6206 101.786 49.2946 102.034H49.2816Z"
    fill="#131313"
    />
    <path
    d="M61.3816 120.093C61.9813 121.985 62.7897 123.694 65.0192 124.099C65.306 123.942 65.5668 123.746 65.8015 123.511C64.8497 121.906 64.3803 119.975 62.6723 118.866C62.2421 119.271 61.8119 119.688 61.3816 120.093Z"
    fill="#131313"
    />
    <path
    d="M56.0498 112.316C56.3497 114.012 57.3667 115.213 58.7227 116.191C59.1399 115.8 59.557 115.421 59.9873 115.03C59.0616 113.764 59.2311 111.742 57.2754 111.194C56.8712 111.572 56.467 111.937 56.0498 112.316Z"
    fill="#131313"
    />
    <path
    d="M58.7219 116.178C59.0869 117.835 60.0257 119.101 61.3816 120.093C61.8119 119.688 62.2421 119.271 62.6724 118.866C61.7206 117.627 61.7597 115.695 59.9865 115.017C59.5693 115.408 59.1521 115.787 58.7219 116.178Z"
    fill="#131313"
    />
    <path
    d="M65.0193 124.099C65.228 125.952 65.5409 127.739 67.7834 128.222C67.9659 127.935 68.1746 127.674 68.3962 127.426C67.4445 126.174 67.3402 124.36 65.7886 123.512C65.5539 123.747 65.2931 123.942 65.0063 124.099H65.0193Z"
    fill="#131313"
    />
    <path
    d="M20.8198 61.4535C21.1066 62.8627 21.8107 63.9066 23.271 64.3241C23.5969 63.9979 23.9098 63.6717 24.2358 63.3455C24.2879 61.8319 23.3231 60.9185 22.2801 60.0443C21.7977 60.514 21.3022 60.9837 20.8198 61.4535Z"
    fill="#131313"
    />
    <path
    d="M22.28 60.044C23.3231 60.9183 24.2879 61.8317 24.2358 63.3453C30.7157 72.6357 37.2477 81.887 43.6494 91.2166C45.918 94.5179 48.982 97.2972 50.2206 101.264C53.5062 103.913 54.849 107.932 57.2611 111.194C59.2038 111.729 59.0473 113.764 59.973 115.03C61.7462 115.695 61.694 117.64 62.6589 118.879C64.3668 119.975 64.8362 121.906 65.788 123.524C67.3526 124.373 67.4439 126.186 68.3956 127.439C71.3683 130.675 72.1506 130.923 75.6578 128.496C81.7466 124.281 87.8354 120.027 93.6894 115.487C98.5266 111.729 104.381 109.458 108.605 104.656C109.857 103.221 113.246 103.234 115.463 101.942C119.648 99.5023 119.896 99.411 117.719 95.2616C113.768 87.7457 109.922 80.1386 105.398 72.975C94.0675 55.0204 82.3724 37.3007 70.8468 19.4766C69.7386 17.7542 69.1649 15.4316 66.3356 16.0579C65.8923 17.4541 64.6407 17.7542 63.5064 18.3805C60.312 20.1421 56.896 21.7862 57.7565 26.5749C58.1086 28.5713 56.2311 29.55 54.81 30.4633C49.5687 33.7907 43.7015 35.6436 37.8214 37.4182C37.0261 37.653 36.0091 37.8096 35.2789 37.5225C27.9646 34.6519 22.7494 39.4407 17.2343 42.6375C15.6698 43.5509 13.4663 43.9032 12.684 46.2388C16.2564 50.3491 19.3204 55.177 22.2931 60.0701L22.28 60.044ZM55.1229 41.3065C57.8609 39.5189 60.312 36.9353 64.6537 37.9531C61.5376 39.532 58.93 40.8629 56.3093 42.1938C52.9585 45.4429 48.3692 46.4476 44.4969 48.7441C40.8071 51.6148 36.9478 54.0939 32.0325 54.0157C35.3181 50.9493 39.1122 48.9398 43.3756 47.8307C46.9611 45.0775 50.5074 42.233 55.1098 41.2935L55.1229 41.3065ZM69.4778 46.5259C70.912 45.0384 72.3853 43.6683 74.9147 44.3468C73.7412 46.1475 72.0593 46.5911 70.6512 47.4262C67.4308 50.3621 63.1283 51.4582 59.608 53.833C54.2885 57.4213 48.304 59.6395 42.7367 62.7059C41.8893 63.1756 41.3938 63.4758 40.6376 62.6015C39.0991 60.7878 41.1982 61.2575 41.7328 60.7747C46.2309 56.7037 52.0981 54.9813 57.1438 51.8366C60.9118 49.5009 64.758 46.8913 69.4648 46.539L69.4778 46.5259ZM86.6228 65.4983C80.4819 70.5741 73.324 73.6927 66.2443 76.9287C62.5546 78.6119 58.7996 80.1646 55.0576 81.7304C54.2102 82.0828 53.1672 81.9783 52.75 81.1824C52.3588 80.4256 52.7239 79.4861 53.5453 78.9772C54.2754 78.5205 55.0446 78.1421 55.8269 77.7768C64.2625 73.9536 72.6329 69.9608 81.225 66.516C82.6592 65.9419 84.3281 63.8933 86.6228 65.4983ZM45.4486 71.9833C51.1332 64.5718 58.8518 62.9408 65.4751 59.7831C69.4126 57.9041 73.5456 55.1118 79.4258 56.2078C73.2197 59.0393 67.9132 61.7142 62.4111 63.9064C56.9873 66.0724 52.6587 70.6132 45.4486 71.9833Z"
    fill="#FAF9F8"
    />
    <path
    d="M86.6106 65.4984C84.3289 63.8934 82.647 65.9551 81.2129 66.5162C72.6208 69.9609 64.2503 73.9537 55.8147 77.7769C55.0324 78.1292 54.2631 78.5207 53.533 78.9774C52.7116 79.4862 52.3466 80.4257 52.7377 81.1825C53.1549 81.9785 54.198 82.0829 55.0455 81.7306C58.7874 80.1648 62.5423 78.6251 66.2321 76.9288C73.3117 73.6928 80.4697 70.5612 86.6106 65.4984Z"
    fill="#131313"
    />
    <path
    d="M69.4645 46.5262C64.7577 46.8785 60.9115 49.4882 57.1435 51.8238C52.0847 54.9685 46.2176 56.6909 41.7325 60.762C41.1979 61.2448 39.0988 60.775 40.6373 62.5887C41.3935 63.476 41.889 63.1629 42.7364 62.6932C48.3037 59.6268 54.3012 57.4085 59.6077 53.8202C63.128 51.4454 67.4174 50.3363 70.6509 47.4135C70.2597 47.1134 69.8686 46.8132 69.4645 46.5262Z"
    fill="#131313"
    />
    <path
    d="M45.4352 71.9835C52.6452 70.6135 56.9738 66.0726 62.3976 63.9066C67.8997 61.7014 73.2062 59.0395 79.4124 56.208C73.5192 55.112 69.3991 57.9174 65.4616 59.7833C58.8383 62.941 51.1198 64.5721 45.4352 71.9835Z"
    fill="#131313"
    />
    <path
    d="M43.389 47.8438C39.1256 48.9529 35.3184 50.9624 32.0459 54.0287C36.9612 54.107 40.8074 51.6278 44.5103 48.7572C44.1452 48.4571 43.7671 48.1439 43.4021 47.8438H43.389Z"
    fill="#131313"
    />
    <path
    d="M44.4981 48.7573C48.3704 46.4608 52.9598 45.443 56.3105 42.207L55.1241 41.3067C50.5217 42.2462 46.9884 45.0907 43.3899 47.844C43.7549 48.1441 44.133 48.4572 44.4981 48.7573Z"
    fill="#131313"
    />
    <path
    d="M56.3089 42.2071C58.9165 40.8762 61.5372 39.5452 64.6533 37.9664C60.3116 36.9356 57.8605 39.5322 55.1225 41.3198L56.3089 42.2202V42.2071Z"
    fill="#131313"
    />
    <path
    d="M70.6511 47.4134C72.0592 46.5914 73.7411 46.1347 74.9146 44.334C72.3852 43.6686 70.8989 45.0256 69.4777 46.5131C69.8688 46.8132 70.26 47.1133 70.6641 47.4004L70.6511 47.4134Z"
    fill="#131313"
    />
</svg>