<svg
    width="151"
    height="156"
    viewBox="0 0 151 156"
    fill="none"
    xmlns="http://www.w3.org/2000/svg"
>
    <path
    d="M74.3806 155.328C72.0975 155.564 70.0758 154.666 69.1346 152.904C66.9648 148.857 63.0172 146.476 60.4377 142.805C57.1612 138.148 53.1351 134.005 49.9108 129.322C45.5014 122.929 40.6301 116.894 35.9854 110.693C31.2709 104.388 26.0772 98.4313 21.3976 92.0909C14.6876 83.0209 7.55056 74.2473 1.71197 64.5406C0.317677 62.2295 0.0649627 60.3108 1.86883 57.8601C3.79469 55.2438 6.0517 53.0547 8.41328 50.9529C19.5153 41.0892 31.2796 32.0977 44.2378 24.7806C50.242 21.388 56.0544 17.7774 61.588 13.6174C63.8973 11.8819 67.0258 10.1638 70.2936 12.3005C71.0082 12.7714 71.9145 13.2162 72.2892 13.9139C75.9492 20.7514 81.3347 26.3329 85.8051 32.5686C91.8354 40.9846 98.3886 49.0604 104.323 57.5287C110.885 66.904 117.517 76.2357 124.279 85.4715C128.636 91.4194 132.183 97.9952 137.803 103.001C140.034 104.99 139.407 107.501 137.002 110.013C129.995 117.313 121.482 122.694 113.464 128.694C105.621 134.563 97.4561 139.997 89.7265 146.006C86.145 148.788 82.729 151.753 78.8249 154.099C77.4307 154.936 76.0276 155.608 74.4068 155.328H74.3806ZM99.748 60.1887L99.8613 60.3021C99.5127 58.1828 97.9529 56.7874 96.7677 55.1827C93.3953 50.6215 89.9008 46.1563 86.633 41.5253C80.9861 33.5279 75.4787 25.4346 69.2828 17.8385C67.2785 15.3878 66.1718 15.1087 63.6882 16.6873C58.6862 19.8618 53.5883 22.9055 48.7954 26.3765C37.0485 34.8797 24.6916 42.537 13.3543 51.5896C10.801 53.6304 7.9427 55.3659 5.77284 57.9125C3.24569 60.869 3.24569 62.4562 5.93841 65.343C6.62684 66.0755 7.41113 66.7471 7.96885 67.5756C14.5046 77.1515 22.1122 85.8901 29.3538 94.9166C32.2992 98.5882 35.1488 102.338 37.9897 106.097C40.5604 109.498 42.9743 113.022 45.5973 116.371C48.2377 119.746 50.2768 123.505 53.0131 126.871C59.2264 134.511 64.9953 142.534 71.2871 150.131C72.8818 152.058 73.7184 152.372 75.8621 151.142C78.1017 149.86 80.3238 148.526 82.424 147.026C89.134 142.247 95.7743 137.363 102.467 132.557C110.92 126.487 119.416 120.479 127.86 114.4C129.725 113.057 131.581 111.661 133.246 110.083C135.947 107.527 135.878 106.167 133.612 103.263C129.568 98.0824 125.185 93.1724 121.307 87.8437C114.911 79.044 108.218 70.4623 101.665 61.776C101.142 61.0783 100.724 60.3021 99.7306 60.1887H99.748Z"
    fill="#131313"
    />
    <path
    d="M132.705 82.2796C129.62 77.7358 130.16 73.0612 131.38 68.5436C132.287 65.2034 132.182 61.7934 132.905 58.4357C134.308 51.9646 134.979 45.3278 135.981 38.7694C136.809 33.3099 138.012 27.9376 139.127 22.5654C140.26 17.1495 140.766 11.6813 141.637 6.25668C141.698 5.84679 141.986 5.4805 142.125 5.08804C143.336 1.54723 144.478 0.474515 146.604 0.875692C148.574 1.2507 150.142 3.70137 150.36 6.5096C150.569 9.24806 150.09 11.8906 149.515 14.5418C148.347 19.9054 147.406 25.33 145.968 30.6238C143.789 38.6299 142.613 46.8365 140.957 54.9385C139.973 59.7527 139.816 64.8371 138.944 69.7297C138.308 73.2705 138.709 77.2213 135.598 80.1429C134.753 80.9365 133.777 81.3464 132.714 82.2796H132.705ZM132.897 74.3781C132.897 75.7474 132.879 76.7677 132.897 77.7794C132.914 78.4597 132.731 79.3231 133.794 79.3754C134.474 79.4103 134.561 78.7824 134.849 78.294C136.783 74.9625 137.733 71.2123 137.942 67.5581C138.221 62.5522 138.901 57.6596 139.859 52.7844C141.166 46.1301 142.535 39.4845 143.903 32.839C145.131 26.8824 146.43 20.9345 147.624 14.9692C147.885 13.6697 147.955 12.3441 145.907 12.2918C144.251 12.2482 142.962 12.3267 143.415 14.507C143.737 16.0245 142.665 17.2541 142.535 18.6408C142.012 24.3968 140.461 29.9261 139.188 35.5338C137.916 41.1328 136.469 46.7231 135.624 52.3832C134.849 57.5549 134.744 62.84 133.716 67.9768C133.263 70.2268 132.714 72.4159 132.897 74.3694V74.3781ZM148.582 8.14047C148.6 6.09098 147.406 3.87579 146.134 3.59671C145.105 3.36996 143.545 5.72469 143.354 7.80034C143.127 10.2597 143.824 11.2975 145.785 11.3935C147.807 11.4981 148.565 10.6173 148.582 8.13175V8.14047Z"
    fill="#131313"
    />
    <path
    d="M99.7465 60.1975C100.731 60.3108 101.149 61.087 101.681 61.7847C108.234 70.4711 114.918 79.0527 121.323 87.8524C125.201 93.1811 129.584 98.0824 133.628 103.272C135.893 106.176 135.963 107.536 133.262 110.092C131.597 111.67 129.741 113.065 127.876 114.409C119.432 120.487 110.936 126.496 102.483 132.566C95.7902 137.372 89.1499 142.255 82.4398 147.035C80.3397 148.535 78.1175 149.869 75.878 151.151C73.7255 152.381 72.8977 152.067 71.3029 150.139C65.0112 142.543 59.2423 134.52 53.029 126.88C50.2927 123.514 48.2536 119.755 45.6131 116.38C42.9901 113.022 40.5676 109.507 38.0056 106.106C35.1647 102.347 32.3238 98.597 29.3697 94.9254C22.1281 85.8989 14.5205 77.1689 7.98474 67.5843C7.42702 66.7645 6.64274 66.093 5.95431 65.3517C3.26158 62.4737 3.26158 60.8864 5.78873 57.9212C7.9586 55.3746 10.8169 53.6478 13.3702 51.5983C24.7075 42.5457 37.0644 34.8885 48.8113 26.3853C53.6042 22.9142 58.702 19.8705 63.7041 16.696C66.1876 15.1175 67.2944 15.3965 69.2987 17.8472C75.5032 25.4347 81.002 33.5367 86.6488 41.534C89.9167 46.165 93.4112 50.6303 96.7836 55.1915C97.9688 56.7962 99.5286 58.1916 99.8772 60.3108C97.6115 60.8341 97.3065 58.6538 96.2607 57.5898C94.2216 55.5142 93.202 52.5751 90.7184 50.8483C90.0736 49.4965 89.3416 48.2145 88.0519 47.3511C87.6423 46.9586 87.4593 46.3133 86.7709 46.2435C85.394 42.8771 83.076 40.1648 80.6883 37.5048C79.8953 34.9931 77.9694 33.3012 76.305 31.4174C76.061 30.7023 75.3987 30.1703 74.902 30.711C74.17 31.5046 75.4248 31.557 75.7211 32.0017C77.1154 34.0251 78.5097 36.0397 79.9127 38.063C81.7427 41.1765 83.3723 44.4295 86.1783 46.8278C86.5704 47.3075 86.6924 48.0313 87.4157 48.2058C87.5203 49.95 88.9669 50.6739 90.0474 51.6768C90.1346 52.0954 90.0736 52.6623 90.335 52.9065C94.5615 57.0229 97.289 62.2469 100.731 66.9302C105.838 73.881 110.422 81.2069 115.485 88.1838C117.559 91.0357 119.188 94.2538 121.898 96.626C123.371 98.8848 124.852 101.152 126.473 103.647C123.528 106.211 120.582 108.731 117.681 111.313C114.918 113.781 111.563 115.56 109.228 118.534C107.694 118.516 107.014 119.685 106.23 120.705C102.544 123.077 99.1626 125.842 95.7727 128.607C93.8904 129.557 91.9384 130.395 90.5267 132.06C85.6641 134.712 81.0368 137.729 76.4531 140.816C75.5555 141.436 74.6492 142.055 73.7517 142.665C75.3202 142.927 76.3398 142.308 77.2984 141.549C80.148 139.883 83.198 138.593 85.8471 136.569C87.5813 135.244 89.8732 134.694 91.1106 132.688C93.263 132.156 94.8752 130.761 96.4437 129.313C98.936 128.432 100.722 126.47 102.701 124.9C104.086 123.793 106.291 123.496 106.796 121.359C108.182 121.307 109.106 120.522 109.829 119.423C113.951 117.069 117.28 113.65 121.149 110.946C123.502 109.298 125.767 107.545 127.65 105.338C128.199 104.693 129.149 103.891 128.312 103.149C125.959 101.056 125.428 97.533 122.508 95.9196C122.5 94.9864 121.959 94.2974 121.463 93.5823C118.142 88.8554 114.892 84.0762 111.79 79.201C108.984 74.7881 106.3 70.2966 102.997 66.1715C101.707 64.5581 98.8576 63.1714 99.7465 60.1626V60.1975ZM14.4072 59.4562C16.0891 59.273 17.2393 58.3834 17.8755 56.8223C19.1652 56.6217 20.3765 56.2903 20.5944 54.7292C20.6205 54.5548 20.2981 54.1624 20.1063 54.1449C18.7643 54.0054 18.2066 55.0606 17.5269 55.9241C17.4398 56.0374 17.3701 56.1595 17.2916 56.2729C15.7318 56.5956 14.8255 57.7991 13.7972 58.8457C13.3266 59.2381 12.612 59.3689 12.4378 60.0928C10.4422 60.1102 10.0587 61.837 9.26575 63.1103C8.8736 63.747 9.31803 64.1743 9.83218 64.4621C10.2766 64.715 10.8605 64.4011 10.8692 64.0958C10.904 62.3778 12.7776 62.0376 13.283 60.712C13.6665 60.2934 14.32 60.1277 14.3985 59.4474L14.4072 59.4562ZM25.1519 50.0547C23.6879 50.6216 22.4941 51.5809 21.4135 52.6972C21.0911 53.0286 21.0126 53.4036 21.3002 53.8048C21.6226 54.2409 22.0584 54.1275 22.4331 53.9356C23.8535 53.203 24.9602 52.139 25.7358 50.7349C27.8621 50.5692 28.8119 49.0605 29.544 47.229C28.1148 48.2668 26.2238 48.4849 25.1519 50.0547ZM43.4694 36.1356C41.0643 37.9583 38.6678 39.7724 36.2627 41.5951C39.7658 41.3509 42.0664 39.3101 44.0359 36.7723C45.7874 36.4321 46.8332 35.1501 47.9312 33.9204C49.5607 32.8128 51.1816 31.6791 52.8286 30.5976C57.4995 27.5278 61.9873 24.1875 67.0591 21.763C67.5645 21.5188 68.4098 21.1351 67.8782 20.2019C67.4774 19.5042 66.8761 19.2949 66.0744 19.3211C65.4382 19.3473 65.0461 19.6525 64.5755 19.9926C62.7891 21.2921 60.8545 22.4258 59.1465 23.8212C55.2773 26.9958 50.4409 28.9406 47.3212 33.0745C45.6829 33.6501 44.5413 34.8449 43.4607 36.1269L43.4694 36.1356ZM56.7239 124.229C55.1205 122.354 53.517 120.487 51.9136 118.612C47.722 112.002 46.807 110.981 43.8267 110.004C46.3626 113.423 48.1664 116.816 51.2862 119.188C52.5672 121.351 53.9527 123.435 56.0093 124.97C57.848 128.267 60.0789 131.249 62.9546 133.717C64.5581 136.709 66.9371 139.107 69.0459 141.715C69.4904 142.273 69.8738 143.18 71.2507 142.7C68.9675 139.107 66.2399 136.124 63.6866 133.002C61.3686 130.081 59.0419 127.15 56.7239 124.229ZM35.3215 65.1773C35.6004 62.6656 33.57 61.1306 32.6375 59.1073C31.7661 57.2322 30.1714 57.2061 28.6377 57.8951C27.6442 58.3486 26.6682 58.959 25.7271 59.6044C20.3416 63.2935 19.7316 63.5377 24.2021 69.5292C26.1628 72.163 28.1584 72.4072 30.9121 70.6019C32.106 69.817 33.0994 68.7442 34.2497 67.8808C35.1734 67.1831 35.3825 66.2674 35.3215 65.1773ZM75.9825 83.1691C75.756 81.4423 74.2745 80.483 73.6297 79.0178C72.8279 77.2038 71.3291 76.8201 69.3684 76.7503C66.7192 76.6457 65.5341 78.5033 64.0265 79.9685C60.5408 83.3523 60.5495 84.0587 63.9132 87.6257C64.7149 88.4716 65.5515 89.2827 66.3794 90.0938C66.9196 90.6258 67.4599 90.9049 68.2791 90.4688C71.2855 88.8641 73.4031 86.2913 75.6601 83.8668C75.8344 83.675 75.8867 83.3785 75.9825 83.1691ZM84.5748 76.8637C86.492 76.9509 87.407 76.8288 88.9582 75.4247C93.2456 71.5525 94.483 72.4246 90.1433 66.5727C88.2349 63.9999 85.5508 63.7819 83.2328 65.9273C81.856 67.2006 80.636 68.657 78.9628 69.5815C78.2483 69.9739 77.9433 70.5583 78.0914 71.3693C78.4661 73.4275 82.405 76.7591 84.5748 76.8637ZM65.5166 33.1966C64.4709 33.2838 63.5298 33.1355 62.7716 34.1472C61.5516 35.7606 59.6868 36.6589 58.0485 37.8101C56.567 38.8508 56.3027 40.1357 57.2555 41.6649C59.4689 45.2115 62.4143 45.947 66.0918 43.8713C70.9979 41.1067 71.4337 38.8915 68.0002 34.4524C67.3292 33.5803 66.5711 33.0657 65.5166 33.1966ZM47.3822 81.765C46.7024 80.5092 46.014 78.9132 45.0467 77.5265C42.354 73.6892 41.866 73.6543 38.1624 76.5149C36.5067 77.7882 34.1625 78.5992 33.5787 80.6836C32.8031 83.4308 36.2278 84.1895 36.9337 86.3262C37.2213 87.2071 38.0317 87.1547 38.5371 87.5995C39.1471 88.1315 39.7484 88.2623 40.4717 87.7565C42.3627 86.4309 44.2886 85.1576 46.1621 83.8058C46.7286 83.3959 47.3037 82.8988 47.3734 81.765H47.3822ZM72.0437 63.9127C73.5425 62.8225 74.7015 62.0115 75.817 61.1568C77.0718 60.1974 78.3354 59.2556 79.5118 58.209C80.5314 57.2933 80.9846 56.3427 80.148 54.8339C77.3507 49.8366 77.5075 47.7959 71.2681 52.4704C66.7366 55.863 66.5624 57.0665 70.1614 61.5667C70.7888 62.3516 71.4249 63.1452 72.0437 63.9127ZM51.0247 52.7146C51.4866 50.8309 49.7437 49.5052 49.1076 47.7872C48.4889 46.1301 47.1382 45.7551 45.587 46.7668C43.8964 47.8656 42.171 48.9296 40.5588 50.1332C38.1537 51.9385 38.145 52.3484 39.4347 55.2002C42.354 61.6713 44.7156 60.2759 48.5063 57.0142C49.6653 56.02 51.321 54.9822 51.0247 52.7146ZM46.4672 96.1027C46.9987 98.5795 49.2122 100.376 50.589 102.652C50.9637 103.272 51.5999 102.469 52.0617 102.46C54.615 102.426 55.4255 99.8616 57.3078 98.9982C59.1465 98.1609 59.0506 96.8876 58.5016 95.5097C57.9265 94.062 57.0028 92.7538 56.3753 91.3235C55.5823 89.5444 53.9876 89.588 52.7066 90.0066C50.4235 90.7741 49.3167 93.4427 46.8244 94.1056C46.5979 94.1666 46.624 95.1608 46.4672 96.094V96.1027ZM63.2683 67.9942C62.9459 67.218 62.6671 66.5639 62.3969 65.9099C60.9329 62.3429 58.8153 61.9068 55.835 64.4621C54.3275 65.7529 53.1336 67.3837 51.26 68.3169C49.9093 68.9884 49.6217 70.2617 50.589 71.6048C51.1642 72.4159 51.6783 73.2706 52.3057 74.038C53.5606 75.573 54.8765 76.0177 56.8459 74.8927C58.6236 73.8723 60.0789 72.5554 61.5603 71.2298C62.5364 70.3664 62.8239 69.0495 63.2683 67.9942ZM13.6839 70.0001C18.0149 78.5992 24.9515 85.0529 30.3718 92.6317C32.5417 95.6579 35.0601 98.5011 37.2997 101.553C38.9293 103.769 40.1144 106.603 42.9291 108.007C43.2516 106.978 43.0599 106.289 42.6329 105.687C34.1103 93.9137 25.0038 82.5848 16.0542 71.1426C15.5836 70.5408 15.113 69.6076 13.6839 70.0001Z"
    fill="#FAF9F8"
    />
    <path
    d="M80.8012 50.9773C76.7676 49.2531 74.8532 52.9734 72.8302 54.3046C60.7375 62.408 49.1645 71.2821 37.436 79.9165C36.3476 80.7138 35.292 81.567 34.3179 82.5078C33.2205 83.5587 32.9656 85.1231 33.8143 86.1596C34.7159 87.2478 36.3545 87.068 37.5431 86.2494C42.7882 82.6194 48.0618 79.0254 53.184 75.2117C63.0184 67.9231 73.0072 60.7696 80.8012 50.9773Z"
    fill="#131313"
    />
    <path
    d="M104.478 79.5958C100.444 77.8716 98.53 81.592 96.507 82.9232C84.4142 91.0266 72.8413 99.9006 61.1127 108.535C60.0243 109.332 58.9688 110.186 57.9947 111.126C56.8972 112.177 56.6423 113.742 57.491 114.778C58.3926 115.866 60.0312 115.686 61.2199 114.868C66.465 111.238 71.7385 107.644 76.8608 103.83C86.6951 96.5417 96.6839 89.3881 104.478 79.5958Z"
    fill="#131313"
    />
    <path
    d="M132.906 74.3781C132.714 72.4246 133.272 70.2355 133.725 67.9855C134.753 62.8399 134.858 57.5549 135.634 52.3919C136.479 46.7318 137.925 41.1415 139.198 35.5425C140.47 29.9348 142.021 24.4055 142.544 18.6495C142.675 17.2541 143.747 16.0332 143.424 14.5157C142.971 12.3354 144.261 12.2569 145.916 12.3005C147.964 12.3528 147.895 13.6697 147.633 14.9779C146.439 20.9432 145.141 26.8911 143.912 32.8477C142.544 39.4932 141.176 46.1301 139.869 52.7931C138.91 57.677 138.239 62.5696 137.952 67.5668C137.742 71.221 136.801 74.9799 134.858 78.3027C134.57 78.7998 134.483 79.419 133.804 79.3841C132.74 79.3318 132.923 78.4684 132.906 77.7881C132.88 76.7765 132.906 75.7561 132.906 74.3868V74.3781Z"
    fill="#FAF9F8"
    />
    <path
    d="M148.591 8.1405C148.565 10.626 147.816 11.4982 145.794 11.4022C143.842 11.3063 143.145 10.2685 143.363 7.80909C143.554 5.73344 145.105 3.37871 146.142 3.60546C147.423 3.88454 148.617 6.09973 148.591 8.14922V8.1405Z"
    fill="#FAF9F8"
    />
    <path
    d="M35.3223 65.1773C35.3745 66.2675 35.1741 67.1832 34.2504 67.8809C33.1001 68.7443 32.1067 69.817 30.9128 70.6019C28.1591 72.4072 26.1635 72.163 24.2028 69.5292C19.7323 63.5377 20.3336 63.3022 25.7278 59.6044C26.6689 58.9591 27.6449 58.3486 28.6384 57.8951C30.1721 57.1974 31.7668 57.2323 32.6382 59.1073C33.5707 61.1219 35.6098 62.6569 35.3223 65.1773Z"
    fill="#BF8BD5"
    />
    <path
    d="M75.9837 83.1691C75.8966 83.3697 75.8356 83.675 75.6613 83.8668C73.4043 86.2913 71.2867 88.8641 68.2803 90.4688C67.4524 90.9049 66.9208 90.6258 66.3805 90.0938C65.5527 89.2827 64.7161 88.4716 63.9144 87.6257C60.5507 84.0587 60.542 83.3436 64.0277 79.9685C65.5353 78.5033 66.7204 76.6457 69.3696 76.7503C71.3216 76.8288 72.8291 77.2038 73.6309 79.0178C74.2757 80.483 75.7571 81.4423 75.9837 83.1691Z"
    fill="#BF8BD5"
    />
    <path
    d="M84.5766 76.8725C82.398 76.7765 78.4592 73.4363 78.0932 71.3781C77.945 70.567 78.25 69.9827 78.9646 69.5902C80.6377 68.6658 81.8577 67.2094 83.2346 65.9361C85.5526 63.7906 88.2366 64.0087 90.1451 66.5814C94.4848 72.4334 93.2474 71.5612 88.9599 75.4335C87.4088 76.8376 86.485 76.9597 84.5766 76.8725Z"
    fill="#BF8BD5"
    />
    <path
    d="M65.5173 33.2052C66.5631 33.0744 67.3212 33.5889 68.0009 34.4611C71.4344 38.9002 70.9986 41.1153 66.0925 43.88C62.415 45.9498 59.4696 45.2143 57.2562 41.6735C56.2976 40.1444 56.5619 38.8595 58.0492 37.8187C59.6875 36.6762 61.5523 35.778 62.7723 34.1558C63.5392 33.1441 64.4803 33.2924 65.5173 33.2052Z"
    fill="#BF8BD5"
    />
    <path
    d="M51.0348 52.7235C51.3398 54.991 49.6753 56.0288 48.5163 57.023C44.7343 60.2848 42.3727 61.6802 39.4447 55.209C38.155 52.3485 38.1637 51.9473 40.5689 50.142C42.181 48.9385 43.9064 47.8745 45.597 46.7756C47.1482 45.7639 48.4989 46.1302 49.1176 47.796C49.7538 49.5141 51.4966 50.8397 51.0348 52.7235Z"
    fill="#BF8BD5"
    />
    <path
    d="M46.4675 96.1114C46.6244 95.1782 46.5982 94.184 46.8248 94.1229C49.3171 93.4601 50.4238 90.7914 52.707 90.024C53.9793 89.5966 55.5827 89.5617 56.3757 91.3409C57.0118 92.7711 57.9269 94.0793 58.502 95.527C59.051 96.905 59.1469 98.1783 57.3081 99.0155C55.4171 99.8789 54.6067 102.443 52.0621 102.478C51.6003 102.478 50.9554 103.28 50.5894 102.67C49.2212 100.393 46.9991 98.5969 46.4675 96.1201V96.1114Z"
    fill="#BF8BD5"
    />
    <path
    d="M121.882 96.6434C119.172 94.2625 117.534 91.0531 115.468 88.2013C110.405 81.2243 105.822 73.8985 100.715 66.9476C97.2728 62.2643 94.5366 57.0316 90.3188 52.9239C90.0661 52.6797 90.1184 52.1128 90.0312 51.6942C90.2578 51.4152 90.4757 51.1361 90.7023 50.857C93.1858 52.5838 94.2054 55.5228 96.2446 57.5985C97.2903 58.6625 97.5953 60.8428 99.861 60.3195L99.7477 60.2061C98.8501 63.2237 101.7 64.6016 102.998 66.2151C106.31 70.3402 108.985 74.8316 111.791 79.2446C114.902 84.1197 118.144 88.899 121.464 93.6259C121.96 94.3323 122.501 95.03 122.51 95.9631C122.3 96.1899 122.091 96.4254 121.882 96.6521V96.6434Z"
    fill="#131313"
    />
    <path
    d="M13.6848 70.0089C15.1052 69.6078 15.5845 70.5496 16.0551 71.1514C25.0047 82.5937 34.1112 93.9225 42.6338 105.696C43.0695 106.289 43.2525 106.978 42.9301 108.016C40.124 106.612 38.9302 103.778 37.3006 101.562C35.061 98.5099 32.5339 95.6668 30.3727 92.6405C24.9437 85.0618 18.0158 78.6081 13.6848 70.0089Z"
    fill="#131313"
    />
    <path
    d="M122.509 95.9457C125.419 97.5504 125.959 101.074 128.312 103.176C129.149 103.917 128.208 104.719 127.65 105.365C125.768 107.562 123.511 109.324 121.149 110.972C117.28 113.676 113.951 117.086 109.829 119.449C109.62 119.153 109.42 118.856 109.21 118.551C111.537 115.577 114.892 113.798 117.663 111.33C120.556 108.748 123.511 106.228 126.456 103.664C124.827 101.17 123.354 98.911 121.881 96.6434C122.09 96.4167 122.299 96.1812 122.509 95.9545V95.9457Z"
    fill="#131313"
    />
    <path
    d="M47.3398 33.0744C50.4509 28.9318 55.2873 26.9957 59.1652 23.8212C60.8732 22.4258 62.799 21.2921 64.5942 19.9926C65.0648 19.6525 65.4569 19.3385 66.093 19.3211C66.8948 19.2949 67.4961 19.4955 67.8969 20.2019C68.4285 21.1351 67.5745 21.5188 67.0778 21.763C62.006 24.1875 57.5094 27.5277 52.8473 30.5976C51.2003 31.679 49.5794 32.8128 47.9498 33.9204C47.7494 33.6413 47.549 33.3622 47.3486 33.0831L47.3398 33.0744Z"
    fill="#131313"
    />
    <path
    d="M76.4546 140.843C81.0383 137.755 85.6656 134.738 90.5282 132.086C90.6938 132.322 90.8942 132.531 91.1121 132.723C89.8746 134.729 87.5741 135.278 85.8486 136.604C83.1995 138.627 80.1495 139.918 77.2999 141.584C77.021 141.34 76.7422 141.095 76.4546 140.851V140.843Z"
    fill="#131313"
    />
    <path
    d="M51.3049 119.188C48.1852 116.816 46.3813 113.423 43.8455 110.004C46.8258 110.99 47.732 112.001 51.9323 118.612C51.7145 118.795 51.5141 118.987 51.3136 119.188H51.3049Z"
    fill="#131313"
    />
    <path
    d="M106.806 121.377C106.301 123.514 104.096 123.819 102.711 124.918C100.732 126.496 98.9459 128.45 96.4536 129.331C96.2271 129.095 96.0005 128.86 95.7739 128.624C99.1551 125.86 102.545 123.095 106.231 120.723C106.423 120.941 106.623 121.159 106.815 121.377H106.806Z"
    fill="#131313"
    />
    <path
    d="M63.6964 133.002C66.2496 136.116 68.9859 139.098 71.2604 142.7C69.8835 143.171 69.5001 142.264 69.0557 141.715C66.9555 139.107 64.5678 136.709 62.9644 133.717C63.2084 133.482 63.4436 133.247 63.6876 133.011L63.6964 133.002Z"
    fill="#131313"
    />
    <path
    d="M56.7342 124.229C59.0522 127.15 61.3789 130.081 63.6969 133.002C63.4529 133.238 63.2176 133.473 62.9736 133.709C60.0892 131.24 57.8583 128.258 56.0283 124.961C56.2636 124.717 56.4989 124.473 56.7342 124.229Z"
    fill="#131313"
    />
    <path
    d="M80.6716 37.5049C83.0593 40.1649 85.3773 42.8772 86.7542 46.2435C86.5363 46.418 86.3359 46.6098 86.1616 46.8279C83.3469 44.4208 81.7173 41.1678 79.896 38.063C80.1574 37.8799 80.4189 37.688 80.6716 37.5049Z"
    fill="#131313"
    />
    <path
    d="M44.0456 36.7723C42.0762 39.3102 39.7756 41.3422 36.2725 41.5952C38.6776 39.7724 41.0741 37.9584 43.4792 36.1357C43.6361 36.3799 43.8278 36.5892 44.0456 36.7723Z"
    fill="#131313"
    />
    <path
    d="M76.288 31.4174C77.9524 33.3011 79.8783 34.9931 80.6713 37.5048C80.4098 37.6879 80.1484 37.8798 79.8957 38.0629C78.5014 36.0396 77.1071 34.025 75.7041 32.0017C75.922 31.8273 76.1137 31.6354 76.288 31.4174Z"
    fill="#131313"
    />
    <path
    d="M51.9232 118.612C53.5266 120.487 55.13 122.354 56.7335 124.229C56.4982 124.473 56.2629 124.717 56.0276 124.961C53.971 123.426 52.5854 121.351 51.3044 119.179C51.5049 118.978 51.714 118.787 51.9232 118.603V118.612Z"
    fill="#131313"
    />
    <path
    d="M25.7461 50.7348C24.9705 52.1389 23.8638 53.2029 22.4434 53.9355C22.0774 54.1274 21.6329 54.2408 21.3105 53.8047C21.0229 53.4122 21.1014 53.0372 21.4238 52.6971C22.5044 51.5808 23.6895 50.6214 25.1622 50.0546C25.354 50.2813 25.5544 50.5081 25.7461 50.7348Z"
    fill="#131313"
    />
    <path
    d="M90.5278 132.078C91.9396 130.412 93.8916 129.575 95.7739 128.624C96.0004 128.86 96.227 129.095 96.4536 129.331C94.885 130.787 93.2728 132.174 91.1204 132.706C90.8938 132.523 90.7021 132.313 90.5366 132.069L90.5278 132.078Z"
    fill="#131313"
    />
    <path
    d="M13.3009 60.7209C12.7954 62.0465 10.9219 62.3866 10.887 64.1047C10.887 64.41 10.2944 64.7239 9.85001 64.471C9.33586 64.1832 8.89143 63.7559 9.28358 63.1192C10.0766 61.8459 10.46 60.1191 12.4556 60.1017L13.3009 60.7296V60.7209Z"
    fill="#131313"
    />
    <path
    d="M47.9407 33.9116C46.8514 35.1413 45.797 36.4321 44.0454 36.7635C43.8189 36.5803 43.6359 36.371 43.479 36.1268C44.5596 34.8448 45.7012 33.65 47.3394 33.0744C47.5399 33.3535 47.7403 33.6326 47.9407 33.9116Z"
    fill="#131313"
    />
    <path
    d="M25.1621 50.0547C26.234 48.4761 28.125 48.2668 29.5541 47.229C28.8308 49.0605 27.881 50.5692 25.746 50.7349C25.5543 50.5082 25.3538 50.2814 25.1621 50.0547Z"
    fill="#131313"
    />
    <path
    d="M88.0351 47.3512C89.3248 48.2059 90.0568 49.4966 90.7017 50.8484C90.4751 51.1275 90.2572 51.4066 90.0307 51.6856C88.9501 50.6827 87.5122 49.9501 87.3989 48.2146C87.6081 47.9268 87.8259 47.639 88.0351 47.3512Z"
    fill="#131313"
    />
    <path
    d="M17.8853 56.8224C17.2491 58.3835 16.0988 59.2731 14.417 59.4562C14.2427 59.2295 14.0422 59.0289 13.8157 58.8544C14.844 57.8079 15.7503 56.6044 17.3101 56.2817C17.4931 56.4735 17.6848 56.6567 17.8853 56.8224Z"
    fill="#131313"
    />
    <path
    d="M109.839 119.441C109.116 120.539 108.192 121.324 106.807 121.377C106.615 121.159 106.414 120.941 106.223 120.723C107.007 119.702 107.678 118.534 109.22 118.551C109.43 118.847 109.63 119.144 109.839 119.449V119.441Z"
    fill="#131313"
    />
    <path
    d="M17.3103 56.2729C17.3887 56.1595 17.4584 56.0287 17.5456 55.924C18.2253 55.0606 18.783 54.0054 20.125 54.1449C20.3167 54.1623 20.6392 54.5548 20.613 54.7292C20.3865 56.2816 19.1839 56.6217 17.8942 56.8223C17.6937 56.6479 17.502 56.4735 17.319 56.2816L17.3103 56.2729Z"
    fill="#131313"
    />
    <path
    d="M12.4475 60.1016C12.6218 59.3777 13.3364 59.2469 13.8069 58.8544C14.0248 59.0376 14.2252 59.2382 14.4082 59.4562C14.3385 60.1452 13.6762 60.3109 13.2928 60.7208L12.4475 60.0928V60.1016Z"
    fill="#131313"
    />
    <path
    d="M75.7048 32.0018C75.4085 31.557 74.1537 31.5046 74.8857 30.711C75.3824 30.1703 76.0447 30.7023 76.2887 31.4174C76.1144 31.6355 75.9227 31.8273 75.7048 32.0018Z"
    fill="#131313"
    />
    <path
    d="M87.3991 48.2057C86.6758 48.0225 86.5538 47.2987 86.1616 46.8277C86.3359 46.6097 86.5363 46.4178 86.7542 46.2434C87.4339 46.3132 87.6256 46.9585 88.0352 47.351C87.8261 47.6388 87.6082 47.9266 87.3991 48.2144V48.2057Z"
    fill="#131313"
    />
</svg>