<svg
    fill="none"
    height="19"
    viewBox="0 0 19 19"
    width="19"
    xmlns="http://www.w3.org/2000/svg"
    >
    <path
        d="M4 7.16333L2.28246 8.30835C1.81358 8.62094 1.57914 8.77724 1.40942 8.98373C1.25917 9.16654 1.14643 9.37719 1.07767 9.60361C1 9.85937 1 10.1411 1 10.7047V14.2833C1 15.2914 1 15.7955 1.19619 16.1805C1.36876 16.5192 1.64413 16.7946 1.98282 16.9671C2.36786 17.1633 2.87191 17.1633 3.88 17.1633H15.12C16.1281 17.1633 16.6321 17.1633 17.0172 16.9671C17.3559 16.7946 17.6312 16.5192 17.8038 16.1805C18 15.7955 18 15.2914 18 14.2833V10.7047C18 10.1411 18 9.85937 17.9223 9.60361C17.8536 9.37719 17.7408 9.16654 17.5906 8.98373C17.4209 8.77724 17.1864 8.62094 16.7175 8.30835L15 7.16333"
        stroke="#744884"
        strokeWidth="2"
    />
    <path
        d="M18 11.1633H15.4415C14.7458 11.1633 14.3979 11.1633 14.136 11.3521C13.8742 11.5408 13.7642 11.8709 13.5442 12.5309L13.4558 12.7958C13.2358 13.4558 13.1258 13.7858 12.864 13.9746C12.6021 14.1633 12.2542 14.1633 11.5585 14.1633H7.44152C6.7458 14.1633 6.39794 14.1633 6.13605 13.9746C5.87416 13.7858 5.76416 13.4558 5.54415 12.7958L5.45585 12.5309C5.23584 11.8709 5.12584 11.5408 4.86395 11.3521C4.60206 11.1633 4.2542 11.1633 3.55848 11.1633H1"
        stroke="#744884"
        strokeWidth="2"
    />
    <path
        d="M7 4.16333L9.5 1.66333M9.5 1.66333L12 4.16333M9.5 1.66333L9.5 8.66333"
        stroke="#744884"
        strokeWidth="2"
    />
</svg>