<svg width="21" height="20" viewBox="0 0 21 20" fill="none" xmlns="http://www.w3.org/2000/svg">
<path d="M14.4063 0H6.02631C2.38631 0 0.216309 2.17 0.216309 5.81V14.18C0.216309 17.83 2.38631 20 6.02631 20H14.3963C18.0363 20 20.2063 17.83 20.2063 14.19V5.81C20.2163 2.17 18.0463 0 14.4063 0ZM9.16631 15.51C8.87631 15.8 8.32631 16.08 7.92631 16.14L5.46631 16.49C5.37631 16.5 5.28631 16.51 5.19631 16.51C4.78631 16.51 4.40631 16.37 4.13631 16.1C3.80631 15.77 3.66631 15.29 3.74631 14.76L4.09631 12.3C4.15631 11.89 4.42631 11.35 4.72631 11.06L9.18631 6.6C9.26631 6.81 9.34631 7.02 9.45631 7.26C9.55631 7.47 9.66631 7.69 9.78631 7.89C9.88631 8.06 9.99631 8.22 10.0863 8.34C10.1963 8.51 10.3263 8.67 10.4063 8.76C10.4563 8.83 10.4963 8.88 10.5163 8.9C10.7663 9.2 11.0563 9.48 11.3063 9.69C11.3763 9.76 11.4163 9.8 11.4363 9.81C11.5863 9.93 11.7363 10.05 11.8663 10.14C12.0263 10.26 12.1863 10.37 12.3563 10.46C12.5563 10.58 12.7763 10.69 12.9963 10.8C13.2263 10.9 13.4363 10.99 13.6463 11.06L9.16631 15.51ZM15.5863 9.09L14.6663 10.02C14.6063 10.08 14.5263 10.11 14.4463 10.11C14.4163 10.11 14.3763 10.11 14.3563 10.1C12.3263 9.52 10.7063 7.9 10.1263 5.87C10.0963 5.76 10.1263 5.64 10.2063 5.57L11.1363 4.64C12.6563 3.12 14.1063 3.15 15.5963 4.64C16.3563 5.4 16.7263 6.13 16.7263 6.89C16.7163 7.61 16.3463 8.33 15.5863 9.09Z" fill="#BF8BD5"/>
</svg>
