<svg width="21" height="20" viewBox="0 0 21 20" fill="none" xmlns="http://www.w3.org/2000/svg">
<path d="M16.4865 7.53V6.28C16.4865 3.58 15.8365 0 10.2065 0C4.57654 0 3.92654 3.58 3.92654 6.28V7.53C1.12654 7.88 0.206543 9.3 0.206543 12.79V14.65C0.206543 18.75 1.45654 20 5.55654 20H14.8565C18.9565 20 20.2065 18.75 20.2065 14.65V12.79C20.2065 9.3 19.2865 7.88 16.4865 7.53ZM10.2065 16.74C8.53654 16.74 7.18654 15.38 7.18654 13.72C7.18654 12.05 8.54654 10.7 10.2065 10.7C11.8665 10.7 13.2265 12.06 13.2265 13.72C13.2265 15.39 11.8765 16.74 10.2065 16.74ZM5.55654 7.44C5.47654 7.44 5.40654 7.44 5.32654 7.44V6.28C5.32654 3.35 6.15654 1.4 10.2065 1.4C14.2565 1.4 15.0865 3.35 15.0865 6.28V7.45C15.0065 7.45 14.9365 7.45 14.8565 7.45H5.55654V7.44Z" fill="#BF8BD5"/>
</svg>
