<svg width="21" height="18" viewBox="0 0 21 18" fill="none" xmlns="http://www.w3.org/2000/svg">
<path d="M16.2065 0H4.20654C1.99654 0 0.206543 1.78 0.206543 3.97V14.03C0.206543 16.22 1.99654 18 4.20654 18H16.2065C18.4165 18 20.2065 16.22 20.2065 14.03V3.97C20.2065 1.78 18.4165 0 16.2065 0ZM6.70654 4.17C7.97654 4.17 9.01654 5.21 9.01654 6.48C9.01654 7.75 7.97654 8.79 6.70654 8.79C5.43654 8.79 4.39654 7.75 4.39654 6.48C4.39654 5.21 5.43654 4.17 6.70654 4.17ZM10.5765 13.66C10.4865 13.76 10.3465 13.82 10.2065 13.82H3.20654C3.06654 13.82 2.92654 13.76 2.83654 13.66C2.74654 13.56 2.69654 13.42 2.70654 13.28C2.87654 11.6 4.21654 10.27 5.89654 10.11C6.42654 10.06 6.97654 10.06 7.50654 10.11C9.18654 10.27 10.5365 11.6 10.6965 13.28C10.7165 13.42 10.6665 13.56 10.5765 13.66ZM17.2065 13.75H15.2065C14.7965 13.75 14.4565 13.41 14.4565 13C14.4565 12.59 14.7965 12.25 15.2065 12.25H17.2065C17.6165 12.25 17.9565 12.59 17.9565 13C17.9565 13.41 17.6165 13.75 17.2065 13.75ZM17.2065 9.75H13.2065C12.7965 9.75 12.4565 9.41 12.4565 9C12.4565 8.59 12.7965 8.25 13.2065 8.25H17.2065C17.6165 8.25 17.9565 8.59 17.9565 9C17.9565 9.41 17.6165 9.75 17.2065 9.75ZM17.2065 5.75H12.2065C11.7965 5.75 11.4565 5.41 11.4565 5C11.4565 4.59 11.7965 4.25 12.2065 4.25H17.2065C17.6165 4.25 17.9565 4.59 17.9565 5C17.9565 5.41 17.6165 5.75 17.2065 5.75Z" fill="#BF8BD5"/>
</svg>
