<svg width="21" height="20" viewBox="0 0 21 20" fill="none" xmlns="http://www.w3.org/2000/svg">
<path d="M14.4063 0H6.02631C2.38631 0 0.216309 2.17 0.216309 5.81V14.18C0.216309 17.83 2.38631 20 6.02631 20H14.3963C18.0363 20 20.2063 17.83 20.2063 14.19V5.81C20.2163 2.17 18.0463 0 14.4063 0ZM14.6263 7.83C14.0163 9.57 12.3763 10.74 10.5363 10.74C10.5263 10.74 10.5263 10.74 10.5163 10.74L8.45631 10.73C8.45631 10.73 8.45631 10.73 8.44631 10.73C7.68631 10.73 7.02631 11.24 6.82631 11.97C7.71631 12.25 8.36631 13.08 8.36631 14.06C8.36631 15.27 7.37631 16.26 6.16631 16.26C4.95631 16.26 3.96631 15.27 3.96631 14.06C3.96631 13.17 4.50631 12.4 5.26631 12.06V7.7C4.50631 7.4 3.96631 6.66 3.96631 5.8C3.96631 4.67 4.88631 3.75 6.01631 3.75C7.14631 3.75 8.06631 4.67 8.06631 5.8C8.06631 6.67 7.52631 7.4 6.76631 7.7V9.72C7.25631 9.41 7.83631 9.23 8.44631 9.23H8.45631L10.5163 9.24C11.6963 9.28 12.7463 8.52 13.1663 7.42C12.6763 7.04 12.3563 6.46 12.3563 5.8C12.3563 4.67 13.2763 3.75 14.4063 3.75C15.5363 3.75 16.4563 4.67 16.4563 5.8C16.4663 6.86 15.6563 7.72 14.6263 7.83Z" fill="#BF8BD5"/>
</svg>
